<svg width="536" height="500" viewBox="0 0 536 500" fill="none" xmlns="http://www.w3.org/2000/svg">
<g filter="url(#filter0_d_2563_4761)">
<rect width="1925.41" height="60.4146" transform="translate(4.90918 489.979) rotate(-37.1131)" fill="black"/>
<path d="M31.9571 502.928L33.2408 501.957C33.7367 501.581 33.9985 501.2 34.0262 500.812C34.0246 500.446 33.8102 499.92 33.3687 499.337C32.9272 498.753 32.5014 498.433 32.1498 498.332C31.7689 498.253 31.3305 498.401 30.8346 498.777L29.5509 499.748L31.9571 502.928ZM43.7779 514.124L37.3302 519.003C36.6884 519.489 36.1759 519.418 35.6902 518.776L21.4738 499.987C21.0102 499.374 21.0591 498.833 21.7009 498.347L27.5067 493.954C29.724 492.276 31.5935 491.412 33.1736 491.318C34.7538 491.223 36.3164 492.197 37.8176 494.181C39.4953 496.398 39.8113 498.453 38.7657 500.345C39.8838 500.004 41.0255 500.058 42.2129 500.536C43.4003 501.014 44.4796 501.894 45.4068 503.12C48.5415 507.263 47.979 510.945 43.7779 514.124ZM38.1161 511.068L39.779 509.81C40.3334 509.39 40.6243 508.986 40.637 508.518C40.6204 508.072 40.3839 507.517 39.8541 506.816C39.3243 506.116 38.8544 505.738 38.4294 505.601C37.9753 505.485 37.4856 505.627 36.9313 506.046L35.2684 507.304L38.1161 511.068ZM42.2556 484.262L53.4257 499.025L57.1601 496.199C57.7727 495.736 58.3365 495.814 58.8001 496.426L61.14 499.519C61.6257 500.161 61.5255 500.695 60.9129 501.159L52.7439 507.34C52.102 507.826 51.5895 507.755 51.1039 507.113L36.8874 488.324C36.4238 487.712 36.4728 487.17 37.1146 486.684L40.6156 484.035C41.2283 483.572 41.792 483.65 42.2556 484.262ZM62.9814 486.84L65.257 485.118L58.6146 478.583L58.4979 478.671L62.9814 486.84ZM51.8552 475.531L57.3984 471.336C58.157 470.763 58.8595 470.781 59.5131 471.342L76.748 487.572C77.0492 487.848 77.1895 488.155 77.1761 488.44C77.1627 488.726 76.9955 488.99 76.7037 489.211L73.1152 491.926C72.5317 492.368 71.9901 492.319 71.439 491.772L69.1391 489.521L66.1633 491.773L67.7046 494.598C68.0515 495.299 67.9513 495.833 67.397 496.253L63.8085 498.968C63.4875 499.211 63.1879 499.3 62.9096 499.235C62.6313 499.171 62.4034 498.93 62.2189 498.565L51.2858 477.567C50.8948 476.808 51.0967 476.105 51.8552 475.531ZM83.7805 476.699C84.4223 476.213 84.9617 475.714 85.4277 475.178C86.0396 474.531 86.5884 474.529 87.074 475.171L89.1933 477.971C89.6568 478.584 89.6229 479.206 89.1277 479.764C88.3707 480.704 87.4158 481.564 86.3655 482.359C84.9068 483.463 83.6223 484.251 82.5263 484.622C81.4011 485.014 80.2452 485.063 78.9853 484.732C77.7474 484.43 76.4638 483.703 75.1416 482.502C73.8415 481.329 72.3562 479.609 70.6784 477.391C69.0449 475.232 67.815 473.364 67.0621 471.824C66.28 470.305 65.9009 468.894 65.9467 467.621C65.9925 466.348 66.3537 465.249 67.0374 464.273C67.6918 463.319 68.7485 462.29 70.2072 461.186C71.0533 460.546 72.1044 459.934 73.3454 459.27C74.0243 458.894 74.6322 459.031 75.1179 459.672L77.2592 462.502C77.7449 463.144 77.5934 463.672 76.8049 464.085C76.1623 464.387 75.5347 464.771 74.9512 465.212C73.6383 466.206 73.0571 467.196 73.2077 468.183C73.329 469.192 74.324 470.871 76.1341 473.263C77.4366 474.985 78.4733 476.173 79.2665 476.857C80.0597 477.542 80.7779 477.824 81.4363 477.785C82.0655 477.767 82.8469 477.406 83.7805 476.699ZM86.6849 459.729L84.7789 451.995C84.5708 451.235 84.7293 450.656 85.3128 450.215L88.9305 447.478C89.2806 447.213 89.6315 447.131 89.9248 447.276C90.2181 447.421 90.4097 447.735 90.4845 448.137L92.9731 458.641L104.756 466.15C105.116 466.382 105.344 466.623 105.404 466.944C105.463 467.266 105.318 467.559 104.968 467.824L101.292 470.606C100.68 471.069 100.05 471.087 99.4338 470.636L90.504 464.776L96.5305 472.741C97.0162 473.383 96.916 473.917 96.3033 474.381L92.8023 477.03C92.1605 477.515 91.648 477.444 91.1623 476.803L76.9459 458.014C76.4823 457.401 76.5312 456.86 77.1731 456.374L80.674 453.725C81.2867 453.261 81.8505 453.339 82.314 453.952L86.6849 459.729ZM116.027 447.849L111.71 451.116L116.544 457.506C117.052 458.177 116.945 458.762 116.303 459.248L112.918 461.809C112.247 462.317 111.684 462.238 111.176 461.567L97.0477 442.896C96.5621 442.254 96.6181 441.661 97.2891 441.153L106.158 434.442C106.771 433.979 107.335 434.057 107.798 434.669L110.094 437.704C110.58 438.345 110.48 438.88 109.867 439.344L105.374 442.743L108.001 446.215L112.319 442.948C112.931 442.484 113.495 442.562 113.959 443.175L116.255 446.209C116.74 446.851 116.64 447.386 116.027 447.849ZM121.624 438.522L122.441 437.904C123.2 437.33 123.563 436.779 123.532 436.253C123.5 435.726 123.087 434.938 122.315 433.916C121.564 432.924 120.918 432.313 120.419 432.139C119.921 431.966 119.27 432.137 118.512 432.711L117.695 433.329L121.624 438.522ZM109.596 431.841L114.847 427.868C117.531 425.837 119.847 424.956 121.721 425.19C123.596 425.423 125.629 426.958 127.77 429.788C130.199 432.998 130.803 435.797 129.613 438.166L136.654 442.014C137.6 442.537 137.683 443.071 136.924 443.645L133.365 446.338C132.986 446.625 132.701 446.794 132.438 446.81C132.174 446.826 131.845 446.754 131.463 446.492L125.36 442.852L125.068 443.073L128.953 448.208C129.439 448.85 129.339 449.384 128.726 449.848L125.225 452.497C124.583 452.983 124.071 452.912 123.585 452.27L109.369 433.481C108.905 432.868 108.954 432.327 109.596 431.841ZM138.802 440.756L124.586 421.967C124.122 421.354 124.171 420.813 124.813 420.327L128.314 417.678C128.927 417.215 129.49 417.293 129.954 417.905L144.17 436.694C144.656 437.336 144.556 437.87 143.943 438.334L140.442 440.983C139.8 441.469 139.288 441.398 138.802 440.756ZM153.036 431.454L148.018 435.251C147.376 435.736 146.864 435.665 146.378 435.023L132.162 416.235C131.698 415.622 131.747 415.08 132.389 414.595L137.29 410.886C138.661 409.849 139.932 409.163 141.108 408.777C142.284 408.392 143.492 408.35 144.737 408.601C145.974 408.903 147.265 409.578 148.572 410.699C149.88 411.821 151.284 413.373 152.807 415.386C154.838 418.07 156.113 420.362 156.736 422.277C157.359 424.191 157.337 425.86 156.728 427.238C156.112 428.667 154.874 430.063 153.036 431.454ZM140.955 415.729L140.488 416.082L148.788 427.052L149.372 426.611C150.189 425.993 150.507 425.201 150.269 424.28C150.031 423.359 149.073 421.79 147.351 419.514C146.203 417.997 145.233 416.896 144.469 416.19C143.698 415.535 143.067 415.186 142.577 415.144C142.086 415.102 141.538 415.288 140.955 415.729ZM161.532 412.271L163.808 410.549L157.165 404.014L157.048 404.102L161.532 412.271ZM150.406 400.962L155.949 396.768C156.708 396.194 157.41 396.213 158.064 396.773L175.299 413.003C175.6 413.28 175.74 413.586 175.727 413.872C175.713 414.157 175.546 414.421 175.254 414.642L171.666 417.357C171.082 417.799 170.541 417.75 169.99 417.204L167.69 414.952L164.714 417.204L166.255 420.029C166.602 420.73 166.502 421.265 165.948 421.684L162.359 424.399C162.038 424.642 161.739 424.731 161.46 424.667C161.182 424.602 160.954 424.361 160.77 423.996L149.836 402.999C149.445 402.239 149.647 401.536 150.406 400.962ZM178.634 399.882L183.799 406.708C184.285 407.35 184.185 407.885 183.572 408.348L180.071 410.997C179.429 411.483 178.917 411.412 178.431 410.77L173.266 403.943L159.964 395.519C159.641 395.396 159.465 395.163 159.383 394.812C159.301 394.461 159.453 394.117 159.861 393.807L163.537 391.026C164.179 390.54 164.809 390.523 165.396 390.996L169.728 394.6L172.161 397.026L172.277 396.938L170.604 393.938L168.313 388.789C167.989 388.117 168.176 387.516 168.847 387.008L172.523 384.227C172.903 383.94 173.276 383.887 173.591 384.061C173.906 384.236 174.083 384.469 174.143 384.791L178.634 399.882ZM188.533 372.113L192.034 369.464C192.617 369.023 193.21 369.079 193.71 369.618L201.501 377.854L204.802 381.549L204.86 381.505L202.289 377.257L196.686 367.367C196.332 366.717 196.41 366.153 196.993 365.712L200.874 362.776C201.165 362.555 201.487 362.495 201.765 362.56C202.044 362.624 202.301 362.843 202.463 363.179L213.373 383.964C213.823 384.862 213.702 385.551 213.002 386.08L208.275 389.657C207.575 390.186 206.851 390.138 206.138 389.439L202.067 385.271L197.972 380.89L197.914 380.935L201.016 386.065L203.921 391.117C204.371 392.015 204.249 392.703 203.549 393.233L198.823 396.809C198.123 397.339 197.398 397.291 196.685 396.591L179.648 380.441C179.369 380.194 179.2 379.909 179.213 379.624C179.227 379.338 179.372 379.045 179.693 378.802L183.573 375.866C184.127 375.447 184.691 375.525 185.249 376.02L193.244 384.101L196.633 387.73L196.691 387.686L194.032 383.505L188.225 373.768C187.842 373.141 187.92 372.577 188.533 372.113ZM222.385 366.181L217.833 369.625L220.284 372.863L225.243 369.11C225.856 368.647 226.42 368.725 226.883 369.337L229.179 372.372C229.665 373.013 229.565 373.548 228.952 374.012L219.616 381.076C218.974 381.561 218.462 381.49 217.976 380.848L203.76 362.06C203.296 361.447 203.345 360.906 203.987 360.42L213.206 353.444C213.819 352.981 214.382 353.059 214.846 353.671L217.142 356.705C217.628 357.347 217.527 357.882 216.915 358.345L212.072 362.01L214.257 364.898L218.808 361.455C219.421 360.991 219.985 361.069 220.448 361.682L222.612 364.541C223.097 365.183 222.997 365.717 222.385 366.181ZM235.405 356.329L230.854 359.773L233.304 363.011L238.264 359.258C238.876 358.795 239.44 358.873 239.904 359.485L242.2 362.52C242.685 363.161 242.585 363.696 241.972 364.16L232.637 371.224C231.995 371.709 231.482 371.638 230.997 370.997L216.78 352.208C216.316 351.595 216.365 351.054 217.007 350.568L226.226 343.592C226.839 343.129 227.403 343.207 227.866 343.819L230.162 346.854C230.648 347.495 230.548 348.03 229.935 348.494L225.092 352.158L227.278 355.046L231.829 351.603C232.441 351.139 233.005 351.217 233.469 351.83L235.632 354.689C236.118 355.331 236.018 355.865 235.405 356.329ZM239.54 344.071L237.634 336.337C237.425 335.577 237.584 334.999 238.167 334.557L241.785 331.82C242.135 331.555 242.486 331.473 242.779 331.618C243.073 331.763 243.264 332.077 243.339 332.479L245.828 342.983L257.611 350.492C257.97 350.724 258.198 350.965 258.258 351.287C258.318 351.608 258.173 351.902 257.823 352.166L254.147 354.948C253.534 355.411 252.905 355.429 252.288 354.978L243.359 349.118L249.385 357.083C249.871 357.725 249.771 358.259 249.158 358.723L245.657 361.372C245.015 361.857 244.503 361.786 244.017 361.145L229.8 342.356C229.337 341.743 229.386 341.202 230.028 340.716L233.529 338.067C234.141 337.603 234.705 337.681 235.169 338.294L239.54 344.071ZM266.854 336.479C268.399 338.521 268.912 340.472 268.415 342.362C267.918 344.252 266.725 345.889 264.858 347.302C263.108 348.626 261.655 349.496 260.443 349.955C259.946 350.147 259.595 350.229 259.339 350.194C259.082 350.158 258.825 349.94 258.561 349.59L256.419 346.76C255.889 346.059 256.092 345.539 257.086 345.154C257.933 344.88 258.816 344.349 259.779 343.621C261.325 342.451 261.782 341.417 261.12 340.542C260.811 340.134 260.4 339.894 259.894 339.772C259.36 339.671 258.35 339.61 256.828 339.66C255.043 339.726 253.483 339.484 252.091 338.978C250.699 338.472 249.362 337.372 248.126 335.739C246.559 333.667 245.9 331.826 246.178 330.193C246.457 328.56 247.766 326.835 250.1 325.069C251.501 324.01 252.698 323.287 253.618 322.866C254.034 322.689 254.356 322.629 254.634 322.694C254.912 322.758 255.177 322.926 255.441 323.276L257.649 326.193C258.135 326.835 257.903 327.378 256.983 327.799C256.15 328.153 255.325 328.64 254.538 329.236C253.925 329.699 253.583 330.096 253.482 330.448C253.381 330.799 253.507 331.208 253.816 331.617C254.434 332.434 255.914 332.874 258.241 332.857C260.377 332.891 262.069 333.126 263.337 333.589C264.597 334.103 265.772 335.049 266.854 336.479Z" fill="white"/>
<path d="M289.804 307.827L289.513 308.048L289.733 308.339L290.025 308.119L289.804 307.827ZM291.874 305.711L292.238 305.737L292.239 305.723L292.239 305.709L291.874 305.711ZM289.997 303.231L290.098 302.879L290.085 302.876L290.071 302.873L289.997 303.231ZM287.398 304.647L287.177 304.355L286.886 304.576L287.106 304.868L287.398 304.647ZM291.021 296.217L290.999 295.852L291.021 296.217ZM296.613 305.244L296.293 305.067L295.856 305.858L296.72 305.594L296.613 305.244ZM300.06 305.435L300.197 305.095L300.06 305.435ZM295.963 315.967L295.672 316.187L295.892 316.479L296.184 316.258L295.963 315.967ZM298.484 313.417L298.85 313.427L298.85 313.415L298.85 313.403L298.484 313.417ZM296.277 310.499L296.389 310.151L296.378 310.148L296.367 310.145L296.277 310.499ZM293.116 312.203L292.895 311.911L292.603 312.132L292.824 312.424L293.116 312.203ZM290.025 308.119L291.309 307.147L290.867 306.564L289.584 307.535L290.025 308.119ZM291.309 307.147C291.839 306.746 292.2 306.279 292.238 305.737L291.509 305.685C291.492 305.918 291.329 306.215 290.867 306.564L291.309 307.147ZM292.239 305.709C292.237 305.226 291.967 304.622 291.508 304.015L290.924 304.456C291.348 305.016 291.507 305.464 291.508 305.712L292.239 305.709ZM291.508 304.015C291.045 303.403 290.559 303.012 290.098 302.879L289.896 303.583C290.138 303.652 290.504 303.901 290.924 304.456L291.508 304.015ZM290.071 302.873C289.539 302.762 288.992 302.982 288.461 303.384L288.903 303.967C289.364 303.618 289.694 303.542 289.923 303.589L290.071 302.873ZM288.461 303.384L287.177 304.355L287.619 304.939L288.903 303.967L288.461 303.384ZM287.106 304.868L289.513 308.048L290.096 307.606L287.69 304.426L287.106 304.868ZM301.404 318.731L294.957 323.61L295.398 324.194L301.846 319.315L301.404 318.731ZM294.957 323.61C294.674 323.824 294.482 323.867 294.349 323.849C294.216 323.83 294.043 323.737 293.829 323.454L293.246 323.895C293.517 324.254 293.844 324.517 294.249 324.573C294.654 324.63 295.039 324.465 295.398 324.194L294.957 323.61ZM293.829 323.454L279.613 304.665L279.029 305.107L293.246 323.895L293.829 323.454ZM279.613 304.665C279.412 304.4 279.365 304.206 279.383 304.064C279.401 303.925 279.493 303.747 279.769 303.538L279.328 302.954C278.962 303.231 278.709 303.567 278.657 303.972C278.606 304.376 278.766 304.759 279.029 305.107L279.613 304.665ZM279.769 303.538L285.575 299.145L285.133 298.561L279.328 302.954L279.769 303.538ZM285.575 299.145C287.772 297.482 289.571 296.67 291.043 296.582L290.999 295.852C289.311 295.953 287.371 296.868 285.133 298.561L285.575 299.145ZM291.043 296.582C292.441 296.498 293.901 297.355 295.373 299.301L295.957 298.859C294.427 296.838 292.761 295.746 290.999 295.852L291.043 296.582ZM295.373 299.301C296.187 300.377 296.652 301.389 296.799 302.34C296.944 303.284 296.778 304.189 296.293 305.067L296.933 305.421C297.494 304.407 297.693 303.339 297.522 302.228C297.352 301.124 296.82 300.001 295.957 298.859L295.373 299.301ZM296.72 305.594C297.753 305.279 298.809 305.325 299.924 305.774L300.197 305.095C298.937 304.588 297.709 304.527 296.506 304.894L296.72 305.594ZM299.924 305.774C301.037 306.222 302.066 307.055 302.962 308.239L303.546 307.798C302.588 306.532 301.458 305.603 300.197 305.095L299.924 305.774ZM302.962 308.239C304.494 310.264 305.083 312.123 304.829 313.828C304.574 315.536 303.461 317.175 301.404 318.731L301.846 319.315C303.991 317.692 305.259 315.901 305.552 313.936C305.846 311.97 305.149 309.916 303.546 307.798L302.962 308.239ZM296.184 316.258L297.847 315L297.406 314.417L295.743 315.675L296.184 316.258ZM297.847 315C298.432 314.558 298.833 314.063 298.85 313.427L298.119 313.407C298.11 313.707 297.93 314.02 297.406 314.417L297.847 315ZM298.85 313.403C298.829 312.846 298.54 312.217 297.993 311.495L297.41 311.936C297.923 312.614 298.106 313.096 298.119 313.431L298.85 313.403ZM297.993 311.495C297.447 310.772 296.92 310.323 296.389 310.151L296.164 310.848C296.483 310.951 296.897 311.258 297.41 311.936L297.993 311.495ZM296.367 310.145C295.763 309.992 295.16 310.198 294.558 310.653L294.999 311.237C295.506 310.853 295.882 310.777 296.187 310.854L296.367 310.145ZM294.558 310.653L292.895 311.911L293.336 312.495L294.999 311.237L294.558 310.653ZM292.824 312.424L295.672 316.187L296.255 315.746L293.407 311.982L292.824 312.424ZM311.273 303.924L310.981 304.145L311.202 304.436L311.494 304.216L311.273 303.924ZM299.811 289.382L310.981 304.145L311.565 303.703L300.395 288.941L299.811 289.382ZM311.494 304.216L315.228 301.39L314.787 300.806L311.052 303.632L311.494 304.216ZM315.228 301.39C315.486 301.195 315.685 301.15 315.833 301.171C315.982 301.191 316.161 301.288 316.356 301.546L316.939 301.105C316.671 300.75 316.336 300.502 315.934 300.446C315.531 300.39 315.141 300.538 314.787 300.806L315.228 301.39ZM316.356 301.546L318.696 304.639L319.279 304.197L316.939 301.105L316.356 301.546ZM318.696 304.639C318.904 304.915 318.945 305.111 318.924 305.25C318.903 305.392 318.804 305.566 318.539 305.766L318.981 306.35C319.329 306.087 319.587 305.761 319.647 305.359C319.708 304.955 319.556 304.563 319.279 304.197L318.696 304.639ZM318.539 305.766L310.37 311.947L310.812 312.531L318.981 306.35L318.539 305.766ZM310.37 311.947C310.088 312.161 309.896 312.204 309.763 312.186C309.63 312.167 309.457 312.074 309.243 311.791L308.659 312.233C308.931 312.591 309.257 312.855 309.662 312.911C310.067 312.967 310.453 312.802 310.812 312.531L310.37 311.947ZM309.243 311.791L295.027 293.002L294.443 293.444L308.659 312.233L309.243 311.791ZM295.027 293.002C294.826 292.738 294.779 292.544 294.797 292.402C294.814 292.262 294.907 292.084 295.183 291.875L294.741 291.291C294.375 291.568 294.122 291.904 294.071 292.31C294.02 292.713 294.18 293.096 294.443 293.444L295.027 293.002ZM295.183 291.875L298.684 289.226L298.242 288.642L294.741 291.291L295.183 291.875ZM298.684 289.226C298.942 289.031 299.14 288.986 299.289 289.007C299.437 289.027 299.616 289.124 299.811 289.382L300.395 288.941C300.126 288.586 299.791 288.338 299.389 288.282C298.987 288.226 298.597 288.374 298.242 288.642L298.684 289.226ZM320.829 291.739L320.508 291.915L320.712 292.286L321.049 292.03L320.829 291.739ZM323.104 290.017L323.325 290.309L323.663 290.053L323.361 289.756L323.104 290.017ZM316.462 283.482L316.718 283.221L316.493 282.999L316.241 283.19L316.462 283.482ZM316.345 283.57L316.124 283.278L315.872 283.469L316.024 283.746L316.345 283.57ZM317.36 276.241L317.611 275.975L317.605 275.969L317.599 275.963L317.36 276.241ZM334.595 292.471L334.345 292.737L334.348 292.74L334.595 292.471ZM335.023 293.339L334.658 293.322L335.023 293.339ZM329.286 296.671L329.544 296.411L329.542 296.41L329.286 296.671ZM326.986 294.42L327.242 294.158L327.017 293.938L326.766 294.128L326.986 294.42ZM324.011 296.672L323.79 296.38L323.539 296.57L323.689 296.847L324.011 296.672ZM325.552 299.497L325.88 299.334L325.877 299.328L325.873 299.322L325.552 299.497ZM320.757 304.134L320.84 303.778L320.757 304.134ZM320.066 303.464L320.393 303.299L320.391 303.295L320.066 303.464ZM309.133 282.466L308.808 282.634L308.809 282.635L309.133 282.466ZM321.049 292.03L323.325 290.309L322.884 289.725L320.608 291.447L321.049 292.03ZM323.361 289.756L316.718 283.221L316.205 283.742L322.848 290.278L323.361 289.756ZM316.241 283.19L316.124 283.278L316.566 283.862L316.683 283.773L316.241 283.19ZM316.024 283.746L320.508 291.915L321.149 291.563L316.666 283.394L316.024 283.746ZM309.923 280.721L315.467 276.527L315.025 275.944L309.482 280.138L309.923 280.721ZM315.467 276.527C315.802 276.273 316.091 276.176 316.339 276.179C316.585 276.181 316.844 276.28 317.122 276.519L317.599 275.963C317.223 275.641 316.804 275.451 316.346 275.447C315.89 275.443 315.448 275.624 315.025 275.944L315.467 276.527ZM317.11 276.507L334.345 292.737L334.846 292.204L317.611 275.975L317.11 276.507ZM334.348 292.74C334.594 292.967 334.665 293.175 334.658 293.322L335.389 293.357C335.409 292.933 335.199 292.528 334.843 292.201L334.348 292.74ZM334.658 293.322C334.651 293.465 334.567 293.639 334.33 293.818L334.772 294.401C335.119 294.139 335.369 293.785 335.389 293.357L334.658 293.322ZM334.33 293.818L330.742 296.533L331.183 297.117L334.772 294.401L334.33 293.818ZM330.742 296.533C330.498 296.718 330.305 296.769 330.146 296.754C329.982 296.739 329.783 296.649 329.544 296.411L329.029 296.931C329.34 297.24 329.688 297.447 330.079 297.483C330.474 297.519 330.843 297.374 331.183 297.117L330.742 296.533ZM329.542 296.41L327.242 294.158L326.731 294.681L329.03 296.933L329.542 296.41ZM326.766 294.128L323.79 296.38L324.231 296.963L327.207 294.712L326.766 294.128ZM323.689 296.847L325.231 299.672L325.873 299.322L324.332 296.496L323.689 296.847ZM325.224 299.659C325.377 299.967 325.408 300.194 325.376 300.363C325.346 300.525 325.248 300.69 325.024 300.86L325.465 301.443C325.795 301.194 326.024 300.882 326.096 300.497C326.166 300.119 326.074 299.727 325.88 299.334L325.224 299.659ZM325.024 300.86L321.435 303.575L321.877 304.159L325.465 301.443L325.024 300.86ZM321.435 303.575C321.164 303.78 320.974 303.809 320.84 303.778L320.674 304.491C321.096 304.589 321.506 304.439 321.877 304.159L321.435 303.575ZM320.84 303.778C320.72 303.75 320.56 303.63 320.393 303.299L319.74 303.629C319.942 304.029 320.237 304.389 320.674 304.491L320.84 303.778ZM320.391 303.295L309.458 282.297L308.809 282.635L319.742 303.633L320.391 303.295ZM309.458 282.299C309.297 281.986 309.272 281.716 309.339 281.478C309.408 281.234 309.587 280.976 309.923 280.721L309.482 280.138C309.06 280.457 308.759 280.838 308.635 281.279C308.509 281.726 308.578 282.187 308.808 282.634L309.458 282.299ZM343.275 280.076L343.009 279.825L343.004 279.831L342.999 279.836L343.275 280.076ZM346.975 284.663L346.701 284.42L346.696 284.427L346.69 284.434L346.975 284.663ZM340.374 289.521L340.256 289.174L340.253 289.175L340.374 289.521ZM336.833 289.631L336.926 289.277L336.919 289.275L336.833 289.631ZM332.989 287.401L333.235 287.13L333.234 287.129L332.989 287.401ZM324.909 276.723L325.238 276.562L325.235 276.555L324.909 276.723ZM323.794 272.52L324.16 272.533L323.794 272.52ZM324.885 269.171L325.184 269.381L325.186 269.378L324.885 269.171ZM331.193 264.169L331.365 264.492L331.37 264.489L331.193 264.169ZM334.652 268.984L334.808 269.315L334.815 269.311L334.822 269.308L334.652 268.984ZM331.055 273.082L331.418 273.038L331.417 273.027L331.055 273.082ZM337.114 281.756L336.875 282.033L337.114 281.756ZM339.284 282.684L339.274 282.318L339.262 282.318L339.284 282.684ZM341.849 281.89C342.509 281.39 343.067 280.874 343.551 280.316L342.999 279.836C342.551 280.352 342.031 280.834 341.407 281.306L341.849 281.89ZM343.541 280.328C343.819 280.034 344.02 279.956 344.147 279.956C344.26 279.955 344.422 280.016 344.63 280.29L345.213 279.849C344.935 279.481 344.58 279.222 344.144 279.224C343.722 279.226 343.343 279.473 343.009 279.825L343.541 280.328ZM344.63 280.29L346.749 283.091L347.332 282.649L345.213 279.849L344.63 280.29ZM346.749 283.091C346.942 283.346 347.01 283.573 347.002 283.772C346.994 283.971 346.907 284.189 346.701 284.42L347.249 284.906C347.539 284.579 347.716 284.207 347.733 283.802C347.75 283.397 347.603 283.007 347.332 282.649L346.749 283.091ZM346.69 284.434C345.958 285.343 345.028 286.183 343.992 286.966L344.434 287.55C345.499 286.744 346.478 285.863 347.26 284.893L346.69 284.434ZM343.992 286.966C342.542 288.063 341.295 288.823 340.256 289.174L340.491 289.867C341.644 289.477 342.966 288.66 344.434 287.55L343.992 286.966ZM340.253 289.175C339.199 289.543 338.118 289.59 336.926 289.277L336.74 289.985C338.067 290.334 339.298 290.283 340.494 289.866L340.253 289.175ZM336.919 289.275C335.757 288.992 334.526 288.303 333.235 287.13L332.743 287.671C334.097 288.902 335.433 289.666 336.746 289.986L336.919 289.275ZM333.234 287.129C331.959 285.979 330.49 284.28 328.818 282.07L328.234 282.511C329.917 284.735 331.419 286.477 332.744 287.672L333.234 287.129ZM328.818 282.07C327.189 279.918 325.976 278.072 325.238 276.562L324.581 276.883C325.349 278.455 326.595 280.345 328.234 282.511L328.818 282.07ZM325.235 276.555C324.471 275.073 324.117 273.725 324.16 272.533L323.428 272.507C323.38 273.862 323.783 275.335 324.584 276.89L325.235 276.555ZM324.16 272.533C324.203 271.326 324.544 270.296 325.184 269.381L324.585 268.962C323.859 269.999 323.477 271.167 323.428 272.507L324.16 272.533ZM325.186 269.378C325.81 268.47 326.832 267.469 328.275 266.377L327.834 265.793C326.36 266.908 325.269 267.965 324.583 268.965L325.186 269.378ZM328.275 266.377C329.098 265.754 330.128 265.154 331.365 264.492L331.02 263.846C329.776 264.512 328.704 265.135 327.834 265.793L328.275 266.377ZM331.37 264.489C331.652 264.333 331.882 264.303 332.071 264.345C332.261 264.388 332.467 264.519 332.674 264.792L333.257 264.351C332.978 263.982 332.637 263.723 332.232 263.632C331.826 263.54 331.412 263.629 331.016 263.849L331.37 264.489ZM332.674 264.792L334.815 267.622L335.398 267.18L333.257 264.351L332.674 264.792ZM334.815 267.622C335.022 267.896 335.037 268.069 335.006 268.177C334.97 268.3 334.841 268.472 334.483 268.66L334.822 269.308C335.252 269.083 335.593 268.784 335.709 268.379C335.829 267.96 335.677 267.548 335.398 267.18L334.815 267.622ZM334.496 268.653C333.83 268.967 333.18 269.363 332.578 269.819L333.019 270.403C333.584 269.976 334.19 269.606 334.808 269.315L334.496 268.653ZM332.578 269.819C331.231 270.838 330.512 271.946 330.693 273.137L331.417 273.027C331.297 272.243 331.74 271.371 333.019 270.403L332.578 269.819ZM330.692 273.126C330.762 273.708 331.073 274.433 331.568 275.287C332.069 276.15 332.781 277.181 333.69 278.383L334.273 277.941C333.372 276.751 332.681 275.746 332.201 274.92C331.716 274.084 331.47 273.466 331.418 273.038L330.692 273.126ZM333.69 278.383C334.995 280.108 336.051 281.322 336.875 282.033L337.353 281.479C336.59 280.821 335.573 279.659 334.273 277.941L333.69 278.383ZM336.875 282.033C337.71 282.754 338.518 283.096 339.305 283.049L339.262 282.318C338.732 282.35 338.104 282.128 337.353 281.479L336.875 282.033ZM339.294 283.049C340.041 283.029 340.899 282.608 341.849 281.89L341.407 281.306C340.489 282.001 339.785 282.304 339.274 282.318L339.294 283.049ZM344.532 264.628L344.241 264.848L344.888 264.54L344.532 264.628ZM342.626 256.894L342.982 256.807L342.979 256.798L342.626 256.894ZM347.772 252.175L347.934 251.847L347.934 251.847L347.772 252.175ZM348.332 253.036L347.972 253.103L347.974 253.112L347.976 253.12L348.332 253.036ZM350.82 263.54L350.464 263.624L350.499 263.769L350.624 263.849L350.82 263.54ZM362.604 271.049L362.802 270.741L362.8 270.74L362.604 271.049ZM363.251 271.843L363.611 271.776L363.251 271.843ZM357.281 275.535L357.497 275.239L357.49 275.234L357.482 275.229L357.281 275.535ZM348.351 269.675L348.552 269.369L348.06 269.896L348.351 269.675ZM344.888 264.54L342.981 256.807L342.271 256.982L344.177 264.715L344.888 264.54ZM342.979 256.798C342.887 256.462 342.885 256.199 342.947 255.988C343.008 255.781 343.14 255.588 343.381 255.406L342.939 254.822C342.597 255.082 342.358 255.399 342.245 255.782C342.134 256.16 342.157 256.567 342.273 256.991L342.979 256.798ZM343.381 255.406L346.999 252.668L346.557 252.085L342.939 254.822L343.381 255.406ZM346.999 252.668C347.295 252.444 347.494 252.445 347.61 252.503L347.934 251.847C347.464 251.614 346.961 251.779 346.557 252.085L346.999 252.668ZM347.61 252.503C347.765 252.579 347.91 252.768 347.972 253.103L348.692 252.969C348.604 252.499 348.366 252.061 347.934 251.847L347.61 252.503ZM347.976 253.12L350.464 263.624L351.176 263.456L348.688 252.951L347.976 253.12ZM350.624 263.849L362.407 271.357L362.8 270.74L351.017 263.231L350.624 263.849ZM362.405 271.356C362.736 271.57 362.859 271.738 362.891 271.91L363.611 271.776C363.523 271.305 363.19 270.992 362.802 270.741L362.405 271.356ZM362.891 271.91C362.917 272.049 362.878 272.217 362.595 272.432L363.036 273.015C363.453 272.7 363.705 272.281 363.611 271.776L362.891 271.91ZM362.595 272.432L358.919 275.213L359.36 275.797L363.036 273.015L362.595 272.432ZM358.919 275.213C358.659 275.41 358.421 275.493 358.205 275.497C357.989 275.501 357.755 275.428 357.497 275.239L357.065 275.83C357.424 276.093 357.812 276.236 358.219 276.228C358.624 276.221 359.007 276.064 359.36 275.797L358.919 275.213ZM357.482 275.229L348.552 269.369L348.151 269.981L357.08 275.84L357.482 275.229ZM348.06 269.896L354.086 277.86L354.67 277.419L348.643 269.454L348.06 269.896ZM354.086 277.86C354.295 278.136 354.335 278.333 354.314 278.472C354.293 278.614 354.195 278.787 353.93 278.988L354.371 279.571C354.719 279.308 354.977 278.983 355.038 278.581C355.099 278.177 354.946 277.785 354.67 277.419L354.086 277.86ZM353.93 278.988L350.429 281.637L350.87 282.22L354.371 279.571L353.93 278.988ZM350.429 281.637C350.146 281.851 349.954 281.894 349.821 281.875C349.688 281.857 349.516 281.764 349.301 281.481L348.718 281.922C348.989 282.281 349.316 282.544 349.721 282.6C350.126 282.656 350.512 282.492 350.87 282.22L350.429 281.637ZM349.301 281.481L335.085 262.692L334.501 263.134L348.718 281.922L349.301 281.481ZM335.085 262.692C334.885 262.427 334.837 262.233 334.855 262.091C334.873 261.951 334.965 261.773 335.241 261.565L334.8 260.981C334.434 261.258 334.181 261.594 334.129 261.999C334.078 262.403 334.238 262.786 334.501 263.134L335.085 262.692ZM335.241 261.565L338.742 258.916L338.301 258.332L334.8 260.981L335.241 261.565ZM338.742 258.916C339 258.72 339.199 258.676 339.347 258.696C339.496 258.717 339.674 258.814 339.87 259.072L340.453 258.63C340.185 258.276 339.85 258.027 339.447 257.971C339.045 257.916 338.655 258.064 338.301 258.332L338.742 258.916ZM339.87 259.072L344.241 264.848L344.824 264.407L340.453 258.63L339.87 259.072ZM369.557 256.015L369.336 255.724L369.044 255.944L369.265 256.236L369.557 256.015ZM363.221 247.642L363.001 247.35L362.709 247.571L362.93 247.863L363.221 247.642ZM365.848 251.114L365.557 251.335L365.777 251.626L366.069 251.406L365.848 251.114ZM373.654 252.456L369.336 255.724L369.778 256.307L374.096 253.04L373.654 252.456ZM369.265 256.236L374.1 262.625L374.683 262.184L369.849 255.795L369.265 256.236ZM374.1 262.625C374.317 262.913 374.364 263.129 374.34 263.291C374.315 263.455 374.205 263.646 373.929 263.855L374.371 264.439C374.737 264.162 375.001 263.818 375.064 263.399C375.127 262.979 374.973 262.567 374.683 262.184L374.1 262.625ZM373.929 263.855L370.545 266.416L370.987 267L374.371 264.439L373.929 263.855ZM370.545 266.416C370.251 266.638 370.039 266.688 369.883 266.667C369.728 266.645 369.537 266.539 369.315 266.246L368.731 266.687C369.017 267.064 369.362 267.333 369.783 267.392C370.204 267.45 370.609 267.285 370.987 267L370.545 266.416ZM369.315 266.246L355.187 247.574L354.603 248.015L368.731 266.687L369.315 266.246ZM355.187 247.574C354.978 247.298 354.924 247.083 354.945 246.919C354.966 246.757 355.07 246.561 355.357 246.344L354.916 245.76C354.532 246.051 354.273 246.405 354.219 246.827C354.166 247.246 354.326 247.649 354.603 248.015L355.187 247.574ZM355.357 246.344L364.226 239.633L363.785 239.049L354.916 245.76L355.357 246.344ZM364.226 239.633C364.484 239.438 364.683 239.393 364.831 239.413C364.98 239.434 365.159 239.531 365.354 239.789L365.937 239.348C365.669 238.993 365.334 238.744 364.932 238.689C364.529 238.633 364.14 238.781 363.785 239.049L364.226 239.633ZM365.354 239.789L367.65 242.823L368.233 242.382L365.937 239.348L365.354 239.789ZM367.65 242.823C367.859 243.099 367.899 243.295 367.878 243.435C367.857 243.576 367.758 243.75 367.494 243.951L367.935 244.534C368.283 244.271 368.541 243.946 368.602 243.544C368.662 243.14 368.51 242.748 368.233 242.382L367.65 242.823ZM367.494 243.951L363.001 247.35L363.442 247.934L367.935 244.534L367.494 243.951ZM362.93 247.863L365.557 251.335L366.14 250.893L363.513 247.421L362.93 247.863ZM366.069 251.406L370.387 248.138L369.945 247.555L365.628 250.822L366.069 251.406ZM370.387 248.138C370.645 247.943 370.843 247.899 370.992 247.919C371.14 247.94 371.319 248.037 371.514 248.295L372.098 247.853C371.83 247.498 371.495 247.25 371.092 247.194C370.69 247.139 370.3 247.287 369.945 247.555L370.387 248.138ZM371.514 248.295L373.81 251.329L374.394 250.887L372.098 247.853L371.514 248.295ZM373.81 251.329C374.019 251.605 374.059 251.801 374.039 251.941C374.017 252.082 373.919 252.256 373.654 252.456L374.096 253.04C374.443 252.777 374.702 252.451 374.762 252.049C374.823 251.645 374.671 251.253 374.394 250.887L373.81 251.329ZM379.472 243.421L379.18 243.641L379.401 243.933L379.692 243.712L379.472 243.421ZM381.379 241.152L381.744 241.13L381.379 241.152ZM378.267 237.038L378.146 237.383L378.267 237.038ZM375.542 238.228L375.322 237.936L375.03 238.157L375.251 238.448L375.542 238.228ZM379.569 230.088L379.614 229.725L379.569 230.088ZM387.461 243.065L387.134 242.901L386.975 243.216L387.285 243.386L387.461 243.065ZM394.501 246.913L394.678 246.593L394.677 246.592L394.501 246.913ZM390.285 251.709L390.307 252.074L390.307 252.074L390.285 251.709ZM389.311 251.391L389.517 251.09L389.508 251.083L389.498 251.077L389.311 251.391ZM383.207 247.751L383.395 247.437L383.183 247.311L382.986 247.46L383.207 247.751ZM382.915 247.972L382.695 247.68L382.403 247.901L382.624 248.193L382.915 247.972ZM379.692 243.712L380.509 243.094L380.068 242.511L379.251 243.129L379.692 243.712ZM380.509 243.094C381.289 242.504 381.787 241.85 381.744 241.13L381.014 241.173C381.034 241.506 380.805 241.953 380.068 242.511L380.509 243.094ZM381.744 241.13C381.724 240.791 381.586 240.409 381.373 240C381.156 239.585 380.847 239.115 380.454 238.595L379.87 239.036C380.249 239.537 380.533 239.972 380.724 240.338C380.918 240.71 381.003 240.985 381.014 241.173L381.744 241.13ZM380.454 238.595C380.071 238.089 379.708 237.671 379.37 237.353C379.037 237.04 378.707 236.804 378.387 236.692L378.146 237.383C378.325 237.446 378.566 237.602 378.869 237.886C379.167 238.166 379.502 238.55 379.87 239.036L380.454 238.595ZM378.387 236.692C377.715 236.459 376.932 236.717 376.138 237.318L376.58 237.901C377.303 237.354 377.821 237.27 378.146 237.383L378.387 236.692ZM376.138 237.318L375.322 237.936L375.763 238.519L376.58 237.901L376.138 237.318ZM375.251 238.448L379.18 243.641L379.763 243.2L375.834 238.007L375.251 238.448ZM367.664 237.032L372.915 233.058L372.474 232.475L367.222 236.448L367.664 237.032ZM372.915 233.058C375.575 231.046 377.793 230.236 379.524 230.452L379.614 229.725C377.597 229.474 375.183 230.425 372.474 232.475L372.915 233.058ZM379.524 230.452C381.244 230.666 383.198 232.096 385.326 234.908L385.909 234.466C383.754 231.619 381.642 229.978 379.614 229.725L379.524 230.452ZM385.326 234.908C387.717 238.069 388.232 240.714 387.134 242.901L387.787 243.229C389.069 240.679 388.374 237.724 385.909 234.466L385.326 234.908ZM387.285 243.386L394.326 247.234L394.677 246.592L387.636 242.744L387.285 243.386ZM394.324 247.233C394.786 247.488 394.9 247.679 394.915 247.768C394.924 247.826 394.906 247.983 394.551 248.252L394.992 248.835C395.396 248.53 395.716 248.134 395.637 247.65C395.563 247.199 395.163 246.861 394.678 246.593L394.324 247.233ZM394.551 248.252L390.992 250.945L391.433 251.529L394.992 248.835L394.551 248.252ZM390.992 250.945C390.604 251.238 390.402 251.336 390.263 251.344L390.307 252.074C390.695 252.051 391.062 251.809 391.433 251.529L390.992 250.945ZM390.263 251.344C390.091 251.354 389.841 251.311 389.517 251.09L389.104 251.693C389.544 251.995 389.953 252.095 390.307 252.074L390.263 251.344ZM389.498 251.077L383.395 247.437L383.02 248.065L389.123 251.705L389.498 251.077ZM382.986 247.46L382.695 247.68L383.136 248.264L383.428 248.043L382.986 247.46ZM382.624 248.193L386.509 253.328L387.092 252.886L383.207 247.751L382.624 248.193ZM386.509 253.328C386.718 253.604 386.758 253.8 386.737 253.939C386.716 254.081 386.618 254.255 386.353 254.455L386.794 255.039C387.142 254.775 387.4 254.45 387.461 254.048C387.522 253.644 387.369 253.252 387.092 252.886L386.509 253.328ZM386.353 254.455L382.852 257.104L383.293 257.688L386.794 255.039L386.353 254.455ZM382.852 257.104C382.569 257.318 382.377 257.361 382.244 257.343C382.111 257.324 381.938 257.231 381.724 256.948L381.141 257.389C381.412 257.748 381.739 258.011 382.144 258.067C382.549 258.124 382.934 257.959 383.293 257.688L382.852 257.104ZM381.724 256.948L367.508 238.159L366.924 238.601L381.141 257.389L381.724 256.948ZM367.508 238.159C367.307 237.894 367.26 237.7 367.278 237.558C367.296 237.418 367.388 237.241 367.664 237.032L367.222 236.448C366.857 236.725 366.603 237.061 366.552 237.466C366.501 237.87 366.661 238.253 366.924 238.601L367.508 238.159ZM396.941 245.434L382.725 226.645L382.141 227.087L396.358 245.875L396.941 245.434ZM382.725 226.645C382.524 226.38 382.477 226.186 382.495 226.044C382.513 225.905 382.605 225.727 382.881 225.518L382.439 224.934C382.074 225.211 381.82 225.547 381.769 225.952C381.718 226.356 381.878 226.739 382.141 227.087L382.725 226.645ZM382.881 225.518L386.382 222.869L385.94 222.285L382.439 224.934L382.881 225.518ZM386.382 222.869C386.64 222.674 386.838 222.629 386.987 222.649C387.135 222.67 387.314 222.767 387.509 223.025L388.093 222.583C387.825 222.229 387.49 221.98 387.087 221.925C386.685 221.869 386.295 222.017 385.94 222.285L386.382 222.869ZM387.509 223.025L401.726 241.814L402.309 241.372L388.093 222.583L387.509 223.025ZM401.726 241.814C401.935 242.09 401.975 242.286 401.954 242.425C401.933 242.567 401.835 242.741 401.57 242.941L402.011 243.525C402.359 243.261 402.617 242.936 402.678 242.534C402.739 242.13 402.586 241.738 402.309 241.372L401.726 241.814ZM401.57 242.941L398.069 245.59L398.51 246.174L402.011 243.525L401.57 242.941ZM398.069 245.59C397.786 245.804 397.594 245.847 397.461 245.829C397.328 245.81 397.155 245.717 396.941 245.434L396.358 245.875C396.629 246.234 396.956 246.497 397.361 246.553C397.766 246.61 398.151 246.445 398.51 246.174L398.069 245.59ZM398.955 213.676L398.841 213.329L398.955 213.676ZM402.584 213.5L402.671 213.144L402.663 213.143L402.656 213.141L402.584 213.5ZM406.42 215.598L406.182 215.876L406.42 215.598ZM414.584 227.176L414.931 227.063L414.584 227.176ZM414.575 232.137L414.241 231.989L414.239 231.992L414.575 232.137ZM398.335 220.981L398.114 220.69L397.823 220.91L398.043 221.202L398.335 220.981ZM406.635 231.951L406.344 232.172L406.564 232.464L406.856 232.243L406.635 231.951ZM408.116 229.179L407.762 229.27L408.116 229.179ZM402.316 221.089L402.565 220.82L402.559 220.815L402.553 220.81L402.316 221.089ZM400.424 220.043L400.393 220.408L400.393 220.408L400.424 220.043ZM410.663 236.061L405.645 239.858L406.086 240.441L411.104 236.644L410.663 236.061ZM405.645 239.858C405.362 240.072 405.17 240.115 405.037 240.096C404.904 240.078 404.731 239.985 404.517 239.702L403.934 240.143C404.205 240.502 404.532 240.765 404.937 240.821C405.342 240.877 405.727 240.713 406.086 240.441L405.645 239.858ZM404.517 239.702L390.301 220.913L389.717 221.354L403.934 240.143L404.517 239.702ZM390.301 220.913C390.1 220.648 390.053 220.454 390.071 220.312C390.089 220.172 390.181 219.994 390.457 219.785L390.015 219.202C389.649 219.479 389.396 219.815 389.345 220.22C389.294 220.624 389.454 221.007 389.717 221.354L390.301 220.913ZM390.457 219.785L395.358 216.077L394.917 215.493L390.015 219.202L390.457 219.785ZM395.358 216.077C396.706 215.057 397.94 214.394 399.069 214.024L398.841 213.329C397.618 213.73 396.312 214.438 394.917 215.493L395.358 216.077ZM399.069 214.024C400.179 213.66 401.322 213.619 402.512 213.858L402.656 213.141C401.356 212.879 400.084 212.921 398.841 213.329L399.069 214.024ZM402.497 213.855C403.669 214.141 404.909 214.785 406.182 215.876L406.658 215.32C405.316 214.169 403.975 213.463 402.671 213.144L402.497 213.855ZM406.182 215.876C407.462 216.974 408.849 218.505 410.363 220.506L410.946 220.064C409.414 218.039 407.992 216.465 406.658 215.32L406.182 215.876ZM410.363 220.506C412.38 223.172 413.63 225.428 414.236 227.289L414.931 227.063C414.291 225.095 412.99 222.766 410.946 220.064L410.363 220.506ZM414.236 227.289C414.838 229.142 414.804 230.714 414.241 231.989L414.91 232.285C415.564 230.803 415.574 229.038 414.931 227.063L414.236 227.289ZM414.239 231.992C413.658 233.34 412.475 234.689 410.663 236.061L411.104 236.644C412.968 235.234 414.26 233.792 414.911 232.282L414.239 231.992ZM398.581 220.336L398.114 220.69L398.556 221.273L399.023 220.92L398.581 220.336ZM398.043 221.202L406.344 232.172L406.927 231.73L398.627 220.761L398.043 221.202ZM406.856 232.243L407.44 231.801L406.998 231.218L406.415 231.659L406.856 232.243ZM407.44 231.801C407.89 231.461 408.222 231.057 408.404 230.591C408.587 230.121 408.607 229.614 408.471 229.087L407.762 229.27C407.864 229.665 407.844 230.014 407.722 230.325C407.6 230.639 407.365 230.94 406.998 231.218L407.44 231.801ZM408.471 229.087C408.338 228.573 408.015 227.913 407.526 227.113C407.033 226.307 406.355 225.335 405.49 224.192L404.907 224.634C405.764 225.767 406.426 226.717 406.902 227.495C407.382 228.279 407.657 228.864 407.762 229.27L408.471 229.087ZM405.49 224.192C404.336 222.667 403.351 221.547 402.565 220.82L402.068 221.357C402.81 222.043 403.765 223.125 404.907 224.634L405.49 224.192ZM402.553 220.81C401.774 220.148 401.068 219.731 400.455 219.679L400.393 220.408C400.761 220.439 401.316 220.719 402.079 221.368L402.553 220.81ZM400.455 219.679C399.846 219.627 399.21 219.861 398.581 220.336L399.023 220.92C399.561 220.513 400.021 220.376 400.393 220.408L400.455 219.679ZM419.379 217.17L419.059 217.346L419.262 217.717L419.6 217.462L419.379 217.17ZM421.655 215.448L421.876 215.74L422.213 215.484L421.912 215.187L421.655 215.448ZM415.013 208.913L415.269 208.652L415.044 208.43L414.792 208.621L415.013 208.913ZM414.896 209.001L414.675 208.709L414.423 208.9L414.575 209.177L414.896 209.001ZM415.911 201.672L416.162 201.406L416.156 201.4L416.149 201.395L415.911 201.672ZM433.146 217.902L432.895 218.168L432.898 218.171L433.146 217.902ZM433.574 218.771L433.209 218.754L433.574 218.771ZM427.837 222.102L428.095 221.843L428.093 221.841L427.837 222.102ZM425.537 219.851L425.793 219.59L425.568 219.369L425.316 219.559L425.537 219.851ZM422.561 222.103L422.341 221.811L422.089 222.001L422.24 222.278L422.561 222.103ZM424.103 224.928L424.43 224.766L424.427 224.759L424.424 224.753L424.103 224.928ZM419.308 229.566L419.39 229.209L419.308 229.566ZM418.617 228.895L418.943 228.73L418.941 228.726L418.617 228.895ZM407.684 207.898L407.358 208.065L407.359 208.067L407.684 207.898ZM419.6 217.462L421.876 215.74L421.434 215.156L419.159 216.878L419.6 217.462ZM421.912 215.187L415.269 208.652L414.756 209.174L421.398 215.709L421.912 215.187ZM414.792 208.621L414.675 208.709L415.117 209.293L415.233 209.205L414.792 208.621ZM414.575 209.177L419.059 217.346L419.7 216.994L415.217 208.825L414.575 209.177ZM408.474 206.153L414.017 201.959L413.576 201.375L408.032 205.569L408.474 206.153ZM414.017 201.959C414.353 201.705 414.641 201.608 414.89 201.61C415.136 201.612 415.395 201.711 415.673 201.95L416.149 201.395C415.774 201.073 415.355 200.882 414.896 200.878C414.441 200.874 413.999 201.055 413.576 201.375L414.017 201.959ZM415.66 201.939L432.895 218.168L433.397 217.635L416.162 201.406L415.66 201.939ZM432.898 218.171C433.145 218.398 433.215 218.607 433.209 218.754L433.939 218.788C433.959 218.364 433.749 217.959 433.394 217.632L432.898 218.171ZM433.209 218.754C433.202 218.896 433.118 219.07 432.881 219.249L433.322 219.833C433.669 219.57 433.919 219.216 433.939 218.788L433.209 218.754ZM432.881 219.249L429.292 221.965L429.734 222.548L433.322 219.833L432.881 219.249ZM429.292 221.965C429.049 222.149 428.856 222.2 428.696 222.186C428.532 222.171 428.334 222.08 428.095 221.843L427.579 222.362C427.891 222.671 428.239 222.878 428.63 222.914C429.024 222.95 429.394 222.805 429.734 222.548L429.292 221.965ZM428.093 221.841L425.793 219.59L425.281 220.113L427.581 222.364L428.093 221.841ZM425.316 219.559L422.341 221.811L422.782 222.395L425.758 220.143L425.316 219.559ZM422.24 222.278L423.781 225.103L424.424 224.753L422.882 221.928L422.24 222.278ZM423.775 225.09C423.927 225.399 423.959 225.625 423.927 225.794C423.897 225.956 423.799 226.122 423.574 226.291L424.016 226.875C424.346 226.625 424.575 226.313 424.646 225.928C424.717 225.55 424.625 225.158 424.43 224.766L423.775 225.09ZM423.574 226.291L419.986 229.007L420.427 229.59L424.016 226.875L423.574 226.291ZM419.986 229.007C419.714 229.212 419.525 229.24 419.39 229.209L419.225 229.922C419.647 230.02 420.057 229.871 420.427 229.59L419.986 229.007ZM419.39 229.209C419.271 229.181 419.11 229.061 418.943 228.73L418.29 229.06C418.492 229.46 418.788 229.82 419.225 229.922L419.39 229.209ZM418.941 228.726L408.008 207.729L407.359 208.067L418.292 229.064L418.941 228.726ZM408.009 207.73C407.848 207.417 407.823 207.147 407.89 206.909C407.958 206.665 408.138 206.407 408.474 206.153L408.032 205.569C407.61 205.889 407.309 206.27 407.185 206.711C407.059 207.158 407.129 207.619 407.358 208.065L408.009 207.73ZM436.481 204.78L436.13 204.885L436.149 204.948L436.189 205.001L436.481 204.78ZM431.113 208.842L431.405 208.622L431.365 208.569L431.309 208.533L431.113 208.842ZM417.811 200.418L418.007 200.109L417.976 200.089L417.942 200.076L417.811 200.418ZM417.23 199.711L417.586 199.628L417.586 199.628L417.23 199.711ZM423.243 195.895L423.477 195.614L423.473 195.61L423.243 195.895ZM427.576 199.499L427.834 199.24L427.822 199.228L427.81 199.217L427.576 199.499ZM430.008 201.925L429.75 202.184L429.975 202.409L430.229 202.217L430.008 201.925ZM430.125 201.837L430.345 202.128L430.599 201.936L430.444 201.658L430.125 201.837ZM428.451 198.836L428.117 198.985L428.123 199L428.131 199.015L428.451 198.836ZM426.161 193.688L426.495 193.539L426.49 193.528L426.161 193.688ZM431.438 188.96L431.261 189.28L431.261 189.28L431.438 188.96ZM431.99 189.69L431.63 189.757L431.634 189.776L431.639 189.794L431.99 189.69ZM436.189 205.001L441.355 211.828L441.938 211.387L436.773 204.56L436.189 205.001ZM441.355 211.828C441.564 212.104 441.604 212.3 441.583 212.44C441.562 212.581 441.464 212.755 441.199 212.956L441.64 213.539C441.988 213.276 442.246 212.951 442.307 212.549C442.368 212.144 442.215 211.752 441.938 211.387L441.355 211.828ZM441.199 212.956L437.698 215.605L438.139 216.188L441.64 213.539L441.199 212.956ZM437.698 215.605C437.415 215.819 437.223 215.862 437.09 215.843C436.957 215.825 436.784 215.731 436.57 215.448L435.987 215.89C436.258 216.249 436.585 216.512 436.99 216.568C437.395 216.624 437.78 216.46 438.139 216.188L437.698 215.605ZM436.57 215.448L431.405 208.622L430.821 209.063L435.987 215.89L436.57 215.448ZM431.309 208.533L418.007 200.109L417.615 200.727L430.917 209.151L431.309 208.533ZM417.942 200.076C417.834 200.036 417.765 199.983 417.715 199.921C417.664 199.856 417.618 199.764 417.586 199.628L416.874 199.794C416.924 200.008 417.008 200.209 417.146 200.379C417.285 200.553 417.465 200.678 417.681 200.76L417.942 200.076ZM417.586 199.628C417.548 199.465 417.591 199.254 417.93 198.998L417.488 198.415C417.009 198.777 416.748 199.255 416.874 199.794L417.586 199.628ZM417.93 198.998L421.606 196.217L421.164 195.633L417.488 198.415L417.93 198.998ZM421.606 196.217C421.883 196.006 422.128 195.92 422.341 195.916C422.551 195.912 422.773 195.986 423.014 196.18L423.473 195.61C423.126 195.331 422.74 195.177 422.328 195.185C421.919 195.192 421.528 195.358 421.164 195.633L421.606 196.217ZM423.009 196.176L427.342 199.78L427.81 199.217L423.477 195.614L423.009 196.176ZM427.317 199.758L429.75 202.184L430.266 201.666L427.834 199.24L427.317 199.758ZM430.229 202.217L430.345 202.128L429.904 201.545L429.787 201.633L430.229 202.217ZM430.444 201.658L428.77 198.658L428.131 199.015L429.805 202.015L430.444 201.658ZM428.785 198.688L426.495 193.539L425.826 193.836L428.117 198.985L428.785 198.688ZM426.49 193.528C426.36 193.259 426.346 193.036 426.404 192.842C426.465 192.641 426.62 192.423 426.915 192.199L426.474 191.615C426.099 191.9 425.824 192.236 425.704 192.63C425.583 193.031 425.637 193.444 425.831 193.847L426.49 193.528ZM426.915 192.199L430.591 189.418L430.15 188.834L426.474 191.615L426.915 192.199ZM430.591 189.418C430.894 189.188 431.11 189.197 431.261 189.28L431.615 188.64C431.136 188.375 430.606 188.489 430.15 188.834L430.591 189.418ZM431.261 189.28C431.492 189.408 431.593 189.554 431.63 189.757L432.35 189.623C432.268 189.182 432.015 188.861 431.615 188.64L431.261 189.28ZM431.639 189.794L436.13 204.885L436.832 204.676L432.341 189.585L431.639 189.794ZM451.557 174.517L451.289 174.766L451.291 174.769L451.557 174.517ZM459.348 182.752L459.621 182.509L459.614 182.501L459.348 182.752ZM462.649 186.448L462.377 186.692L462.601 186.943L462.87 186.74L462.649 186.448ZM462.708 186.404L462.928 186.696L463.192 186.497L463.021 186.215L462.708 186.404ZM460.136 182.156L459.818 182.337L459.823 182.346L460.136 182.156ZM454.533 172.265L454.212 172.441L454.215 172.446L454.533 172.265ZM459.613 167.458L459.53 167.815L459.53 167.815L459.613 167.458ZM460.31 168.077L459.981 168.237L459.986 168.248L460.31 168.077ZM471.221 188.863L471.548 188.699L471.545 188.693L471.221 188.863ZM463.985 194.338L463.724 194.593L463.729 194.599L463.985 194.338ZM459.914 190.17L459.647 190.42L459.652 190.425L459.914 190.17ZM455.82 185.789L456.087 185.54L455.862 185.299L455.599 185.498L455.82 185.789ZM455.761 185.834L455.541 185.542L455.278 185.741L455.448 186.023L455.761 185.834ZM458.864 190.964L459.181 190.782L459.177 190.775L458.864 190.964ZM461.768 196.015L462.095 195.852L462.09 195.842L462.085 195.833L461.768 196.015ZM454.533 201.49L454.789 201.229L454.784 201.225L454.533 201.49ZM437.496 185.34L437.747 185.075L437.738 185.067L437.496 185.34ZM437.06 184.523L437.426 184.54L437.426 184.54L437.06 184.523ZM443.096 180.919L443.357 180.662L443.348 180.653L443.339 180.645L443.096 180.919ZM451.092 189L451.359 188.75L451.352 188.742L451.092 189ZM454.48 192.629L454.213 192.879L454.438 193.12L454.701 192.921L454.48 192.629ZM454.539 192.585L454.76 192.877L455.028 192.673L454.847 192.389L454.539 192.585ZM451.88 188.404L451.565 188.591L451.571 188.6L451.88 188.404ZM446.072 178.667L446.387 178.48L446.385 178.477L446.072 178.667ZM446.601 177.304L450.102 174.655L449.66 174.072L446.159 176.721L446.601 177.304ZM450.102 174.655C450.34 174.475 450.545 174.421 450.717 174.437C450.889 174.453 451.083 174.544 451.289 174.766L451.825 174.268C451.531 173.951 451.179 173.745 450.784 173.708C450.388 173.671 450.006 173.81 449.66 174.072L450.102 174.655ZM451.291 174.769L459.083 183.004L459.614 182.501L451.823 174.266L451.291 174.769ZM459.075 182.996L462.377 186.692L462.922 186.205L459.621 182.509L459.075 182.996ZM462.87 186.74L462.928 186.696L462.487 186.112L462.429 186.156L462.87 186.74ZM463.021 186.215L460.449 181.967L459.823 182.346L462.395 186.594L463.021 186.215ZM460.454 181.976L454.851 172.085L454.215 172.446L459.818 182.337L460.454 181.976ZM454.854 172.09C454.702 171.812 454.666 171.593 454.696 171.423C454.724 171.257 454.825 171.081 455.061 170.902L454.62 170.319C454.273 170.581 454.043 170.908 453.975 171.297C453.908 171.681 454.01 172.069 454.212 172.44L454.854 172.09ZM455.061 170.902L458.942 167.966L458.5 167.383L454.62 170.319L455.061 170.902ZM458.942 167.966C459.153 167.806 459.364 167.776 459.53 167.815L459.695 167.102C459.304 167.011 458.872 167.101 458.5 167.383L458.942 167.966ZM459.53 167.815C459.678 167.849 459.856 167.977 459.981 168.237L460.64 167.918C460.44 167.506 460.104 167.197 459.695 167.102L459.53 167.815ZM459.986 168.248L470.897 189.033L471.545 188.693L460.634 167.907L459.986 168.248ZM470.894 189.027C471.098 189.435 471.149 189.749 471.106 189.996C471.064 190.235 470.924 190.464 470.628 190.688L471.07 191.271C471.475 190.965 471.745 190.585 471.827 190.123C471.907 189.668 471.794 189.19 471.548 188.699L470.894 189.027ZM470.628 190.688L465.902 194.264L466.344 194.847L471.07 191.271L470.628 190.688ZM465.902 194.264C465.606 194.488 465.338 194.566 465.093 194.543C464.843 194.52 464.558 194.387 464.242 194.077L463.729 194.599C464.125 194.987 464.559 195.229 465.025 195.272C465.495 195.316 465.94 195.153 466.344 194.847L465.902 194.264ZM464.247 194.082L460.176 189.914L459.652 190.425L463.724 194.593L464.247 194.082ZM460.181 189.92L456.087 185.54L455.552 186.039L459.647 190.419L460.181 189.92ZM455.599 185.498L455.541 185.542L455.982 186.125L456.04 186.081L455.599 185.498ZM455.448 186.023L458.551 191.154L459.177 190.775L456.074 185.644L455.448 186.023ZM458.546 191.147L461.451 196.198L462.085 195.833L459.181 190.782L458.546 191.147ZM461.441 196.179C461.645 196.587 461.697 196.902 461.653 197.148C461.611 197.387 461.471 197.616 461.176 197.84L461.617 198.423C462.022 198.117 462.293 197.738 462.374 197.275C462.454 196.82 462.341 196.342 462.095 195.852L461.441 196.179ZM461.176 197.84L456.449 201.416L456.891 202L461.617 198.423L461.176 197.84ZM456.449 201.416C456.153 201.64 455.885 201.718 455.64 201.696C455.391 201.673 455.106 201.54 454.789 201.229L454.276 201.751C454.672 202.14 455.106 202.381 455.572 202.424C456.042 202.468 456.487 202.305 456.891 202L456.449 201.416ZM454.784 201.225L437.747 185.075L437.244 185.606L454.281 201.756L454.784 201.225ZM437.738 185.067C437.496 184.852 437.42 184.665 437.426 184.54L436.695 184.505C436.674 184.951 436.937 185.334 437.253 185.614L437.738 185.067ZM437.426 184.54C437.434 184.376 437.515 184.179 437.761 183.993L437.319 183.409C436.923 183.709 436.714 184.098 436.695 184.505L437.426 184.54ZM437.761 183.993L441.641 181.057L441.199 180.473L437.319 183.409L437.761 183.993ZM441.641 181.057C441.858 180.892 442.048 180.845 442.219 180.863C442.399 180.882 442.611 180.977 442.854 181.193L443.339 180.645C443.024 180.366 442.675 180.175 442.295 180.135C441.906 180.095 441.536 180.219 441.199 180.473L441.641 181.057ZM442.836 181.176L450.832 189.257L451.352 188.742L443.357 180.662L442.836 181.176ZM450.824 189.249L454.213 192.879L454.748 192.38L451.359 188.75L450.824 189.249ZM454.701 192.921L454.76 192.877L454.318 192.293L454.26 192.338L454.701 192.921ZM454.847 192.389L452.188 188.207L451.571 188.6L454.23 192.781L454.847 192.389ZM452.194 188.216L446.387 178.48L445.758 178.855L451.565 188.591L452.194 188.216ZM446.385 178.477C446.223 178.212 446.185 178.004 446.213 177.841C446.241 177.68 446.345 177.498 446.601 177.304L446.159 176.721C445.802 176.991 445.561 177.322 445.492 177.716C445.424 178.107 445.539 178.495 445.76 178.858L446.385 178.477ZM475.681 174.524L475.46 174.232L475.168 174.453L475.389 174.744L475.681 174.524ZM478.131 177.762L477.839 177.983L478.06 178.274L478.352 178.054L478.131 177.762ZM469.919 166.909L469.698 166.617L469.407 166.838L469.627 167.13L469.919 166.909ZM472.104 169.797L471.813 170.018L472.033 170.31L472.325 170.089L472.104 169.797ZM480.011 170.788L475.46 174.232L475.901 174.815L480.453 171.372L480.011 170.788ZM475.389 174.744L477.839 177.983L478.423 177.541L475.972 174.303L475.389 174.744ZM478.352 178.054L483.312 174.301L482.87 173.717L477.91 177.47L478.352 178.054ZM483.312 174.301C483.569 174.106 483.768 174.061 483.916 174.082C484.065 174.102 484.244 174.199 484.439 174.457L485.022 174.016C484.754 173.661 484.419 173.412 484.017 173.357C483.614 173.301 483.225 173.449 482.87 173.717L483.312 174.301ZM484.439 174.457L486.735 177.491L487.318 177.05L485.022 174.016L484.439 174.457ZM486.735 177.491C486.944 177.767 486.984 177.964 486.963 178.103C486.942 178.245 486.844 178.418 486.579 178.619L487.02 179.202C487.368 178.939 487.626 178.614 487.687 178.212C487.747 177.808 487.595 177.416 487.318 177.05L486.735 177.491ZM486.579 178.619L477.243 185.683L477.684 186.266L487.02 179.202L486.579 178.619ZM477.243 185.683C476.96 185.897 476.768 185.94 476.635 185.921C476.502 185.903 476.329 185.81 476.115 185.527L475.532 185.968C475.803 186.327 476.13 186.59 476.535 186.646C476.94 186.702 477.325 186.538 477.684 186.266L477.243 185.683ZM476.115 185.527L461.899 166.738L461.315 167.18L475.532 185.968L476.115 185.527ZM461.899 166.738C461.698 166.473 461.651 166.279 461.669 166.137C461.687 165.997 461.779 165.819 462.055 165.611L461.613 165.027C461.248 165.304 460.994 165.64 460.943 166.045C460.892 166.449 461.052 166.832 461.315 167.18L461.899 166.738ZM462.055 165.611L471.274 158.635L470.833 158.051L461.613 165.027L462.055 165.611ZM471.274 158.635C471.532 158.44 471.731 158.395 471.879 158.415C472.028 158.436 472.206 158.533 472.402 158.791L472.985 158.349C472.717 157.995 472.382 157.746 471.98 157.691C471.577 157.635 471.187 157.783 470.833 158.051L471.274 158.635ZM472.402 158.791L474.697 161.825L475.281 161.384L472.985 158.349L472.402 158.791ZM474.697 161.825C474.906 162.101 474.947 162.297 474.926 162.437C474.904 162.578 474.806 162.752 474.541 162.953L474.983 163.536C475.331 163.273 475.589 162.948 475.649 162.546C475.71 162.141 475.558 161.75 475.281 161.384L474.697 161.825ZM474.541 162.953L469.698 166.617L470.14 167.201L474.983 163.536L474.541 162.953ZM469.627 167.13L471.813 170.018L472.396 169.576L470.211 166.688L469.627 167.13ZM472.325 170.089L476.876 166.645L476.435 166.062L471.884 169.505L472.325 170.089ZM476.876 166.645C477.134 166.45 477.333 166.405 477.481 166.426C477.63 166.446 477.809 166.543 478.004 166.801L478.588 166.36C478.319 166.005 477.984 165.757 477.582 165.701C477.179 165.645 476.79 165.793 476.435 166.062L476.876 166.645ZM478.004 166.801L480.167 169.661L480.751 169.219L478.588 166.36L478.004 166.801ZM480.167 169.661C480.376 169.937 480.417 170.133 480.396 170.272C480.374 170.414 480.276 170.588 480.011 170.788L480.453 171.372C480.801 171.108 481.059 170.783 481.119 170.381C481.18 169.977 481.028 169.585 480.751 169.219L480.167 169.661ZM488.701 164.672L488.48 164.38L488.189 164.601L488.409 164.892L488.701 164.672ZM491.151 167.91L490.86 168.131L491.08 168.422L491.372 168.202L491.151 167.91ZM482.939 157.057L482.719 156.765L482.427 156.986L482.648 157.278L482.939 157.057ZM485.125 159.945L484.833 160.166L485.054 160.458L485.346 160.237L485.125 159.945ZM493.032 160.936L488.48 164.38L488.922 164.963L493.473 161.52L493.032 160.936ZM488.409 164.892L490.86 168.131L491.443 167.689L488.993 164.451L488.409 164.892ZM491.372 168.202L496.332 164.449L495.89 163.865L490.931 167.618L491.372 168.202ZM496.332 164.449C496.59 164.254 496.788 164.209 496.937 164.23C497.085 164.25 497.264 164.347 497.459 164.605L498.043 164.164C497.775 163.809 497.44 163.561 497.037 163.505C496.635 163.449 496.245 163.597 495.89 163.865L496.332 164.449ZM497.459 164.605L499.755 167.639L500.339 167.198L498.043 164.164L497.459 164.605ZM499.755 167.639C499.964 167.915 500.004 168.112 499.983 168.251C499.962 168.393 499.864 168.566 499.599 168.767L500.041 169.35C500.388 169.087 500.647 168.762 500.707 168.36C500.768 167.956 500.616 167.564 500.339 167.198L499.755 167.639ZM499.599 168.767L490.263 175.831L490.705 176.414L500.041 169.35L499.599 168.767ZM490.263 175.831C489.98 176.045 489.789 176.088 489.655 176.069C489.522 176.051 489.35 175.958 489.136 175.675L488.552 176.116C488.824 176.475 489.15 176.738 489.555 176.794C489.96 176.85 490.346 176.686 490.705 176.414L490.263 175.831ZM489.136 175.675L474.919 156.886L474.336 157.328L488.552 176.116L489.136 175.675ZM474.919 156.886C474.719 156.621 474.671 156.427 474.689 156.285C474.707 156.145 474.799 155.967 475.075 155.759L474.634 155.175C474.268 155.452 474.015 155.788 473.963 156.193C473.912 156.597 474.072 156.98 474.336 157.328L474.919 156.886ZM475.075 155.759L484.295 148.783L483.853 148.199L474.634 155.175L475.075 155.759ZM484.295 148.783C484.553 148.588 484.751 148.543 484.9 148.563C485.048 148.584 485.227 148.681 485.422 148.939L486.006 148.498C485.737 148.143 485.402 147.894 485 147.839C484.598 147.783 484.208 147.931 483.853 148.199L484.295 148.783ZM485.422 148.939L487.718 151.973L488.301 151.532L486.006 148.498L485.422 148.939ZM487.718 151.973C487.927 152.249 487.967 152.445 487.946 152.585C487.925 152.726 487.827 152.9 487.562 153.101L488.003 153.684C488.351 153.421 488.609 153.096 488.67 152.694C488.731 152.29 488.578 151.898 488.301 151.532L487.718 151.973ZM487.562 153.101L482.719 156.765L483.16 157.349L488.003 153.684L487.562 153.101ZM482.648 157.278L484.833 160.166L485.417 159.725L483.231 156.836L482.648 157.278ZM485.346 160.237L489.897 156.793L489.455 156.21L484.904 159.654L485.346 160.237ZM489.897 156.793C490.155 156.598 490.353 156.553 490.502 156.574C490.65 156.594 490.829 156.692 491.024 156.949L491.608 156.508C491.34 156.153 491.005 155.905 490.602 155.849C490.2 155.793 489.81 155.941 489.455 156.21L489.897 156.793ZM491.024 156.949L493.188 159.809L493.771 159.367L491.608 156.508L491.024 156.949ZM493.188 159.809C493.397 160.085 493.437 160.281 493.416 160.42C493.395 160.562 493.296 160.736 493.032 160.936L493.473 161.52C493.821 161.256 494.079 160.931 494.14 160.529C494.2 160.125 494.048 159.733 493.771 159.367L493.188 159.809ZM497.387 148.97L497.095 149.19L497.742 148.882L497.387 148.97ZM495.481 141.236L495.836 141.149L495.834 141.14L495.481 141.236ZM500.627 136.517L500.789 136.189L500.789 136.189L500.627 136.517ZM501.186 137.378L500.827 137.445L500.828 137.454L500.83 137.462L501.186 137.378ZM503.675 147.882L503.319 147.966L503.353 148.111L503.478 148.191L503.675 147.882ZM515.458 155.391L515.657 155.083L515.655 155.082L515.458 155.391ZM516.105 156.185L516.465 156.118L516.105 156.185ZM510.136 159.877L510.352 159.581L510.344 159.576L510.336 159.571L510.136 159.877ZM501.206 154.017L501.407 153.711L500.914 154.238L501.206 154.017ZM497.742 148.882L495.836 141.149L495.126 141.324L497.032 149.057L497.742 148.882ZM495.834 141.14C495.742 140.804 495.74 140.541 495.802 140.33C495.863 140.123 495.995 139.93 496.236 139.748L495.794 139.164C495.451 139.424 495.212 139.741 495.1 140.124C494.989 140.502 495.012 140.909 495.128 141.333L495.834 141.14ZM496.236 139.748L499.853 137.01L499.412 136.427L495.794 139.164L496.236 139.748ZM499.853 137.01C500.149 136.786 500.348 136.787 500.465 136.845L500.789 136.189C500.318 135.956 499.816 136.121 499.412 136.427L499.853 137.01ZM500.465 136.845C500.619 136.921 500.765 137.11 500.827 137.445L501.546 137.311C501.459 136.841 501.221 136.403 500.789 136.189L500.465 136.845ZM500.83 137.462L503.319 147.966L504.031 147.798L501.542 137.294L500.83 137.462ZM503.478 148.191L515.262 155.699L515.655 155.082L503.872 147.573L503.478 148.191ZM515.259 155.698C515.591 155.912 515.714 156.08 515.746 156.252L516.465 156.118C516.377 155.647 516.045 155.334 515.657 155.083L515.259 155.698ZM515.746 156.252C515.772 156.391 515.733 156.559 515.449 156.774L515.891 157.357C516.307 157.042 516.559 156.623 516.465 156.118L515.746 156.252ZM515.449 156.774L511.773 159.555L512.215 160.139L515.891 157.357L515.449 156.774ZM511.773 159.555C511.514 159.752 511.276 159.835 511.059 159.839C510.844 159.843 510.609 159.77 510.352 159.581L509.92 160.172C510.279 160.435 510.667 160.578 511.073 160.571C511.479 160.563 511.862 160.406 512.215 160.139L511.773 159.555ZM510.336 159.571L501.407 153.711L501.005 154.323L509.935 160.183L510.336 159.571ZM500.914 154.238L506.941 162.202L507.524 161.761L501.498 153.796L500.914 154.238ZM506.941 162.202C507.15 162.478 507.19 162.675 507.169 162.814C507.148 162.956 507.049 163.13 506.784 163.33L507.226 163.913C507.574 163.65 507.832 163.325 507.892 162.923C507.953 162.519 507.801 162.127 507.524 161.761L506.941 162.202ZM506.784 163.33L503.284 165.979L503.725 166.562L507.226 163.913L506.784 163.33ZM503.284 165.979C503.001 166.193 502.809 166.236 502.676 166.218C502.543 166.199 502.37 166.106 502.156 165.823L501.573 166.264C501.844 166.623 502.17 166.886 502.575 166.942C502.981 166.998 503.366 166.834 503.725 166.562L503.284 165.979ZM502.156 165.823L487.94 147.034L487.356 147.476L501.573 166.264L502.156 165.823ZM487.94 147.034C487.739 146.769 487.692 146.575 487.71 146.433C487.728 146.293 487.82 146.115 488.096 145.907L487.654 145.323C487.288 145.6 487.035 145.936 486.984 146.341C486.933 146.745 487.093 147.128 487.356 147.476L487.94 147.034ZM488.096 145.907L491.597 143.258L491.155 142.674L487.654 145.323L488.096 145.907ZM491.597 143.258C491.855 143.062 492.053 143.018 492.202 143.038C492.35 143.059 492.529 143.156 492.724 143.414L493.308 142.972C493.039 142.618 492.704 142.369 492.302 142.313C491.9 142.258 491.51 142.406 491.155 142.674L491.597 143.258ZM492.724 143.414L497.095 149.19L497.679 148.749L493.308 142.972L492.724 143.414ZM526.263 147.261L526.616 147.354L526.263 147.261ZM518.29 154.854L518.16 154.512L518.158 154.513L518.29 154.854ZM517.186 155.093L517.136 155.455L517.186 155.093ZM514.933 150.053L514.82 149.705L514.81 149.708L514.801 149.712L514.933 150.053ZM517.742 144.671L517.828 144.315L517.819 144.313L517.809 144.311L517.742 144.671ZM514.675 144.559L514.663 144.194L514.662 144.194L514.675 144.559ZM509.938 143.877L510.063 143.533L509.938 143.877ZM504.025 135.092L504.386 135.154L504.386 135.154L504.025 135.092ZM511.465 127.765L511.322 127.429L511.313 127.433L511.465 127.765ZM512.481 127.593L512.564 127.236L512.564 127.236L512.481 127.593ZM514.83 132.697L514.973 133.034L514.982 133.03L514.83 132.697ZM516.088 137.756L516.094 137.39L516.085 137.39L516.088 137.756ZM521.184 138.488L521.322 138.149L521.309 138.144L521.184 138.488ZM524.409 141.598C525.909 143.58 526.369 145.418 525.909 147.168L526.616 147.354C527.15 145.325 526.584 143.259 524.993 141.157L524.409 141.598ZM525.909 147.168C525.437 148.962 524.302 150.534 522.485 151.909L522.926 152.493C524.844 151.042 526.094 149.34 526.616 147.354L525.909 147.168ZM522.485 151.909C520.746 153.224 519.326 154.071 518.16 154.512L518.419 155.196C519.679 154.719 521.164 153.826 522.926 152.493L522.485 151.909ZM518.158 154.513C517.662 154.704 517.39 154.751 517.236 154.73L517.136 155.455C517.494 155.505 517.924 155.388 518.422 155.195L518.158 154.513ZM517.236 154.73C517.137 154.716 516.958 154.61 516.7 154.268L516.116 154.709C516.387 155.067 516.723 155.398 517.136 155.455L517.236 154.73ZM516.7 154.268L514.558 151.438L513.975 151.879L516.116 154.709L516.7 154.268ZM514.558 151.438C514.324 151.129 514.331 150.964 514.367 150.876C514.416 150.757 514.589 150.579 515.065 150.394L514.801 149.712C514.283 149.913 513.858 150.187 513.69 150.599C513.509 151.042 513.679 151.488 513.975 151.879L514.558 151.438ZM515.046 150.401C515.95 150.109 516.871 149.55 517.847 148.812L517.406 148.228C516.456 148.946 515.611 149.449 514.82 149.705L515.046 150.401ZM517.847 148.812C518.638 148.213 519.198 147.616 519.46 147.016C519.736 146.385 519.673 145.767 519.259 145.22L518.675 145.662C518.924 145.99 518.963 146.326 518.79 146.723C518.602 147.152 518.161 147.657 517.406 148.228L517.847 148.812ZM519.259 145.22C518.891 144.734 518.401 144.454 517.828 144.315L517.656 145.026C518.093 145.132 518.425 145.331 518.675 145.662L519.259 145.22ZM517.809 144.311C517.235 144.203 516.193 144.143 514.663 144.194L514.688 144.925C516.202 144.875 517.18 144.937 517.674 145.03L517.809 144.311ZM514.662 144.194C512.919 144.258 511.407 144.022 510.063 143.533L509.813 144.221C511.255 144.745 512.862 144.992 514.689 144.925L514.662 144.194ZM510.063 143.533C508.759 143.059 507.475 142.016 506.265 140.417L505.682 140.858C506.944 142.526 508.333 143.682 509.813 144.221L510.063 143.533ZM506.265 140.417C504.723 138.379 504.132 136.641 504.386 135.154L503.665 135.031C503.361 136.809 504.089 138.753 505.682 140.858L506.265 140.417ZM504.386 135.154C504.641 133.66 505.858 132.008 508.168 130.26L507.727 129.676C505.369 131.46 503.967 133.258 503.665 135.031L504.386 135.154ZM508.168 130.26C509.555 129.211 510.728 128.505 511.617 128.098L511.313 127.433C510.362 127.868 509.141 128.606 507.727 129.676L508.168 130.26ZM511.609 128.102C511.999 127.936 512.233 127.911 512.399 127.949L512.564 127.236C512.174 127.146 511.764 127.24 511.322 127.429L511.609 128.102ZM512.399 127.949C512.577 127.991 512.773 128.099 512.997 128.395L513.581 127.954C513.275 127.551 512.943 127.324 512.564 127.236L512.399 127.949ZM512.997 128.395L515.205 131.313L515.788 130.871L513.581 127.954L512.997 128.395ZM515.205 131.313C515.401 131.573 515.397 131.731 515.353 131.836C515.294 131.976 515.111 132.167 514.678 132.365L514.982 133.03C515.469 132.807 515.862 132.516 516.028 132.119C516.208 131.688 516.077 131.253 515.788 130.871L515.205 131.313ZM514.687 132.361C513.824 132.729 512.973 133.231 512.164 133.843L512.606 134.426C513.372 133.846 514.171 133.376 514.973 133.034L514.687 132.361ZM512.164 133.843C511.543 134.313 511.114 134.771 510.977 135.246L511.681 135.447C511.746 135.219 512.001 134.884 512.606 134.426L512.164 133.843ZM510.977 135.246C510.831 135.755 511.029 136.284 511.372 136.737L511.955 136.295C511.679 135.931 511.625 135.641 511.681 135.447L510.977 135.246ZM511.372 136.737C511.746 137.232 512.355 137.578 513.135 137.8C513.918 138.023 514.907 138.13 516.091 138.121L516.085 137.39C514.942 137.398 514.028 137.294 513.335 137.097C512.639 136.899 512.198 136.617 511.955 136.295L511.372 136.737ZM516.082 138.121C518.201 138.156 519.846 138.389 521.058 138.831L521.309 138.144C519.986 137.661 518.248 137.425 516.094 137.39L516.082 138.121ZM521.046 138.826C522.232 139.31 523.358 140.208 524.409 141.598L524.993 141.157C523.881 139.688 522.657 138.693 521.322 138.149L521.046 138.826Z" fill="white"/>
</g>
<defs>
<filter id="filter0_d_2563_4761" x="0.90918" y="-671.797" width="1579.87" height="1217.95" filterUnits="userSpaceOnUse" color-interpolation-filters="sRGB">
<feFlood flood-opacity="0" result="BackgroundImageFix"/>
<feColorMatrix in="SourceAlpha" type="matrix" values="0 0 0 0 0 0 0 0 0 0 0 0 0 0 0 0 0 0 127 0" result="hardAlpha"/>
<feOffset dy="4"/>
<feGaussianBlur stdDeviation="2"/>
<feComposite in2="hardAlpha" operator="out"/>
<feColorMatrix type="matrix" values="0 0 0 0 0 0 0 0 0 0 0 0 0 0 0 0 0 0 0.2 0"/>
<feBlend mode="normal" in2="BackgroundImageFix" result="effect1_dropShadow_2563_4761"/>
<feBlend mode="normal" in="SourceGraphic" in2="effect1_dropShadow_2563_4761" result="shape"/>
</filter>
</defs>
</svg>
