<svg width="1440" height="323" viewBox="0 0 1440 323" fill="none" xmlns="http://www.w3.org/2000/svg">
<g filter="url(#filter0_d_2563_1858)">
<rect width="1925.41" height="60.4146" transform="translate(-198.517 0.692871) rotate(23.2713)" fill="black"/>
<path d="M-196.408 30.606L-194.929 31.242C-194.358 31.4878 -193.897 31.5268 -193.546 31.3591C-193.229 31.1769 -192.877 30.7306 -192.588 30.0584C-192.299 29.3863 -192.231 28.8579 -192.317 28.5023C-192.437 28.1323 -192.782 27.8244 -193.354 27.5787L-194.832 26.9427L-196.408 30.606ZM-200.3 46.4155L-207.728 43.2211C-208.467 42.9031 -208.659 42.4225 -208.341 41.6831L-199.032 20.0389C-198.728 19.3332 -198.233 19.108 -197.494 19.426L-190.806 22.3024C-188.251 23.4009 -186.576 24.5992 -185.713 25.9262C-184.85 27.2532 -184.925 29.093 -185.908 31.3784C-187.006 33.9327 -188.636 35.2228 -190.798 35.2489C-189.949 36.0523 -189.431 37.0713 -189.26 38.3398C-189.089 39.6082 -189.321 40.9818 -189.928 42.3934C-191.981 47.1659 -195.46 48.497 -200.3 46.4155ZM-200.441 39.9829L-198.525 40.8068C-197.886 41.0815 -197.392 41.1349 -196.978 40.9145C-196.599 40.6796 -196.233 40.1996 -195.886 39.393C-195.539 38.5864 -195.442 37.9909 -195.533 37.5536C-195.657 37.1019 -196.022 36.7459 -196.66 36.4713L-198.576 35.6474L-200.441 39.9829ZM-175.092 30.3351L-182.405 47.3412L-178.104 49.1913C-177.398 49.4949 -177.187 50.0236 -177.491 50.7294L-179.023 54.2919C-179.341 55.0313 -179.855 55.2084 -180.561 54.9049L-189.971 50.8577C-190.711 50.5397 -190.902 50.059 -190.584 49.3196L-181.276 27.6755C-180.972 26.9697 -180.477 26.7445 -179.738 27.0625L-175.705 28.797C-174.999 29.1006 -174.788 29.6293 -175.092 30.3351ZM-167.09 49.6269L-164.468 50.7543L-162.069 41.75L-162.204 41.6922L-167.09 49.6269ZM-162.757 34.3656L-156.371 37.1119C-155.497 37.4877 -155.166 38.1078 -155.331 38.9531L-160.923 61.9567C-161.015 62.3553 -161.212 62.6289 -161.467 62.7582C-161.722 62.8876 -162.034 62.8728 -162.37 62.7283L-166.504 60.9504C-167.176 60.6613 -167.401 60.1662 -167.198 59.4171L-166.378 56.3052L-169.806 54.8308L-171.5 57.5669C-171.938 58.2149 -172.453 58.392 -173.091 58.1173L-177.225 56.3395C-177.595 56.1805 -177.82 55.964 -177.902 55.6901C-177.983 55.4161 -177.886 55.0992 -177.66 54.7584L-164.809 34.877C-164.342 34.1618 -163.631 33.9898 -162.757 34.3656ZM-147.996 62.6975C-147.256 63.0155 -146.555 63.2374 -145.859 63.3776C-144.994 63.5901 -144.721 64.066 -145.039 64.8054L-146.427 68.0319C-146.73 68.7376 -147.288 69.0156 -148.018 68.8609C-149.209 68.6672 -150.429 68.2622 -151.639 67.7418C-153.319 67.0191 -154.639 66.292 -155.503 65.5223C-156.4 64.7381 -157.014 63.7574 -157.349 62.4983C-157.698 61.2729 -157.701 59.7981 -157.309 58.0548C-156.932 56.3451 -156.171 54.2035 -155.072 51.6492C-154.003 49.1621 -152.986 47.1698 -152.019 45.7539C-151.085 44.3235 -150.046 43.2968 -148.917 42.7074C-147.787 42.1179 -146.653 41.8888 -145.467 42.0008C-144.314 42.0983 -142.897 42.5084 -141.217 43.2311C-140.242 43.6503 -139.191 44.2617 -138 45.0127C-137.338 45.417 -137.156 46.0129 -137.474 46.7523L-138.876 50.0124C-139.194 50.7518 -139.728 50.8808 -140.476 50.3995C-141.057 49.9904 -141.7 49.6341 -142.373 49.345C-143.885 48.6946 -145.033 48.6787 -145.817 49.2974C-146.634 49.9017 -147.602 51.5962 -148.787 54.3522C-149.64 56.3351 -150.161 57.8236 -150.364 58.8514C-150.567 59.8792 -150.457 60.6432 -150.098 61.1961C-149.772 61.7345 -149.071 62.235 -147.996 62.6975ZM-131.807 56.8361L-126.026 51.3574C-125.468 50.8009 -124.886 50.6527 -124.214 50.9418L-120.047 52.7341C-119.643 52.9076 -119.399 53.1721 -119.38 53.4988C-119.361 53.8255 -119.539 54.1471 -119.852 54.4109L-127.754 61.7653L-128.459 75.7197C-128.483 76.1472 -128.58 76.4641 -128.83 76.6752C-129.08 76.8863 -129.406 76.9051 -129.81 76.7316L-134.044 74.9104C-134.75 74.6068 -135.076 74.0684 -134.989 73.3095L-134.307 62.6505L-138.254 71.8257C-138.572 72.5651 -139.086 72.7422 -139.792 72.4387L-143.825 70.7041C-144.564 70.3861 -144.756 69.9055 -144.438 69.1661L-135.129 47.522C-134.825 46.8162 -134.33 46.591 -133.591 46.909L-129.558 48.6435C-128.852 48.9471 -128.641 49.4758 -128.945 50.1816L-131.807 56.8361ZM-106.979 76.4747L-111.953 74.3355L-115.118 81.6959C-115.451 82.4689 -116.013 82.6651 -116.753 82.3471L-120.651 80.6704C-121.424 80.338 -121.635 79.8093 -121.303 79.0363L-112.052 57.5265C-111.734 56.7871 -111.191 56.5428 -110.418 56.8753L-100.2 61.2694C-99.4947 61.5729 -99.284 62.1016 -99.5875 62.8074L-101.091 66.3028C-101.409 67.0422 -101.923 67.2192 -102.629 66.9157L-107.805 64.6897L-109.525 68.6892L-104.551 70.8284C-103.845 71.132 -103.634 71.6607 -103.938 72.3665L-105.441 75.8618C-105.759 76.6012 -106.273 76.7783 -106.979 76.4747ZM-96.1041 76.7311L-95.1631 77.1358C-94.2892 77.5116 -93.6312 77.5557 -93.1888 77.268C-92.7465 76.9803 -92.2652 76.2315 -91.7593 75.0552C-91.2678 73.9125 -91.0553 73.0481 -91.1508 72.5291C-91.2462 72.0102 -91.7164 71.5292 -92.5902 71.1534L-93.5312 70.7487L-96.1041 76.7311ZM-96.2404 62.9725L-90.1908 65.5743C-87.0987 66.9041 -85.1888 68.4822 -84.4656 70.2269C-83.7425 71.9717 -84.0723 74.4981 -85.4744 77.7582C-87.0644 81.4552 -89.1997 83.3644 -91.8468 83.5004L-91.7129 91.523C-91.6999 92.6039 -92.123 92.9397 -92.9969 92.5639L-97.0972 90.8004C-97.5341 90.6125 -97.8221 90.4488 -97.9659 90.2277C-98.1098 90.0065 -98.2103 89.6845 -98.1712 89.2234L-98.0229 82.1186L-98.359 81.9741L-100.903 87.8892C-101.221 88.6286 -101.735 88.8057 -102.441 88.5022L-106.474 86.7677C-107.213 86.4497 -107.405 85.969 -107.087 85.2296L-97.7784 63.5855C-97.4749 62.8797 -96.9798 62.6545 -96.2404 62.9725ZM-89.5573 92.7687L-80.2487 71.1245C-79.9452 70.4188 -79.4501 70.1936 -78.7107 70.5116L-74.6776 72.2461C-73.9718 72.5497 -73.7611 73.0784 -74.0647 73.7841L-83.3733 95.4283C-83.6913 96.1677 -84.2055 96.3448 -84.9113 96.0412L-88.9444 94.3067C-89.6838 93.9887 -89.8753 93.5081 -89.5573 92.7687ZM-74.4363 100.546L-80.2171 98.0601C-80.9565 97.7421 -81.148 97.2615 -80.83 96.5221L-71.5214 74.8779C-71.2179 74.1721 -70.7228 73.947 -69.9834 74.265L-64.3371 76.6933C-62.7575 77.3727 -61.5335 78.138 -60.617 78.9703C-59.7005 79.8025 -59.0677 80.8314 -58.6705 82.0376C-58.3213 83.2631 -58.2703 84.7187 -58.5992 86.4093C-58.928 88.0998 -59.5838 90.0878 -60.5812 92.4068C-61.911 95.4988 -63.2733 97.7405 -64.6299 99.228C-65.9865 100.716 -67.4479 101.521 -68.9469 101.673C-70.494 101.844 -72.319 101.457 -74.4363 100.546ZM-66.7365 82.2724L-67.2743 82.0411L-72.7091 94.6781L-72.0369 94.9672C-71.0959 95.3719 -70.2502 95.2577 -69.5672 94.5956C-68.8842 93.9335 -67.9935 92.3254 -66.866 89.7039C-66.1144 87.9562 -65.6371 86.5685 -65.4004 85.5552C-65.2118 84.561 -65.2205 83.8404 -65.4265 83.3934C-65.6325 82.9463 -66.0643 82.5615 -66.7365 82.2724ZM-53.5613 98.4526L-50.9398 99.5801L-48.5408 90.5758L-48.6753 90.518L-53.5613 98.4526ZM-49.228 83.1913L-42.8423 85.9377C-41.9685 86.3135 -41.6378 86.9336 -41.8022 87.7789L-47.3943 110.782C-47.4861 111.181 -47.6834 111.455 -47.9382 111.584C-48.193 111.713 -48.5052 111.699 -48.8413 111.554L-52.9752 109.776C-53.6474 109.487 -53.8725 108.992 -53.6698 108.243L-52.8492 105.131L-56.2773 103.657L-57.9718 106.393C-58.4097 107.041 -58.924 107.218 -59.5625 106.943L-63.6964 105.165C-64.0661 105.006 -64.2916 104.79 -64.373 104.516C-64.4543 104.242 -64.3578 103.925 -64.1316 103.584L-51.28 83.7027C-50.8131 82.9876 -50.1019 82.8155 -49.228 83.1913ZM-34.339 107.198L-37.7213 115.062C-38.0393 115.801 -38.5535 115.979 -39.2593 115.675L-43.2924 113.94C-44.0318 113.622 -44.2233 113.142 -43.9053 112.402L-40.523 104.538L-39.7729 88.8109C-39.8253 88.4698 -39.7096 88.2009 -39.4451 87.9563C-39.1806 87.7116 -38.8058 87.6736 -38.3353 87.876L-34.1006 89.6973C-33.3612 90.0153 -33.0352 90.5537 -33.1563 91.2982L-34.1481 96.8454L-35.0554 100.159L-34.921 100.217L-33.1398 97.279L-29.7954 92.7436C-29.3718 92.1292 -28.7568 91.9955 -27.9838 92.3279L-23.749 94.1492C-23.3121 94.3371 -23.0819 94.6352 -23.0776 94.9955C-23.0732 95.3558 -23.1889 95.6247 -23.4389 95.8358L-34.339 107.198ZM-5.30667 102.081L-1.27359 103.815C-0.601415 104.104 -0.357105 104.648 -0.578974 105.349L-3.88821 116.192L-5.46985 120.888L-5.40263 120.917L-2.98077 116.582L2.84914 106.823C3.23905 106.194 3.76775 105.983 4.43993 106.273L8.90992 108.195C9.24601 108.34 9.45706 108.59 9.53838 108.864C9.6197 109.137 9.55683 109.469 9.34507 109.776L-3.33347 129.533C-3.89179 130.368 -4.55022 130.602 -5.35683 130.256L-10.8015 127.914C-11.6081 127.567 -11.9243 126.913 -11.6685 125.948L-10.0569 120.349L-8.27218 114.625L-8.3394 114.596L-11.2668 119.828L-14.2228 124.85C-14.7811 125.685 -15.4395 125.919 -16.2461 125.572L-21.6908 123.231C-22.4974 122.884 -22.8136 122.23 -22.5578 121.265L-16.9371 98.4727C-16.8598 98.1077 -16.6961 97.8197 -16.4413 97.6903C-16.1866 97.5609 -15.8599 97.5421 -15.4902 97.7011L-11.0202 99.6235C-10.3816 99.8982 -10.1709 100.427 -10.3256 101.157L-13.3995 112.101L-14.8804 116.841L-14.8131 116.87L-12.4921 112.491L-6.89745 102.631C-6.54115 101.988 -6.01246 101.777 -5.30667 102.081ZM16.5798 128.579L11.3368 126.324L9.73236 130.054L15.4459 132.512C16.1517 132.815 16.3624 133.344 16.0588 134.05L14.5556 137.545C14.2376 138.284 13.7233 138.461 13.0176 138.158L2.26269 133.533C1.52329 133.215 1.33175 132.734 1.64974 131.995L10.9583 110.35C11.2619 109.645 11.757 109.419 12.4964 109.737L23.1168 114.305C23.8226 114.609 24.0333 115.137 23.7297 115.843L22.2265 119.338C21.9085 120.078 21.3943 120.255 20.6885 119.951L15.1094 117.552L13.6784 120.879L18.9214 123.134C19.6272 123.438 19.8379 123.966 19.5343 124.672L18.1178 127.966C17.7998 128.705 17.2856 128.882 16.5798 128.579ZM31.5791 135.029L26.3361 132.775L24.7317 136.505L30.4452 138.962C31.151 139.266 31.3617 139.795 31.0581 140.5L29.5549 143.996C29.2369 144.735 28.7226 144.912 28.0169 144.609L17.262 139.983C16.5226 139.665 16.3311 139.185 16.649 138.445L25.9576 116.801C26.2612 116.095 26.7563 115.87 27.4957 116.188L38.1161 120.756C38.8219 121.059 39.0326 121.588 38.729 122.294L37.2258 125.789C36.9078 126.529 36.3936 126.706 35.6878 126.402L30.1087 124.003L28.6777 127.33L33.9207 129.585C34.6265 129.888 34.8372 130.417 34.5336 131.123L33.1171 134.417C32.7991 135.156 32.2849 135.333 31.5791 135.029ZM44.279 132.566L50.0603 127.087C50.6182 126.531 51.1997 126.383 51.8719 126.672L56.0394 128.464C56.4427 128.638 56.6873 128.902 56.7061 129.229C56.7249 129.555 56.5468 129.877 56.2342 130.141L48.3321 137.495L47.6274 151.45C47.6028 151.877 47.5064 152.194 47.2563 152.405C47.0062 152.616 46.6795 152.635 46.2762 152.462L42.0415 150.64C41.3357 150.337 41.0097 149.798 41.0972 149.039L41.7784 138.381L37.8324 147.556C37.5144 148.295 37.0002 148.472 36.2944 148.169L32.2613 146.434C31.5219 146.116 31.3303 145.636 31.6483 144.896L40.9569 123.252C41.2605 122.546 41.7556 122.321 42.495 122.639L46.528 124.374C47.2338 124.677 47.4445 125.206 47.141 125.912L44.279 132.566ZM64.3774 152.56C63.3656 154.913 61.9226 156.323 60.0341 156.825C58.1455 157.327 56.133 157.099 53.982 156.174C51.9655 155.307 50.4917 154.474 49.4936 153.646C49.0808 153.309 48.8362 153.045 48.7404 152.805C48.6446 152.564 48.7075 152.233 48.881 151.83L50.283 148.569C50.6299 147.763 51.1825 147.682 52.0079 148.355C52.6653 148.957 53.563 149.462 54.6721 149.939C56.4533 150.705 57.5776 150.592 58.0112 149.583C58.2136 149.113 58.219 148.637 58.0755 148.137C57.8984 147.623 57.4528 146.715 56.657 145.417C55.7174 143.897 55.1572 142.422 54.9092 140.961C54.6613 139.5 54.9565 137.795 55.7659 135.913C56.7922 133.527 58.0671 132.044 59.6243 131.479C61.1815 130.915 63.3284 131.201 66.0172 132.357C67.6304 133.051 68.8497 133.735 69.6704 134.327C70.0304 134.601 70.2414 134.851 70.3227 135.125C70.4041 135.399 70.3893 135.711 70.2158 136.114L68.7704 139.475C68.4524 140.215 67.8662 140.281 67.0455 139.689C66.3256 139.141 65.4951 138.664 64.5877 138.274C63.8819 137.97 63.368 137.869 63.0124 137.955C62.6568 138.041 62.3634 138.353 62.161 138.823C61.7563 139.764 62.1051 141.268 63.2699 143.282C64.2955 145.157 64.9276 146.743 65.1517 148.074C65.3278 149.424 65.0857 150.913 64.3774 152.56Z" fill="white"/>
<path d="M100.628 158.354L100.292 158.209L100.147 158.545L100.483 158.69L100.628 158.354ZM103.49 159.107L103.648 159.437L103.66 159.431L103.672 159.424L103.49 159.107ZM104.719 156.25L105.074 156.164L105.071 156.15L105.067 156.137L104.719 156.25ZM102.203 154.69L102.348 154.354L102.012 154.21L101.867 154.546L102.203 154.69ZM111.323 153.674L111.629 153.474L111.323 153.674ZM106.238 162.996L106.233 162.631L105.33 162.642L105.986 163.262L106.238 162.996ZM107.776 166.087L108.138 166.038L107.776 166.087ZM96.5951 167.73L96.259 167.586L96.1145 167.922L96.4506 168.067L96.5951 167.73ZM100.058 168.662L100.23 168.985L100.24 168.979L100.25 168.973L100.058 168.662ZM101.503 165.301L101.861 165.227L101.859 165.215L101.856 165.204L101.503 165.301ZM98.4597 163.395L98.6043 163.059L98.2682 162.914L98.1237 163.25L98.4597 163.395ZM100.483 158.69L101.962 159.326L102.251 158.654L100.772 158.018L100.483 158.69ZM101.962 159.326C102.573 159.589 103.157 159.671 103.648 159.437L103.332 158.777C103.121 158.877 102.783 158.882 102.251 158.654L101.962 159.326ZM103.672 159.424C104.091 159.183 104.483 158.65 104.784 157.951L104.112 157.661C103.834 158.306 103.524 158.666 103.308 158.789L103.672 159.424ZM104.784 157.951C105.087 157.246 105.187 156.63 105.074 156.164L104.363 156.336C104.422 156.581 104.387 157.022 104.112 157.661L104.784 157.951ZM105.067 156.137C104.9 155.62 104.438 155.253 103.827 154.99L103.538 155.662C104.069 155.891 104.299 156.14 104.371 156.362L105.067 156.137ZM103.827 154.99L102.348 154.354L102.059 155.026L103.538 155.662L103.827 154.99ZM101.867 154.546L100.292 158.209L100.964 158.498L102.54 154.835L101.867 154.546ZM96.8804 173.827L89.4529 170.633L89.1638 171.305L96.5913 174.499L96.8804 173.827ZM89.4529 170.633C89.1269 170.492 88.9949 170.347 88.9452 170.222C88.8954 170.097 88.8913 169.901 89.0315 169.575L88.3593 169.286C88.1815 169.7 88.1141 170.113 88.2655 170.493C88.4168 170.873 88.7503 171.127 89.1638 171.305L89.4529 170.633ZM89.0315 169.575L98.3401 147.931L97.6679 147.642L88.3593 169.286L89.0315 169.575ZM98.3401 147.931C98.4713 147.626 98.6166 147.489 98.749 147.434C98.8793 147.381 99.0795 147.373 99.3974 147.51L99.6865 146.837C99.2651 146.656 98.8481 146.602 98.4701 146.758C98.0942 146.913 97.8402 147.241 97.6679 147.642L98.3401 147.931ZM99.3974 147.51L106.086 150.386L106.375 149.714L99.6865 146.837L99.3974 147.51ZM106.086 150.386C108.617 151.475 110.212 152.637 111.016 153.873L111.629 153.474C110.707 152.057 108.952 150.822 106.375 149.714L106.086 150.386ZM111.016 153.873C111.78 155.048 111.756 156.739 110.792 158.981L111.464 159.27C112.466 156.942 112.591 154.954 111.629 153.474L111.016 153.873ZM110.792 158.981C110.259 160.221 109.609 161.126 108.855 161.722C108.106 162.315 107.237 162.619 106.233 162.631L106.242 163.362C107.4 163.348 108.428 162.994 109.309 162.296C110.185 161.603 110.899 160.585 111.464 159.27L110.792 158.981ZM105.986 163.262C106.771 164.005 107.252 164.946 107.413 166.136L108.138 166.038C107.957 164.692 107.403 163.595 106.489 162.731L105.986 163.262ZM107.413 166.136C107.574 167.326 107.359 168.632 106.772 169.996L107.444 170.286C108.071 168.827 108.32 167.386 108.138 166.038L107.413 166.136ZM106.772 169.996C105.769 172.328 104.444 173.759 102.835 174.381C101.225 175.003 99.2496 174.846 96.8804 173.827L96.5913 174.499C99.0618 175.562 101.246 175.779 103.099 175.064C104.953 174.347 106.394 172.726 107.444 170.286L106.772 169.996ZM96.4506 168.067L98.3663 168.89L98.6554 168.218L96.7397 167.394L96.4506 168.067ZM98.3663 168.89C99.0396 169.18 99.668 169.284 100.23 168.985L99.8854 168.339C99.6203 168.481 99.2592 168.478 98.6554 168.218L98.3663 168.89ZM100.25 168.973C100.725 168.68 101.128 168.117 101.486 167.285L100.814 166.996C100.478 167.777 100.15 168.175 99.8651 168.351L100.25 168.973ZM101.486 167.285C101.844 166.453 101.975 165.773 101.861 165.227L101.145 165.375C101.213 165.704 101.15 166.215 100.814 166.996L101.486 167.285ZM101.856 165.204C101.691 164.604 101.213 164.181 100.52 163.883L100.231 164.555C100.815 164.806 101.067 165.095 101.15 165.398L101.856 165.204ZM100.52 163.883L98.6043 163.059L98.3152 163.731L100.231 164.555L100.52 163.883ZM98.1237 163.25L96.259 167.586L96.9312 167.875L98.7958 163.539L98.1237 163.25ZM114.63 175.089L114.294 174.944L114.15 175.28L114.486 175.425L114.63 175.089ZM121.608 157.938L114.294 174.944L114.966 175.233L122.28 158.227L121.608 157.938ZM114.486 175.425L118.788 177.275L119.077 176.603L114.775 174.753L114.486 175.425ZM118.788 177.275C119.085 177.403 119.222 177.553 119.277 177.693C119.333 177.832 119.337 178.035 119.209 178.332L119.881 178.621C120.057 178.213 120.108 177.799 119.957 177.422C119.807 177.044 119.486 176.779 119.077 176.603L118.788 177.275ZM119.209 178.332L117.677 181.895L118.349 182.184L119.881 178.621L119.209 178.332ZM117.677 181.895C117.54 182.213 117.39 182.345 117.258 182.396C117.124 182.447 116.925 182.448 116.62 182.316L116.331 182.989C116.731 183.161 117.142 183.225 117.521 183.078C117.903 182.932 118.168 182.605 118.349 182.184L117.677 181.895ZM116.62 182.316L107.209 178.269L106.92 178.941L116.331 182.989L116.62 182.316ZM107.209 178.269C106.883 178.129 106.751 177.984 106.701 177.859C106.652 177.734 106.648 177.538 106.788 177.212L106.116 176.923C105.938 177.336 105.87 177.75 106.022 178.13C106.173 178.509 106.507 178.763 106.92 178.941L107.209 178.269ZM106.788 177.212L116.096 155.568L115.424 155.278L106.116 176.923L106.788 177.212ZM116.096 155.568C116.228 155.262 116.373 155.125 116.505 155.071C116.636 155.017 116.836 155.009 117.154 155.146L117.443 154.474C117.021 154.293 116.604 154.239 116.226 154.394C115.851 154.549 115.596 154.878 115.424 155.278L116.096 155.568ZM117.154 155.146L121.187 156.881L121.476 156.209L117.443 154.474L117.154 155.146ZM121.187 156.881C121.484 157.008 121.621 157.159 121.676 157.298C121.732 157.438 121.736 157.641 121.608 157.938L122.28 158.227C122.456 157.819 122.507 157.405 122.356 157.027C122.206 156.65 121.885 156.384 121.476 156.209L121.187 156.881ZM129.946 177.374L129.634 177.183L129.412 177.543L129.801 177.711L129.946 177.374ZM132.567 178.502L132.423 178.838L132.812 179.005L132.921 178.596L132.567 178.502ZM134.966 169.498L135.32 169.592L135.401 169.286L135.111 169.162L134.966 169.498ZM134.832 169.44L134.976 169.104L134.686 168.979L134.52 169.248L134.832 169.44ZM141.705 166.701L142.061 166.787L142.063 166.779L142.064 166.771L141.705 166.701ZM136.113 189.704L135.757 189.618L135.756 189.622L136.113 189.704ZM135.569 190.506L135.403 190.18L135.569 190.506ZM129.837 187.165L130.191 187.26L130.191 187.258L129.837 187.165ZM130.658 184.053L131.012 184.146L131.092 183.841L130.803 183.717L130.658 184.053ZM127.23 182.578L127.374 182.242L127.085 182.118L126.919 182.386L127.23 182.578ZM125.535 185.314L125.839 185.519L125.843 185.513L125.847 185.507L125.535 185.314ZM119.134 183.438L119.485 183.334L119.134 183.438ZM119.376 182.506L119.68 182.708L119.683 182.705L119.376 182.506ZM132.227 162.625L131.921 162.425L131.92 162.426L132.227 162.625ZM129.801 177.711L132.423 178.838L132.712 178.166L130.09 177.038L129.801 177.711ZM132.921 178.596L135.32 169.592L134.613 169.403L132.214 178.408L132.921 178.596ZM135.111 169.162L134.976 169.104L134.687 169.776L134.822 169.834L135.111 169.162ZM134.52 169.248L129.634 177.183L130.257 177.566L135.143 169.632L134.52 169.248ZM134.135 162.449L140.52 165.196L140.809 164.523L134.424 161.777L134.135 162.449ZM140.52 165.196C140.907 165.362 141.134 165.565 141.255 165.782C141.374 165.997 141.416 166.271 141.346 166.631L142.064 166.771C142.159 166.285 142.117 165.827 141.894 165.426C141.672 165.028 141.297 164.733 140.809 164.523L140.52 165.196ZM141.35 166.614L135.757 189.618L136.468 189.791L142.061 166.787L141.35 166.614ZM135.756 189.622C135.681 189.949 135.535 190.113 135.403 190.18L135.735 190.832C136.113 190.64 136.361 190.257 136.469 189.786L135.756 189.622ZM135.403 190.18C135.276 190.244 135.083 190.257 134.81 190.14L134.521 190.812C134.921 190.984 135.353 191.026 135.735 190.832L135.403 190.18ZM134.81 190.14L130.677 188.362L130.388 189.034L134.521 190.812L134.81 190.14ZM130.677 188.362C130.396 188.241 130.256 188.099 130.19 187.953C130.122 187.803 130.102 187.586 130.191 187.26L129.484 187.069C129.37 187.493 129.361 187.898 129.523 188.255C129.687 188.616 129.996 188.866 130.388 189.034L130.677 188.362ZM130.191 187.258L131.012 184.146L130.304 183.959L129.484 187.071L130.191 187.258ZM130.803 183.717L127.374 182.242L127.085 182.914L130.513 184.389L130.803 183.717ZM126.919 182.386L125.224 185.122L125.847 185.507L127.541 182.771L126.919 182.386ZM125.232 185.11C125.04 185.395 124.858 185.534 124.696 185.59C124.54 185.644 124.348 185.64 124.089 185.529L123.8 186.201C124.18 186.364 124.564 186.409 124.935 186.281C125.298 186.156 125.593 185.882 125.839 185.519L125.232 185.11ZM124.089 185.529L119.955 183.751L119.666 184.423L123.8 186.201L124.089 185.529ZM119.955 183.751C119.643 183.617 119.524 183.466 119.485 183.334L118.784 183.542C118.907 183.957 119.239 184.239 119.666 184.423L119.955 183.751ZM119.485 183.334C119.45 183.216 119.476 183.017 119.68 182.708L119.071 182.304C118.823 182.677 118.656 183.112 118.784 183.542L119.485 183.334ZM119.683 182.705L132.535 162.823L131.92 162.426L119.068 182.307L119.683 182.705ZM132.534 162.825C132.726 162.53 132.949 162.374 133.188 162.315C133.434 162.254 133.747 162.283 134.135 162.449L134.424 161.777C133.937 161.568 133.458 161.495 133.013 161.605C132.562 161.716 132.195 162.004 131.921 162.425L132.534 162.825ZM151.177 191.125L151.264 190.77L151.257 190.768L151.249 190.767L151.177 191.125ZM149.018 196.608L149.094 196.251L149.085 196.249L149.077 196.247L149.018 196.608ZM141.533 193.27L141.776 192.997L141.774 192.994L141.533 193.27ZM139.687 190.246L140.041 190.152L140.039 190.146L139.687 190.246ZM139.727 185.802L140.084 185.882L140.084 185.881L139.727 185.802ZM145.017 173.501L145.319 173.708L145.323 173.701L145.017 173.501ZM148.119 170.455L148.289 170.779L148.119 170.455ZM151.569 169.748L151.535 170.113L151.539 170.113L151.569 169.748ZM159.036 172.76L158.84 173.07L158.845 173.072L159.036 172.76ZM156.56 178.147L156.349 178.446L156.355 178.451L156.362 178.455L156.56 178.147ZM151.219 177.045L151.437 177.339L151.446 177.332L151.219 177.045ZM146.672 186.599L146.313 186.528L146.672 186.599ZM146.938 188.944L147.251 188.754L147.245 188.744L146.938 188.944ZM148.896 190.781C149.656 191.108 150.381 191.338 151.105 191.484L151.249 190.767C150.58 190.632 149.903 190.418 149.185 190.109L148.896 190.781ZM151.09 191.48C151.483 191.577 151.65 191.713 151.713 191.824C151.769 191.921 151.796 192.093 151.661 192.408L152.333 192.698C152.515 192.274 152.565 191.837 152.348 191.459C152.138 191.094 151.736 190.886 151.264 190.77L151.09 191.48ZM151.661 192.408L150.273 195.635L150.945 195.924L152.333 192.698L151.661 192.408ZM150.273 195.635C150.147 195.928 149.983 196.1 149.806 196.191C149.629 196.283 149.396 196.315 149.094 196.251L148.942 196.966C149.37 197.057 149.781 197.027 150.141 196.842C150.501 196.656 150.768 196.336 150.945 195.924L150.273 195.635ZM149.077 196.247C147.925 196.06 146.735 195.666 145.542 195.153L145.253 195.825C146.48 196.353 147.729 196.77 148.959 196.97L149.077 196.247ZM145.542 195.153C143.871 194.435 142.595 193.726 141.776 192.997L141.29 193.543C142.198 194.353 143.563 195.099 145.253 195.825L145.542 195.153ZM141.774 192.994C140.933 192.26 140.358 191.343 140.041 190.152L139.334 190.34C139.686 191.667 140.338 192.711 141.292 193.545L141.774 192.994ZM140.039 190.146C139.711 188.995 139.702 187.584 140.084 185.882L139.37 185.722C138.969 187.507 138.965 189.046 139.335 190.346L140.039 190.146ZM140.084 185.881C140.453 184.205 141.205 182.088 142.3 179.541L141.628 179.252C140.526 181.814 139.754 183.981 139.369 185.724L140.084 185.881ZM142.3 179.541C143.366 177.062 144.371 175.095 145.319 173.708L144.715 173.295C143.728 174.74 142.701 176.757 141.628 179.252L142.3 179.541ZM145.323 173.701C146.235 172.305 147.231 171.331 148.289 170.779L147.95 170.131C146.748 170.758 145.667 171.837 144.711 173.301L145.323 173.701ZM148.289 170.779C149.359 170.221 150.423 170.008 151.535 170.113L151.604 169.384C150.343 169.265 149.139 169.51 147.95 170.131L148.289 170.779ZM151.539 170.113C152.636 170.206 154.012 170.6 155.675 171.315L155.964 170.643C154.266 169.912 152.808 169.486 151.6 169.384L151.539 170.113ZM155.675 171.315C156.622 171.722 157.653 172.321 158.84 173.07L159.231 172.451C158.037 171.698 156.966 171.074 155.964 170.643L155.675 171.315ZM158.845 173.072C159.12 173.241 159.26 173.425 159.316 173.611C159.373 173.798 159.361 174.041 159.226 174.355L159.898 174.644C160.081 174.22 160.137 173.795 160.016 173.398C159.896 173 159.613 172.684 159.226 172.448L158.845 173.072ZM159.226 174.355L157.824 177.615L158.496 177.905L159.898 174.644L159.226 174.355ZM157.824 177.615C157.688 177.931 157.545 178.029 157.435 178.056C157.312 178.086 157.098 178.058 156.757 177.839L156.362 178.455C156.77 178.717 157.197 178.866 157.607 178.767C158.031 178.664 158.314 178.328 158.496 177.905L157.824 177.615ZM156.77 177.848C156.168 177.424 155.502 177.055 154.808 176.757L154.519 177.429C155.169 177.708 155.79 178.052 156.349 178.446L156.77 177.848ZM154.808 176.757C153.257 176.089 151.938 176.011 150.992 176.758L151.446 177.332C152.068 176.841 153.045 176.795 154.519 177.429L154.808 176.757ZM151.002 176.751C150.53 177.099 150.053 177.729 149.556 178.581C149.053 179.443 148.508 180.571 147.913 181.955L148.585 182.244C149.175 180.873 149.706 179.775 150.188 178.95C150.675 178.115 151.09 177.595 151.436 177.339L151.002 176.751ZM147.913 181.955C147.058 183.943 146.524 185.461 146.313 186.528L147.031 186.67C147.226 185.682 147.734 184.223 148.585 182.244L147.913 181.955ZM146.313 186.528C146.099 187.61 146.201 188.482 146.631 189.143L147.245 188.744C146.956 188.3 146.839 187.644 147.031 186.67L146.313 186.528ZM146.625 189.133C147.012 189.772 147.802 190.311 148.896 190.781L149.185 190.109C148.127 189.654 147.516 189.192 147.251 188.754L146.625 189.133ZM165.229 184.584L164.893 184.439L165.481 184.849L165.229 184.584ZM171.01 179.105L171.262 179.371L171.269 179.364L171.01 179.105ZM177.656 181.246L178.021 181.225L178.021 181.225L177.656 181.246ZM177.184 182.158L176.948 181.879L176.941 181.885L176.935 181.891L177.184 182.158ZM169.282 189.513L169.033 189.245L168.924 189.346L168.917 189.494L169.282 189.513ZM168.577 203.467L168.943 203.488L168.943 203.486L168.577 203.467ZM168.206 204.423L168.442 204.702L168.206 204.423ZM162.047 201.057L162.411 201.099L162.412 201.09L162.412 201.08L162.047 201.057ZM162.728 190.398L163.093 190.421L162.392 190.253L162.728 190.398ZM165.481 184.849L171.262 179.371L170.759 178.839L164.977 184.318L165.481 184.849ZM171.269 179.364C171.515 179.118 171.743 178.987 171.957 178.936C172.167 178.887 172.4 178.906 172.677 179.025L172.966 178.353C172.571 178.183 172.178 178.132 171.789 178.224C171.406 178.314 171.063 178.535 170.752 178.846L171.269 179.364ZM172.677 179.025L176.845 180.818L177.134 180.146L172.966 178.353L172.677 179.025ZM176.845 180.818C177.186 180.965 177.283 181.138 177.291 181.267L178.021 181.225C177.991 180.701 177.599 180.346 177.134 180.146L176.845 180.818ZM177.291 181.267C177.301 181.44 177.208 181.659 176.948 181.879L177.42 182.438C177.785 182.13 178.049 181.706 178.021 181.225L177.291 181.267ZM176.935 181.891L169.033 189.245L169.531 189.781L177.433 182.426L176.935 181.891ZM168.917 189.494L168.212 203.449L168.943 203.486L169.647 189.531L168.917 189.494ZM168.212 203.446C168.189 203.84 168.104 204.03 167.97 204.143L168.442 204.702C168.808 204.393 168.916 203.949 168.943 203.488L168.212 203.446ZM167.97 204.143C167.863 204.234 167.697 204.284 167.371 204.143L167.082 204.815C167.561 205.022 168.05 205.034 168.442 204.702L167.97 204.143ZM167.371 204.143L163.136 202.322L162.847 202.994L167.082 204.815L167.371 204.143ZM163.136 202.322C162.837 202.193 162.647 202.028 162.536 201.841C162.426 201.656 162.374 201.416 162.411 201.099L161.684 201.015C161.633 201.457 161.7 201.865 161.907 202.215C162.114 202.564 162.44 202.819 162.847 202.994L163.136 202.322ZM162.412 201.08L163.093 190.421L162.363 190.375L161.682 201.034L162.412 201.08ZM162.392 190.253L158.446 199.429L159.118 199.718L163.064 190.543L162.392 190.253ZM158.446 199.429C158.31 199.747 158.159 199.879 158.027 199.929C157.894 199.981 157.694 199.981 157.389 199.85L157.1 200.522C157.5 200.695 157.911 200.758 158.29 200.612C158.672 200.465 158.937 200.139 159.118 199.718L158.446 199.429ZM157.389 199.85L153.356 198.116L153.067 198.788L157.1 200.522L157.389 199.85ZM153.356 198.116C153.03 197.975 152.898 197.83 152.848 197.705C152.798 197.58 152.794 197.384 152.934 197.058L152.262 196.769C152.084 197.183 152.017 197.596 152.168 197.976C152.32 198.356 152.653 198.61 153.067 198.788L153.356 198.116ZM152.934 197.058L162.243 175.414L161.571 175.125L152.262 196.769L152.934 197.058ZM162.243 175.414C162.374 175.109 162.519 174.972 162.652 174.917C162.782 174.864 162.982 174.856 163.3 174.993L163.589 174.32C163.168 174.139 162.751 174.085 162.373 174.241C161.997 174.396 161.743 174.724 161.571 175.125L162.243 175.414ZM163.3 174.993L167.333 176.727L167.623 176.055L163.589 174.32L163.3 174.993ZM167.333 176.727C167.631 176.855 167.768 177.005 167.823 177.145C167.879 177.284 167.883 177.487 167.755 177.785L168.427 178.074C168.603 177.665 168.653 177.251 168.503 176.874C168.352 176.496 168.031 176.231 167.623 176.055L167.333 176.727ZM167.755 177.785L164.893 184.439L165.565 184.728L168.427 178.074L167.755 177.785ZM185.083 202.083L185.227 201.747L184.891 201.602L184.747 201.939L185.083 202.083ZM189.231 192.437L189.376 192.101L189.04 191.957L188.895 192.293L189.231 192.437ZM187.511 196.437L187.175 196.292L187.031 196.628L187.367 196.773L187.511 196.437ZM190.202 203.886L185.227 201.747L184.938 202.419L189.912 204.558L190.202 203.886ZM184.747 201.939L181.581 209.299L182.253 209.588L185.419 202.228L184.747 201.939ZM181.581 209.299C181.439 209.63 181.274 209.778 181.121 209.837C180.967 209.896 180.746 209.895 180.428 209.759L180.139 210.431C180.56 210.612 180.99 210.672 181.385 210.519C181.781 210.366 182.063 210.03 182.253 209.588L181.581 209.299ZM180.428 209.759L176.529 208.082L176.24 208.754L180.139 210.431L180.428 209.759ZM176.529 208.082C176.191 207.936 176.042 207.776 175.984 207.631C175.926 207.485 175.924 207.267 176.069 206.928L175.397 206.639C175.21 207.074 175.147 207.507 175.305 207.902C175.462 208.296 175.806 208.567 176.24 208.754L176.529 208.082ZM176.069 206.928L185.32 185.419L184.648 185.13L175.397 206.639L176.069 206.928ZM185.32 185.419C185.457 185.101 185.617 184.948 185.77 184.885C185.921 184.823 186.143 184.817 186.474 184.959L186.763 184.287C186.321 184.097 185.885 184.046 185.491 184.208C185.1 184.369 184.829 184.708 184.648 185.13L185.32 185.419ZM186.474 184.959L196.691 189.353L196.98 188.681L186.763 184.287L186.474 184.959ZM196.691 189.353C196.988 189.481 197.125 189.631 197.181 189.771C197.236 189.91 197.24 190.113 197.112 190.41L197.784 190.7C197.96 190.291 198.011 189.877 197.86 189.5C197.71 189.122 197.389 188.857 196.98 188.681L196.691 189.353ZM197.112 190.41L195.609 193.906L196.281 194.195L197.784 190.7L197.112 190.41ZM195.609 193.906C195.472 194.224 195.322 194.356 195.19 194.406C195.056 194.458 194.857 194.458 194.552 194.327L194.263 194.999C194.663 195.172 195.074 195.235 195.453 195.089C195.834 194.942 196.1 194.616 196.281 194.195L195.609 193.906ZM194.552 194.327L189.376 192.101L189.087 192.773L194.263 194.999L194.552 194.327ZM188.895 192.293L187.175 196.292L187.847 196.581L189.567 192.582L188.895 192.293ZM187.367 196.773L192.341 198.912L192.63 198.24L187.656 196.101L187.367 196.773ZM192.341 198.912C192.638 199.04 192.775 199.19 192.83 199.33C192.886 199.469 192.89 199.672 192.762 199.969L193.434 200.259C193.61 199.85 193.661 199.436 193.51 199.059C193.36 198.681 193.039 198.416 192.63 198.24L192.341 198.912ZM192.762 199.969L191.259 203.465L191.931 203.754L193.434 200.259L192.762 199.969ZM191.259 203.465C191.122 203.783 190.972 203.915 190.84 203.966C190.706 204.017 190.507 204.017 190.202 203.886L189.912 204.558C190.313 204.731 190.723 204.794 191.103 204.648C191.484 204.501 191.75 204.175 191.931 203.754L191.259 203.465ZM200.932 204.479L200.596 204.334L200.451 204.67L200.787 204.815L200.932 204.479ZM203.847 205.016L204.047 205.322L203.847 205.016ZM205.885 200.277L205.525 200.343L205.885 200.277ZM203.505 198.496L203.649 198.16L203.313 198.016L203.169 198.352L203.505 198.496ZM212.57 197.975L212.908 197.834L212.57 197.975ZM205.189 211.248L205.17 210.883L204.817 210.901L204.823 211.254L205.189 211.248ZM205.323 219.271L205.689 219.266L205.689 219.264L205.323 219.271ZM199.07 217.975L198.763 218.175L198.763 218.175L199.07 217.975ZM198.865 216.971L199.229 217.002L199.23 216.99L199.23 216.979L198.865 216.971ZM199.013 209.866L199.379 209.874L199.384 209.627L199.158 209.53L199.013 209.866ZM198.677 209.722L198.821 209.386L198.485 209.241L198.341 209.577L198.677 209.722ZM200.787 204.815L201.728 205.219L202.017 204.547L201.076 204.143L200.787 204.815ZM201.728 205.219C202.626 205.606 203.441 205.716 204.047 205.322L203.648 204.709C203.368 204.891 202.867 204.913 202.017 204.547L201.728 205.219ZM204.047 205.322C204.331 205.137 204.595 204.828 204.845 204.441C205.099 204.048 205.355 203.547 205.613 202.947L204.941 202.658C204.692 203.235 204.455 203.697 204.231 204.044C204.003 204.397 203.806 204.606 203.648 204.709L204.047 205.322ZM205.613 202.947C205.863 202.364 206.047 201.842 206.157 201.392C206.264 200.948 206.306 200.544 206.245 200.211L205.525 200.343C205.559 200.529 205.543 200.816 205.445 201.22C205.349 201.617 205.181 202.098 204.941 202.658L205.613 202.947ZM206.245 200.211C206.116 199.511 205.505 198.958 204.59 198.565L204.301 199.237C205.134 199.595 205.463 200.005 205.525 200.343L206.245 200.211ZM204.59 198.565L203.649 198.16L203.36 198.832L204.301 199.237L204.59 198.565ZM203.169 198.352L200.596 204.334L201.268 204.623L203.841 198.641L203.169 198.352ZM200.651 191.056L206.701 193.658L206.99 192.986L200.94 190.384L200.651 191.056ZM206.701 193.658C209.764 194.975 211.564 196.503 212.232 198.115L212.908 197.834C212.13 195.956 210.11 194.328 206.99 192.986L206.701 193.658ZM212.232 198.115C212.896 199.716 212.619 202.122 211.225 205.361L211.898 205.65C213.309 202.37 213.691 199.723 212.908 197.834L212.232 198.115ZM211.225 205.361C209.659 209.002 207.614 210.757 205.17 210.883L205.208 211.613C208.058 211.467 210.284 209.403 211.898 205.65L211.225 205.361ZM204.823 211.254L204.957 219.277L205.689 219.264L205.555 211.242L204.823 211.254ZM204.957 219.275C204.964 219.802 204.854 219.996 204.784 220.052C204.739 220.089 204.593 220.151 204.184 219.975L203.894 220.648C204.359 220.847 204.862 220.93 205.243 220.622C205.6 220.335 205.695 219.82 205.689 219.266L204.957 219.275ZM204.184 219.975L200.083 218.212L199.794 218.884L203.894 220.648L204.184 219.975ZM200.083 218.212C199.637 218.02 199.452 217.892 199.377 217.776L198.763 218.175C198.975 218.501 199.367 218.7 199.794 218.884L200.083 218.212ZM199.377 217.776C199.282 217.631 199.196 217.392 199.229 217.002L198.5 216.94C198.455 217.472 198.57 217.877 198.763 218.175L199.377 217.776ZM199.23 216.979L199.379 209.874L198.647 209.859L198.499 216.963L199.23 216.979ZM199.158 209.53L198.821 209.386L198.532 210.058L198.868 210.202L199.158 209.53ZM198.341 209.577L195.797 215.492L196.469 215.781L199.013 209.866L198.341 209.577ZM195.797 215.492C195.66 215.81 195.509 215.942 195.378 215.993C195.244 216.044 195.045 216.045 194.739 215.914L194.45 216.586C194.851 216.758 195.261 216.822 195.641 216.676C196.022 216.529 196.288 216.203 196.469 215.781L195.797 215.492ZM194.739 215.914L190.706 214.179L190.417 214.851L194.45 216.586L194.739 215.914ZM190.706 214.179C190.38 214.039 190.248 213.894 190.199 213.769C190.149 213.644 190.145 213.448 190.285 213.122L189.613 212.833C189.435 213.246 189.368 213.66 189.519 214.04C189.67 214.419 190.004 214.673 190.417 214.851L190.706 214.179ZM190.285 213.122L199.594 191.478L198.921 191.188L189.613 212.833L190.285 213.122ZM199.594 191.478C199.725 191.172 199.87 191.035 200.002 190.981C200.133 190.927 200.333 190.919 200.651 191.056L200.94 190.384C200.519 190.203 200.102 190.149 199.724 190.304C199.348 190.459 199.094 190.788 198.921 191.188L199.594 191.478ZM207.815 220.661L217.123 199.017L216.451 198.728L207.142 220.372L207.815 220.661ZM217.123 199.017C217.254 198.712 217.4 198.575 217.532 198.52C217.662 198.466 217.863 198.459 218.181 198.595L218.47 197.923C218.048 197.742 217.631 197.688 217.253 197.843C216.877 197.998 216.623 198.327 216.451 198.728L217.123 199.017ZM218.181 198.595L222.214 200.33L222.503 199.658L218.47 197.923L218.181 198.595ZM222.214 200.33C222.511 200.458 222.648 200.608 222.703 200.747C222.759 200.887 222.763 201.09 222.635 201.387L223.307 201.676C223.483 201.268 223.533 200.854 223.383 200.476C223.233 200.099 222.911 199.833 222.503 199.658L222.214 200.33ZM222.635 201.387L213.327 223.031L213.999 223.32L223.307 201.676L222.635 201.387ZM213.327 223.031C213.19 223.349 213.039 223.481 212.908 223.532C212.774 223.583 212.574 223.584 212.269 223.453L211.98 224.125C212.381 224.297 212.791 224.361 213.17 224.215C213.552 224.068 213.817 223.742 213.999 223.32L213.327 223.031ZM212.269 223.453L208.236 221.718L207.947 222.39L211.98 224.125L212.269 223.453ZM208.236 221.718C207.91 221.578 207.778 221.433 207.728 221.308C207.679 221.183 207.674 220.987 207.815 220.661L207.142 220.372C206.965 220.785 206.897 221.199 207.049 221.579C207.2 221.959 207.534 222.213 207.947 222.39L208.236 221.718ZM236.419 206.718L236.665 206.447L236.419 206.718ZM238.365 209.785L238.717 209.685L238.715 209.678L238.713 209.671L238.365 209.785ZM238.437 214.157L238.078 214.087L238.437 214.157ZM232.406 226.976L232.676 227.222L232.406 226.976ZM228.089 229.42L228.052 229.056L228.049 229.056L228.089 229.42ZM229.762 209.789L229.906 209.453L229.57 209.308L229.426 209.644L229.762 209.789ZM224.327 222.426L223.991 222.281L223.846 222.617L224.182 222.762L224.327 222.426ZM227.469 222.343L227.214 222.08L227.469 222.343ZM231.635 213.303L231.992 213.386L231.993 213.378L231.995 213.371L231.635 213.303ZM231.609 211.141L231.277 211.294L231.277 211.294L231.609 211.141ZM222.744 227.958L216.963 225.472L216.674 226.144L222.455 228.63L222.744 227.958ZM216.963 225.472C216.637 225.331 216.505 225.186 216.456 225.061C216.406 224.936 216.402 224.74 216.542 224.414L215.87 224.125C215.692 224.539 215.625 224.952 215.776 225.332C215.927 225.712 216.261 225.966 216.674 226.144L216.963 225.472ZM216.542 224.414L225.851 202.77L225.178 202.481L215.87 224.125L216.542 224.414ZM225.851 202.77C225.982 202.465 226.127 202.328 226.259 202.273C226.39 202.22 226.59 202.212 226.908 202.349L227.197 201.676C226.776 201.495 226.359 201.441 225.981 201.597C225.605 201.752 225.351 202.08 225.178 202.481L225.851 202.77ZM226.908 202.349L232.554 204.777L232.843 204.105L227.197 201.676L226.908 202.349ZM232.554 204.777C234.106 205.444 235.293 206.19 236.173 206.989L236.665 206.447C235.712 205.581 234.45 204.796 232.843 204.105L232.554 204.777ZM236.173 206.989C237.038 207.774 237.638 208.747 238.018 209.9L238.713 209.671C238.298 208.411 237.633 207.326 236.665 206.447L236.173 206.989ZM238.014 209.885C238.344 211.046 238.398 212.442 238.078 214.087L238.796 214.227C239.133 212.491 239.085 210.976 238.717 209.685L238.014 209.885ZM238.078 214.087C237.755 215.743 237.11 217.705 236.119 220.01L236.791 220.299C237.794 217.966 238.46 215.952 238.796 214.227L238.078 214.087ZM236.119 220.01C234.797 223.082 233.454 225.283 232.136 226.729L232.676 227.222C234.071 225.693 235.452 223.411 236.791 220.299L236.119 220.01ZM232.136 226.729C230.823 228.169 229.439 228.916 228.052 229.056L228.126 229.784C229.737 229.621 231.276 228.757 232.676 227.222L232.136 226.729ZM228.049 229.056C226.59 229.218 224.832 228.856 222.744 227.958L222.455 228.63C224.602 229.553 226.494 229.964 228.129 229.784L228.049 229.056ZM230.444 209.684L229.906 209.453L229.617 210.125L230.155 210.356L230.444 209.684ZM229.426 209.644L223.991 222.281L224.663 222.57L230.098 209.933L229.426 209.644ZM224.182 222.762L224.854 223.051L225.144 222.379L224.471 222.09L224.182 222.762ZM224.854 223.051C225.373 223.274 225.888 223.364 226.384 223.291C226.882 223.218 227.333 222.984 227.723 222.606L227.214 222.08C226.921 222.364 226.608 222.519 226.278 222.567C225.944 222.616 225.566 222.561 225.144 222.379L224.854 223.051ZM227.723 222.606C228.105 222.236 228.519 221.629 228.973 220.809C229.43 219.982 229.94 218.913 230.506 217.596L229.834 217.307C229.273 218.612 228.773 219.657 228.332 220.455C227.888 221.26 227.515 221.788 227.214 222.08L227.723 222.606ZM230.506 217.596C231.262 215.838 231.748 214.429 231.992 213.386L231.279 213.22C231.049 214.203 230.581 215.569 229.834 217.307L230.506 217.596ZM231.995 213.371C232.185 212.367 232.199 211.546 231.942 210.988L231.277 211.294C231.432 211.63 231.463 212.25 231.276 213.235L231.995 213.371ZM231.942 210.988C231.686 210.433 231.168 209.995 230.444 209.684L230.155 210.356C230.775 210.623 231.121 210.955 231.277 211.294L231.942 210.988ZM243.475 226.2L243.163 226.008L242.941 226.369L243.33 226.536L243.475 226.2ZM246.096 227.328L245.952 227.664L246.341 227.831L246.45 227.422L246.096 227.328ZM248.495 218.323L248.849 218.418L248.93 218.112L248.64 217.987L248.495 218.323ZM248.361 218.266L248.505 217.929L248.215 217.805L248.049 218.074L248.361 218.266ZM255.234 215.526L255.589 215.613L255.591 215.605L255.593 215.596L255.234 215.526ZM249.642 238.53L249.286 238.444L249.285 238.448L249.642 238.53ZM249.098 239.332L248.932 239.005L249.098 239.332ZM243.366 235.99L243.719 236.086L243.72 236.084L243.366 235.99ZM244.187 232.878L244.54 232.972L244.621 232.667L244.331 232.542L244.187 232.878ZM240.759 231.404L240.903 231.068L240.614 230.944L240.448 231.212L240.759 231.404ZM239.064 234.14L239.367 234.345L239.371 234.339L239.375 234.333L239.064 234.14ZM232.663 232.263L233.014 232.159L232.663 232.263ZM232.904 231.332L233.209 231.534L233.212 231.53L232.904 231.332ZM245.756 211.45L245.45 211.25L245.449 211.252L245.756 211.45ZM243.33 226.536L245.952 227.664L246.241 226.992L243.619 225.864L243.33 226.536ZM246.45 227.422L248.849 218.418L248.142 218.229L245.743 227.233L246.45 227.422ZM248.64 217.987L248.505 217.929L248.216 218.602L248.35 218.659L248.64 217.987ZM248.049 218.074L243.163 226.008L243.786 226.392L248.672 218.457L248.049 218.074ZM247.663 211.275L254.049 214.021L254.338 213.349L247.952 210.603L247.663 211.275ZM254.049 214.021C254.436 214.188 254.662 214.39 254.783 214.608C254.903 214.823 254.945 215.097 254.875 215.457L255.593 215.596C255.687 215.111 255.646 214.652 255.423 214.252C255.201 213.854 254.825 213.559 254.338 213.349L254.049 214.021ZM254.878 215.44L249.286 238.444L249.997 238.616L255.589 215.613L254.878 215.44ZM249.285 238.448C249.21 238.774 249.063 238.939 248.932 239.005L249.263 239.658C249.642 239.466 249.89 239.083 249.998 238.612L249.285 238.448ZM248.932 239.005C248.805 239.07 248.612 239.083 248.339 238.966L248.05 239.638C248.449 239.809 248.881 239.852 249.263 239.658L248.932 239.005ZM248.339 238.966L244.205 237.188L243.916 237.86L248.05 239.638L248.339 238.966ZM244.205 237.188C243.925 237.067 243.785 236.925 243.718 236.778C243.651 236.629 243.631 236.411 243.719 236.086L243.013 235.895C242.898 236.318 242.89 236.723 243.052 237.081C243.216 237.442 243.525 237.691 243.916 237.86L244.205 237.188ZM243.72 236.084L244.54 232.972L243.833 232.785L243.012 235.897L243.72 236.084ZM244.331 232.542L240.903 231.068L240.614 231.74L244.042 233.215L244.331 232.542ZM240.448 231.212L238.753 233.948L239.375 234.333L241.07 231.597L240.448 231.212ZM238.761 233.935C238.568 234.22 238.387 234.359 238.224 234.416C238.069 234.47 237.876 234.466 237.618 234.355L237.329 235.027C237.709 235.19 238.093 235.235 238.463 235.107C238.827 234.982 239.122 234.708 239.367 234.345L238.761 233.935ZM237.618 234.355L233.484 232.577L233.195 233.249L237.329 235.027L237.618 234.355ZM233.484 232.577C233.172 232.442 233.053 232.292 233.014 232.159L232.312 232.368C232.436 232.783 232.768 233.065 233.195 233.249L233.484 232.577ZM233.014 232.159C232.979 232.041 233.004 231.843 233.209 231.534L232.599 231.129C232.352 231.502 232.185 231.938 232.312 232.368L233.014 232.159ZM233.212 231.53L246.063 211.649L245.449 211.252L232.597 231.133L233.212 231.53ZM246.062 211.65C246.255 211.356 246.477 211.2 246.717 211.141C246.963 211.08 247.276 211.108 247.663 211.275L247.952 210.603C247.466 210.394 246.986 210.32 246.541 210.43C246.091 210.542 245.724 210.83 245.45 211.25L246.062 211.65ZM262.697 234.945L262.433 234.692L262.387 234.74L262.361 234.801L262.697 234.945ZM256.513 232.286L256.849 232.43L256.875 232.369L256.878 232.303L256.513 232.286ZM257.263 216.559L257.628 216.576L257.63 216.539L257.625 216.503L257.263 216.559ZM257.591 215.704L257.839 215.972L257.839 215.972L257.591 215.704ZM263.88 219.046L264.24 219.11L264.241 219.104L263.88 219.046ZM262.888 224.593L263.241 224.69L263.245 224.674L263.248 224.657L262.888 224.593ZM261.98 227.906L261.628 227.81L261.544 228.117L261.836 228.243L261.98 227.906ZM262.115 227.964L261.97 228.3L262.263 228.426L262.428 228.154L262.115 227.964ZM263.896 225.027L263.602 224.809L263.592 224.823L263.583 224.837L263.896 225.027ZM267.241 220.491L267.535 220.708L267.542 220.699L267.241 220.491ZM273.958 222.743L273.592 222.748L273.592 222.748L273.958 222.743ZM273.597 223.583L273.361 223.304L273.346 223.316L273.333 223.33L273.597 223.583ZM262.361 234.801L258.978 242.665L259.651 242.954L263.033 235.09L262.361 234.801ZM258.978 242.665C258.842 242.983 258.691 243.115 258.56 243.166C258.426 243.217 258.226 243.218 257.921 243.086L257.632 243.759C258.033 243.931 258.443 243.995 258.822 243.849C259.204 243.702 259.469 243.376 259.651 242.954L258.978 242.665ZM257.921 243.086L253.888 241.352L253.599 242.024L257.632 243.759L257.921 243.086ZM253.888 241.352C253.562 241.212 253.43 241.066 253.38 240.942C253.331 240.817 253.326 240.62 253.467 240.295L252.794 240.005C252.617 240.419 252.549 240.833 252.701 241.212C252.852 241.592 253.185 241.846 253.599 242.024L253.888 241.352ZM253.467 240.295L256.849 232.43L256.177 232.141L252.794 240.005L253.467 240.295ZM256.878 232.303L257.628 216.576L256.898 216.541L256.147 232.268L256.878 232.303ZM257.625 216.503C257.607 216.39 257.619 216.303 257.648 216.229C257.679 216.152 257.736 216.068 257.839 215.972L257.342 215.435C257.181 215.585 257.048 215.757 256.968 215.961C256.886 216.168 256.866 216.386 256.901 216.614L257.625 216.503ZM257.839 215.972C257.962 215.859 258.167 215.792 258.556 215.96L258.845 215.287C258.294 215.05 257.749 215.059 257.342 215.435L257.839 215.972ZM258.556 215.96L262.791 217.781L263.08 217.109L258.845 215.287L258.556 215.96ZM262.791 217.781C263.111 217.919 263.307 218.089 263.416 218.272C263.522 218.452 263.568 218.682 263.519 218.987L264.241 219.104C264.312 218.664 264.255 218.253 264.045 217.899C263.836 217.547 263.499 217.289 263.08 217.109L262.791 217.781ZM263.519 218.981L262.528 224.529L263.248 224.657L264.24 219.11L263.519 218.981ZM262.535 224.496L261.628 227.81L262.333 228.003L263.241 224.69L262.535 224.496ZM261.836 228.243L261.97 228.3L262.259 227.628L262.125 227.57L261.836 228.243ZM262.428 228.154L264.209 225.216L263.583 224.837L261.802 227.775L262.428 228.154ZM264.191 225.244L267.535 220.708L266.946 220.274L263.602 224.809L264.191 225.244ZM267.542 220.699C267.711 220.453 267.898 220.33 268.096 220.285C268.301 220.239 268.567 220.265 268.908 220.412L269.197 219.739C268.764 219.553 268.336 219.481 267.934 219.571C267.526 219.664 267.193 219.915 266.939 220.283L267.542 220.699ZM268.908 220.412L273.142 222.233L273.431 221.561L269.197 219.739L268.908 220.412ZM273.142 222.233C273.491 222.383 273.59 222.575 273.592 222.748L274.324 222.739C274.318 222.191 273.956 221.786 273.431 221.561L273.142 222.233ZM273.592 222.748C273.596 223.011 273.518 223.171 273.361 223.304L273.833 223.863C274.176 223.574 274.33 223.196 274.324 222.739L273.592 222.748ZM273.333 223.33L262.433 234.692L262.961 235.198L273.861 223.837L273.333 223.33ZM296.457 233.096L296.108 232.986L296.107 232.989L296.457 233.096ZM293.148 243.939L293.495 244.056L293.498 244.046L293.148 243.939ZM291.566 248.635L291.219 248.519L291.112 248.838L291.421 248.971L291.566 248.635ZM291.633 248.664L291.489 249L291.792 249.131L291.953 248.843L291.633 248.664ZM294.055 244.329L293.741 244.142L293.736 244.151L294.055 244.329ZM299.885 234.571L299.574 234.378L299.571 234.383L299.885 234.571ZM306.574 236.611L306.224 236.715L306.224 236.715L306.574 236.611ZM306.381 237.524L306.08 237.316L306.073 237.326L306.381 237.524ZM293.702 257.28L294.007 257.484L294.01 257.478L293.702 257.28ZM285.367 253.696L285.016 253.594L285.014 253.602L285.367 253.696ZM286.979 248.096L286.63 247.987L286.627 247.995L286.979 248.096ZM288.764 242.372L289.113 242.481L289.211 242.167L288.908 242.036L288.764 242.372ZM288.696 242.343L288.841 242.007L288.538 241.877L288.377 242.165L288.696 242.343ZM285.769 247.576L286.084 247.762L286.088 247.755L285.769 247.576ZM282.813 252.597L283.117 252.8L283.123 252.792L283.128 252.783L282.813 252.597ZM274.478 249.012L274.832 249.106L274.833 249.1L274.478 249.012ZM280.099 226.22L280.454 226.308L280.457 226.296L280.099 226.22ZM280.595 225.438L280.76 225.764L280.76 225.764L280.595 225.438ZM286.71 228.904L287.063 229.003L287.066 228.992L287.068 228.98L286.71 228.904ZM283.636 239.849L283.986 239.958L283.989 239.948L283.636 239.849ZM282.156 244.588L281.806 244.479L281.708 244.794L282.011 244.924L282.156 244.588ZM282.223 244.617L282.078 244.953L282.388 245.086L282.546 244.788L282.223 244.617ZM284.544 240.239L284.225 240.058L284.221 240.068L284.544 240.239ZM290.138 230.379L290.457 230.559L290.458 230.556L290.138 230.379ZM291.585 230.164L295.618 231.899L295.907 231.227L291.874 229.492L291.585 230.164ZM295.618 231.899C295.892 232.017 296.041 232.169 296.111 232.326C296.183 232.483 296.199 232.698 296.108 232.986L296.806 233.207C296.936 232.794 296.942 232.386 296.778 232.024C296.614 231.662 296.305 231.398 295.907 231.227L295.618 231.899ZM296.107 232.989L292.798 243.832L293.498 244.046L296.807 233.203L296.107 232.989ZM292.801 243.822L291.219 248.519L291.913 248.752L293.494 244.056L292.801 243.822ZM291.421 248.971L291.489 249L291.778 248.328L291.711 248.299L291.421 248.971ZM291.953 248.843L294.375 244.508L293.736 244.151L291.314 248.486L291.953 248.843ZM294.369 244.517L300.199 234.758L299.571 234.383L293.741 244.142L294.369 244.517ZM300.196 234.763C300.363 234.494 300.535 234.354 300.698 234.295C300.856 234.239 301.059 234.239 301.331 234.356L301.62 233.684C301.221 233.512 300.823 233.473 300.451 233.607C300.084 233.738 299.797 234.019 299.574 234.378L300.196 234.763ZM301.331 234.356L305.801 236.279L306.09 235.606L301.62 233.684L301.331 234.356ZM305.801 236.279C306.045 236.383 306.175 236.552 306.224 236.715L306.925 236.507C306.811 236.122 306.519 235.791 306.09 235.606L305.801 236.279ZM306.224 236.715C306.267 236.861 306.243 237.079 306.08 237.316L306.682 237.731C306.942 237.354 307.044 236.909 306.925 236.507L306.224 236.715ZM306.073 237.326L293.394 257.083L294.01 257.478L306.689 237.721L306.073 237.326ZM293.398 257.077C293.145 257.456 292.897 257.656 292.661 257.74C292.433 257.822 292.164 257.813 291.824 257.667L291.534 258.339C292.001 258.54 292.465 258.587 292.907 258.43C293.341 258.274 293.702 257.94 294.007 257.484L293.398 257.077ZM291.824 257.667L286.379 255.325L286.09 255.998L291.534 258.339L291.824 257.667ZM286.379 255.325C286.037 255.179 285.837 254.984 285.736 254.76C285.633 254.532 285.607 254.218 285.721 253.789L285.014 253.602C284.872 254.138 284.876 254.634 285.069 255.061C285.263 255.491 285.625 255.798 286.09 255.998L286.379 255.325ZM285.719 253.797L287.331 248.198L286.627 247.995L285.016 253.594L285.719 253.797ZM287.328 248.205L289.113 242.481L288.414 242.263L286.63 247.987L287.328 248.205ZM288.908 242.036L288.841 242.007L288.552 242.68L288.619 242.708L288.908 242.036ZM288.377 242.165L285.45 247.397L286.088 247.755L289.016 242.522L288.377 242.165ZM285.454 247.39L282.498 252.412L283.128 252.783L286.084 247.762L285.454 247.39ZM282.509 252.394C282.256 252.773 282.007 252.973 281.772 253.057C281.543 253.139 281.274 253.13 280.934 252.984L280.645 253.656C281.112 253.857 281.575 253.904 282.018 253.746C282.452 253.591 282.812 253.257 283.117 252.8L282.509 252.394ZM280.934 252.984L275.49 250.642L275.201 251.314L280.645 253.656L280.934 252.984ZM275.49 250.642C275.148 250.495 274.948 250.301 274.847 250.077C274.744 249.848 274.718 249.535 274.832 249.106L274.124 248.919C273.982 249.455 273.987 249.951 274.18 250.378C274.374 250.808 274.735 251.114 275.201 251.314L275.49 250.642ZM274.833 249.1L280.454 226.308L279.744 226.133L274.123 248.925L274.833 249.1ZM280.457 226.296C280.524 225.979 280.648 225.821 280.76 225.764L280.429 225.112C280.031 225.314 279.828 225.731 279.741 226.144L280.457 226.296ZM280.76 225.764C280.906 225.69 281.118 225.663 281.401 225.785L281.69 225.113C281.234 224.916 280.792 224.927 280.429 225.112L280.76 225.764ZM281.401 225.785L285.871 227.707L286.16 227.035L281.69 225.113L281.401 225.785ZM285.871 227.707C286.122 227.815 286.256 227.956 286.325 228.114C286.398 228.28 286.42 228.511 286.352 228.829L287.068 228.98C287.155 228.568 287.149 228.17 286.995 227.82C286.838 227.462 286.548 227.202 286.16 227.035L285.871 227.707ZM286.358 228.805L283.284 239.75L283.989 239.948L287.063 229.003L286.358 228.805ZM283.287 239.74L281.806 244.479L282.505 244.697L283.986 239.958L283.287 239.74ZM282.011 244.924L282.078 244.953L282.367 244.281L282.3 244.252L282.011 244.924ZM282.546 244.788L284.867 240.41L284.221 240.068L281.9 244.446L282.546 244.788ZM284.862 240.419L290.457 230.559L289.82 230.198L284.226 240.058L284.862 240.419ZM290.458 230.556C290.609 230.284 290.771 230.149 290.926 230.093C291.08 230.038 291.29 230.038 291.585 230.164L291.874 229.492C291.463 229.315 291.055 229.269 290.679 229.404C290.305 229.539 290.024 229.83 289.818 230.202L290.458 230.556ZM308.373 254.071L308.517 253.735L308.181 253.591L308.037 253.927L308.373 254.071ZM306.768 257.802L306.432 257.657L306.288 257.993L306.624 258.138L306.768 257.802ZM312.145 245.299L312.29 244.963L311.954 244.819L311.809 245.155L312.145 245.299ZM310.714 248.627L310.378 248.482L310.234 248.818L310.57 248.963L310.714 248.627ZM313.76 255.99L308.517 253.735L308.228 254.407L313.471 256.662L313.76 255.99ZM308.037 253.927L306.432 257.657L307.104 257.946L308.709 254.216L308.037 253.927ZM306.624 258.138L312.337 260.595L312.626 259.923L306.913 257.466L306.624 258.138ZM312.337 260.595C312.634 260.723 312.771 260.874 312.827 261.013C312.882 261.152 312.886 261.356 312.759 261.653L313.431 261.942C313.607 261.533 313.657 261.119 313.507 260.742C313.356 260.365 313.035 260.099 312.626 259.923L312.337 260.595ZM312.759 261.653L311.255 265.148L311.928 265.437L313.431 261.942L312.759 261.653ZM311.255 265.148C311.119 265.466 310.968 265.598 310.836 265.649C310.703 265.7 310.503 265.701 310.198 265.569L309.909 266.242C310.31 266.414 310.72 266.478 311.099 266.332C311.481 266.185 311.746 265.859 311.928 265.437L311.255 265.148ZM310.198 265.569L299.443 260.944L299.154 261.616L309.909 266.242L310.198 265.569ZM299.443 260.944C299.117 260.804 298.985 260.659 298.935 260.534C298.886 260.409 298.882 260.213 299.022 259.887L298.35 259.598C298.172 260.011 298.104 260.425 298.256 260.805C298.407 261.184 298.741 261.438 299.154 261.616L299.443 260.944ZM299.022 259.887L308.33 238.242L307.658 237.953L298.35 259.598L299.022 259.887ZM308.33 238.242C308.462 237.937 308.607 237.8 308.739 237.746C308.87 237.692 309.07 237.684 309.388 237.821L309.677 237.149C309.255 236.968 308.838 236.913 308.46 237.069C308.084 237.224 307.83 237.553 307.658 237.953L308.33 238.242ZM309.388 237.821L320.008 242.389L320.297 241.716L309.677 237.149L309.388 237.821ZM320.008 242.389C320.305 242.516 320.442 242.667 320.498 242.806C320.553 242.945 320.557 243.149 320.43 243.446L321.102 243.735C321.277 243.326 321.328 242.913 321.177 242.535C321.027 242.158 320.706 241.892 320.297 241.716L320.008 242.389ZM320.43 243.446L318.926 246.941L319.598 247.23L321.102 243.735L320.43 243.446ZM318.926 246.941C318.79 247.259 318.639 247.391 318.507 247.442C318.374 247.493 318.174 247.494 317.869 247.363L317.58 248.035C317.98 248.207 318.391 248.271 318.77 248.125C319.152 247.978 319.417 247.652 319.598 247.23L318.926 246.941ZM317.869 247.363L312.29 244.963L312.001 245.636L317.58 248.035L317.869 247.363ZM311.809 245.155L310.378 248.482L311.05 248.771L312.481 245.444L311.809 245.155ZM310.57 248.963L315.813 251.218L316.102 250.545L310.859 248.291L310.57 248.963ZM315.813 251.218C316.11 251.345 316.247 251.496 316.302 251.635C316.358 251.774 316.362 251.978 316.234 252.275L316.906 252.564C317.082 252.155 317.132 251.742 316.982 251.364C316.832 250.987 316.51 250.721 316.102 250.545L315.813 251.218ZM316.234 252.275L314.818 255.569L315.49 255.858L316.906 252.564L316.234 252.275ZM314.818 255.569C314.681 255.887 314.53 256.019 314.399 256.069C314.265 256.121 314.065 256.121 313.76 255.99L313.471 256.662C313.872 256.835 314.282 256.898 314.662 256.752C315.043 256.605 315.309 256.279 315.49 255.858L314.818 255.569ZM323.372 260.522L323.517 260.186L323.18 260.042L323.036 260.378L323.372 260.522ZM321.768 264.253L321.431 264.108L321.287 264.444L321.623 264.589L321.768 264.253ZM327.145 251.75L327.289 251.414L326.953 251.27L326.808 251.606L327.145 251.75ZM325.714 255.078L325.377 254.933L325.233 255.269L325.569 255.414L325.714 255.078ZM328.76 262.441L323.517 260.186L323.227 260.858L328.47 263.113L328.76 262.441ZM323.036 260.378L321.431 264.108L322.104 264.397L323.708 260.667L323.036 260.378ZM321.623 264.589L327.337 267.046L327.626 266.374L321.912 263.917L321.623 264.589ZM327.337 267.046C327.634 267.174 327.771 267.324 327.826 267.464C327.882 267.603 327.886 267.806 327.758 268.103L328.43 268.393C328.606 267.984 328.656 267.57 328.506 267.193C328.355 266.815 328.034 266.55 327.626 266.374L327.337 267.046ZM327.758 268.103L326.255 271.599L326.927 271.888L328.43 268.393L327.758 268.103ZM326.255 271.599C326.118 271.917 325.967 272.049 325.836 272.1C325.702 272.151 325.502 272.151 325.197 272.02L324.908 272.692C325.309 272.865 325.719 272.928 326.099 272.782C326.48 272.635 326.746 272.309 326.927 271.888L326.255 271.599ZM325.197 272.02L314.442 267.395L314.153 268.067L324.908 272.692L325.197 272.02ZM314.442 267.395C314.116 267.255 313.984 267.109 313.935 266.984C313.885 266.86 313.881 266.663 314.021 266.337L313.349 266.048C313.171 266.462 313.104 266.876 313.255 267.255C313.406 267.635 313.74 267.889 314.153 268.067L314.442 267.395ZM314.021 266.337L323.33 244.693L322.657 244.404L313.349 266.048L314.021 266.337ZM323.33 244.693C323.461 244.388 323.606 244.251 323.739 244.197C323.869 244.143 324.069 244.135 324.387 244.272L324.676 243.6C324.255 243.418 323.838 243.364 323.46 243.52C323.084 243.675 322.83 244.004 322.657 244.404L323.33 244.693ZM324.387 244.272L335.007 248.839L335.297 248.167L324.676 243.6L324.387 244.272ZM335.007 248.839C335.305 248.967 335.442 249.118 335.497 249.257C335.553 249.396 335.557 249.6 335.429 249.897L336.101 250.186C336.277 249.777 336.327 249.363 336.177 248.986C336.026 248.609 335.705 248.343 335.297 248.167L335.007 248.839ZM335.429 249.897L333.926 253.392L334.598 253.681L336.101 250.186L335.429 249.897ZM333.926 253.392C333.789 253.71 333.638 253.842 333.507 253.893C333.373 253.944 333.173 253.945 332.868 253.814L332.579 254.486C332.98 254.658 333.39 254.722 333.77 254.576C334.151 254.429 334.416 254.103 334.598 253.681L333.926 253.392ZM332.868 253.814L327.289 251.414L327 252.086L332.579 254.486L332.868 253.814ZM326.808 251.606L325.377 254.933L326.05 255.222L327.481 251.895L326.808 251.606ZM325.569 255.414L330.812 257.668L331.101 256.996L325.858 254.741L325.569 255.414ZM330.812 257.668C331.109 257.796 331.246 257.947 331.302 258.086C331.357 258.225 331.361 258.429 331.233 258.726L331.906 259.015C332.081 258.606 332.132 258.193 331.981 257.815C331.831 257.438 331.51 257.172 331.101 256.996L330.812 257.668ZM331.233 258.726L329.817 262.02L330.489 262.309L331.906 259.015L331.233 258.726ZM329.817 262.02C329.68 262.337 329.53 262.47 329.398 262.52C329.264 262.572 329.065 262.572 328.76 262.441L328.47 263.113C328.871 263.285 329.281 263.349 329.661 263.203C330.042 263.056 330.308 262.73 330.489 262.309L329.817 262.02ZM341.315 260.314L340.979 260.169L341.567 260.579L341.315 260.314ZM347.096 254.835L347.348 255.101L347.355 255.094L347.096 254.835ZM353.742 256.976L354.107 256.955L354.107 256.955L353.742 256.976ZM353.27 257.889L353.034 257.609L353.027 257.615L353.021 257.621L353.27 257.889ZM345.368 265.243L345.119 264.975L345.01 265.076L345.003 265.224L345.368 265.243ZM344.663 279.197L345.029 279.218L345.029 279.216L344.663 279.197ZM344.292 280.153L344.528 280.432L344.292 280.153ZM338.133 276.787L338.496 276.829L338.498 276.82L338.498 276.81L338.133 276.787ZM338.814 266.128L339.179 266.151L338.478 265.984L338.814 266.128ZM341.567 260.579L347.348 255.101L346.844 254.569L341.063 260.048L341.567 260.579ZM347.355 255.094C347.601 254.848 347.828 254.717 348.043 254.666C348.253 254.617 348.486 254.636 348.763 254.755L349.052 254.083C348.657 253.913 348.263 253.862 347.875 253.954C347.491 254.044 347.149 254.265 346.838 254.576L347.355 255.094ZM348.763 254.755L352.931 256.548L353.22 255.876L349.052 254.083L348.763 254.755ZM352.931 256.548C353.272 256.695 353.369 256.868 353.377 256.997L354.107 256.955C354.077 256.431 353.685 256.076 353.22 255.876L352.931 256.548ZM353.377 256.997C353.387 257.17 353.294 257.39 353.034 257.609L353.506 258.168C353.871 257.86 354.135 257.436 354.107 256.955L353.377 256.997ZM353.021 257.621L345.119 264.975L345.617 265.511L353.519 258.156L353.021 257.621ZM345.003 265.224L344.298 279.179L345.029 279.216L345.733 265.261L345.003 265.224ZM344.298 279.176C344.275 279.57 344.19 279.76 344.056 279.873L344.528 280.432C344.894 280.123 345.002 279.679 345.029 279.218L344.298 279.176ZM344.056 279.873C343.949 279.964 343.783 280.014 343.457 279.873L343.168 280.545C343.647 280.752 344.136 280.764 344.528 280.432L344.056 279.873ZM343.457 279.873L339.222 278.052L338.933 278.724L343.168 280.545L343.457 279.873ZM339.222 278.052C338.923 277.923 338.733 277.758 338.622 277.571C338.512 277.386 338.46 277.146 338.496 276.829L337.77 276.745C337.719 277.187 337.786 277.595 337.993 277.945C338.2 278.294 338.526 278.549 338.933 278.724L339.222 278.052ZM338.498 276.81L339.179 266.151L338.449 266.105L337.768 276.764L338.498 276.81ZM338.478 265.984L334.532 275.159L335.204 275.448L339.15 266.273L338.478 265.984ZM334.532 275.159C334.395 275.477 334.245 275.609 334.113 275.659C333.98 275.711 333.78 275.711 333.475 275.58L333.186 276.252C333.586 276.425 333.997 276.488 334.376 276.342C334.758 276.195 335.023 275.869 335.204 275.448L334.532 275.159ZM333.475 275.58L329.442 273.846L329.153 274.518L333.186 276.252L333.475 275.58ZM329.442 273.846C329.116 273.705 328.984 273.56 328.934 273.435C328.884 273.31 328.88 273.114 329.02 272.788L328.348 272.499C328.17 272.913 328.103 273.326 328.254 273.706C328.406 274.086 328.739 274.34 329.153 274.518L329.442 273.846ZM329.02 272.788L338.329 251.144L337.657 250.855L328.348 272.499L329.02 272.788ZM338.329 251.144C338.46 250.839 338.605 250.702 338.738 250.647C338.868 250.594 339.068 250.586 339.386 250.723L339.675 250.051C339.254 249.869 338.837 249.815 338.459 249.971C338.083 250.126 337.829 250.454 337.657 250.855L338.329 251.144ZM339.386 250.723L343.419 252.457L343.708 251.785L339.675 250.051L339.386 250.723ZM343.419 252.457C343.716 252.585 343.854 252.735 343.909 252.875C343.965 253.014 343.969 253.217 343.841 253.515L344.513 253.804C344.689 253.395 344.739 252.981 344.589 252.604C344.438 252.226 344.117 251.961 343.708 251.785L343.419 252.457ZM343.841 253.515L340.979 260.169L341.651 260.458L344.513 253.804L343.841 253.515ZM357.07 284.573L357.164 284.926L357.07 284.573ZM346.529 281.394L346.763 281.112L346.761 281.11L346.529 281.394ZM345.776 280.552L345.436 280.688L345.776 280.552ZM349.044 276.103L349.291 275.833L349.283 275.826L349.275 275.82L349.044 276.103ZM355.111 275.885L355.463 275.784L355.46 275.775L355.457 275.766L355.111 275.885ZM353.693 273.164L354.005 272.973L354.004 272.972L353.693 273.164ZM351.945 268.709L352.306 268.648L351.945 268.709ZM356.66 259.227L356.785 259.571L356.785 259.571L356.66 259.227ZM366.706 262.074L366.928 261.783L366.92 261.777L366.706 262.074ZM367.359 262.872L367.709 262.768L367.709 262.768L367.359 262.872ZM364.081 267.437L363.86 267.728L363.867 267.733L364.081 267.437ZM360.306 271.03L360.627 270.854L360.622 270.847L360.306 271.03ZM362.188 275.822L362.551 275.775L362.548 275.761L362.188 275.822ZM361.077 280.163C360.095 282.446 358.725 283.754 356.976 284.219L357.164 284.926C359.192 284.387 360.708 282.874 361.749 280.452L361.077 280.163ZM356.976 284.219C355.183 284.696 353.256 284.486 351.162 283.585L350.873 284.258C353.082 285.207 355.179 285.454 357.164 284.926L356.976 284.219ZM351.162 283.585C349.16 282.724 347.722 281.907 346.763 281.112L346.296 281.675C347.333 282.535 348.843 283.384 350.873 284.258L351.162 283.585ZM346.761 281.11C346.349 280.774 346.174 280.561 346.116 280.417L345.436 280.688C345.57 281.024 345.884 281.34 346.298 281.677L346.761 281.11ZM346.116 280.417C346.079 280.324 346.083 280.116 346.253 279.722L345.581 279.433C345.403 279.845 345.282 280.3 345.436 280.688L346.116 280.417ZM346.253 279.722L347.655 276.462L346.983 276.172L345.581 279.433L346.253 279.722ZM347.655 276.462C347.808 276.105 347.954 276.03 348.049 276.018C348.176 276.001 348.417 276.064 348.812 276.387L349.275 275.82C348.845 275.469 348.397 275.235 347.955 275.292C347.48 275.354 347.177 275.722 346.983 276.172L347.655 276.462ZM348.797 276.373C349.498 277.014 350.439 277.539 351.563 278.023L351.852 277.351C350.759 276.881 349.904 276.394 349.291 275.833L348.797 276.373ZM351.563 278.023C352.475 278.415 353.271 278.607 353.921 278.538C354.606 278.466 355.112 278.106 355.383 277.475L354.711 277.186C354.548 277.564 354.276 277.765 353.845 277.81C353.379 277.859 352.722 277.725 351.852 277.351L351.563 278.023ZM355.383 277.475C355.624 276.915 355.626 276.351 355.463 275.784L354.76 275.986C354.884 276.419 354.875 276.806 354.711 277.186L355.383 277.475ZM355.457 275.766C355.267 275.213 354.805 274.277 354.005 272.973L353.381 273.355C354.173 274.647 354.602 275.528 354.765 276.004L355.457 275.766ZM354.004 272.972C353.087 271.488 352.545 270.057 352.306 268.648L351.584 268.77C351.841 270.282 352.42 271.802 353.382 273.357L354.004 272.972ZM352.306 268.648C352.074 267.279 352.345 265.648 353.138 263.805L352.466 263.516C351.639 265.438 351.321 267.217 351.584 268.77L352.306 268.648ZM353.138 263.805C354.148 261.458 355.367 260.085 356.785 259.571L356.535 258.883C354.839 259.498 353.509 261.092 352.466 263.516L353.138 263.805ZM356.785 259.571C358.209 259.054 360.247 259.296 362.908 260.441L363.198 259.769C360.481 258.6 358.225 258.27 356.535 258.883L356.785 259.571ZM362.908 260.441C364.505 261.128 365.699 261.799 366.492 262.371L366.92 261.777C366.072 261.165 364.827 260.469 363.198 259.769L362.908 260.441ZM366.485 262.365C366.822 262.622 366.959 262.813 367.008 262.976L367.709 262.768C367.595 262.384 367.311 262.075 366.928 261.783L366.485 262.365ZM367.008 262.976C367.06 263.152 367.063 263.375 366.916 263.717L367.588 264.006C367.788 263.542 367.82 263.141 367.709 262.768L367.008 262.976ZM366.916 263.717L365.47 267.078L366.142 267.367L367.588 264.006L366.916 263.717ZM365.47 267.078C365.341 267.378 365.202 267.452 365.088 267.466C364.938 267.484 364.682 267.419 364.295 267.14L363.867 267.733C364.302 268.047 364.749 268.244 365.176 268.192C365.64 268.136 365.953 267.807 366.142 267.367L365.47 267.078ZM364.303 267.146C363.557 266.577 362.7 266.086 361.768 265.685L361.479 266.357C362.362 266.737 363.166 267.199 363.86 267.728L364.303 267.146ZM361.768 265.685C361.053 265.377 360.442 265.231 359.962 265.347L360.134 266.058C360.366 266.002 360.783 266.058 361.479 266.357L361.768 265.685ZM359.962 265.347C359.447 265.471 359.085 265.905 358.861 266.426L359.533 266.715C359.713 266.296 359.938 266.105 360.134 266.058L359.962 265.347ZM358.861 266.426C358.615 266.997 358.615 267.697 358.807 268.485C359.001 269.276 359.396 270.188 359.989 271.213L360.622 270.847C360.05 269.857 359.689 269.011 359.518 268.311C359.346 267.608 359.374 267.086 359.533 266.715L358.861 266.426ZM359.985 271.206C361.002 273.065 361.613 274.61 361.827 275.883L362.548 275.761C362.315 274.372 361.661 272.745 360.627 270.854L359.985 271.206ZM361.825 275.869C361.99 277.14 361.766 278.562 361.077 280.163L361.749 280.452C362.477 278.76 362.737 277.204 362.55 275.775L361.825 275.869Z" fill="white"/>
<path d="M397.664 286.101L399.143 286.737C399.714 286.983 400.175 287.022 400.526 286.854C400.843 286.672 401.194 286.226 401.484 285.554C401.773 284.881 401.841 284.353 401.755 283.997C401.635 283.627 401.289 283.32 400.718 283.074L399.239 282.438L397.664 286.101ZM393.772 301.911L386.344 298.716C385.605 298.398 385.413 297.918 385.731 297.178L395.04 275.534C395.343 274.828 395.838 274.603 396.578 274.921L403.266 277.798C405.82 278.896 407.495 280.094 408.358 281.421C409.221 282.748 409.147 284.588 408.164 286.874C407.066 289.428 405.435 290.718 403.274 290.744C404.123 291.547 404.64 292.566 404.812 293.835C404.983 295.103 404.751 296.477 404.144 297.889C402.091 302.661 398.611 303.992 393.772 301.911ZM393.631 295.478L395.547 296.302C396.185 296.577 396.68 296.63 397.093 296.41C397.473 296.175 397.839 295.695 398.186 294.888C398.533 294.082 398.63 293.486 398.539 293.049C398.415 292.597 398.05 292.241 397.411 291.966L395.496 291.143L393.631 295.478ZM418.98 285.83L411.666 302.836L415.968 304.686C416.674 304.99 416.885 305.519 416.581 306.224L415.049 309.787C414.731 310.526 414.217 310.704 413.511 310.4L404.1 306.353C403.361 306.035 403.17 305.554 403.488 304.815L412.796 283.171C413.1 282.465 413.595 282.24 414.334 282.558L418.367 284.292C419.073 284.596 419.284 285.124 418.98 285.83ZM426.982 305.122L429.603 306.249L432.002 297.245L431.868 297.187L426.982 305.122ZM431.315 289.861L437.701 292.607C438.575 292.983 438.905 293.603 438.741 294.448L433.149 317.452C433.057 317.85 432.86 318.124 432.605 318.253C432.35 318.383 432.038 318.368 431.702 318.223L427.568 316.446C426.896 316.156 426.671 315.661 426.873 314.912L427.694 311.8L424.266 310.326L422.571 313.062C422.133 313.71 421.619 313.887 420.981 313.612L416.847 311.835C416.477 311.676 416.251 311.459 416.17 311.185C416.089 310.911 416.185 310.594 416.411 310.254L429.263 290.372C429.73 289.657 430.441 289.485 431.315 289.861ZM446.076 318.193C446.816 318.511 447.517 318.733 448.213 318.873C449.077 319.085 449.351 319.561 449.033 320.301L447.645 323.527C447.341 324.233 446.784 324.511 446.054 324.356C444.863 324.162 443.643 323.757 442.433 323.237C440.753 322.514 439.433 321.787 438.569 321.017C437.672 320.233 437.058 319.252 436.723 317.993C436.374 316.768 436.371 315.293 436.762 313.55C437.139 311.84 437.901 309.699 439 307.144C440.069 304.657 441.085 302.665 442.053 301.249C442.987 299.819 444.025 298.792 445.155 298.202C446.285 297.613 447.419 297.384 448.605 297.496C449.758 297.593 451.175 298.004 452.855 298.726C453.83 299.145 454.881 299.757 456.071 300.508C456.734 300.912 456.916 301.508 456.598 302.247L455.196 305.508C454.878 306.247 454.344 306.376 453.595 305.895C453.015 305.486 452.371 305.129 451.699 304.84C450.187 304.19 449.039 304.174 448.255 304.793C447.437 305.397 446.47 307.091 445.284 309.847C444.432 311.83 443.911 313.319 443.708 314.347C443.505 315.374 443.614 316.138 443.974 316.691C444.3 317.23 445.001 317.73 446.076 318.193ZM462.265 312.331L468.046 306.853C468.604 306.296 469.185 306.148 469.858 306.437L474.025 308.229C474.428 308.403 474.673 308.667 474.692 308.994C474.711 309.321 474.533 309.642 474.22 309.906L466.318 317.26L465.613 331.215C465.589 331.642 465.492 331.959 465.242 332.17C464.992 332.381 464.665 332.4 464.262 332.227L460.027 330.405C459.322 330.102 458.996 329.563 459.083 328.805L459.764 318.146L455.818 327.321C455.5 328.06 454.986 328.237 454.28 327.934L450.247 326.199C449.508 325.881 449.316 325.401 449.634 324.661L458.943 303.017C459.246 302.311 459.741 302.086 460.481 302.404L464.514 304.139C465.22 304.442 465.43 304.971 465.127 305.677L462.265 312.331ZM487.093 331.97L482.119 329.831L478.953 337.191C478.621 337.964 478.059 338.16 477.319 337.842L473.42 336.166C472.647 335.833 472.437 335.304 472.769 334.531L482.02 313.022C482.338 312.282 482.881 312.038 483.654 312.37L493.871 316.765C494.577 317.068 494.788 317.597 494.484 318.303L492.981 321.798C492.663 322.537 492.149 322.714 491.443 322.411L486.267 320.185L484.547 324.184L489.521 326.324C490.227 326.627 490.438 327.156 490.134 327.862L488.631 331.357C488.313 332.096 487.799 332.273 487.093 331.97ZM497.968 332.226L498.909 332.631C499.782 333.007 500.441 333.051 500.883 332.763C501.325 332.475 501.807 331.727 502.312 330.55C502.804 329.408 503.016 328.543 502.921 328.024C502.826 327.505 502.355 327.024 501.482 326.649L500.54 326.244L497.968 332.226ZM497.831 318.468L503.881 321.069C506.973 322.399 508.883 323.977 509.606 325.722C510.329 327.467 509.999 329.993 508.597 333.253C507.007 336.95 504.872 338.86 502.225 338.995L502.359 347.018C502.372 348.099 501.949 348.435 501.075 348.059L496.975 346.296C496.538 346.108 496.25 345.944 496.106 345.723C495.962 345.502 495.861 345.18 495.9 344.718L496.049 337.614L495.713 337.469L493.169 343.384C492.851 344.124 492.337 344.301 491.631 343.997L487.598 342.263C486.858 341.945 486.667 341.464 486.985 340.725L496.293 319.081C496.597 318.375 497.092 318.15 497.831 318.468ZM504.514 348.264L513.823 326.62C514.127 325.914 514.622 325.689 515.361 326.007L519.394 327.741C520.1 328.045 520.311 328.573 520.007 329.279L510.698 350.923C510.38 351.663 509.866 351.84 509.16 351.536L505.127 349.802C504.388 349.484 504.196 349.003 504.514 348.264ZM519.635 356.041L513.855 353.555C513.115 353.237 512.924 352.757 513.242 352.017L522.55 330.373C522.854 329.667 523.349 329.442 524.088 329.76L529.735 332.188C531.314 332.868 532.538 333.633 533.455 334.465C534.371 335.298 535.004 336.326 535.401 337.533C535.75 338.758 535.801 340.214 535.473 341.904C535.144 343.595 534.488 345.583 533.491 347.902C532.161 350.994 530.798 353.236 529.442 354.723C528.085 356.211 526.624 357.016 525.125 357.168C523.578 357.339 521.753 356.952 519.635 356.041ZM527.335 337.768L526.797 337.536L521.363 350.173L522.035 350.462C522.976 350.867 523.821 350.753 524.504 350.091C525.187 349.429 526.078 347.82 527.206 345.199C527.957 343.451 528.435 342.064 528.671 341.05C528.86 340.056 528.851 339.336 528.645 338.888C528.439 338.441 528.007 338.057 527.335 337.768ZM540.51 353.948L543.132 355.075L545.531 346.071L545.396 346.013L540.51 353.948ZM544.844 338.686L551.229 341.433C552.103 341.809 552.434 342.429 552.269 343.274L546.677 366.278C546.586 366.676 546.388 366.95 546.134 367.079C545.879 367.209 545.567 367.194 545.23 367.049L541.097 365.271C540.424 364.982 540.199 364.487 540.402 363.738L541.223 360.626L537.794 359.152L536.1 361.888C535.662 362.536 535.148 362.713 534.509 362.438L530.375 360.66C530.006 360.501 529.78 360.285 529.699 360.011C529.617 359.737 529.714 359.42 529.94 359.079L542.792 339.198C543.259 338.483 543.97 338.311 544.844 338.686ZM559.733 362.693L556.35 370.557C556.032 371.297 555.518 371.474 554.812 371.17L550.779 369.436C550.04 369.118 549.848 368.637 550.166 367.898L553.549 360.033L554.299 344.306C554.246 343.965 554.362 343.696 554.627 343.451C554.891 343.207 555.266 343.169 555.736 343.371L559.971 345.192C560.711 345.51 561.037 346.049 560.915 346.793L559.924 352.341L559.016 355.654L559.151 355.712L560.932 352.774L564.276 348.239C564.7 347.624 565.315 347.491 566.088 347.823L570.323 349.644C570.76 349.832 570.99 350.13 570.994 350.491C570.999 350.851 570.883 351.12 570.633 351.331L559.733 362.693ZM588.765 357.576L592.798 359.31C593.47 359.6 593.715 360.143 593.493 360.844L590.184 371.687L588.602 376.383L588.669 376.412L591.091 372.077L596.921 362.318C597.311 361.689 597.839 361.479 598.512 361.768L602.982 363.69C603.318 363.835 603.529 364.085 603.61 364.359C603.691 364.633 603.629 364.964 603.417 365.271L590.738 385.028C590.18 385.863 589.522 386.098 588.715 385.751L583.27 383.409C582.464 383.062 582.147 382.408 582.403 381.443L584.015 375.844L585.8 370.12L585.732 370.091L582.805 375.324L579.849 380.345C579.291 381.18 578.632 381.414 577.826 381.067L572.381 378.726C571.574 378.379 571.258 377.725 571.514 376.76L577.135 353.968C577.212 353.603 577.376 353.315 577.63 353.185C577.885 353.056 578.212 353.037 578.582 353.196L583.052 355.119C583.69 355.393 583.901 355.922 583.746 356.652L580.672 367.596L579.191 372.336L579.259 372.365L581.58 367.986L587.174 358.126C587.531 357.483 588.059 357.272 588.765 357.576ZM610.652 384.074L605.409 381.819L603.804 385.55L609.518 388.007C610.223 388.31 610.434 388.839 610.131 389.545L608.627 393.04C608.309 393.78 607.795 393.957 607.089 393.653L596.334 389.028C595.595 388.71 595.403 388.229 595.721 387.49L605.03 365.845C605.334 365.14 605.829 364.915 606.568 365.233L617.189 369.8C617.894 370.104 618.105 370.632 617.801 371.338L616.298 374.833C615.98 375.573 615.466 375.75 614.76 375.446L609.181 373.047L607.75 376.374L612.993 378.629C613.699 378.933 613.91 379.461 613.606 380.167L612.19 383.461C611.872 384.2 611.357 384.377 610.652 384.074ZM625.651 390.525L620.408 388.27L618.803 392L624.517 394.458C625.223 394.761 625.433 395.29 625.13 395.996L623.627 399.491C623.309 400.23 622.794 400.407 622.089 400.104L611.334 395.478C610.594 395.16 610.403 394.68 610.721 393.94L620.029 372.296C620.333 371.591 620.828 371.365 621.567 371.683L632.188 376.251C632.894 376.554 633.104 377.083 632.801 377.789L631.298 381.284C630.98 382.024 630.465 382.201 629.759 381.897L624.18 379.498L622.749 382.825L627.992 385.08C628.698 385.384 628.909 385.912 628.605 386.618L627.189 389.912C626.871 390.651 626.357 390.828 625.651 390.525ZM638.351 388.061L644.132 382.583C644.69 382.026 645.271 381.878 645.944 382.167L650.111 383.959C650.514 384.133 650.759 384.397 650.778 384.724C650.797 385.051 650.619 385.372 650.306 385.636L642.404 392.99L641.699 406.945C641.675 407.372 641.578 407.689 641.328 407.9C641.078 408.111 640.751 408.13 640.348 407.957L636.113 406.136C635.407 405.832 635.081 405.294 635.169 404.535L635.85 393.876L631.904 403.051C631.586 403.79 631.072 403.967 630.366 403.664L626.333 401.929C625.594 401.611 625.402 401.131 625.72 400.391L635.029 378.747C635.332 378.041 635.827 377.816 636.567 378.134L640.6 379.869C641.306 380.172 641.516 380.701 641.213 381.407L638.351 388.061ZM658.449 408.055C657.437 410.408 655.994 411.818 654.106 412.32C652.217 412.822 650.205 412.594 648.054 411.669C646.037 410.802 644.563 409.969 643.565 409.141C643.153 408.805 642.908 408.54 642.812 408.3C642.716 408.059 642.779 407.728 642.953 407.325L644.355 404.065C644.702 403.258 645.254 403.177 646.08 403.851C646.737 404.452 647.635 404.957 648.744 405.434C650.525 406.201 651.649 406.087 652.083 405.078C652.285 404.608 652.291 404.132 652.147 403.633C651.97 403.118 651.525 402.21 650.729 400.912C649.789 399.392 649.229 397.917 648.981 396.456C648.733 394.996 649.028 393.291 649.838 391.408C650.864 389.022 652.139 387.539 653.696 386.975C655.253 386.41 657.4 386.696 660.089 387.852C661.702 388.546 662.921 389.23 663.742 389.822C664.102 390.096 664.313 390.346 664.394 390.62C664.476 390.894 664.461 391.206 664.288 391.609L662.842 394.97C662.524 395.71 661.938 395.776 661.117 395.184C660.397 394.636 659.567 394.159 658.659 393.769C657.954 393.465 657.44 393.364 657.084 393.45C656.729 393.536 656.435 393.848 656.233 394.318C655.828 395.259 656.177 396.763 657.342 398.778C658.367 400.652 658.999 402.238 659.223 403.569C659.399 404.92 659.157 406.408 658.449 408.055Z" fill="white"/>
</g>
<defs>
<filter id="filter0_d_2563_1858" x="-226.386" y="0.692871" width="1800.64" height="824.203" filterUnits="userSpaceOnUse" color-interpolation-filters="sRGB">
<feFlood flood-opacity="0" result="BackgroundImageFix"/>
<feColorMatrix in="SourceAlpha" type="matrix" values="0 0 0 0 0 0 0 0 0 0 0 0 0 0 0 0 0 0 127 0" result="hardAlpha"/>
<feOffset dy="4"/>
<feGaussianBlur stdDeviation="2"/>
<feComposite in2="hardAlpha" operator="out"/>
<feColorMatrix type="matrix" values="0 0 0 0 0 0 0 0 0 0 0 0 0 0 0 0 0 0 0.2 0"/>
<feBlend mode="normal" in2="BackgroundImageFix" result="effect1_dropShadow_2563_1858"/>
<feBlend mode="normal" in="SourceGraphic" in2="effect1_dropShadow_2563_1858" result="shape"/>
</filter>
</defs>
</svg>
