<svg width="1231" height="316" viewBox="0 0 1231 316" fill="none" xmlns="http://www.w3.org/2000/svg">
<g filter="url(#filter0_d_2563_3909)">
<rect width="1925.41" height="60.4146" transform="translate(-602 250.795) rotate(-20.1034)" fill="black"/>
<path d="M-276.282 159.952L-276.625 160.078L-276.5 160.421L-276.156 160.296L-276.282 159.952ZM-273.684 158.534L-273.343 158.666L-273.338 158.653L-273.334 158.639L-273.684 158.534ZM-274.753 155.614L-274.554 155.307L-274.565 155.299L-274.577 155.293L-274.753 155.614ZM-277.652 156.207L-277.778 155.864L-278.122 155.99L-277.996 156.333L-277.652 156.207ZM-271.722 149.206L-271.636 148.85L-271.722 149.206ZM-269.016 159.474L-269.27 159.211L-269.919 159.84L-269.016 159.84L-269.016 159.474ZM-265.775 160.665L-265.545 160.38L-265.775 160.665ZM-272.773 169.538L-273.117 169.663L-272.991 170.007L-272.648 169.881L-272.773 169.538ZM-269.617 167.837L-269.27 167.953L-269.266 167.942L-269.263 167.931L-269.617 167.837ZM-270.874 164.401L-270.665 164.101L-270.675 164.094L-270.685 164.088L-270.874 164.401ZM-274.396 165.106L-274.521 164.762L-274.865 164.888L-274.739 165.231L-274.396 165.106ZM-276.156 160.296L-274.644 159.742L-274.896 159.055L-276.408 159.609L-276.156 160.296ZM-274.644 159.742C-274.02 159.514 -273.538 159.173 -273.343 158.666L-274.026 158.402C-274.11 158.621 -274.353 158.856 -274.896 159.055L-274.644 159.742ZM-273.334 158.639C-273.195 158.177 -273.276 157.52 -273.538 156.805L-274.225 157.057C-273.984 157.716 -273.963 158.19 -274.034 158.428L-273.334 158.639ZM-273.538 156.805C-273.801 156.085 -274.151 155.568 -274.554 155.307L-274.952 155.92C-274.741 156.058 -274.464 156.402 -274.225 157.057L-273.538 156.805ZM-274.577 155.293C-275.054 155.032 -275.642 155.082 -276.267 155.31L-276.015 155.998C-275.472 155.799 -275.134 155.822 -274.929 155.934L-274.577 155.293ZM-276.267 155.31L-277.778 155.864L-277.527 156.551L-276.015 155.998L-276.267 155.31ZM-277.996 156.333L-276.625 160.078L-275.938 159.826L-277.309 156.082L-277.996 156.333ZM-268.379 173.773L-275.972 176.552L-275.72 177.239L-268.128 174.46L-268.379 173.773ZM-275.972 176.552C-276.305 176.674 -276.501 176.659 -276.623 176.603C-276.745 176.546 -276.882 176.406 -277.004 176.073L-277.691 176.324C-277.537 176.747 -277.302 177.094 -276.931 177.266C-276.56 177.438 -276.143 177.394 -275.72 177.239L-275.972 176.552ZM-277.004 176.073L-285.103 153.947L-285.79 154.199L-277.691 176.324L-277.004 176.073ZM-285.103 153.947C-285.217 153.636 -285.205 153.436 -285.147 153.306C-285.089 153.177 -284.948 153.034 -284.623 152.915L-284.875 152.228C-285.306 152.386 -285.646 152.633 -285.814 153.005C-285.981 153.376 -285.94 153.789 -285.79 154.199L-285.103 153.947ZM-284.623 152.915L-277.787 150.413L-278.038 149.725L-284.875 152.228L-284.623 152.915ZM-277.787 150.413C-275.199 149.466 -273.242 149.215 -271.808 149.561L-271.636 148.85C-273.28 148.453 -275.403 148.761 -278.038 149.725L-277.787 150.413ZM-271.808 149.561C-270.446 149.891 -269.301 151.136 -268.462 153.428L-267.775 153.177C-268.647 150.796 -269.921 149.265 -271.636 148.85L-271.808 149.561ZM-268.462 153.428C-267.999 154.695 -267.85 155.799 -267.988 156.751C-268.126 157.696 -268.549 158.513 -269.27 159.211L-268.761 159.737C-267.929 158.932 -267.426 157.968 -267.264 156.856C-267.104 155.751 -267.283 154.521 -267.775 153.177L-268.462 153.428ZM-269.016 159.84C-267.935 159.841 -266.939 160.194 -266.005 160.949L-265.545 160.38C-266.602 159.526 -267.758 159.109 -269.015 159.108L-269.016 159.84ZM-266.005 160.949C-265.071 161.703 -264.331 162.801 -263.82 164.196L-263.133 163.944C-263.679 162.453 -264.487 161.235 -265.545 160.38L-266.005 160.949ZM-263.82 164.196C-262.948 166.58 -262.928 168.53 -263.67 170.086C-264.413 171.645 -265.957 172.887 -268.379 173.773L-268.128 174.46C-265.602 173.536 -263.865 172.194 -263.01 170.401C-262.154 168.607 -262.22 166.439 -263.133 163.944L-263.82 164.196ZM-272.648 169.881L-270.689 169.164L-270.941 168.477L-272.899 169.194L-272.648 169.881ZM-270.689 169.164C-270.001 168.912 -269.473 168.557 -269.27 167.953L-269.964 167.72C-270.059 168.005 -270.324 168.251 -270.941 168.477L-270.689 169.164ZM-269.263 167.931C-269.12 167.392 -269.213 166.706 -269.524 165.855L-270.211 166.106C-269.919 166.905 -269.884 167.419 -269.97 167.743L-269.263 167.931ZM-269.524 165.855C-269.835 165.004 -270.207 164.42 -270.665 164.101L-271.084 164.701C-270.809 164.893 -270.503 165.308 -270.211 166.106L-269.524 165.855ZM-270.685 164.088C-271.217 163.766 -271.854 163.786 -272.563 164.045L-272.311 164.732C-271.715 164.514 -271.333 164.551 -271.064 164.714L-270.685 164.088ZM-272.563 164.045L-274.521 164.762L-274.27 165.449L-272.311 164.732L-272.563 164.045ZM-274.739 165.231L-273.117 169.663L-272.43 169.412L-274.052 164.98L-274.739 165.231ZM-254.611 162.5L-254.954 162.626L-254.828 162.969L-254.485 162.844L-254.611 162.5ZM-261.317 145.242L-254.954 162.626L-254.267 162.374L-260.63 144.99L-261.317 145.242ZM-254.485 162.844L-250.087 161.234L-250.339 160.547L-254.736 162.157L-254.485 162.844ZM-250.087 161.234C-249.783 161.123 -249.581 161.138 -249.444 161.201C-249.308 161.264 -249.166 161.41 -249.055 161.713L-248.368 161.462C-248.52 161.044 -248.768 160.709 -249.136 160.538C-249.505 160.367 -249.921 160.394 -250.339 160.547L-250.087 161.234ZM-249.055 161.713L-247.722 165.355L-247.035 165.104L-248.368 161.462L-249.055 161.713ZM-247.722 165.355C-247.603 165.68 -247.622 165.88 -247.682 166.007C-247.744 166.136 -247.889 166.273 -248.201 166.388L-247.949 167.075C-247.54 166.925 -247.198 166.689 -247.022 166.323C-246.846 165.954 -246.877 165.534 -247.035 165.104L-247.722 165.355ZM-248.201 166.388L-257.821 169.909L-257.569 170.596L-247.949 167.075L-248.201 166.388ZM-257.821 169.909C-258.154 170.031 -258.35 170.016 -258.472 169.959C-258.593 169.902 -258.731 169.763 -258.853 169.429L-259.54 169.681C-259.386 170.104 -259.15 170.451 -258.78 170.623C-258.409 170.795 -257.992 170.75 -257.569 170.596L-257.821 169.909ZM-258.853 169.429L-266.951 147.304L-267.639 147.555L-259.54 169.681L-258.853 169.429ZM-266.951 147.304C-267.066 146.992 -267.054 146.793 -266.995 146.662C-266.938 146.533 -266.797 146.39 -266.472 146.271L-266.724 145.584C-267.155 145.742 -267.495 145.989 -267.663 146.362C-267.829 146.733 -267.788 147.146 -267.639 147.555L-266.951 147.304ZM-266.472 146.271L-262.35 144.762L-262.601 144.075L-266.724 145.584L-266.472 146.271ZM-262.35 144.762C-262.046 144.651 -261.843 144.666 -261.707 144.73C-261.571 144.793 -261.428 144.938 -261.317 145.242L-260.63 144.99C-260.783 144.572 -261.03 144.237 -261.399 144.066C-261.767 143.895 -262.183 143.922 -262.601 144.075L-262.35 144.762ZM-241.908 153.643L-242.266 153.718L-242.18 154.132L-241.783 153.987L-241.908 153.643ZM-239.228 152.663L-239.103 153.006L-238.705 152.861L-238.907 152.488L-239.228 152.663ZM-243.669 144.47L-243.347 144.296L-243.498 144.018L-243.794 144.126L-243.669 144.47ZM-243.806 144.52L-243.932 144.177L-244.229 144.285L-244.164 144.595L-243.806 144.52ZM-240.691 137.809L-240.373 137.628L-240.378 137.62L-240.382 137.613L-240.691 137.809ZM-228.958 158.37L-229.276 158.552L-229.273 158.556L-228.958 158.37ZM-228.803 159.326L-229.147 159.203L-228.803 159.326ZM-235.264 160.834L-234.941 160.661L-234.942 160.659L-235.264 160.834ZM-236.804 158.009L-236.483 157.833L-236.634 157.557L-236.93 157.665L-236.804 158.009ZM-240.309 159.291L-240.434 158.948L-240.73 159.056L-240.667 159.365L-240.309 159.291ZM-239.661 162.444L-239.3 162.385L-239.301 162.377L-239.303 162.37L-239.661 162.444ZM-245.603 165.476L-245.42 165.159L-245.603 165.476ZM-246.067 164.633L-245.707 164.57L-245.708 164.566L-246.067 164.633ZM-250.38 141.355L-250.74 141.42L-250.739 141.422L-250.38 141.355ZM-241.783 153.987L-239.103 153.006L-239.354 152.319L-242.034 153.3L-241.783 153.987ZM-238.907 152.488L-243.347 144.296L-243.99 144.644L-239.55 152.837L-238.907 152.488ZM-243.794 144.126L-243.932 144.177L-243.68 144.864L-243.543 144.814L-243.794 144.126ZM-244.164 144.595L-242.266 153.718L-241.55 153.569L-243.448 144.446L-244.164 144.595ZM-249.114 139.918L-242.586 137.529L-242.838 136.842L-249.365 139.231L-249.114 139.918ZM-242.586 137.529C-242.191 137.384 -241.887 137.376 -241.649 137.451C-241.415 137.525 -241.197 137.695 -241 138.005L-240.382 137.613C-240.647 137.196 -240.992 136.891 -241.429 136.753C-241.864 136.616 -242.339 136.659 -242.838 136.842L-242.586 137.529ZM-241.009 137.99L-229.276 158.552L-228.64 158.189L-240.373 137.628L-241.009 137.99ZM-229.273 158.556C-229.104 158.844 -229.098 159.065 -229.147 159.203L-228.458 159.45C-228.315 159.05 -228.398 158.602 -228.642 158.185L-229.273 158.556ZM-229.147 159.203C-229.195 159.338 -229.327 159.479 -229.606 159.581L-229.354 160.268C-228.946 160.119 -228.603 159.853 -228.458 159.45L-229.147 159.203ZM-229.606 159.581L-233.831 161.128L-233.58 161.815L-229.354 160.268L-229.606 159.581ZM-233.831 161.128C-234.118 161.233 -234.318 161.226 -234.466 161.165C-234.618 161.103 -234.782 160.958 -234.941 160.661L-235.586 161.007C-235.378 161.394 -235.106 161.694 -234.743 161.842C-234.376 161.992 -233.98 161.962 -233.58 161.815L-233.831 161.128ZM-234.942 160.659L-236.483 157.833L-237.125 158.184L-235.585 161.009L-234.942 160.659ZM-236.93 157.665L-240.434 158.948L-240.183 159.635L-236.678 158.352L-236.93 157.665ZM-240.667 159.365L-240.02 162.517L-239.303 162.37L-239.95 159.218L-240.667 159.365ZM-240.022 162.503C-239.966 162.843 -240.003 163.068 -240.082 163.221C-240.159 163.367 -240.301 163.496 -240.565 163.593L-240.314 164.28C-239.925 164.138 -239.615 163.906 -239.434 163.559C-239.256 163.218 -239.229 162.817 -239.3 162.385L-240.022 162.503ZM-240.565 163.593L-244.791 165.139L-244.54 165.827L-240.314 164.28L-240.565 163.593ZM-244.791 165.139C-245.11 165.256 -245.3 165.228 -245.42 165.159L-245.786 165.792C-245.412 166.009 -244.976 165.986 -244.54 165.827L-244.791 165.139ZM-245.42 165.159C-245.526 165.097 -245.644 164.935 -245.707 164.57L-246.428 164.695C-246.352 165.136 -246.175 165.567 -245.786 165.792L-245.42 165.159ZM-245.708 164.566L-250.02 141.289L-250.739 141.422L-246.427 164.699L-245.708 164.566ZM-250.02 141.29C-250.082 140.944 -250.027 140.678 -249.894 140.47C-249.757 140.257 -249.51 140.063 -249.114 139.918L-249.365 139.231C-249.862 139.413 -250.262 139.689 -250.509 140.074C-250.76 140.465 -250.829 140.926 -250.74 141.42L-250.02 141.29ZM-217.032 149.058L-217.213 148.739L-217.219 148.743L-217.226 148.747L-217.032 149.058ZM-214.836 154.526L-215.027 154.214L-215.034 154.218L-215.041 154.223L-214.836 154.526ZM-222.569 157.24L-222.58 156.874L-222.584 156.874L-222.569 157.24ZM-225.988 156.309L-225.795 155.998L-225.801 155.995L-225.988 156.309ZM-229.011 153.052L-228.696 152.865L-228.697 152.864L-229.011 153.052ZM-233.613 140.478L-233.252 140.42L-233.253 140.413L-233.613 140.478ZM-233.451 136.133L-233.105 136.252L-233.451 136.133ZM-231.428 133.25L-231.203 133.538L-231.2 133.536L-231.428 133.25ZM-223.933 130.312L-223.862 130.671L-223.857 130.669L-223.933 130.312ZM-222.033 135.928L-221.981 136.29L-221.973 136.289L-221.965 136.287L-222.033 135.928ZM-226.672 138.794L-226.311 138.859L-226.31 138.847L-226.672 138.794ZM-223.415 148.862L-223.725 149.057L-223.415 148.862ZM-221.612 150.383L-221.514 150.03L-221.526 150.028L-221.612 150.383ZM-218.927 150.374C-218.15 150.09 -217.465 149.759 -216.838 149.368L-217.226 148.747C-217.805 149.109 -218.444 149.418 -219.178 149.687L-218.927 150.374ZM-216.852 149.376C-216.499 149.176 -216.285 149.161 -216.163 149.197C-216.055 149.23 -215.918 149.336 -215.799 149.658L-215.112 149.407C-215.271 148.973 -215.534 148.622 -215.952 148.497C-216.356 148.375 -216.791 148.5 -217.213 148.739L-216.852 149.376ZM-215.799 149.658L-214.592 152.956L-213.905 152.705L-215.112 149.407L-215.799 149.658ZM-214.592 152.956C-214.482 153.257 -214.484 153.494 -214.55 153.682C-214.616 153.87 -214.763 154.053 -215.027 154.214L-214.645 154.838C-214.272 154.611 -213.994 154.306 -213.859 153.924C-213.725 153.542 -213.751 153.126 -213.905 152.705L-214.592 152.956ZM-215.041 154.223C-216.007 154.878 -217.143 155.409 -218.362 155.856L-218.111 156.543C-216.856 156.084 -215.662 155.528 -214.631 154.829L-215.041 154.223ZM-218.362 155.856C-220.07 156.481 -221.484 156.842 -222.58 156.874L-222.559 157.605C-221.342 157.57 -219.838 157.175 -218.111 156.543L-218.362 155.856ZM-222.584 156.874C-223.699 156.918 -224.747 156.647 -225.795 155.998L-226.18 156.62C-225.013 157.343 -223.822 157.655 -222.555 157.605L-222.584 156.874ZM-225.801 155.995C-226.83 155.383 -227.805 154.365 -228.696 152.865L-229.325 153.239C-228.391 154.812 -227.336 155.933 -226.175 156.624L-225.801 155.995ZM-228.697 152.864C-229.58 151.392 -230.488 149.337 -231.44 146.734L-232.127 146.986C-231.169 149.605 -230.242 151.71 -229.325 153.24L-228.697 152.864ZM-231.44 146.734C-232.368 144.2 -232.988 142.08 -233.252 140.421L-233.975 140.535C-233.7 142.263 -233.061 144.435 -232.127 146.986L-231.44 146.734ZM-233.253 140.413C-233.55 138.772 -233.494 137.38 -233.105 136.252L-233.796 136.013C-234.239 137.295 -234.284 138.822 -233.973 140.543L-233.253 140.413ZM-233.105 136.252C-232.71 135.111 -232.083 134.226 -231.203 133.538L-231.653 132.961C-232.651 133.741 -233.358 134.746 -233.796 136.013L-233.105 136.252ZM-231.2 133.536C-230.338 132.85 -229.068 132.191 -227.368 131.569L-227.62 130.882C-229.356 131.517 -230.708 132.208 -231.656 132.964L-231.2 133.536ZM-227.368 131.569C-226.4 131.215 -225.239 130.942 -223.862 130.671L-224.003 129.953C-225.388 130.225 -226.595 130.507 -227.62 130.882L-227.368 131.569ZM-223.857 130.669C-223.541 130.603 -223.313 130.641 -223.145 130.737C-222.975 130.834 -222.817 131.019 -222.699 131.34L-222.012 131.089C-222.171 130.655 -222.421 130.308 -222.781 130.102C-223.143 129.895 -223.565 129.86 -224.008 129.954L-223.857 130.669ZM-222.699 131.34L-221.479 134.673L-220.792 134.422L-222.012 131.089L-222.699 131.34ZM-221.479 134.673C-221.361 134.996 -221.398 135.165 -221.459 135.26C-221.528 135.366 -221.702 135.493 -222.1 135.568L-221.965 136.287C-221.488 136.198 -221.075 136.012 -220.846 135.659C-220.608 135.293 -220.633 134.855 -220.792 134.422L-221.479 134.673ZM-222.085 135.566C-222.815 135.671 -223.551 135.86 -224.261 136.12L-224.01 136.807C-223.345 136.564 -222.657 136.387 -221.981 136.29L-222.085 135.566ZM-224.261 136.12C-225.847 136.7 -226.859 137.549 -227.034 138.741L-226.31 138.847C-226.195 138.063 -225.516 137.358 -224.01 136.807L-224.261 136.12ZM-227.032 138.73C-227.135 139.307 -227.05 140.092 -226.826 141.053C-226.599 142.025 -226.221 143.219 -225.703 144.634L-225.016 144.383C-225.529 142.98 -225.896 141.818 -226.113 140.887C-226.332 139.946 -226.387 139.282 -226.311 138.859L-227.032 138.73ZM-225.703 144.634C-224.959 146.666 -224.305 148.136 -223.725 149.057L-223.106 148.667C-223.642 147.814 -224.275 146.405 -225.016 144.383L-225.703 144.634ZM-223.725 149.057C-223.137 149.99 -222.464 150.553 -221.698 150.739L-221.526 150.028C-222.041 149.903 -222.577 149.507 -223.106 148.667L-223.725 149.057ZM-221.709 150.736C-220.989 150.935 -220.045 150.784 -218.927 150.374L-219.178 149.687C-220.259 150.083 -221.021 150.167 -221.514 150.03L-221.709 150.736ZM-211.311 134.652L-211.654 134.778L-210.945 134.673L-211.311 134.652ZM-210.871 126.7L-210.506 126.72L-210.505 126.71L-210.871 126.7ZM-204.57 123.692L-204.319 123.426L-204.319 123.426L-204.57 123.692ZM-204.286 124.679L-204.65 124.638L-204.651 124.647L-204.651 124.656L-204.286 124.679ZM-204.979 135.452L-205.345 135.428L-205.354 135.576L-205.258 135.689L-204.979 135.452ZM-195.908 146.079L-195.628 145.843L-195.63 145.841L-195.908 146.079ZM-195.522 147.028L-195.158 147.069L-195.522 147.028ZM-202.31 148.812L-202.017 148.593L-202.023 148.585L-202.029 148.578L-202.31 148.812ZM-209.135 140.596L-208.854 140.362L-209.479 140.722L-209.135 140.596ZM-210.945 134.673L-210.506 126.72L-211.236 126.679L-211.676 134.632L-210.945 134.673ZM-210.505 126.71C-210.495 126.362 -210.42 126.111 -210.299 125.927C-210.18 125.746 -209.997 125.601 -209.714 125.497L-209.965 124.81C-210.369 124.958 -210.69 125.191 -210.91 125.524C-211.127 125.853 -211.224 126.249 -211.237 126.689L-210.505 126.71ZM-209.714 125.497L-205.454 123.938L-205.705 123.251L-209.965 124.81L-209.714 125.497ZM-205.454 123.938C-205.105 123.81 -204.915 123.869 -204.821 123.958L-204.319 123.426C-204.7 123.066 -205.23 123.076 -205.705 123.251L-205.454 123.938ZM-204.821 123.958C-204.695 124.077 -204.612 124.3 -204.65 124.638L-203.923 124.72C-203.869 124.245 -203.968 123.757 -204.319 123.426L-204.821 123.958ZM-204.651 124.656L-205.345 135.428L-204.614 135.475L-203.921 124.703L-204.651 124.656ZM-205.258 135.689L-196.187 146.316L-195.63 145.841L-204.701 135.214L-205.258 135.689ZM-196.188 146.314C-195.934 146.616 -195.866 146.813 -195.885 146.987L-195.158 147.069C-195.104 146.593 -195.331 146.197 -195.628 145.843L-196.188 146.314ZM-195.885 146.987C-195.901 147.127 -195.987 147.277 -196.321 147.399L-196.07 148.086C-195.579 147.906 -195.216 147.58 -195.158 147.069L-195.885 146.987ZM-196.321 147.399L-200.65 148.983L-200.399 149.67L-196.07 148.086L-196.321 147.399ZM-200.65 148.983C-200.956 149.095 -201.208 149.105 -201.416 149.046C-201.623 148.987 -201.826 148.848 -202.017 148.593L-202.603 149.031C-202.337 149.387 -202.008 149.638 -201.617 149.749C-201.227 149.861 -200.814 149.822 -200.399 149.67L-200.65 148.983ZM-202.029 148.578L-208.854 140.362L-209.417 140.83L-202.592 149.045L-202.029 148.578ZM-209.479 140.722L-206.046 150.101L-205.359 149.85L-208.792 140.47L-209.479 140.722ZM-206.046 150.101C-205.927 150.426 -205.946 150.626 -206.007 150.753C-206.068 150.882 -206.213 151.019 -206.525 151.134L-206.274 151.821C-205.864 151.671 -205.522 151.435 -205.346 151.069C-205.17 150.7 -205.201 150.28 -205.359 149.85L-206.046 150.101ZM-206.525 151.134L-210.648 152.643L-210.396 153.33L-206.274 151.821L-206.525 151.134ZM-210.648 152.643C-210.981 152.765 -211.177 152.75 -211.299 152.693C-211.421 152.636 -211.558 152.497 -211.68 152.163L-212.367 152.415C-212.213 152.837 -211.978 153.185 -211.607 153.357C-211.236 153.529 -210.819 153.484 -210.396 153.33L-210.648 152.643ZM-211.68 152.163L-219.779 130.038L-220.466 130.289L-212.367 152.415L-211.68 152.163ZM-219.779 130.038C-219.893 129.726 -219.881 129.527 -219.822 129.396C-219.765 129.267 -219.624 129.124 -219.299 129.005L-219.551 128.318C-219.982 128.476 -220.322 128.723 -220.49 129.096C-220.657 129.467 -220.616 129.88 -220.466 130.289L-219.779 130.038ZM-219.299 129.005L-215.177 127.496L-215.428 126.809L-219.551 128.318L-219.299 129.005ZM-215.177 127.496C-214.873 127.385 -214.67 127.4 -214.534 127.464C-214.398 127.527 -214.255 127.672 -214.144 127.976L-213.457 127.724C-213.61 127.306 -213.857 126.971 -214.226 126.8C-214.594 126.629 -215.01 126.656 -215.428 126.809L-215.177 127.496ZM-214.144 127.976L-211.654 134.778L-210.967 134.527L-213.457 127.724L-214.144 127.976ZM-184.861 133.737L-184.987 133.394L-185.331 133.519L-185.205 133.863L-184.861 133.737ZM-188.47 123.877L-188.596 123.533L-188.94 123.659L-188.814 124.003L-188.47 123.877ZM-186.974 127.965L-187.318 128.091L-187.192 128.435L-186.848 128.309L-186.974 127.965ZM-179.902 131.533L-184.987 133.394L-184.736 134.081L-179.651 132.22L-179.902 131.533ZM-185.205 133.863L-182.451 141.387L-181.764 141.136L-184.518 133.612L-185.205 133.863ZM-182.451 141.387C-182.327 141.725 -182.346 141.947 -182.416 142.094C-182.487 142.243 -182.649 142.394 -182.974 142.513L-182.722 143.201C-182.291 143.043 -181.938 142.791 -181.756 142.409C-181.572 142.026 -181.598 141.587 -181.764 141.136L-182.451 141.387ZM-182.974 142.513L-186.959 143.972L-186.708 144.659L-182.722 143.201L-182.974 142.513ZM-186.959 143.972C-187.305 144.099 -187.523 144.084 -187.665 144.018C-187.807 143.952 -187.959 143.795 -188.085 143.449L-188.773 143.701C-188.61 144.145 -188.359 144.503 -187.973 144.682C-187.587 144.861 -187.152 144.822 -186.708 144.659L-186.959 143.972ZM-188.085 143.449L-196.133 121.461L-196.821 121.713L-188.773 143.701L-188.085 143.449ZM-196.133 121.461C-196.252 121.136 -196.241 120.915 -196.173 120.765C-196.106 120.616 -195.949 120.459 -195.611 120.335L-195.862 119.648C-196.314 119.813 -196.666 120.076 -196.84 120.464C-197.014 120.85 -196.978 121.282 -196.821 121.713L-196.133 121.461ZM-195.611 120.335L-185.166 116.512L-185.418 115.825L-195.862 119.648L-195.611 120.335ZM-185.166 116.512C-184.863 116.401 -184.66 116.416 -184.524 116.479C-184.388 116.542 -184.245 116.688 -184.134 116.991L-183.447 116.74C-183.6 116.322 -183.847 115.987 -184.216 115.816C-184.584 115.645 -185 115.672 -185.418 115.825L-185.166 116.512ZM-184.134 116.991L-182.826 120.564L-182.139 120.313L-183.447 116.74L-184.134 116.991ZM-182.826 120.564C-182.707 120.889 -182.726 121.089 -182.787 121.216C-182.849 121.345 -182.993 121.483 -183.305 121.597L-183.054 122.284C-182.644 122.134 -182.302 121.899 -182.127 121.532C-181.95 121.163 -181.981 120.744 -182.139 120.313L-182.826 120.564ZM-183.305 121.597L-188.596 123.533L-188.345 124.221L-183.054 122.284L-183.305 121.597ZM-188.814 124.003L-187.318 128.091L-186.63 127.84L-188.127 123.751L-188.814 124.003ZM-186.848 128.309L-181.763 126.448L-182.015 125.761L-187.1 127.622L-186.848 128.309ZM-181.763 126.448C-181.46 126.337 -181.257 126.352 -181.121 126.415C-180.985 126.478 -180.842 126.623 -180.731 126.927L-180.044 126.676C-180.197 126.258 -180.444 125.922 -180.813 125.751C-181.181 125.58 -181.597 125.608 -182.015 125.761L-181.763 126.448ZM-180.731 126.927L-179.423 130.5L-178.736 130.249L-180.044 126.676L-180.731 126.927ZM-179.423 130.5C-179.304 130.825 -179.323 131.025 -179.384 131.152C-179.446 131.281 -179.59 131.418 -179.902 131.533L-179.651 132.22C-179.241 132.07 -178.899 131.834 -178.724 131.468C-178.547 131.099 -178.578 130.679 -178.736 130.249L-179.423 130.5ZM-171.696 124.594L-172.04 124.72L-171.914 125.063L-171.57 124.938L-171.696 124.594ZM-169.208 122.982L-168.853 123.068L-169.208 122.982ZM-170.981 118.138L-171.197 118.433L-170.981 118.138ZM-173.934 118.479L-174.06 118.135L-174.404 118.261L-174.278 118.604L-173.934 118.479ZM-167.703 111.873L-167.554 111.54L-167.703 111.873ZM-163.953 126.591L-164.217 126.338L-164.461 126.594L-164.214 126.846L-163.953 126.591ZM-158.345 132.33L-158.083 132.076L-158.084 132.075L-158.345 132.33ZM-163.78 135.683L-163.866 136.039L-163.866 136.039L-163.78 135.683ZM-164.619 135.094L-164.333 134.866L-164.34 134.857L-164.348 134.848L-164.619 135.094ZM-169.391 129.828L-169.12 129.582L-169.285 129.4L-169.516 129.484L-169.391 129.828ZM-169.734 129.954L-169.86 129.61L-170.204 129.736L-170.078 130.079L-169.734 129.954ZM-171.57 124.938L-170.608 124.586L-170.86 123.898L-171.822 124.251L-171.57 124.938ZM-170.608 124.586C-169.69 124.249 -169.022 123.77 -168.853 123.068L-169.564 122.896C-169.642 123.22 -169.991 123.581 -170.86 123.898L-170.608 124.586ZM-168.853 123.068C-168.773 122.739 -168.793 122.332 -168.877 121.879C-168.963 121.419 -169.121 120.879 -169.345 120.266L-170.032 120.518C-169.816 121.108 -169.672 121.606 -169.597 122.013C-169.52 122.425 -169.52 122.713 -169.564 122.896L-168.853 123.068ZM-169.345 120.266C-169.563 119.671 -169.788 119.165 -170.018 118.762C-170.245 118.366 -170.492 118.043 -170.765 117.843L-171.197 118.433C-171.045 118.545 -170.859 118.765 -170.653 119.125C-170.45 119.48 -170.242 119.945 -170.032 120.518L-169.345 120.266ZM-170.765 117.843C-171.339 117.423 -172.163 117.441 -173.098 117.783L-172.847 118.47C-171.995 118.158 -171.475 118.23 -171.197 118.433L-170.765 117.843ZM-173.098 117.783L-174.06 118.135L-173.809 118.822L-172.847 118.47L-173.098 117.783ZM-174.278 118.604L-172.04 124.72L-171.352 124.468L-173.591 118.353L-174.278 118.604ZM-181.118 115.03L-174.934 112.767L-175.186 112.08L-181.37 114.343L-181.118 115.03ZM-174.934 112.767C-171.803 111.621 -169.445 111.495 -167.852 112.207L-167.554 111.54C-169.409 110.709 -171.995 110.912 -175.186 112.08L-174.934 112.767ZM-167.852 112.207C-166.27 112.916 -164.82 114.855 -163.608 118.166L-162.921 117.915C-164.148 114.561 -165.688 112.375 -167.554 111.54L-167.852 112.207ZM-163.608 118.166C-162.245 121.888 -162.527 124.569 -164.217 126.338L-163.688 126.843C-161.717 124.779 -161.516 121.751 -162.921 117.915L-163.608 118.166ZM-164.214 126.846L-158.607 132.586L-158.084 132.075L-163.691 126.335L-164.214 126.846ZM-158.608 132.585C-158.242 132.964 -158.188 133.179 -158.2 133.269C-158.208 133.327 -158.271 133.472 -158.69 133.625L-158.438 134.312C-157.963 134.138 -157.541 133.853 -157.475 133.367C-157.414 132.914 -157.698 132.474 -158.083 132.076L-158.608 132.585ZM-158.69 133.625L-162.881 135.159L-162.63 135.846L-158.438 134.312L-158.69 133.625ZM-162.881 135.159C-163.338 135.326 -163.559 135.36 -163.694 135.327L-163.866 136.039C-163.488 136.13 -163.067 136.006 -162.63 135.846L-162.881 135.159ZM-163.694 135.327C-163.862 135.287 -164.089 135.173 -164.333 134.866L-164.905 135.322C-164.573 135.74 -164.211 135.955 -163.866 136.039L-163.694 135.327ZM-164.348 134.848L-169.12 129.582L-169.662 130.074L-164.89 135.34L-164.348 134.848ZM-169.516 129.484L-169.86 129.61L-169.609 130.297L-169.265 130.172L-169.516 129.484ZM-170.078 130.079L-167.865 136.126L-167.178 135.875L-169.391 129.828L-170.078 130.079ZM-167.865 136.126C-167.746 136.451 -167.764 136.651 -167.825 136.778C-167.887 136.907 -168.032 137.044 -168.344 137.159L-168.092 137.846C-167.683 137.696 -167.341 137.46 -167.165 137.094C-166.989 136.725 -167.02 136.306 -167.178 135.875L-167.865 136.126ZM-168.344 137.159L-172.467 138.668L-172.215 139.355L-168.092 137.846L-168.344 137.159ZM-172.467 138.668C-172.8 138.79 -172.996 138.775 -173.117 138.718C-173.239 138.661 -173.377 138.522 -173.499 138.188L-174.186 138.44C-174.032 138.863 -173.796 139.21 -173.425 139.382C-173.055 139.554 -172.638 139.509 -172.215 139.355L-172.467 138.668ZM-173.499 138.188L-181.597 116.063L-182.285 116.314L-174.186 138.44L-173.499 138.188ZM-181.597 116.063C-181.712 115.751 -181.7 115.552 -181.641 115.421C-181.583 115.293 -181.443 115.149 -181.118 115.03L-181.37 114.343C-181.801 114.501 -182.141 114.748 -182.309 115.121C-182.475 115.492 -182.434 115.905 -182.285 116.314L-181.597 116.063ZM-155.58 131.63L-163.678 109.504L-164.365 109.756L-156.267 131.881L-155.58 131.63ZM-163.678 109.504C-163.792 109.192 -163.781 108.993 -163.722 108.862C-163.664 108.734 -163.524 108.591 -163.199 108.472L-163.45 107.785C-163.881 107.942 -164.221 108.189 -164.389 108.562C-164.556 108.933 -164.515 109.346 -164.365 109.756L-163.678 109.504ZM-163.199 108.472L-159.076 106.963L-159.327 106.276L-163.45 107.785L-163.199 108.472ZM-159.076 106.963C-158.772 106.851 -158.569 106.867 -158.433 106.93C-158.297 106.993 -158.155 107.138 -158.043 107.442L-157.356 107.19C-157.509 106.773 -157.757 106.437 -158.125 106.266C-158.494 106.095 -158.91 106.123 -159.327 106.276L-159.076 106.963ZM-158.043 107.442L-149.945 129.567L-149.258 129.316L-157.356 107.19L-158.043 107.442ZM-149.945 129.567C-149.826 129.892 -149.845 130.092 -149.906 130.219C-149.968 130.348 -150.112 130.486 -150.424 130.6L-150.173 131.287C-149.763 131.137 -149.421 130.902 -149.246 130.535C-149.069 130.166 -149.1 129.747 -149.258 129.316L-149.945 129.567ZM-150.424 130.6L-154.547 132.109L-154.296 132.796L-150.173 131.287L-150.424 130.6ZM-154.547 132.109C-154.88 132.231 -155.076 132.216 -155.198 132.159C-155.32 132.103 -155.458 131.963 -155.58 131.63L-156.267 131.881C-156.112 132.304 -155.877 132.651 -155.506 132.823C-155.135 132.995 -154.718 132.951 -154.296 132.796L-154.547 132.109ZM-144.363 101.85L-144.371 101.485L-144.363 101.85ZM-140.842 102.743L-140.655 102.429L-140.661 102.425L-140.668 102.421L-140.842 102.743ZM-137.788 105.872L-138.097 106.068L-137.788 105.872ZM-133.368 119.331L-133.002 119.325L-133.368 119.331ZM-134.827 124.073L-135.104 123.834L-135.106 123.836L-134.827 124.073ZM-147.093 108.654L-147.219 108.311L-147.563 108.437L-147.437 108.78L-147.093 108.654ZM-142.365 121.572L-142.709 121.698L-142.583 122.042L-142.239 121.916L-142.365 121.572ZM-140.138 119.355L-140.504 119.339L-140.138 119.355ZM-143.318 109.922L-143.002 109.738L-143.006 109.731L-143.01 109.725L-143.318 109.922ZM-144.822 108.368L-144.958 108.708L-144.958 108.708L-144.822 108.368ZM-139.716 126.681L-145.626 128.843L-145.374 129.531L-139.465 127.368L-139.716 126.681ZM-145.626 128.843C-145.959 128.965 -146.155 128.95 -146.277 128.894C-146.398 128.837 -146.536 128.697 -146.658 128.364L-147.345 128.616C-147.191 129.038 -146.955 129.385 -146.585 129.558C-146.214 129.73 -145.797 129.685 -145.374 129.531L-145.626 128.843ZM-146.658 128.364L-154.756 106.239L-155.444 106.49L-147.345 128.616L-146.658 128.364ZM-154.756 106.239C-154.871 105.927 -154.859 105.728 -154.8 105.597C-154.743 105.468 -154.602 105.325 -154.277 105.206L-154.529 104.519C-154.96 104.677 -155.3 104.924 -155.468 105.297C-155.634 105.667 -155.594 106.081 -155.444 106.49L-154.756 106.239ZM-154.277 105.206L-148.505 103.094L-148.757 102.407L-154.529 104.519L-154.277 105.206ZM-148.505 103.094C-146.919 102.513 -145.544 102.24 -144.356 102.216L-144.371 101.485C-145.658 101.51 -147.114 101.805 -148.757 102.407L-148.505 103.094ZM-144.356 102.216C-143.188 102.193 -142.084 102.488 -141.016 103.065L-140.668 102.421C-141.834 101.791 -143.063 101.459 -144.371 101.485L-144.356 102.216ZM-141.029 103.058C-139.992 103.674 -138.994 104.652 -138.097 106.068L-137.479 105.676C-138.425 104.182 -139.501 103.114 -140.655 102.429L-141.029 103.058ZM-138.097 106.068C-137.194 107.493 -136.315 109.362 -135.453 111.718L-134.766 111.467C-135.639 109.082 -136.538 107.16 -137.479 105.676L-138.097 106.068ZM-135.453 111.718C-134.304 114.858 -133.768 117.381 -133.734 119.338L-133.002 119.325C-133.039 117.256 -133.602 114.648 -134.766 111.467L-135.453 111.718ZM-133.734 119.338C-133.699 121.286 -134.192 122.779 -135.104 123.834L-134.55 124.312C-133.491 123.087 -132.965 121.402 -133.002 119.325L-133.734 119.338ZM-135.106 123.836C-136.056 124.955 -137.582 125.899 -139.716 126.681L-139.465 127.368C-137.27 126.564 -135.612 125.564 -134.548 124.31L-135.106 123.836ZM-146.669 108.11L-147.219 108.311L-146.968 108.998L-146.418 108.797L-146.669 108.11ZM-147.437 108.78L-142.709 121.698L-142.022 121.447L-146.75 108.529L-147.437 108.78ZM-142.239 121.916L-141.552 121.665L-141.804 120.977L-142.491 121.229L-142.239 121.916ZM-141.552 121.665C-141.023 121.471 -140.586 121.182 -140.276 120.789C-139.964 120.394 -139.797 119.914 -139.773 119.371L-140.504 119.339C-140.522 119.746 -140.643 120.073 -140.85 120.336C-141.059 120.6 -141.372 120.819 -141.804 120.977L-141.552 121.665ZM-139.773 119.371C-139.749 118.84 -139.865 118.114 -140.098 117.207C-140.334 116.292 -140.698 115.164 -141.191 113.818L-141.878 114.07C-141.39 115.404 -141.034 116.506 -140.807 117.389C-140.578 118.279 -140.485 118.919 -140.504 119.339L-139.773 119.371ZM-141.191 113.818C-141.848 112.022 -142.463 110.663 -143.002 109.738L-143.634 110.106C-143.125 110.979 -142.528 112.293 -141.878 114.07L-141.191 113.818ZM-143.01 109.725C-143.561 108.864 -144.115 108.258 -144.685 108.029L-144.958 108.708C-144.615 108.846 -144.166 109.276 -143.626 110.119L-143.01 109.725ZM-144.685 108.029C-145.253 107.801 -145.929 107.839 -146.669 108.11L-146.418 108.797C-145.784 108.565 -145.304 108.569 -144.958 108.708L-144.685 108.029ZM-125.855 111.166L-126.213 111.241L-126.127 111.655L-125.729 111.51L-125.855 111.166ZM-123.175 110.185L-123.049 110.529L-122.652 110.383L-122.853 110.011L-123.175 110.185ZM-127.615 101.993L-127.294 101.818L-127.444 101.54L-127.741 101.649L-127.615 101.993ZM-127.753 102.043L-127.878 101.699L-128.175 101.808L-128.111 102.117L-127.753 102.043ZM-124.638 95.3318L-124.32 95.1504L-124.324 95.1431L-124.329 95.1359L-124.638 95.3318ZM-112.905 115.893L-113.222 116.074L-113.22 116.078L-112.905 115.893ZM-112.749 116.849L-113.094 116.726L-112.749 116.849ZM-119.21 118.357L-118.888 118.184L-118.889 118.182L-119.21 118.357ZM-120.751 115.531L-120.43 115.356L-120.581 115.079L-120.877 115.188L-120.751 115.531ZM-124.255 116.814L-124.381 116.47L-124.677 116.579L-124.614 116.888L-124.255 116.814ZM-123.608 119.966L-123.247 119.907L-123.248 119.9L-123.249 119.893L-123.608 119.966ZM-129.55 122.998L-129.366 122.682L-129.55 122.998ZM-130.014 122.155L-129.653 122.093L-129.654 122.089L-130.014 122.155ZM-134.326 98.8779L-134.686 98.9429L-134.686 98.9446L-134.326 98.8779ZM-125.729 111.51L-123.049 110.529L-123.301 109.842L-125.981 110.822L-125.729 111.51ZM-122.853 110.011L-127.294 101.818L-127.937 102.167L-123.497 110.36L-122.853 110.011ZM-127.741 101.649L-127.878 101.699L-127.627 102.387L-127.489 102.336L-127.741 101.649ZM-128.111 102.117L-126.213 111.241L-125.497 111.092L-127.394 101.968L-128.111 102.117ZM-133.06 97.4406L-126.533 95.0513L-126.784 94.3642L-133.312 96.7534L-133.06 97.4406ZM-126.533 95.0513C-126.137 94.9067 -125.833 94.8985 -125.596 94.9733C-125.362 95.0473 -125.143 95.218 -124.947 95.5276L-124.329 95.1359C-124.594 94.7183 -124.939 94.4135 -125.376 94.2755C-125.81 94.1384 -126.286 94.1819 -126.784 94.3642L-126.533 95.0513ZM-124.956 95.5131L-113.222 116.074L-112.587 115.712L-124.32 95.1504L-124.956 95.5131ZM-113.22 116.078C-113.051 116.367 -113.044 116.587 -113.094 116.726L-112.405 116.973C-112.262 116.573 -112.345 116.124 -112.589 115.708L-113.22 116.078ZM-113.094 116.726C-113.142 116.86 -113.273 117.002 -113.552 117.104L-113.301 117.791C-112.892 117.642 -112.549 117.376 -112.405 116.973L-113.094 116.726ZM-113.552 117.104L-117.778 118.651L-117.527 119.338L-113.301 117.791L-113.552 117.104ZM-117.778 118.651C-118.065 118.756 -118.264 118.748 -118.413 118.688C-118.565 118.625 -118.728 118.481 -118.888 118.184L-119.533 118.53C-119.325 118.917 -119.053 119.217 -118.69 119.365C-118.323 119.515 -117.927 119.484 -117.527 119.338L-117.778 118.651ZM-118.889 118.182L-120.43 115.356L-121.072 115.706L-119.531 118.532L-118.889 118.182ZM-120.877 115.188L-124.381 116.47L-124.129 117.158L-120.625 115.875L-120.877 115.188ZM-124.614 116.888L-123.966 120.04L-123.249 119.893L-123.897 116.74L-124.614 116.888ZM-123.969 120.026C-123.913 120.365 -123.949 120.591 -124.029 120.743C-124.105 120.89 -124.248 121.019 -124.512 121.115L-124.26 121.803C-123.872 121.66 -123.562 121.429 -123.38 121.082C-123.202 120.741 -123.176 120.339 -123.247 119.907L-123.969 120.026ZM-124.512 121.115L-128.738 122.662L-128.486 123.349L-124.26 121.803L-124.512 121.115ZM-128.738 122.662C-129.057 122.779 -129.247 122.751 -129.366 122.682L-129.733 123.315C-129.358 123.532 -128.923 123.509 -128.486 123.349L-128.738 122.662ZM-129.366 122.682C-129.473 122.62 -129.59 122.458 -129.654 122.093L-130.375 122.218C-130.298 122.659 -130.121 123.09 -129.733 123.315L-129.366 122.682ZM-129.654 122.089L-133.967 98.8113L-134.686 98.9446L-130.374 122.222L-129.654 122.089ZM-133.966 98.8129C-134.029 98.4666 -133.974 98.2007 -133.84 97.9927C-133.703 97.7795 -133.456 97.5855 -133.06 97.4406L-133.312 96.7534C-133.809 96.9354 -134.208 97.2116 -134.456 97.5971C-134.707 97.9877 -134.776 98.4487 -134.686 98.9429L-133.966 98.8129ZM-105.877 104.321L-106.243 104.318L-106.243 104.385L-106.22 104.447L-105.877 104.321ZM-112.198 106.635L-111.855 106.509L-111.878 106.447L-111.921 106.397L-112.198 106.635ZM-122.454 94.6883L-122.176 94.45L-122.2 94.4221L-122.229 94.3996L-122.454 94.6883ZM-122.803 93.8419L-122.438 93.8666L-122.438 93.8666L-122.803 93.8419ZM-115.936 91.9521L-115.63 91.7515L-115.634 91.7468L-115.936 91.9521ZM-112.848 96.6654L-112.525 96.4933L-112.533 96.4787L-112.542 96.4649L-112.848 96.6654ZM-111.232 99.6971L-111.554 99.8692L-111.405 100.15L-111.106 100.041L-111.232 99.6971ZM-111.094 99.6468L-110.968 99.9904L-110.67 99.881L-110.736 99.5698L-111.094 99.6468ZM-111.817 96.2882L-112.18 96.3326L-112.178 96.349L-112.175 96.3652L-111.817 96.2882ZM-112.501 90.6946L-112.137 90.6502L-112.139 90.6387L-112.501 90.6946ZM-106.071 87.7179L-106.334 87.9724L-106.334 87.9724L-106.071 87.7179ZM-105.757 88.5768L-106.12 88.5357L-106.122 88.5548L-106.123 88.5741L-105.757 88.5768ZM-106.22 104.447L-103.278 112.486L-102.591 112.235L-105.533 104.196L-106.22 104.447ZM-103.278 112.486C-103.159 112.811 -103.178 113.011 -103.239 113.138C-103.3 113.267 -103.445 113.405 -103.757 113.519L-103.506 114.206C-103.096 114.056 -102.754 113.821 -102.579 113.454C-102.402 113.085 -102.433 112.666 -102.591 112.235L-103.278 112.486ZM-103.757 113.519L-107.88 115.028L-107.628 115.715L-103.506 114.206L-103.757 113.519ZM-107.88 115.028C-108.213 115.15 -108.409 115.135 -108.531 115.078C-108.653 115.022 -108.79 114.882 -108.912 114.549L-109.599 114.8C-109.445 115.223 -109.21 115.57 -108.839 115.742C-108.468 115.914 -108.051 115.87 -107.628 115.715L-107.88 115.028ZM-108.912 114.549L-111.855 106.509L-112.542 106.761L-109.599 114.8L-108.912 114.549ZM-111.921 106.397L-122.176 94.45L-122.732 94.9266L-112.476 106.873L-111.921 106.397ZM-122.229 94.3996C-122.32 94.3291 -122.37 94.2582 -122.4 94.1843C-122.431 94.1076 -122.447 94.0067 -122.438 93.8666L-123.168 93.8173C-123.183 94.0367 -123.161 94.253 -123.079 94.4565C-122.996 94.6629 -122.861 94.8354 -122.679 94.977L-122.229 94.3996ZM-122.438 93.8666C-122.426 93.7002 -122.324 93.5107 -121.925 93.365L-122.177 92.6779C-122.741 92.8842 -123.13 93.2647 -123.168 93.8173L-122.438 93.8666ZM-121.925 93.365L-117.596 91.7806L-117.848 91.0934L-122.177 92.6779L-121.925 93.365ZM-117.596 91.7806C-117.269 91.6608 -117.01 91.65 -116.805 91.7085C-116.604 91.7659 -116.412 91.9021 -116.239 92.1574L-115.634 91.7468C-115.884 91.3779 -116.207 91.1181 -116.604 91.0049C-116.997 90.8928 -117.419 90.9365 -117.848 91.0934L-117.596 91.7806ZM-116.242 92.1526L-113.154 96.866L-112.542 96.4649L-115.63 91.7516L-116.242 92.1526ZM-113.171 96.8375L-111.554 99.8692L-110.909 99.525L-112.525 96.4933L-113.171 96.8375ZM-111.106 100.041L-110.968 99.9904L-111.22 99.3032L-111.357 99.3535L-111.106 100.041ZM-110.736 99.5698L-111.459 96.2112L-112.175 96.3652L-111.452 99.7238L-110.736 99.5698ZM-111.454 96.2438L-112.138 90.6502L-112.864 90.739L-112.18 96.3326L-111.454 96.2438ZM-112.139 90.6387C-112.185 90.3433 -112.133 90.1258 -112.02 89.9573C-111.903 89.7828 -111.692 89.6193 -111.344 89.4919L-111.595 88.8048C-112.037 88.9666 -112.398 89.2076 -112.628 89.5495C-112.862 89.8975 -112.931 90.3085 -112.862 90.7505L-112.139 90.6387ZM-111.344 89.4919L-107.015 87.9075L-107.266 87.2203L-111.595 88.8048L-111.344 89.4919ZM-107.015 87.9075C-106.658 87.777 -106.454 87.8483 -106.334 87.9724L-105.808 87.4635C-106.189 87.0697 -106.73 87.0239 -107.266 87.2203L-107.015 87.9075ZM-106.334 87.9724C-106.151 88.1618 -106.097 88.331 -106.12 88.5357L-105.393 88.618C-105.343 88.1724 -105.49 87.7919 -105.808 87.4635L-106.334 87.9724ZM-106.123 88.5741L-106.243 104.318L-105.511 104.324L-105.391 88.5796L-106.123 88.5741ZM-82.6073 79.7921L-82.9366 79.9514L-82.935 79.9548L-82.6073 79.7921ZM-77.5661 89.9463L-77.2337 89.793L-77.2384 89.7836L-77.5661 89.9463ZM-75.4905 94.4461L-75.8227 94.5993L-75.6815 94.9056L-75.3648 94.7897L-75.4905 94.4461ZM-75.4218 94.4209L-75.2961 94.7645L-74.9863 94.6511L-75.0671 94.3313L-75.4218 94.4209ZM-76.6384 89.6068L-76.9957 89.6861L-76.9932 89.6964L-76.6384 89.6068ZM-79.1029 78.5094L-79.4614 78.5829L-79.4601 78.5888L-79.1029 78.5094ZM-72.8393 75.3987L-73.0227 75.7153L-73.0227 75.7153L-72.8393 75.3987ZM-72.3531 76.1948L-72.7149 76.2507L-72.7126 76.2626L-72.3531 76.1948ZM-68.0006 99.2627L-67.6398 99.2016L-67.6411 99.1949L-68.0006 99.2627ZM-76.521 102.381L-76.8461 102.549L-76.8424 102.556L-76.521 102.381ZM-79.1949 97.2045L-79.5237 97.3652L-79.52 97.3724L-79.1949 97.2045ZM-81.8287 91.8182L-81.5001 91.6575L-81.6449 91.3613L-81.9545 91.4746L-81.8287 91.8182ZM-81.8974 91.8433L-82.0232 91.4998L-82.3328 91.6131L-82.2522 91.9328L-81.8974 91.8433ZM-80.4318 97.6572L-80.0751 97.5756L-80.077 97.5678L-80.4318 97.6572ZM-79.1321 103.337L-78.7714 103.276L-78.7731 103.266L-78.7754 103.255L-79.1321 103.337ZM-87.6524 106.456L-87.331 106.281L-87.3341 106.275L-87.6524 106.456ZM-99.2198 86.0284L-98.9013 85.848L-98.9076 85.8377L-99.2198 86.0284ZM-99.3968 85.1192L-99.0523 85.2425L-99.0523 85.2425L-99.3968 85.1192ZM-92.5706 83.4388L-92.2466 83.2688L-92.2522 83.2583L-92.2584 83.2481L-92.5706 83.4388ZM-87.2889 93.505L-86.96 93.3444L-86.9649 93.335L-87.2889 93.505ZM-85.1103 97.9671L-85.4391 98.1276L-85.2943 98.424L-84.9846 98.3106L-85.1103 97.9671ZM-85.0416 97.9419L-84.9159 98.2855L-84.5991 98.1696L-84.689 97.8445L-85.0416 97.9419ZM-86.3613 93.1655L-86.7167 93.2528L-86.7139 93.2629L-86.3613 93.1655ZM-89.0663 82.1562L-88.711 82.0689L-88.7119 82.0652L-89.0663 82.1562ZM-88.1622 81.0072L-84.0395 79.4982L-84.291 78.811L-88.4137 80.32L-88.1622 81.0072ZM-84.0395 79.4982C-83.759 79.3955 -83.5467 79.404 -83.3874 79.4693C-83.2277 79.5348 -83.0682 79.6793 -82.9366 79.9514L-82.2779 79.6328C-82.4665 79.2429 -82.7425 78.9429 -83.1099 78.7923C-83.4778 78.6414 -83.8842 78.6622 -84.291 78.811L-84.0395 79.4982ZM-82.935 79.9548L-77.8938 90.109L-77.2384 89.7836L-82.2796 79.6294L-82.935 79.9548ZM-77.8983 90.0995L-75.8227 94.5993L-75.1583 94.2929L-77.2339 89.7931L-77.8983 90.0995ZM-75.3648 94.7897L-75.2961 94.7645L-75.5476 94.0774L-75.6163 94.1025L-75.3648 94.7897ZM-75.0671 94.3313L-76.2837 89.5171L-76.9932 89.6964L-75.7765 94.5106L-75.0671 94.3313ZM-76.2813 89.5275L-78.7458 78.4301L-79.4601 78.5888L-76.9956 89.6861L-76.2813 89.5275ZM-78.7445 78.4361C-78.8082 78.1253 -78.7791 77.9056 -78.7008 77.751C-78.625 77.6015 -78.4777 77.4625 -78.1989 77.3604L-78.4504 76.6733C-78.8587 76.8227 -79.1747 77.0675 -79.3535 77.4203C-79.5296 77.7679 -79.5461 78.1688 -79.4613 78.5828L-78.7445 78.4361ZM-78.1989 77.3604L-73.6295 75.6879L-73.881 75.0008L-78.4504 76.6733L-78.1989 77.3604ZM-73.6295 75.6879C-73.3808 75.5969 -73.1697 75.6301 -73.0227 75.7153L-72.6559 75.0822C-73.0034 74.8808 -73.4426 74.8403 -73.881 75.0008L-73.6295 75.6879ZM-73.0227 75.7153C-72.8915 75.7913 -72.7588 75.9658 -72.7147 76.2507L-71.9916 76.1388C-72.0616 75.6863 -72.2926 75.2927 -72.6559 75.0822L-73.0227 75.7153ZM-72.7126 76.2626L-68.3601 99.3305L-67.6411 99.1949L-71.9936 76.1269L-72.7126 76.2626ZM-68.3613 99.3238C-68.2852 99.7733 -68.3281 100.089 -68.4417 100.312C-68.5516 100.528 -68.7529 100.707 -69.1007 100.834L-68.8492 101.521C-68.3724 101.347 -68.0027 101.063 -67.7896 100.644C-67.5802 100.233 -67.5483 99.7426 -67.6399 99.2016L-68.3613 99.3238ZM-69.1007 100.834L-74.6664 102.871L-74.4149 103.558L-68.8492 101.521L-69.1007 100.834ZM-74.6664 102.871C-75.0155 102.999 -75.2943 102.995 -75.5222 102.902C-75.7539 102.807 -75.9876 102.596 -76.1995 102.207L-76.8424 102.556C-76.5774 103.043 -76.2332 103.401 -75.8001 103.579C-75.3633 103.758 -74.8903 103.732 -74.4149 103.558L-74.6664 102.871ZM-76.1959 102.213L-78.8699 97.0366L-79.52 97.3724L-76.846 102.549L-76.1959 102.213ZM-78.8663 97.0438L-81.5001 91.6575L-82.1574 91.9789L-79.5236 97.3652L-78.8663 97.0438ZM-81.9545 91.4746L-82.0232 91.4998L-81.7717 92.1869L-81.703 92.1617L-81.9545 91.4746ZM-82.2522 91.9328L-80.7865 97.7466L-80.077 97.5678L-81.5427 91.7539L-82.2522 91.9328ZM-80.7884 97.7388L-79.4887 103.419L-78.7754 103.255L-80.0751 97.5756L-80.7884 97.7388ZM-79.4928 103.398C-79.4167 103.848 -79.4596 104.164 -79.5732 104.387C-79.683 104.603 -79.8844 104.781 -80.2321 104.908L-79.9806 105.596C-79.5039 105.421 -79.1341 105.137 -78.9211 104.719C-78.7117 104.307 -78.6797 103.817 -78.7714 103.276L-79.4928 103.398ZM-80.2321 104.908L-85.7979 106.946L-85.5464 107.633L-79.9806 105.596L-80.2321 104.908ZM-85.7979 106.946C-86.147 107.073 -86.4257 107.07 -86.6537 106.976C-86.8853 106.881 -87.1191 106.671 -87.331 106.281L-87.9739 106.63C-87.7089 107.118 -87.3647 107.475 -86.9316 107.653C-86.4948 107.832 -86.0218 107.807 -85.5464 107.633L-85.7979 106.946ZM-87.3341 106.275L-98.9014 85.8481L-99.5382 86.2086L-87.9708 106.636L-87.3341 106.275ZM-98.9076 85.8377C-99.0764 85.5613 -99.0947 85.3608 -99.0523 85.2425L-99.7412 84.9958C-99.8915 85.4156 -99.7522 85.8586 -99.532 86.2191L-98.9076 85.8377ZM-99.0523 85.2425C-98.9971 85.0883 -98.8615 84.9232 -98.5722 84.8174L-98.8237 84.1302C-99.2903 84.301 -99.6037 84.612 -99.7412 84.9958L-99.0523 85.2425ZM-98.5722 84.8174L-94.0028 83.1449L-94.2543 82.4578L-98.8237 84.1302L-98.5722 84.8174ZM-94.0028 83.1449C-93.7467 83.0511 -93.5519 83.0615 -93.3931 83.1286C-93.2267 83.199 -93.0523 83.3521 -92.8828 83.6295L-92.2584 83.2481C-92.4779 82.8887 -92.756 82.6036 -93.1082 82.4547C-93.4679 82.3026 -93.8577 82.3126 -94.2543 82.4578L-94.0028 83.1449ZM-92.8946 83.6088L-87.6129 93.675L-86.9649 93.335L-92.2466 83.2688L-92.8946 83.6088ZM-87.6177 93.6655L-85.4391 98.1276L-84.7815 97.8066L-86.9602 93.3445L-87.6177 93.6655ZM-84.9846 98.3106L-84.9159 98.2855L-85.1674 97.5984L-85.2361 97.6235L-84.9846 98.3106ZM-84.689 97.8445L-86.0087 93.0681L-86.7139 93.2629L-85.3942 98.0394L-84.689 97.8445ZM-86.006 93.0782L-88.711 82.0689L-89.4216 82.2435L-86.7166 93.2528L-86.006 93.0782ZM-88.7119 82.0652C-88.7891 81.7645 -88.7647 81.5548 -88.6899 81.4072C-88.6161 81.2617 -88.4635 81.1174 -88.1622 81.0072L-88.4137 80.32C-88.8339 80.4738 -89.1618 80.7198 -89.3426 81.0764C-89.5222 81.431 -89.5263 81.8355 -89.4206 82.2471L-88.7119 82.0652ZM-59.5409 86.8551L-59.6667 86.5116L-60.0102 86.6373L-59.8845 86.9809L-59.5409 86.8551ZM-58.1451 90.6687L-58.4887 90.7944L-58.3629 91.138L-58.0193 91.0122L-58.1451 90.6687ZM-62.823 77.8881L-62.9487 77.5446L-63.2923 77.6703L-63.1665 78.0139L-62.823 77.8881ZM-61.5781 81.2894L-61.9216 81.4151L-61.7959 81.7587L-61.4523 81.633L-61.5781 81.2894ZM-54.3071 84.5499L-59.6667 86.5116L-59.4152 87.1987L-54.0556 85.237L-54.3071 84.5499ZM-59.8845 86.9809L-58.4887 90.7944L-57.8015 90.5429L-59.1974 86.7294L-59.8845 86.9809ZM-58.0193 91.0122L-52.1788 88.8745L-52.4303 88.1874L-58.2708 90.3251L-58.0193 91.0122ZM-52.1788 88.8745C-51.875 88.7633 -51.6721 88.7786 -51.5361 88.8417C-51.4001 88.9048 -51.2574 89.05 -51.1463 89.3537L-50.4592 89.1022C-50.6121 88.6844 -50.8596 88.349 -51.2281 88.178C-51.5966 88.007 -52.0125 88.0345 -52.4303 88.1874L-52.1788 88.8745ZM-51.1463 89.3537L-49.8385 92.9268L-49.1514 92.6753L-50.4592 89.1022L-51.1463 89.3537ZM-49.8385 92.9268C-49.7195 93.2518 -49.7383 93.4513 -49.7991 93.5784C-49.861 93.7076 -50.0058 93.8451 -50.3177 93.9592L-50.0662 94.6464C-49.6566 94.4965 -49.3146 94.261 -49.1391 93.8942C-48.9627 93.5255 -48.9937 93.1061 -49.1514 92.6753L-49.8385 92.9268ZM-50.3177 93.9592L-61.3117 97.9832L-61.0602 98.6704L-50.0662 94.6464L-50.3177 93.9592ZM-61.3117 97.9832C-61.6449 98.1052 -61.8406 98.0902 -61.9625 98.0336C-62.0844 97.977 -62.2222 97.8372 -62.3442 97.504L-63.0313 97.7555C-62.8766 98.1782 -62.6414 98.5252 -62.2706 98.6973C-61.8997 98.8695 -61.4829 98.8251 -61.0602 98.6704L-61.3117 97.9832ZM-62.3442 97.504L-70.4425 75.3785L-71.1296 75.63L-63.0313 97.7555L-62.3442 97.504ZM-70.4425 75.3785C-70.5566 75.0666 -70.5451 74.8673 -70.4864 74.7367C-70.4285 74.6081 -70.2883 74.465 -69.9633 74.3461L-70.2148 73.6589C-70.6456 73.8166 -70.9859 74.0637 -71.1536 74.4365C-71.3204 74.8072 -71.2795 75.2205 -71.1296 75.63L-70.4425 75.3785ZM-69.9633 74.3461L-59.1067 70.3724L-59.3582 69.6852L-70.2148 73.6589L-69.9633 74.3461ZM-59.1067 70.3724C-58.8029 70.2612 -58.6 70.2765 -58.464 70.3396C-58.328 70.4027 -58.1854 70.5478 -58.0742 70.8516L-57.387 70.6001C-57.5399 70.1823 -57.7875 69.8469 -58.156 69.6759C-58.5245 69.5048 -58.9404 69.5323 -59.3582 69.6852L-59.1067 70.3724ZM-58.0742 70.8516L-56.7664 74.4246L-56.0793 74.1731L-57.387 70.6001L-58.0742 70.8516ZM-56.7664 74.4246C-56.6474 74.7496 -56.6662 74.9491 -56.727 75.0763C-56.7889 75.2055 -56.9337 75.343 -57.2456 75.4571L-56.9941 76.1442C-56.5845 75.9943 -56.2425 75.7588 -56.067 75.3921C-55.8905 75.0233 -55.9216 74.604 -56.0793 74.1731L-56.7664 74.4246ZM-57.2456 75.4571L-62.9487 77.5446L-62.6972 78.2317L-56.9941 76.1442L-57.2456 75.4571ZM-63.1665 78.0139L-61.9216 81.4151L-61.2345 81.1637L-62.4794 77.7624L-63.1665 78.0139ZM-61.4523 81.633L-56.0927 79.6713L-56.3442 78.9841L-61.7038 80.9458L-61.4523 81.633ZM-56.0927 79.6713C-55.789 79.5601 -55.5861 79.5754 -55.4501 79.6385C-55.314 79.7016 -55.1714 79.8467 -55.0602 80.1505L-54.3731 79.899C-54.526 79.4812 -54.7735 79.1458 -55.142 78.9748C-55.5105 78.8037 -55.9265 78.8312 -56.3442 78.9841L-56.0927 79.6713ZM-55.0602 80.1505L-53.8279 83.5174L-53.1408 83.2659L-54.3731 79.899L-55.0602 80.1505ZM-53.8279 83.5174C-53.7089 83.8424 -53.7277 84.0419 -53.7885 84.169C-53.8504 84.2982 -53.9952 84.4357 -54.3071 84.5499L-54.0556 85.237C-53.646 85.0871 -53.304 84.8516 -53.1285 84.4849C-52.9521 84.1161 -52.9831 83.6967 -53.1408 83.2659L-53.8279 83.5174ZM-44.208 81.2431L-44.3338 80.8995L-44.6774 81.0252L-44.5516 81.3688L-44.208 81.2431ZM-42.8122 85.0566L-43.1558 85.1824L-43.03 85.5259L-42.6865 85.4002L-42.8122 85.0566ZM-47.4901 72.2761L-47.6159 71.9325L-47.9594 72.0582L-47.8337 72.4018L-47.4901 72.2761ZM-46.2452 75.6773L-46.5888 75.8031L-46.463 76.1466L-46.1194 76.0209L-46.2452 75.6773ZM-38.9742 78.9378L-44.3338 80.8995L-44.0823 81.5866L-38.7227 79.6249L-38.9742 78.9378ZM-44.5516 81.3688L-43.1558 85.1824L-42.4687 84.9309L-43.8645 81.1173L-44.5516 81.3688ZM-42.6865 85.4002L-36.8459 83.2624L-37.0974 82.5753L-42.938 84.7131L-42.6865 85.4002ZM-36.8459 83.2624C-36.5422 83.1513 -36.3393 83.1665 -36.2032 83.2296C-36.0672 83.2928 -35.9246 83.4379 -35.8134 83.7416L-35.1263 83.4901C-35.2792 83.0724 -35.5267 82.737 -35.8952 82.5659C-36.2637 82.3949 -36.6796 82.4224 -37.0974 82.5753L-36.8459 83.2624ZM-35.8134 83.7416L-34.5056 87.3147L-33.8185 87.0632L-35.1263 83.4901L-35.8134 83.7416ZM-34.5056 87.3147C-34.3867 87.6397 -34.4054 87.8392 -34.4663 87.9663C-34.5281 88.0955 -34.6729 88.233 -34.9848 88.3472L-34.7333 89.0343C-34.3237 88.8844 -33.9817 88.6489 -33.8062 88.2822C-33.6298 87.9134 -33.6608 87.494 -33.8185 87.0632L-34.5056 87.3147ZM-34.9848 88.3472L-45.9788 92.3712L-45.7273 93.0583L-34.7333 89.0343L-34.9848 88.3472ZM-45.9788 92.3712C-46.312 92.4931 -46.5078 92.4781 -46.6297 92.4216C-46.7516 92.365 -46.8894 92.2252 -47.0113 91.892L-47.6985 92.1435C-47.5438 92.5661 -47.3086 92.9131 -46.9377 93.0853C-46.5668 93.2574 -46.15 93.213 -45.7273 93.0583L-45.9788 92.3712ZM-47.0113 91.892L-55.1096 69.7665L-55.7967 70.018L-47.6985 92.1435L-47.0113 91.892ZM-55.1096 69.7665C-55.2238 69.4546 -55.2122 69.2552 -55.1535 69.1246C-55.0956 68.9961 -54.9554 68.8529 -54.6304 68.734L-54.8819 68.0469C-55.3128 68.2046 -55.653 68.4516 -55.8208 68.8244C-55.9876 69.1952 -55.9466 69.6084 -55.7967 70.018L-55.1096 69.7665ZM-54.6304 68.734L-43.7738 64.7603L-44.0253 64.0732L-54.8819 68.0469L-54.6304 68.734ZM-43.7738 64.7603C-43.4701 64.6491 -43.2672 64.6644 -43.1311 64.7275C-42.9951 64.7906 -42.8525 64.9358 -42.7413 65.2395L-42.0542 64.988C-42.2071 64.5702 -42.4546 64.2348 -42.8231 64.0638C-43.1916 63.8928 -43.6076 63.9203 -44.0253 64.0732L-43.7738 64.7603ZM-42.7413 65.2395L-41.4335 68.8126L-40.7464 68.5611L-42.0542 64.988L-42.7413 65.2395ZM-41.4335 68.8126C-41.3145 69.1376 -41.3333 69.3371 -41.3942 69.4642C-41.456 69.5934 -41.6008 69.7309 -41.9127 69.8451L-41.6612 70.5322C-41.2516 70.3823 -40.9096 70.1468 -40.7341 69.78C-40.5577 69.4113 -40.5887 68.9919 -40.7464 68.5611L-41.4335 68.8126ZM-41.9127 69.8451L-47.6159 71.9325L-47.3644 72.6196L-41.6612 70.5322L-41.9127 69.8451ZM-47.8337 72.4018L-46.5888 75.8031L-45.9016 75.5516L-47.1465 72.1503L-47.8337 72.4018ZM-46.1194 76.0209L-40.7599 74.0592L-41.0114 73.3721L-46.3709 75.3338L-46.1194 76.0209ZM-40.7599 74.0592C-40.4561 73.948 -40.2532 73.9633 -40.1172 74.0264C-39.9812 74.0895 -39.8385 74.2347 -39.7274 74.5384L-39.0402 74.2869C-39.1931 73.8691 -39.4407 73.5337 -39.8092 73.3627C-40.1777 73.1917 -40.5936 73.2192 -41.0114 73.3721L-40.7599 74.0592ZM-39.7274 74.5384L-38.495 77.9053L-37.8079 77.6538L-39.0402 74.2869L-39.7274 74.5384ZM-38.495 77.9053C-38.3761 78.2303 -38.3948 78.4298 -38.4557 78.557C-38.5175 78.6862 -38.6623 78.8236 -38.9742 78.9378L-38.7227 79.6249C-38.3131 79.475 -37.9711 79.2395 -37.7956 78.8728C-37.6192 78.504 -37.6502 78.0847 -37.8079 77.6538L-38.495 77.9053ZM-31.3089 68.7689L-31.6525 68.8947L-30.9436 68.7891L-31.3089 68.7689ZM-30.8692 60.8162L-30.5038 60.8364L-30.5035 60.8271L-30.8692 60.8162ZM-24.5679 57.8086L-24.3168 57.5424L-24.3168 57.5424L-24.5679 57.8086ZM-24.2845 58.7957L-24.648 58.7545L-24.649 58.7633L-24.6496 58.7722L-24.2845 58.7957ZM-24.9777 69.5683L-25.3428 69.5448L-25.3523 69.693L-25.2559 69.8059L-24.9777 69.5683ZM-15.9064 80.1954L-15.6265 79.9598L-15.6282 79.9579L-15.9064 80.1954ZM-15.52 81.1448L-15.1564 81.186L-15.52 81.1448ZM-22.3084 82.9282L-22.0155 82.7091L-22.021 82.7016L-22.027 82.6945L-22.3084 82.9282ZM-29.1334 74.7126L-28.852 74.4788L-29.477 74.8383L-29.1334 74.7126ZM-30.9436 68.7891L-30.5039 60.8364L-31.2345 60.796L-31.6742 68.7487L-30.9436 68.7891ZM-30.5035 60.8271C-30.4932 60.479 -30.4181 60.2273 -30.2969 60.0432C-30.1782 59.863 -29.9954 59.7172 -29.7121 59.6135L-29.9636 58.9264C-30.3675 59.0742 -30.6886 59.3077 -30.908 59.6408C-31.1249 59.97 -31.2219 60.3657 -31.2349 60.8054L-30.5035 60.8271ZM-29.7121 59.6135L-25.4519 58.0542L-25.7034 57.3671L-29.9636 58.9264L-29.7121 59.6135ZM-25.4519 58.0542C-25.103 57.9265 -24.9132 57.9858 -24.8189 58.0747L-24.3168 57.5424C-24.6986 57.1823 -25.2278 57.193 -25.7034 57.3671L-25.4519 58.0542ZM-24.8189 58.0747C-24.6934 58.1931 -24.6097 58.4165 -24.648 58.7545L-23.921 58.8369C-23.8672 58.362 -23.9663 57.8731 -24.3168 57.5424L-24.8189 58.0747ZM-24.6496 58.7722L-25.3428 69.5448L-24.6126 69.5918L-23.9194 58.8192L-24.6496 58.7722ZM-25.2559 69.8059L-16.1847 80.433L-15.6282 79.9579L-24.6994 69.3308L-25.2559 69.8059ZM-16.1863 80.431C-15.9323 80.7328 -15.8638 80.9294 -15.8835 81.1037L-15.1564 81.186C-15.1025 80.71 -15.329 80.3133 -15.6265 79.9598L-16.1863 80.431ZM-15.8835 81.1037C-15.8993 81.2437 -15.9853 81.3931 -16.3194 81.5154L-16.0679 82.2025C-15.5773 82.0229 -15.2142 81.6963 -15.1564 81.186L-15.8835 81.1037ZM-16.3194 81.5154L-20.6483 83.0998L-20.3968 83.7869L-16.0679 82.2025L-16.3194 81.5154ZM-20.6483 83.0998C-20.9543 83.2118 -21.2057 83.2218 -21.414 83.1624C-21.6212 83.1033 -21.8244 82.9645 -22.0155 82.7091L-22.6013 83.1474C-22.3348 83.5037 -22.0057 83.7545 -21.6148 83.866C-21.225 83.9772 -20.8123 83.939 -20.3968 83.7869L-20.6483 83.0998ZM-22.027 82.6945L-28.852 74.4788L-29.4148 74.9464L-22.5898 83.162L-22.027 82.6945ZM-29.477 74.8383L-26.044 84.2176L-25.3569 83.9661L-28.7899 74.5868L-29.477 74.8383ZM-26.044 84.2176C-25.9251 84.5426 -25.9439 84.7421 -26.0047 84.8693C-26.0665 84.9985 -26.2113 85.136 -26.5232 85.2501L-26.2717 85.9372C-25.8621 85.7873 -25.5201 85.5518 -25.3446 85.1851C-25.1682 84.8163 -25.1992 84.397 -25.3569 83.9661L-26.044 84.2176ZM-26.5232 85.2501L-30.646 86.7591L-30.3945 87.4462L-26.2717 85.9372L-26.5232 85.2501ZM-30.646 86.7591C-30.9792 86.8811 -31.1749 86.8661 -31.2968 86.8095C-31.4187 86.7529 -31.5565 86.6131 -31.6785 86.2799L-32.3656 86.5314C-32.2109 86.9541 -31.9757 87.3011 -31.6048 87.4732C-31.234 87.6453 -30.8171 87.6009 -30.3945 87.4462L-30.646 86.7591ZM-31.6785 86.2799L-39.7767 64.1544L-40.4639 64.4059L-32.3656 86.5314L-31.6785 86.2799ZM-39.7767 64.1544C-39.8909 63.8425 -39.8794 63.6432 -39.8206 63.5126C-39.7628 63.384 -39.6225 63.2409 -39.2976 63.1219L-39.5491 62.4348C-39.9799 62.5925 -40.3202 62.8395 -40.4879 63.2123C-40.6547 63.5831 -40.6138 63.9963 -40.4639 64.4059L-39.7767 64.1544ZM-39.2976 63.1219L-35.1748 61.6129L-35.4263 60.9258L-39.5491 62.4348L-39.2976 63.1219ZM-35.1748 61.6129C-34.8711 61.5018 -34.6681 61.517 -34.5321 61.5801C-34.3961 61.6433 -34.2535 61.7884 -34.1423 62.0921L-33.4552 61.8406C-33.6081 61.4229 -33.8556 61.0875 -34.2241 60.9164C-34.5926 60.7454 -35.0085 60.7729 -35.4263 60.9258L-35.1748 61.6129ZM-34.1423 62.0921L-31.6525 68.8947L-30.9653 68.6432L-33.4552 61.8406L-34.1423 62.0921ZM-3.19648 75.5824L-2.88535 75.7748L-3.19648 75.5824ZM-13.0415 80.5104L-13.0652 80.1453L-13.068 80.1455L-13.0415 80.5104ZM-14.167 80.4159L-14.321 80.7477L-14.167 80.4159ZM-14.8473 74.9379L-14.8532 74.5721L-14.8636 74.5723L-14.8739 74.573L-14.8473 74.9379ZM-10.5867 70.6124L-10.4005 70.2975L-10.4086 70.2926L-10.4171 70.2882L-10.5867 70.6124ZM-13.4864 69.6089L-13.3909 69.2557L-13.3923 69.2553L-13.4864 69.6089ZM-17.8166 67.5706L-17.5965 67.2784L-17.8166 67.5706ZM-20.9011 57.4404L-20.5742 57.6047L-20.5742 57.6047L-20.9011 57.4404ZM-11.6435 52.6105L-11.6822 52.2466L-11.6917 52.2479L-11.6435 52.6105ZM-10.6211 52.7428L-10.4377 52.4262L-10.4377 52.4262L-10.6211 52.7428ZM-9.86863 58.3112L-9.82996 58.6752L-9.82041 58.6739L-9.86863 58.3112ZM-10.1453 63.5161L-10.0325 63.1679L-10.0408 63.1655L-10.1453 63.5161ZM-5.48648 65.7068L-5.25511 65.4231L-5.26598 65.4149L-5.48648 65.7068ZM-3.31216 69.625C-2.45789 71.959 -2.55562 73.8508 -3.50763 75.3899L-2.88535 75.7748C-1.78136 73.9901 -1.71879 71.8494 -2.62502 69.3735L-3.31216 69.625ZM-3.50763 75.3899C-4.48336 76.9673 -6.02884 78.1384 -8.16872 78.9217L-7.91722 79.6088C-5.65952 78.7824 -3.96559 77.5212 -2.88535 75.7748L-3.50763 75.3899ZM-8.16872 78.9217C-10.216 79.671 -11.8217 80.0646 -13.0652 80.1453L-13.0178 80.8755C-11.6736 80.7882 -9.99274 80.3685 -7.91722 79.6088L-8.16872 78.9217ZM-13.068 80.1455C-13.598 80.184 -13.8718 80.1495 -14.0129 80.084L-14.321 80.7477C-13.9928 80.9 -13.5476 80.914 -13.015 80.8753L-13.068 80.1455ZM-14.0129 80.084C-14.1037 80.0418 -14.2434 79.8876 -14.3908 79.4849L-15.078 79.7364C-14.9236 80.1582 -14.6995 80.572 -14.321 80.7477L-14.0129 80.084ZM-14.3908 79.4849L-15.6106 76.1523L-16.2977 76.4038L-15.078 79.7364L-14.3908 79.4849ZM-15.6106 76.1523C-15.7439 75.7882 -15.6894 75.6331 -15.6291 75.5592C-15.5477 75.4596 -15.3297 75.3398 -14.8208 75.3028L-14.8739 74.573C-15.4276 74.6133 -15.9139 74.7513 -16.1957 75.0963C-16.4986 75.467 -16.4663 75.9433 -16.2977 76.4038L-15.6106 76.1523ZM-14.8415 75.3037C-13.8912 75.2884 -12.847 75.0239 -11.6973 74.6031L-11.9488 73.916C-13.0667 74.3251 -14.0219 74.5587 -14.8532 74.5721L-14.8415 75.3037ZM-11.6973 74.6031C-10.7656 74.2621 -10.0556 73.8548 -9.62974 73.3583C-9.18155 72.8356 -9.06113 72.2259 -9.29689 71.5818L-9.98403 71.8333C-9.84253 72.2198 -9.90298 72.5529 -10.1852 72.8819C-10.4897 73.2371 -11.0598 73.5906 -11.9488 73.916L-11.6973 74.6031ZM-9.29689 71.5818C-9.50659 71.0088 -9.89272 70.5978 -10.4005 70.2975L-10.773 70.9273C-10.3856 71.1564 -10.1264 71.4442 -9.98403 71.8333L-9.29689 71.5818ZM-10.4171 70.2882C-10.935 70.0172 -11.9137 69.6546 -13.3909 69.2557L-13.5817 69.9621C-12.1191 70.3571 -11.2022 70.7032 -10.7564 70.9365L-10.4171 70.2882ZM-13.3923 69.2553C-15.0781 68.8071 -16.4547 68.1385 -17.5965 67.2784L-18.0367 67.8628C-16.8118 68.7856 -15.3474 69.4926 -13.5804 69.9624L-13.3923 69.2553ZM-17.5965 67.2784C-18.705 66.4433 -19.6276 65.071 -20.317 63.1874L-21.0041 63.4389C-20.2852 65.4032 -19.295 66.9149 -18.0367 67.8628L-17.5965 67.2784ZM-20.317 63.1874C-21.1954 60.7874 -21.2517 58.9526 -20.5742 57.6047L-21.2279 57.2761C-22.0383 58.8883 -21.9113 60.9602 -21.0041 63.4389L-20.317 63.1874ZM-20.5742 57.6047C-19.8937 56.251 -18.2462 55.0272 -15.5258 54.0315L-15.7773 53.3444C-18.5538 54.3606 -20.4206 55.6699 -21.2279 57.2761L-20.5742 57.6047ZM-15.5258 54.0315C-13.8934 53.434 -12.5643 53.1021 -11.5953 52.9732L-11.6917 52.2479C-12.7288 52.3858 -14.1115 52.7347 -15.7773 53.3444L-15.5258 54.0315ZM-11.6048 52.9743C-11.1831 52.9295 -10.9519 52.9739 -10.8045 53.0593L-10.4377 52.4262C-10.7848 52.2251 -11.2038 52.1959 -11.6822 52.2467L-11.6048 52.9743ZM-10.8045 53.0593C-10.6461 53.1512 -10.4908 53.3117 -10.3629 53.6612L-9.67576 53.4097C-9.84964 52.9346 -10.1017 52.621 -10.4377 52.4262L-10.8045 53.0593ZM-10.3629 53.6612L-9.10537 57.0968L-8.41826 56.8453L-9.67576 53.4097L-10.3629 53.6612ZM-9.10537 57.0968C-8.99336 57.4029 -9.04352 57.5526 -9.1168 57.6409C-9.21349 57.7573 -9.44463 57.8858 -9.91684 57.9486L-9.82041 58.6739C-9.28957 58.6033 -8.82894 58.4396 -8.55386 58.1083C-8.25534 57.7488 -8.25362 57.2952 -8.41826 56.8453L-9.10537 57.0968ZM-9.90728 57.9474C-10.8401 58.0466 -11.8004 58.278 -12.753 58.6267L-12.5015 59.3138C-11.5989 58.9835 -10.6971 58.7672 -9.82997 58.675L-9.90728 57.9474ZM-12.753 58.6267C-13.4843 58.8944 -14.0291 59.207 -14.2981 59.6208L-13.6846 60.0196C-13.5549 59.82 -13.2131 59.5743 -12.5015 59.3138L-12.753 58.6267ZM-14.2981 59.6208C-14.5869 60.065 -14.5525 60.6288 -14.3574 61.1619L-13.6703 60.9104C-13.8273 60.4815 -13.7947 60.1888 -13.6846 60.0196L-14.2981 59.6208ZM-14.3574 61.1619C-14.1439 61.7453 -13.6636 62.2545 -12.9824 62.695C-12.2988 63.1371 -11.3842 63.5288 -10.2497 63.8667L-10.0408 63.1655C-11.1364 62.8392 -11.98 62.4719 -12.5851 62.0806C-13.1928 61.6876 -13.5317 61.289 -13.6703 60.9104L-14.3574 61.1619ZM-10.258 63.8642C-8.2416 64.5171 -6.73696 65.2207 -5.70701 65.9987L-5.26598 65.4149C-6.3899 64.5658 -7.98273 63.8318 -10.0326 63.168L-10.258 63.8642ZM-5.71769 65.9903C-4.72467 66.8001 -3.91129 67.9881 -3.31216 69.625L-2.62502 69.3735C-3.25824 67.6435 -4.13796 66.3344 -5.25527 65.4233L-5.71769 65.9903Z" fill="white"/>
<path d="M27.3598 48.8146L28.8714 48.2613C29.4555 48.0475 29.8175 47.7592 29.9574 47.3963C30.0629 47.046 30.0117 46.4804 29.7602 45.7933C29.5087 45.1061 29.1952 44.6754 28.8885 44.476C28.5474 44.2892 28.0848 44.3027 27.5008 44.5165L25.9891 45.0698L27.3598 48.8146ZM35.3882 62.9791L27.7954 65.7581C27.0396 66.0348 26.5703 65.817 26.2936 65.0611L18.1954 42.9356C17.9313 42.2142 18.1365 41.7105 18.8924 41.4338L25.7293 38.9314C28.3404 37.9757 30.3809 37.6964 31.9195 38.0682C33.4581 38.4401 34.6676 39.8285 35.5226 42.1647C36.4783 44.7758 36.1795 46.8331 34.626 48.3367C35.795 48.3374 36.8711 48.7227 37.8668 49.5271C38.8624 50.3314 39.6369 51.4894 40.1651 52.9324C41.9507 57.811 40.3355 61.1683 35.3882 62.9791ZM30.8682 58.4L32.8265 57.6833C33.4793 57.4443 33.8756 57.1434 34.0247 56.6993C34.1394 56.2677 34.0757 55.6677 33.7739 54.8431C33.4721 54.0186 33.1334 53.5192 32.7672 53.2636C32.3666 53.0207 31.8571 53.0124 31.2043 53.2513L29.246 53.9681L30.8682 58.4ZM42.6681 33.9782L49.031 51.3626L53.4286 49.753C54.1501 49.4889 54.6664 49.7285 54.9304 50.45L56.2634 54.0917C56.54 54.8476 56.2879 55.3295 55.5664 55.5936L45.9466 59.1145C45.1908 59.3912 44.7214 59.1734 44.4448 58.4175L36.3465 36.292C36.0824 35.5706 36.2877 35.0669 37.0435 34.7902L41.1663 33.2812C41.8878 33.0172 42.404 33.2568 42.6681 33.9782ZM61.7333 42.5058L64.4131 41.5249L59.973 33.3324L59.8356 33.3827L61.7333 42.5058ZM54.4021 28.4367L60.9298 26.0475C61.823 25.7205 62.4893 25.9442 62.9503 26.6715L74.6836 47.2328C74.8906 47.5856 74.9351 47.9199 74.8388 48.1889C74.7424 48.4579 74.5053 48.6616 74.1618 48.7874L69.9359 50.3341C69.2488 50.5856 68.7451 50.3803 68.378 49.6966L66.8373 46.871L63.333 48.1537L63.9804 51.3062C64.107 52.078 63.8548 52.5598 63.2021 52.7988L58.9762 54.3455C58.5983 54.4838 58.2857 54.4813 58.0385 54.3381C57.7913 54.1948 57.6438 53.8982 57.5741 53.4951L53.2618 30.2177C53.11 29.3772 53.5088 28.7637 54.4021 28.4367ZM84.589 38.8932C85.3449 38.6166 86.0068 38.2964 86.6093 37.92C87.3836 37.4808 87.909 37.6391 88.1857 38.3949L89.3929 41.6931C89.6569 42.4146 89.4425 42.9996 88.8057 43.3885C87.8069 44.0658 86.6421 44.6089 85.4053 45.0616C83.6875 45.6904 82.2285 46.0685 81.0721 46.1022C79.8813 46.1485 78.7617 45.857 77.6538 45.1717C76.5584 44.5207 75.5434 43.4507 74.6306 41.9148C73.7304 40.4132 72.8133 38.3334 71.8576 35.7223C70.9271 33.18 70.2974 31.0339 70.0282 29.3404C69.7246 27.6594 69.7746 26.1996 70.191 24.9953C70.6073 23.791 71.2742 22.8457 72.2135 22.1123C73.1184 21.3915 74.4298 20.7167 76.1476 20.0879C77.144 19.7233 78.328 19.4457 79.709 19.174C80.4682 19.013 81.0096 19.3213 81.2863 20.0772L82.506 23.4097C82.7827 24.1656 82.4836 24.6257 81.6087 24.79C80.9057 24.8915 80.1934 25.0743 79.5063 25.3258C77.9602 25.8917 77.1148 26.6686 76.97 27.6567C76.7908 28.6573 77.2511 30.5536 78.2822 33.3708C79.0242 35.3979 79.668 36.8375 80.2262 37.724C80.7844 38.6105 81.3887 39.0906 82.0298 39.2455C82.6365 39.4131 83.4896 39.2956 84.589 38.8932ZM92.3308 23.5148L92.7705 15.5621C92.7938 14.7744 93.1147 14.2673 93.8018 14.0158L98.062 12.4565C98.4743 12.3056 98.8338 12.3299 99.0718 12.5544C99.3099 12.779 99.4013 13.1351 99.3552 13.5416L98.6621 24.3142L107.733 34.9413C108.009 35.2689 108.157 35.5656 108.12 35.8907C108.083 36.2159 107.858 36.4539 107.446 36.6048L103.117 38.1892C102.396 38.4533 101.789 38.2858 101.331 37.6741L94.5063 29.4585L97.9393 38.8377C98.2159 39.5936 97.9637 40.0755 97.2422 40.3395L93.1195 41.8485C92.3636 42.1252 91.8943 41.9074 91.6177 41.1515L83.5194 19.026C83.2553 18.3046 83.4606 17.8009 84.2164 17.5242L88.3392 16.0152C89.0607 15.7512 89.5769 15.9908 89.841 16.7122L92.3308 23.5148ZM123.865 20.7386L118.78 22.5997L121.534 30.1237C121.823 30.9139 121.549 31.4428 120.794 31.7194L116.808 33.1781C116.018 33.4673 115.502 33.2277 115.213 32.4375L107.165 10.4495C106.888 9.69362 107.115 9.14302 107.905 8.8538L118.349 5.03101C119.071 4.76694 119.587 5.00653 119.851 5.72802L121.159 9.30108C121.436 10.0569 121.184 10.5388 120.462 10.8029L115.171 12.7394L116.668 16.8278L121.752 14.9667C122.474 14.7027 122.99 14.9423 123.254 15.6637L124.562 19.2368C124.839 19.9926 124.586 20.4745 123.865 20.7386ZM131.946 13.4565L132.908 13.1044C133.801 12.7775 134.309 12.3576 134.433 11.8447C134.557 11.3318 134.393 10.457 133.953 9.25449C133.525 8.08637 133.086 7.31212 132.66 7.00044C132.235 6.68876 131.562 6.66204 130.669 6.98899L129.707 7.34109L131.946 13.4565ZM122.398 3.54933L128.582 1.28584C131.743 0.128941 134.215 -0.0356607 135.939 0.735893C137.662 1.50745 139.158 3.5704 140.377 6.90297C141.761 10.6822 141.52 13.5364 139.689 15.4532L145.296 21.1927C146.048 21.9695 145.971 22.5041 145.078 22.8311L140.886 24.3652C140.439 24.5287 140.118 24.6075 139.861 24.5455C139.605 24.4836 139.311 24.3185 139.022 23.9565L134.251 18.6904L133.907 18.8161L136.12 24.8628C136.397 25.6187 136.145 26.1006 135.423 26.3646L131.301 27.8736C130.545 28.1503 130.076 27.9325 129.799 27.1766L121.701 5.05113C121.437 4.32965 121.642 3.82598 122.398 3.54933ZM147.718 20.6178L139.62 -1.50769C139.356 -2.22917 139.561 -2.73284 140.317 -3.00949L144.44 -4.51849C145.161 -4.78256 145.678 -4.54297 145.942 -3.82148L154.04 18.304C154.317 19.0599 154.064 19.5417 153.343 19.8058L149.22 21.3148C148.464 21.5915 147.995 21.3736 147.718 20.6178ZM164.051 15.8866L158.142 18.0494C157.386 18.3261 156.916 18.1083 156.64 17.3524L148.542 -4.77305C148.277 -5.49454 148.483 -5.99821 149.239 -6.27485L155.01 -8.38745C156.625 -8.97847 158.04 -9.26276 159.278 -9.28724C160.516 -9.31171 161.682 -8.99847 162.8 -8.39443C163.895 -7.74345 164.932 -6.7204 165.854 -5.26575C166.776 -3.81111 167.664 -1.91567 168.532 0.454916C169.689 3.6157 170.238 6.18075 170.274 8.19363C170.309 10.2065 169.8 11.7954 168.815 12.9353C167.807 14.122 166.215 15.0943 164.051 15.8866ZM157.098 -2.68429L156.548 -2.48309L161.276 10.4349L161.963 10.1834C162.925 9.8313 163.462 9.16753 163.503 8.21722C163.545 7.26692 163.088 5.48623 162.107 2.80643C161.453 1.0199 160.847 -0.316628 160.324 -1.21573C159.778 -2.0679 159.277 -2.58572 158.82 -2.76918C158.363 -2.95263 157.785 -2.93579 157.098 -2.68429ZM177.787 0.0284589L180.466 -0.952388L176.026 -9.14492L175.889 -9.09462L177.787 0.0284589ZM170.455 -14.0406L176.983 -16.4298C177.876 -16.7568 178.543 -16.5331 179.004 -15.8058L190.737 4.75547C190.944 5.10824 190.988 5.44259 190.892 5.71161C190.796 5.98062 190.559 6.18429 190.215 6.31004L185.989 7.85676C185.302 8.10826 184.798 7.90302 184.431 7.21926L182.891 4.39373L179.386 5.67638L180.034 8.82885C180.16 9.60064 179.908 10.0825 179.255 10.3215L175.03 11.8682C174.652 12.0065 174.339 12.004 174.092 11.8608C173.845 11.7175 173.697 11.4209 173.628 11.0178L169.315 -12.2597C169.163 -13.1002 169.562 -13.7136 170.455 -14.0406ZM197.765 -6.81629L200.707 1.22309C200.984 1.97893 200.732 2.46082 200.01 2.7249L195.887 4.23389C195.132 4.51054 194.662 4.29273 194.386 3.53689L191.443 -4.5025L181.188 -16.4493C180.915 -16.6613 180.815 -16.9361 180.839 -17.2956C180.863 -17.6551 181.109 -17.9401 181.59 -18.1161L185.919 -19.7006C186.675 -19.9772 187.282 -19.8097 187.705 -19.1855L190.794 -14.4721L192.41 -11.4405L192.547 -11.4908L191.825 -14.8494L191.141 -20.443C191.027 -21.1804 191.382 -21.7 192.172 -21.9892L196.501 -23.5737C196.948 -23.7371 197.32 -23.6785 197.57 -23.4196C197.821 -23.1607 197.922 -22.8859 197.885 -22.5607L197.765 -6.81629ZM215.354 -30.474L219.476 -31.983C220.163 -32.2345 220.714 -32.0075 221.034 -31.3455L226.075 -21.1913L228.151 -16.6915L228.22 -16.7166L227.003 -21.5308L224.539 -32.6281C224.39 -33.353 224.63 -33.8692 225.317 -34.1207L229.886 -35.7932C230.23 -35.9189 230.555 -35.8821 230.802 -35.7389C231.049 -35.5956 231.231 -35.3115 231.288 -34.9428L235.641 -11.8749C235.809 -10.8844 235.491 -10.2617 234.667 -9.95989L229.101 -7.92275C228.276 -7.62095 227.598 -7.87896 227.121 -8.75628L224.447 -13.9331L221.813 -19.3194L221.744 -19.2942L223.21 -13.4804L224.509 -7.80058C224.677 -6.81009 224.36 -6.1874 223.535 -5.88561L217.969 -3.84846C217.145 -3.54666 216.466 -3.80467 215.989 -4.68199L204.422 -25.1092C204.227 -25.4276 204.148 -25.7494 204.245 -26.0184C204.341 -26.2874 204.566 -26.5254 204.944 -26.6638L209.513 -28.3362C210.166 -28.5752 210.682 -28.3356 211.071 -27.6987L216.353 -17.6326L218.531 -13.1705L218.6 -13.1956L217.28 -17.9721L214.575 -28.9814C214.392 -29.6937 214.632 -30.2099 215.354 -30.474ZM249.46 -26.2441L244.101 -24.2824L245.496 -20.4689L251.337 -22.6066C252.059 -22.8707 252.575 -22.6311 252.839 -21.9096L254.147 -18.3366C254.423 -17.5807 254.171 -17.0988 253.45 -16.8348L242.456 -12.8108C241.7 -12.5341 241.23 -12.7519 240.954 -13.5078L232.856 -35.6333C232.591 -36.3548 232.797 -36.8584 233.553 -37.1351L244.409 -41.1088C245.131 -41.3728 245.647 -41.1332 245.911 -40.4118L247.219 -36.8387C247.495 -36.0829 247.243 -35.601 246.522 -35.3369L240.819 -33.2495L242.063 -29.8482L247.423 -31.8099C248.145 -32.0739 248.661 -31.8343 248.925 -31.1129L250.157 -27.7459C250.434 -26.9901 250.182 -26.5082 249.46 -26.2441ZM264.793 -31.8562L259.433 -29.8945L260.829 -26.081L266.67 -28.2187C267.391 -28.4828 267.908 -28.2432 268.172 -27.5217L269.479 -23.9486C269.756 -23.1928 269.504 -22.7109 268.782 -22.4468L257.788 -18.4228C257.033 -18.1462 256.563 -18.364 256.287 -19.1198L248.188 -41.2453C247.924 -41.9668 248.13 -42.4705 248.885 -42.7471L259.742 -46.7208C260.463 -46.9849 260.98 -46.7453 261.244 -46.0238L262.552 -42.4508C262.828 -41.6949 262.576 -41.213 261.855 -40.949L256.151 -38.8615L257.396 -35.4602L262.756 -37.4219C263.477 -37.686 263.994 -37.4464 264.258 -36.7249L265.49 -33.358C265.767 -32.6022 265.515 -32.1203 264.793 -31.8562ZM272.333 -42.3686L272.772 -50.3214C272.796 -51.1091 273.117 -51.6161 273.804 -51.8676L278.064 -53.4269C278.476 -53.5778 278.836 -53.5536 279.074 -53.329C279.312 -53.1045 279.403 -52.7483 279.357 -52.3419L278.664 -41.5692L287.735 -30.9421C288.011 -30.6145 288.158 -30.3179 288.122 -29.9927C288.085 -29.6676 287.86 -29.4296 287.448 -29.2787L283.119 -27.6942C282.398 -27.4301 281.791 -27.5977 281.333 -28.2093L274.508 -36.425L277.941 -27.0457C278.218 -26.2899 277.966 -25.808 277.244 -25.5439L273.121 -24.0349C272.365 -23.7583 271.896 -23.9761 271.62 -24.7319L263.521 -46.8574C263.257 -47.5789 263.462 -48.0826 264.218 -48.3592L268.341 -49.8682C269.062 -50.1323 269.579 -49.8927 269.843 -49.1712L272.333 -42.3686ZM300.673 -41.6383C301.553 -39.2334 301.473 -37.2171 300.445 -35.5552C299.417 -33.8933 297.797 -32.6771 295.599 -31.8723C293.537 -31.1178 291.894 -30.7112 290.6 -30.6272C290.069 -30.5886 289.709 -30.6128 289.475 -30.7217C289.24 -30.8306 289.058 -31.1147 288.907 -31.527L287.687 -34.8595C287.386 -35.6841 287.732 -36.1224 288.794 -36.1997C289.685 -36.214 290.685 -36.4631 291.818 -36.878C293.639 -37.5445 294.378 -38.3994 294.001 -39.4301C293.825 -39.9111 293.502 -40.2605 293.055 -40.5252C292.573 -40.7774 291.625 -41.1317 290.155 -41.5287C288.429 -41.9877 287.008 -42.6755 285.825 -43.567C284.642 -44.4584 283.685 -45.9005 282.981 -47.8244C282.088 -50.2638 281.997 -52.2171 282.74 -53.6971C283.484 -55.1772 285.242 -56.4436 287.99 -57.4496C289.639 -58.0532 290.995 -58.3937 291.998 -58.527C292.448 -58.5749 292.773 -58.538 293.02 -58.3948C293.268 -58.2515 293.471 -58.0144 293.622 -57.6021L294.88 -54.1665C295.156 -53.4106 294.776 -52.9597 293.773 -52.8264C292.873 -52.7307 291.942 -52.5068 291.014 -52.1673C290.293 -51.9032 289.85 -51.6241 289.65 -51.3174C289.451 -51.0106 289.452 -50.5824 289.628 -50.1014C289.98 -49.1394 291.266 -48.2857 293.496 -47.6215C295.529 -46.9631 297.078 -46.2443 298.155 -45.4308C299.21 -44.5703 300.057 -43.3218 300.673 -41.6383Z" fill="white"/>
</g>
<defs>
<filter id="filter0_d_2563_3909" x="-606" y="-411" width="1836.87" height="726.529" filterUnits="userSpaceOnUse" color-interpolation-filters="sRGB">
<feFlood flood-opacity="0" result="BackgroundImageFix"/>
<feColorMatrix in="SourceAlpha" type="matrix" values="0 0 0 0 0 0 0 0 0 0 0 0 0 0 0 0 0 0 127 0" result="hardAlpha"/>
<feOffset dy="4"/>
<feGaussianBlur stdDeviation="2"/>
<feComposite in2="hardAlpha" operator="out"/>
<feColorMatrix type="matrix" values="0 0 0 0 0 0 0 0 0 0 0 0 0 0 0 0 0 0 0.2 0"/>
<feBlend mode="normal" in2="BackgroundImageFix" result="effect1_dropShadow_2563_3909"/>
<feBlend mode="normal" in="SourceGraphic" in2="effect1_dropShadow_2563_3909" result="shape"/>
</filter>
</defs>
</svg>
