<svg width="1440" height="180" viewBox="0 0 1440 180" fill="none" xmlns="http://www.w3.org/2000/svg">
<g filter="url(#filter0_d_2563_4775)">
<rect width="1925.41" height="60.4146" transform="translate(-30.5173 0.692871) rotate(23.2713)" fill="black"/>
<path d="M-28.4079 30.6063L-26.9292 31.2423C-26.3578 31.488 -25.8967 31.527 -25.5458 31.3593C-25.2285 31.1772 -24.8772 30.7309 -24.5882 30.0587C-24.2991 29.3865 -24.2311 28.8582 -24.3172 28.5026C-24.4368 28.1325 -24.7823 27.8246 -25.3536 27.5789L-26.8324 26.9429L-28.4079 30.6063ZM-32.3 46.4158L-39.7275 43.2214C-40.4669 42.9034 -40.6585 42.4227 -40.3405 41.6833L-31.0319 20.0392C-30.7283 19.3334 -30.2332 19.1082 -29.4939 19.4262L-22.8057 22.3027C-20.2514 23.4012 -18.5764 24.5995 -17.7133 25.9264C-16.8503 27.2534 -16.9247 29.0932 -17.9076 31.3786C-19.0061 33.9329 -20.6363 35.2231 -22.7981 35.2492C-21.9488 36.0525 -21.4313 37.0716 -21.26 38.34C-21.0886 39.6085 -21.321 40.9821 -21.928 42.3937C-23.9806 47.1661 -27.4603 48.4972 -32.3 46.4158ZM-32.4407 39.9832L-30.525 40.8071C-29.8864 41.0817 -29.3917 41.1352 -28.9783 40.9147C-28.5985 40.6798 -28.2328 40.1999 -27.8859 39.3933C-27.539 38.5867 -27.4421 37.9911 -27.5328 37.5538C-27.6572 37.1021 -28.0218 36.7462 -28.6604 36.4715L-30.5761 35.6476L-32.4407 39.9832ZM-7.09154 30.3353L-14.4054 47.3414L-10.1035 49.1916C-9.39771 49.4951 -9.18701 50.0238 -9.49055 50.7296L-11.0227 54.2922C-11.3407 55.0316 -11.8549 55.2087 -12.5607 54.9051L-21.9712 50.8579C-22.7106 50.5399 -22.9022 50.0593 -22.5842 49.3199L-13.2756 27.6757C-12.972 26.9699 -12.477 26.7448 -11.7376 27.0628L-7.70449 28.7973C-6.9987 29.1008 -6.788 29.6295 -7.09154 30.3353ZM0.910086 49.6271L3.53158 50.7545L5.93055 41.7503L5.79611 41.6925L0.910086 49.6271ZM5.24335 34.3658L11.6291 37.1121C12.5029 37.488 12.8336 38.1081 12.6692 38.9534L7.07706 61.9569C6.98528 62.3555 6.78797 62.6291 6.5332 62.7585C6.27843 62.8879 5.96619 62.8731 5.6301 62.7285L1.4962 60.9506C0.824024 60.6616 0.59887 60.1665 0.801583 59.4173L1.6222 56.3054L-1.80592 54.8311L-3.50036 57.5672C-3.93834 58.2151 -4.45258 58.3922 -5.09115 58.1176L-9.22505 56.3397C-9.59475 56.1807 -9.82026 55.9642 -9.90158 55.6903C-9.98289 55.4164 -9.88641 55.0995 -9.6602 54.7587L3.19144 34.8772C3.65832 34.162 4.36952 33.99 5.24335 34.3658ZM20.0044 62.6978C20.7438 63.0158 21.4449 63.2377 22.1413 63.3778C23.0057 63.5903 23.2789 64.0662 22.9609 64.8056L21.5733 68.0321C21.2698 68.7379 20.7122 69.0158 19.9822 68.8612C18.7911 68.6675 17.5714 68.2624 16.3615 67.7421C14.681 67.0193 13.3609 66.2923 12.4971 65.5226C11.5998 64.7384 10.9862 63.7576 10.6515 62.4986C10.3023 61.2731 10.2994 59.7983 10.6907 58.055C11.0676 56.3453 11.8294 54.2037 12.9279 51.6494C13.9975 49.1624 15.0137 47.1701 15.981 45.7541C16.9148 44.3238 17.9538 43.297 19.0834 42.7076C20.2131 42.1182 21.3471 41.889 22.5335 42.001C23.6863 42.0985 25.103 42.5087 26.7834 43.2314C27.7581 43.6506 28.8093 44.262 29.9998 45.0129C30.6622 45.4173 30.844 46.0132 30.526 46.7526L29.1239 50.0127C28.8059 50.7521 28.2725 50.8811 27.5237 50.3997C26.943 49.9907 26.2997 49.6344 25.6275 49.3453C24.1151 48.6948 22.967 48.679 22.1832 49.2977C21.3657 49.9019 20.398 51.5965 19.2128 54.3524C18.3599 56.3353 17.8392 57.8239 17.6362 58.8517C17.4331 59.8794 17.5426 60.6434 17.9022 61.1963C18.2282 61.7348 18.9289 62.2352 20.0044 62.6978ZM36.1931 56.8364L41.9744 51.3577C42.5323 50.8011 43.1138 50.6529 43.786 50.942L47.9535 52.7344C48.3568 52.9078 48.6015 53.1723 48.6203 53.499C48.6391 53.8257 48.4609 54.1473 48.1483 54.4112L40.2462 61.7655L39.5415 75.7199C39.517 76.1475 39.4205 76.4644 39.1704 76.6754C38.9203 76.8865 38.5936 76.9053 38.1903 76.7318L33.9556 74.9106C33.2498 74.6071 32.9238 74.0686 33.0113 73.3097L33.6925 62.6507L29.7465 71.826C29.4285 72.5654 28.9143 72.7424 28.2085 72.4389L24.1754 70.7044C23.436 70.3864 23.2445 69.9058 23.5625 69.1664L32.8711 47.5222C33.1746 46.8164 33.6697 46.5913 34.4091 46.9093L38.4422 48.6438C39.1479 48.9473 39.3586 49.476 39.0551 50.1818L36.1931 56.8364ZM61.0212 76.475L56.0471 74.3357L52.8816 81.6961C52.5491 82.4691 51.9868 82.6654 51.2474 82.3474L47.3488 80.6707C46.5758 80.3382 46.3651 79.8095 46.6975 79.0365L55.9483 57.5268C56.2663 56.7874 56.8094 56.5431 57.5825 56.8755L67.7996 61.2696C68.5054 61.5732 68.7161 62.1019 68.4125 62.8077L66.9093 66.303C66.5913 67.0424 66.077 67.2195 65.3712 66.9159L60.1955 64.69L58.4754 68.6894L63.4495 70.8287C64.1553 71.1322 64.366 71.6609 64.0625 72.3667L62.5592 75.862C62.2412 76.6014 61.727 76.7785 61.0212 76.475ZM71.8959 76.7313L72.837 77.136C73.7108 77.5118 74.3689 77.5559 74.8112 77.2682C75.2535 76.9806 75.7349 76.2318 76.2408 75.0555C76.7322 73.9128 76.9447 73.0483 76.8493 72.5294C76.7538 72.0104 76.2837 71.5294 75.4098 71.1536L74.4688 70.7489L71.8959 76.7313ZM71.7596 62.9728L77.8093 65.5746C80.9013 66.9044 82.8112 68.4825 83.5344 70.2272C84.2576 71.9719 83.9277 74.4984 82.5256 77.7584C80.9357 81.4554 78.8003 83.3646 76.1532 83.5006L76.2871 91.5233C76.3002 92.6042 75.877 92.9399 75.0032 92.5641L70.9029 90.8007C70.466 90.6128 70.1779 90.4491 70.0341 90.2279C69.8903 90.0067 69.7898 89.6847 69.8288 89.2236L69.9771 82.1188L69.641 81.9743L67.0971 87.8895C66.7791 88.6289 66.2648 88.806 65.559 88.5024L61.526 86.7679C60.7866 86.4499 60.595 85.9693 60.913 85.2299L70.2216 63.5857C70.5252 62.8799 71.0203 62.6548 71.7596 62.9728ZM78.4427 92.7689L87.7513 71.1248C88.0549 70.419 88.5499 70.1938 89.2893 70.5118L93.3224 72.2464C94.0282 72.5499 94.2389 73.0786 93.9354 73.7844L84.6268 95.4285C84.3088 96.1679 83.7945 96.345 83.0887 96.0415L79.0557 94.307C78.3163 93.989 78.1247 93.5083 78.4427 92.7689ZM93.5637 100.547L87.783 98.0604C87.0436 97.7424 86.852 97.2617 87.17 96.5223L96.4786 74.8782C96.7821 74.1724 97.2772 73.9472 98.0166 74.2652L103.663 76.6936C105.243 77.3729 106.467 78.1383 107.383 78.9705C108.3 79.8028 108.932 80.8316 109.33 82.0379C109.679 83.2633 109.73 84.719 109.401 86.4095C109.072 88.1001 108.416 90.0881 107.419 92.4071C106.089 95.4991 104.727 97.7408 103.37 99.2283C102.014 100.716 100.552 101.521 99.0531 101.673C97.506 101.844 95.6811 101.457 93.5637 100.547ZM101.264 82.2726L100.726 82.0414L95.2909 94.6783L95.9631 94.9674C96.9042 95.3721 97.7498 95.2579 98.4328 94.5959C99.1158 93.9338 100.007 92.3256 101.134 89.7041C101.886 87.9564 102.363 86.5687 102.6 85.5554C102.788 84.5612 102.78 83.8406 102.574 83.3936C102.368 82.9466 101.936 82.5617 101.264 82.2726ZM114.439 98.4529L117.06 99.5803L119.459 90.576L119.325 90.5182L114.439 98.4529ZM118.772 83.1916L125.158 85.9379C126.032 86.3137 126.362 86.9338 126.198 87.7791L120.606 110.783C120.514 111.181 120.317 111.455 120.062 111.584C119.807 111.714 119.495 111.699 119.159 111.554L115.025 109.776C114.353 109.487 114.128 108.992 114.33 108.243L115.151 105.131L111.723 103.657L110.028 106.393C109.59 107.041 109.076 107.218 108.437 106.943L104.304 105.165C103.934 105.006 103.708 104.79 103.627 104.516C103.546 104.242 103.642 103.925 103.868 103.584L116.72 83.703C117.187 82.9878 117.898 82.8158 118.772 83.1916ZM133.661 107.198L130.279 115.062C129.961 115.802 129.446 115.979 128.741 115.675L124.708 113.941C123.968 113.623 123.777 113.142 124.095 112.403L127.477 104.538L128.227 88.8112C128.175 88.47 128.29 88.2012 128.555 87.9565C128.819 87.7118 129.194 87.6739 129.665 87.8763L133.899 89.6975C134.639 90.0155 134.965 90.5539 134.844 91.2984L133.852 96.8456L132.945 100.159L133.079 100.217L134.86 97.2793L138.205 92.7438C138.628 92.1295 139.243 91.9957 140.016 92.3282L144.251 94.1494C144.688 94.3373 144.918 94.6355 144.922 94.9958C144.927 95.3561 144.811 95.6249 144.561 95.836L133.661 107.198ZM162.693 102.081L166.726 103.816C167.399 104.105 167.643 104.648 167.421 105.349L164.112 116.192L162.53 120.888L162.597 120.917L165.019 116.582L170.849 106.823C171.239 106.194 171.768 105.984 172.44 106.273L176.91 108.195C177.246 108.34 177.457 108.59 177.538 108.864C177.62 109.138 177.557 109.469 177.345 109.776L164.667 129.533C164.108 130.368 163.45 130.603 162.643 130.256L157.199 127.914C156.392 127.567 156.076 126.914 156.332 125.948L157.943 120.349L159.728 114.625L159.661 114.596L156.733 119.829L153.777 124.85C153.219 125.685 152.561 125.92 151.754 125.573L146.309 123.231C145.503 122.884 145.186 122.23 145.442 121.265L151.063 98.473C151.14 98.108 151.304 97.8199 151.559 97.6905C151.813 97.5612 152.14 97.5424 152.51 97.7014L156.98 99.6238C157.618 99.8984 157.829 100.427 157.674 101.157L154.6 112.101L153.12 116.841L153.187 116.87L155.508 112.492L161.103 102.631C161.459 101.988 161.988 101.777 162.693 102.081ZM184.58 128.579L179.337 126.324L177.732 130.055L183.446 132.512C184.152 132.815 184.362 133.344 184.059 134.05L182.556 137.545C182.238 138.285 181.723 138.462 181.018 138.158L170.263 133.533C169.523 133.215 169.332 132.734 169.65 131.995L178.958 110.351C179.262 109.645 179.757 109.42 180.496 109.738L191.117 114.305C191.823 114.609 192.033 115.137 191.73 115.843L190.227 119.339C189.909 120.078 189.394 120.255 188.688 119.952L183.109 117.552L181.678 120.879L186.921 123.134C187.627 123.438 187.838 123.967 187.534 124.672L186.118 127.966C185.8 128.705 185.286 128.882 184.58 128.579ZM199.579 135.03L194.336 132.775L192.732 136.505L198.445 138.963C199.151 139.266 199.362 139.795 199.058 140.501L197.555 143.996C197.237 144.735 196.723 144.913 196.017 144.609L185.262 139.984C184.523 139.666 184.331 139.185 184.649 138.446L193.958 116.801C194.261 116.096 194.756 115.87 195.496 116.188L206.116 120.756C206.822 121.06 207.033 121.588 206.729 122.294L205.226 125.789C204.908 126.529 204.394 126.706 203.688 126.402L198.109 124.003L196.678 127.33L201.921 129.585C202.627 129.889 202.837 130.417 202.534 131.123L201.117 134.417C200.799 135.156 200.285 135.333 199.579 135.03ZM212.279 132.566L218.06 127.088C218.618 126.531 219.2 126.383 219.872 126.672L224.039 128.464C224.443 128.638 224.687 128.902 224.706 129.229C224.725 129.556 224.547 129.877 224.234 130.141L216.332 137.496L215.627 151.45C215.603 151.877 215.506 152.194 215.256 152.405C215.006 152.617 214.68 152.635 214.276 152.462L210.042 150.641C209.336 150.337 209.01 149.799 209.097 149.04L209.778 138.381L205.832 147.556C205.514 148.295 205 148.472 204.294 148.169L200.261 146.434C199.522 146.116 199.33 145.636 199.648 144.896L208.957 123.252C209.261 122.546 209.756 122.321 210.495 122.639L214.528 124.374C215.234 124.677 215.445 125.206 215.141 125.912L212.279 132.566ZM232.377 152.56C231.366 154.913 229.923 156.324 228.034 156.826C226.146 157.328 224.133 157.099 221.982 156.174C219.965 155.307 218.492 154.474 217.494 153.646C217.081 153.31 216.836 153.045 216.74 152.805C216.645 152.564 216.708 152.233 216.881 151.83L218.283 148.57C218.63 147.763 219.183 147.682 220.008 148.356C220.665 148.957 221.563 149.463 222.672 149.94C224.453 150.706 225.578 150.592 226.011 149.584C226.214 149.113 226.219 148.637 226.076 148.138C225.898 147.623 225.453 146.715 224.657 145.417C223.717 143.898 223.157 142.422 222.909 140.961C222.661 139.501 222.957 137.796 223.766 135.914C224.792 133.527 226.067 132.045 227.624 131.48C229.181 130.915 231.328 131.201 234.017 132.357C235.63 133.051 236.85 133.735 237.67 134.327C238.03 134.601 238.241 134.851 238.323 135.125C238.404 135.399 238.389 135.711 238.216 136.114L236.77 139.475C236.452 140.215 235.866 140.281 235.046 139.689C234.326 139.141 233.495 138.664 232.588 138.274C231.882 137.97 231.368 137.869 231.012 137.955C230.657 138.041 230.363 138.353 230.161 138.823C229.756 139.764 230.105 141.268 231.27 143.283C232.296 145.158 232.928 146.744 233.152 148.075C233.328 149.425 233.086 150.914 232.377 152.56Z" fill="white"/>
<path d="M268.628 158.354L268.292 158.209L268.147 158.545L268.483 158.69L268.628 158.354ZM271.49 159.107L271.648 159.437L271.66 159.431L271.672 159.424L271.49 159.107ZM272.719 156.25L273.074 156.164L273.071 156.15L273.067 156.137L272.719 156.25ZM270.203 154.69L270.348 154.354L270.012 154.21L269.867 154.546L270.203 154.69ZM279.322 153.674L279.629 153.474L279.322 153.674ZM274.238 162.996L274.233 162.631L273.33 162.642L273.986 163.262L274.238 162.996ZM275.776 166.087L276.138 166.038L275.776 166.087ZM264.595 167.73L264.259 167.586L264.114 167.922L264.451 168.067L264.595 167.73ZM268.058 168.662L268.23 168.985L268.24 168.979L268.25 168.973L268.058 168.662ZM269.503 165.301L269.861 165.227L269.859 165.215L269.856 165.204L269.503 165.301ZM266.46 163.395L266.604 163.059L266.268 162.914L266.124 163.25L266.46 163.395ZM268.483 158.69L269.962 159.326L270.251 158.654L268.772 158.018L268.483 158.69ZM269.962 159.326C270.573 159.589 271.157 159.671 271.648 159.437L271.332 158.777C271.121 158.877 270.783 158.882 270.251 158.654L269.962 159.326ZM271.672 159.424C272.091 159.183 272.483 158.65 272.784 157.951L272.112 157.661C271.834 158.306 271.524 158.666 271.308 158.789L271.672 159.424ZM272.784 157.951C273.087 157.246 273.187 156.63 273.074 156.164L272.363 156.336C272.422 156.581 272.387 157.022 272.112 157.661L272.784 157.951ZM273.067 156.137C272.9 155.62 272.438 155.253 271.827 154.99L271.538 155.662C272.069 155.891 272.299 156.14 272.371 156.362L273.067 156.137ZM271.827 154.99L270.348 154.354L270.059 155.026L271.538 155.662L271.827 154.99ZM269.867 154.546L268.292 158.209L268.964 158.498L270.54 154.835L269.867 154.546ZM264.88 173.827L257.453 170.633L257.164 171.305L264.591 174.499L264.88 173.827ZM257.453 170.633C257.127 170.492 256.995 170.347 256.945 170.222C256.895 170.097 256.891 169.901 257.031 169.575L256.359 169.286C256.181 169.7 256.114 170.113 256.265 170.493C256.417 170.873 256.75 171.127 257.164 171.305L257.453 170.633ZM257.031 169.575L266.34 147.931L265.668 147.642L256.359 169.286L257.031 169.575ZM266.34 147.931C266.471 147.626 266.617 147.489 266.749 147.434C266.879 147.381 267.08 147.373 267.397 147.51L267.687 146.837C267.265 146.656 266.848 146.602 266.47 146.758C266.094 146.913 265.84 147.241 265.668 147.642L266.34 147.931ZM267.397 147.51L274.086 150.386L274.375 149.714L267.687 146.837L267.397 147.51ZM274.086 150.386C276.617 151.475 278.212 152.637 279.016 153.873L279.629 153.474C278.707 152.057 276.952 150.822 274.375 149.714L274.086 150.386ZM279.016 153.873C279.78 155.048 279.756 156.739 278.792 158.981L279.464 159.27C280.466 156.942 280.591 154.954 279.629 153.474L279.016 153.873ZM278.792 158.981C278.259 160.221 277.609 161.126 276.855 161.722C276.106 162.315 275.237 162.619 274.233 162.631L274.242 163.362C275.4 163.348 276.428 162.994 277.309 162.296C278.185 161.603 278.899 160.585 279.464 159.27L278.792 158.981ZM273.986 163.262C274.771 164.005 275.252 164.946 275.413 166.136L276.138 166.038C275.957 164.692 275.403 163.595 274.489 162.731L273.986 163.262ZM275.413 166.136C275.574 167.326 275.359 168.632 274.772 169.996L275.444 170.286C276.071 168.827 276.32 167.386 276.138 166.038L275.413 166.136ZM274.772 169.996C273.769 172.328 272.444 173.759 270.835 174.381C269.225 175.003 267.25 174.846 264.88 173.827L264.591 174.499C267.062 175.562 269.246 175.779 271.099 175.064C272.953 174.347 274.394 172.726 275.444 170.286L274.772 169.996ZM264.451 168.067L266.366 168.89L266.655 168.218L264.74 167.394L264.451 168.067ZM266.366 168.89C267.04 169.18 267.668 169.284 268.23 168.985L267.885 168.339C267.62 168.481 267.259 168.478 266.655 168.218L266.366 168.89ZM268.25 168.973C268.725 168.68 269.128 168.117 269.486 167.285L268.814 166.996C268.478 167.777 268.15 168.175 267.865 168.351L268.25 168.973ZM269.486 167.285C269.844 166.453 269.975 165.773 269.861 165.227L269.145 165.375C269.213 165.704 269.15 166.215 268.814 166.996L269.486 167.285ZM269.856 165.204C269.691 164.604 269.213 164.181 268.52 163.883L268.231 164.555C268.815 164.806 269.067 165.095 269.15 165.398L269.856 165.204ZM268.52 163.883L266.604 163.059L266.315 163.731L268.231 164.555L268.52 163.883ZM266.124 163.25L264.259 167.586L264.931 167.875L266.796 163.539L266.124 163.25ZM282.63 175.089L282.294 174.944L282.15 175.28L282.486 175.425L282.63 175.089ZM289.608 157.938L282.294 174.944L282.966 175.233L290.28 158.227L289.608 157.938ZM282.486 175.425L286.788 177.275L287.077 176.603L282.775 174.753L282.486 175.425ZM286.788 177.275C287.085 177.403 287.222 177.553 287.277 177.693C287.333 177.832 287.337 178.035 287.209 178.332L287.881 178.621C288.057 178.213 288.108 177.799 287.957 177.422C287.807 177.044 287.486 176.779 287.077 176.603L286.788 177.275ZM287.209 178.332L285.677 181.895L286.349 182.184L287.881 178.621L287.209 178.332ZM285.677 181.895C285.54 182.213 285.39 182.345 285.258 182.396C285.124 182.447 284.925 182.448 284.62 182.316L284.331 182.989C284.731 183.161 285.142 183.225 285.521 183.078C285.902 182.932 286.168 182.605 286.349 182.184L285.677 181.895ZM284.62 182.316L275.209 178.269L274.92 178.941L284.331 182.989L284.62 182.316ZM275.209 178.269C274.883 178.129 274.751 177.984 274.701 177.859C274.652 177.734 274.648 177.538 274.788 177.212L274.116 176.923C273.938 177.336 273.87 177.75 274.022 178.13C274.173 178.509 274.507 178.763 274.92 178.941L275.209 178.269ZM274.788 177.212L284.096 155.568L283.424 155.278L274.116 176.923L274.788 177.212ZM284.096 155.568C284.228 155.262 284.373 155.125 284.505 155.071C284.636 155.017 284.836 155.009 285.154 155.146L285.443 154.474C285.021 154.293 284.604 154.239 284.226 154.394C283.851 154.549 283.596 154.878 283.424 155.278L284.096 155.568ZM285.154 155.146L289.187 156.881L289.476 156.209L285.443 154.474L285.154 155.146ZM289.187 156.881C289.484 157.008 289.621 157.159 289.676 157.298C289.732 157.438 289.736 157.641 289.608 157.938L290.28 158.227C290.456 157.819 290.507 157.405 290.356 157.027C290.206 156.65 289.885 156.384 289.476 156.209L289.187 156.881ZM297.946 177.374L297.634 177.183L297.412 177.543L297.801 177.711L297.946 177.374ZM300.567 178.502L300.423 178.838L300.812 179.005L300.921 178.596L300.567 178.502ZM302.966 169.498L303.32 169.592L303.401 169.286L303.111 169.162L302.966 169.498ZM302.832 169.44L302.976 169.104L302.686 168.979L302.52 169.248L302.832 169.44ZM309.705 166.701L310.06 166.787L310.063 166.779L310.064 166.771L309.705 166.701ZM304.113 189.704L303.757 189.618L303.756 189.622L304.113 189.704ZM303.569 190.506L303.403 190.18L303.569 190.506ZM297.837 187.165L298.191 187.26L298.191 187.258L297.837 187.165ZM298.658 184.053L299.012 184.146L299.092 183.841L298.803 183.717L298.658 184.053ZM295.23 182.578L295.374 182.242L295.085 182.118L294.919 182.386L295.23 182.578ZM293.535 185.314L293.839 185.519L293.843 185.513L293.847 185.507L293.535 185.314ZM287.134 183.438L287.485 183.334L287.134 183.438ZM287.376 182.506L287.68 182.708L287.683 182.705L287.376 182.506ZM300.227 162.625L299.921 162.425L299.92 162.426L300.227 162.625ZM297.801 177.711L300.423 178.838L300.712 178.166L298.09 177.038L297.801 177.711ZM300.921 178.596L303.32 169.592L302.613 169.403L300.214 178.408L300.921 178.596ZM303.111 169.162L302.976 169.104L302.687 169.776L302.822 169.834L303.111 169.162ZM302.52 169.248L297.634 177.183L298.257 177.566L303.143 169.632L302.52 169.248ZM302.135 162.449L308.52 165.196L308.809 164.523L302.424 161.777L302.135 162.449ZM308.52 165.196C308.907 165.362 309.134 165.565 309.255 165.782C309.374 165.997 309.416 166.271 309.346 166.631L310.064 166.771C310.159 166.285 310.117 165.827 309.894 165.426C309.672 165.028 309.297 164.733 308.809 164.523L308.52 165.196ZM309.349 166.614L303.757 189.618L304.468 189.791L310.06 166.787L309.349 166.614ZM303.756 189.622C303.681 189.949 303.535 190.113 303.403 190.18L303.735 190.832C304.113 190.64 304.361 190.257 304.469 189.786L303.756 189.622ZM303.403 190.18C303.276 190.244 303.083 190.257 302.81 190.14L302.521 190.812C302.921 190.984 303.353 191.026 303.735 190.832L303.403 190.18ZM302.81 190.14L298.677 188.362L298.387 189.034L302.521 190.812L302.81 190.14ZM298.677 188.362C298.396 188.241 298.256 188.099 298.19 187.953C298.122 187.803 298.102 187.586 298.191 187.26L297.484 187.069C297.37 187.493 297.361 187.898 297.523 188.255C297.687 188.616 297.996 188.866 298.387 189.034L298.677 188.362ZM298.191 187.258L299.012 184.146L298.304 183.959L297.484 187.071L298.191 187.258ZM298.803 183.717L295.374 182.242L295.085 182.914L298.513 184.389L298.803 183.717ZM294.919 182.386L293.224 185.122L293.847 185.507L295.541 182.771L294.919 182.386ZM293.232 185.11C293.04 185.395 292.858 185.534 292.696 185.59C292.54 185.644 292.348 185.64 292.089 185.529L291.8 186.201C292.18 186.364 292.564 186.409 292.935 186.281C293.298 186.156 293.593 185.882 293.839 185.519L293.232 185.11ZM292.089 185.529L287.955 183.751L287.666 184.423L291.8 186.201L292.089 185.529ZM287.955 183.751C287.643 183.617 287.524 183.466 287.485 183.334L286.784 183.542C286.907 183.957 287.239 184.239 287.666 184.423L287.955 183.751ZM287.485 183.334C287.45 183.216 287.476 183.017 287.68 182.708L287.071 182.304C286.823 182.677 286.656 183.112 286.784 183.542L287.485 183.334ZM287.683 182.705L300.535 162.823L299.92 162.426L287.068 182.307L287.683 182.705ZM300.534 162.825C300.726 162.53 300.948 162.374 301.188 162.315C301.434 162.254 301.747 162.283 302.135 162.449L302.424 161.777C301.937 161.568 301.458 161.495 301.013 161.605C300.562 161.716 300.195 162.004 299.921 162.425L300.534 162.825ZM319.177 191.125L319.264 190.77L319.257 190.768L319.249 190.767L319.177 191.125ZM317.018 196.608L317.094 196.251L317.085 196.249L317.077 196.247L317.018 196.608ZM309.533 193.27L309.776 192.997L309.774 192.994L309.533 193.27ZM307.687 190.246L308.041 190.152L308.039 190.146L307.687 190.246ZM307.727 185.802L308.084 185.882L308.084 185.881L307.727 185.802ZM313.017 173.501L313.319 173.708L313.323 173.701L313.017 173.501ZM316.119 170.455L316.288 170.779L316.119 170.455ZM319.569 169.748L319.535 170.113L319.539 170.113L319.569 169.748ZM327.036 172.76L326.84 173.07L326.845 173.072L327.036 172.76ZM324.56 178.147L324.349 178.446L324.355 178.451L324.362 178.455L324.56 178.147ZM319.219 177.045L319.437 177.339L319.446 177.332L319.219 177.045ZM314.672 186.599L314.313 186.528L314.672 186.599ZM314.938 188.944L315.251 188.754L315.245 188.744L314.938 188.944ZM316.896 190.781C317.656 191.108 318.381 191.338 319.105 191.484L319.249 190.767C318.58 190.632 317.903 190.418 317.185 190.109L316.896 190.781ZM319.09 191.48C319.483 191.577 319.65 191.713 319.713 191.824C319.769 191.921 319.796 192.093 319.661 192.408L320.333 192.698C320.515 192.274 320.565 191.837 320.348 191.459C320.138 191.094 319.736 190.886 319.264 190.77L319.09 191.48ZM319.661 192.408L318.273 195.635L318.945 195.924L320.333 192.698L319.661 192.408ZM318.273 195.635C318.147 195.928 317.983 196.1 317.806 196.191C317.629 196.283 317.396 196.315 317.094 196.251L316.942 196.966C317.37 197.057 317.781 197.027 318.141 196.842C318.501 196.656 318.768 196.336 318.945 195.924L318.273 195.635ZM317.077 196.247C315.925 196.06 314.735 195.666 313.542 195.153L313.253 195.825C314.48 196.353 315.729 196.77 316.959 196.97L317.077 196.247ZM313.542 195.153C311.871 194.435 310.595 193.726 309.776 192.997L309.29 193.543C310.198 194.353 311.562 195.099 313.253 195.825L313.542 195.153ZM309.774 192.994C308.933 192.26 308.358 191.343 308.041 190.152L307.334 190.34C307.686 191.667 308.338 192.711 309.292 193.545L309.774 192.994ZM308.039 190.146C307.711 188.995 307.702 187.584 308.084 185.882L307.37 185.722C306.969 187.507 306.965 189.046 307.335 190.346L308.039 190.146ZM308.084 185.881C308.453 184.205 309.205 182.088 310.3 179.541L309.628 179.252C308.526 181.814 307.754 183.981 307.369 185.724L308.084 185.881ZM310.3 179.541C311.366 177.062 312.371 175.095 313.319 173.708L312.715 173.295C311.728 174.74 310.701 176.757 309.628 179.252L310.3 179.541ZM313.323 173.701C314.235 172.305 315.231 171.331 316.288 170.779L315.95 170.131C314.748 170.758 313.667 171.837 312.711 173.301L313.323 173.701ZM316.288 170.779C317.359 170.221 318.423 170.008 319.535 170.113L319.604 169.384C318.343 169.265 317.139 169.51 315.95 170.131L316.288 170.779ZM319.539 170.113C320.636 170.206 322.012 170.6 323.675 171.315L323.964 170.643C322.266 169.912 320.808 169.486 319.6 169.384L319.539 170.113ZM323.675 171.315C324.622 171.722 325.653 172.321 326.84 173.07L327.231 172.451C326.037 171.698 324.966 171.074 323.964 170.643L323.675 171.315ZM326.845 173.072C327.12 173.241 327.26 173.425 327.316 173.611C327.373 173.798 327.361 174.041 327.226 174.355L327.898 174.644C328.081 174.22 328.137 173.795 328.016 173.398C327.896 173 327.613 172.684 327.226 172.448L326.845 173.072ZM327.226 174.355L325.824 177.615L326.496 177.905L327.898 174.644L327.226 174.355ZM325.824 177.615C325.688 177.931 325.545 178.029 325.435 178.056C325.312 178.086 325.098 178.058 324.757 177.839L324.362 178.455C324.77 178.717 325.197 178.866 325.607 178.767C326.031 178.664 326.314 178.328 326.496 177.905L325.824 177.615ZM324.77 177.848C324.168 177.424 323.502 177.055 322.808 176.757L322.519 177.429C323.169 177.708 323.79 178.052 324.349 178.446L324.77 177.848ZM322.808 176.757C321.257 176.089 319.938 176.011 318.992 176.758L319.446 177.332C320.068 176.841 321.045 176.795 322.519 177.429L322.808 176.757ZM319.002 176.751C318.53 177.099 318.053 177.729 317.556 178.581C317.053 179.443 316.508 180.571 315.912 181.955L316.585 182.244C317.175 180.873 317.706 179.775 318.188 178.95C318.675 178.115 319.09 177.595 319.436 177.339L319.002 176.751ZM315.912 181.955C315.058 183.943 314.524 185.461 314.313 186.528L315.031 186.67C315.226 185.682 315.734 184.223 316.585 182.244L315.912 181.955ZM314.313 186.528C314.099 187.61 314.201 188.482 314.631 189.143L315.245 188.744C314.956 188.3 314.839 187.644 315.031 186.67L314.313 186.528ZM314.625 189.133C315.012 189.772 315.802 190.311 316.896 190.781L317.185 190.109C316.127 189.654 315.516 189.192 315.251 188.754L314.625 189.133ZM333.229 184.584L332.893 184.439L333.481 184.849L333.229 184.584ZM339.01 179.105L339.262 179.371L339.269 179.364L339.01 179.105ZM345.656 181.246L346.021 181.225L346.021 181.225L345.656 181.246ZM345.184 182.158L344.948 181.879L344.941 181.885L344.935 181.891L345.184 182.158ZM337.282 189.513L337.033 189.245L336.924 189.346L336.917 189.494L337.282 189.513ZM336.577 203.467L336.943 203.488L336.943 203.486L336.577 203.467ZM336.206 204.423L336.442 204.702L336.206 204.423ZM330.047 201.057L330.411 201.099L330.412 201.09L330.412 201.08L330.047 201.057ZM330.728 190.398L331.093 190.421L330.392 190.253L330.728 190.398ZM333.481 184.849L339.262 179.371L338.759 178.839L332.977 184.318L333.481 184.849ZM339.269 179.364C339.515 179.118 339.743 178.987 339.957 178.936C340.167 178.887 340.4 178.906 340.677 179.025L340.966 178.353C340.571 178.183 340.178 178.132 339.789 178.224C339.406 178.314 339.063 178.535 338.752 178.846L339.269 179.364ZM340.677 179.025L344.845 180.818L345.134 180.146L340.966 178.353L340.677 179.025ZM344.845 180.818C345.186 180.965 345.283 181.138 345.291 181.267L346.021 181.225C345.991 180.701 345.599 180.346 345.134 180.146L344.845 180.818ZM345.291 181.267C345.301 181.44 345.208 181.659 344.948 181.879L345.42 182.438C345.785 182.13 346.049 181.706 346.021 181.225L345.291 181.267ZM344.935 181.891L337.033 189.245L337.531 189.781L345.433 182.426L344.935 181.891ZM336.917 189.494L336.212 203.449L336.943 203.486L337.647 189.531L336.917 189.494ZM336.212 203.446C336.189 203.84 336.104 204.03 335.97 204.143L336.442 204.702C336.808 204.393 336.916 203.949 336.943 203.488L336.212 203.446ZM335.97 204.143C335.863 204.234 335.697 204.284 335.371 204.143L335.082 204.815C335.561 205.022 336.05 205.034 336.442 204.702L335.97 204.143ZM335.371 204.143L331.136 202.322L330.847 202.994L335.082 204.815L335.371 204.143ZM331.136 202.322C330.837 202.193 330.647 202.028 330.536 201.841C330.426 201.656 330.374 201.416 330.411 201.099L329.684 201.015C329.633 201.457 329.7 201.865 329.907 202.215C330.114 202.564 330.44 202.819 330.847 202.994L331.136 202.322ZM330.412 201.08L331.093 190.421L330.363 190.375L329.682 201.034L330.412 201.08ZM330.392 190.253L326.446 199.429L327.118 199.718L331.064 190.543L330.392 190.253ZM326.446 199.429C326.31 199.747 326.159 199.879 326.027 199.929C325.894 199.981 325.694 199.981 325.389 199.85L325.1 200.522C325.5 200.695 325.911 200.758 326.29 200.612C326.672 200.465 326.937 200.139 327.118 199.718L326.446 199.429ZM325.389 199.85L321.356 198.116L321.067 198.788L325.1 200.522L325.389 199.85ZM321.356 198.116C321.03 197.975 320.898 197.83 320.848 197.705C320.798 197.58 320.794 197.384 320.934 197.058L320.262 196.769C320.084 197.183 320.017 197.596 320.168 197.976C320.32 198.356 320.653 198.61 321.067 198.788L321.356 198.116ZM320.934 197.058L330.243 175.414L329.571 175.125L320.262 196.769L320.934 197.058ZM330.243 175.414C330.374 175.109 330.519 174.972 330.652 174.917C330.782 174.864 330.982 174.856 331.3 174.993L331.589 174.32C331.168 174.139 330.751 174.085 330.373 174.241C329.997 174.396 329.743 174.724 329.571 175.125L330.243 175.414ZM331.3 174.993L335.333 176.727L335.623 176.055L331.589 174.32L331.3 174.993ZM335.333 176.727C335.631 176.855 335.768 177.005 335.823 177.145C335.879 177.284 335.883 177.487 335.755 177.785L336.427 178.074C336.603 177.665 336.653 177.251 336.503 176.874C336.352 176.496 336.031 176.231 335.623 176.055L335.333 176.727ZM335.755 177.785L332.893 184.439L333.565 184.728L336.427 178.074L335.755 177.785ZM353.083 202.083L353.227 201.747L352.891 201.602L352.747 201.939L353.083 202.083ZM357.231 192.437L357.376 192.101L357.04 191.957L356.895 192.293L357.231 192.437ZM355.511 196.437L355.175 196.292L355.031 196.628L355.367 196.773L355.511 196.437ZM358.202 203.886L353.227 201.747L352.938 202.419L357.912 204.558L358.202 203.886ZM352.747 201.939L349.581 209.299L350.253 209.588L353.419 202.228L352.747 201.939ZM349.581 209.299C349.439 209.63 349.274 209.778 349.121 209.837C348.967 209.896 348.746 209.895 348.428 209.759L348.139 210.431C348.56 210.612 348.99 210.672 349.385 210.519C349.781 210.366 350.063 210.03 350.253 209.588L349.581 209.299ZM348.428 209.759L344.529 208.082L344.24 208.754L348.139 210.431L348.428 209.759ZM344.529 208.082C344.191 207.936 344.042 207.776 343.984 207.631C343.926 207.485 343.924 207.267 344.069 206.928L343.397 206.639C343.21 207.074 343.147 207.507 343.305 207.902C343.462 208.296 343.806 208.567 344.24 208.754L344.529 208.082ZM344.069 206.928L353.32 185.419L352.648 185.13L343.397 206.639L344.069 206.928ZM353.32 185.419C353.457 185.101 353.617 184.948 353.77 184.885C353.921 184.823 354.143 184.817 354.474 184.959L354.763 184.287C354.321 184.097 353.885 184.046 353.491 184.208C353.1 184.369 352.829 184.708 352.648 185.13L353.32 185.419ZM354.474 184.959L364.691 189.353L364.98 188.681L354.763 184.287L354.474 184.959ZM364.691 189.353C364.988 189.481 365.125 189.631 365.181 189.771C365.236 189.91 365.24 190.113 365.112 190.41L365.784 190.7C365.96 190.291 366.011 189.877 365.86 189.5C365.71 189.122 365.389 188.857 364.98 188.681L364.691 189.353ZM365.112 190.41L363.609 193.906L364.281 194.195L365.784 190.7L365.112 190.41ZM363.609 193.906C363.472 194.224 363.322 194.356 363.19 194.406C363.056 194.458 362.857 194.458 362.552 194.327L362.263 194.999C362.663 195.172 363.074 195.235 363.453 195.089C363.834 194.942 364.1 194.616 364.281 194.195L363.609 193.906ZM362.552 194.327L357.376 192.101L357.087 192.773L362.263 194.999L362.552 194.327ZM356.895 192.293L355.175 196.292L355.847 196.581L357.567 192.582L356.895 192.293ZM355.367 196.773L360.341 198.912L360.63 198.24L355.656 196.101L355.367 196.773ZM360.341 198.912C360.638 199.04 360.775 199.19 360.83 199.33C360.886 199.469 360.89 199.672 360.762 199.969L361.434 200.259C361.61 199.85 361.661 199.436 361.51 199.059C361.36 198.681 361.039 198.416 360.63 198.24L360.341 198.912ZM360.762 199.969L359.259 203.465L359.931 203.754L361.434 200.259L360.762 199.969ZM359.259 203.465C359.122 203.783 358.972 203.915 358.84 203.966C358.706 204.017 358.507 204.017 358.202 203.886L357.912 204.558C358.313 204.731 358.723 204.794 359.103 204.648C359.484 204.501 359.75 204.175 359.931 203.754L359.259 203.465ZM368.932 204.479L368.596 204.334L368.451 204.67L368.787 204.815L368.932 204.479ZM371.847 205.016L372.046 205.322L371.847 205.016ZM373.885 200.277L373.525 200.343L373.885 200.277ZM371.505 198.496L371.649 198.16L371.313 198.016L371.169 198.352L371.505 198.496ZM380.57 197.975L380.908 197.834L380.57 197.975ZM373.189 211.248L373.17 210.883L372.817 210.901L372.823 211.254L373.189 211.248ZM373.323 219.271L373.689 219.266L373.689 219.264L373.323 219.271ZM367.07 217.975L366.763 218.175L366.763 218.175L367.07 217.975ZM366.865 216.971L367.229 217.002L367.23 216.99L367.23 216.979L366.865 216.971ZM367.013 209.866L367.379 209.874L367.384 209.627L367.158 209.53L367.013 209.866ZM366.677 209.722L366.821 209.386L366.485 209.241L366.341 209.577L366.677 209.722ZM368.787 204.815L369.728 205.219L370.017 204.547L369.076 204.143L368.787 204.815ZM369.728 205.219C370.626 205.606 371.441 205.716 372.046 205.322L371.648 204.709C371.368 204.891 370.867 204.913 370.017 204.547L369.728 205.219ZM372.046 205.322C372.331 205.137 372.595 204.828 372.845 204.441C373.099 204.048 373.355 203.547 373.613 202.947L372.941 202.658C372.692 203.235 372.455 203.697 372.231 204.044C372.003 204.397 371.806 204.606 371.648 204.709L372.046 205.322ZM373.613 202.947C373.863 202.364 374.047 201.842 374.157 201.392C374.264 200.948 374.306 200.544 374.245 200.211L373.525 200.343C373.559 200.529 373.543 200.816 373.445 201.22C373.349 201.617 373.181 202.098 372.941 202.658L373.613 202.947ZM374.245 200.211C374.116 199.511 373.505 198.958 372.59 198.565L372.301 199.237C373.134 199.595 373.463 200.005 373.525 200.343L374.245 200.211ZM372.59 198.565L371.649 198.16L371.36 198.832L372.301 199.237L372.59 198.565ZM371.169 198.352L368.596 204.334L369.268 204.623L371.841 198.641L371.169 198.352ZM368.651 191.056L374.701 193.658L374.99 192.986L368.94 190.384L368.651 191.056ZM374.701 193.658C377.764 194.975 379.564 196.503 380.232 198.115L380.908 197.834C380.13 195.956 378.11 194.328 374.99 192.986L374.701 193.658ZM380.232 198.115C380.896 199.716 380.619 202.122 379.225 205.361L379.898 205.65C381.309 202.37 381.691 199.723 380.908 197.834L380.232 198.115ZM379.225 205.361C377.659 209.002 375.614 210.757 373.17 210.883L373.208 211.613C376.058 211.467 378.284 209.403 379.898 205.65L379.225 205.361ZM372.823 211.254L372.957 219.277L373.689 219.264L373.555 211.242L372.823 211.254ZM372.957 219.275C372.963 219.802 372.854 219.996 372.784 220.052C372.739 220.089 372.593 220.151 372.184 219.975L371.894 220.648C372.359 220.847 372.862 220.93 373.243 220.622C373.599 220.335 373.695 219.82 373.689 219.266L372.957 219.275ZM372.184 219.975L368.083 218.212L367.794 218.884L371.894 220.648L372.184 219.975ZM368.083 218.212C367.637 218.02 367.452 217.892 367.377 217.776L366.763 218.175C366.975 218.501 367.367 218.7 367.794 218.884L368.083 218.212ZM367.377 217.776C367.282 217.631 367.196 217.392 367.229 217.002L366.5 216.94C366.455 217.472 366.57 217.877 366.763 218.175L367.377 217.776ZM367.23 216.979L367.379 209.874L366.647 209.859L366.499 216.963L367.23 216.979ZM367.158 209.53L366.821 209.386L366.532 210.058L366.868 210.202L367.158 209.53ZM366.341 209.577L363.797 215.492L364.469 215.781L367.013 209.866L366.341 209.577ZM363.797 215.492C363.66 215.81 363.509 215.942 363.378 215.993C363.244 216.044 363.045 216.045 362.739 215.914L362.45 216.586C362.851 216.758 363.261 216.822 363.641 216.676C364.022 216.529 364.288 216.203 364.469 215.781L363.797 215.492ZM362.739 215.914L358.706 214.179L358.417 214.851L362.45 216.586L362.739 215.914ZM358.706 214.179C358.38 214.039 358.248 213.894 358.199 213.769C358.149 213.644 358.145 213.448 358.285 213.122L357.613 212.833C357.435 213.246 357.368 213.66 357.519 214.04C357.67 214.419 358.004 214.673 358.417 214.851L358.706 214.179ZM358.285 213.122L367.594 191.478L366.921 191.188L357.613 212.833L358.285 213.122ZM367.594 191.478C367.725 191.172 367.87 191.035 368.002 190.981C368.133 190.927 368.333 190.919 368.651 191.056L368.94 190.384C368.519 190.203 368.102 190.149 367.724 190.304C367.348 190.459 367.094 190.788 366.921 191.188L367.594 191.478ZM375.815 220.661L385.123 199.017L384.451 198.728L375.142 220.372L375.815 220.661ZM385.123 199.017C385.254 198.712 385.4 198.575 385.532 198.52C385.662 198.466 385.863 198.459 386.181 198.595L386.47 197.923C386.048 197.742 385.631 197.688 385.253 197.843C384.877 197.998 384.623 198.327 384.451 198.728L385.123 199.017ZM386.181 198.595L390.214 200.33L390.503 199.658L386.47 197.923L386.181 198.595ZM390.214 200.33C390.511 200.458 390.648 200.608 390.703 200.747C390.759 200.887 390.763 201.09 390.635 201.387L391.307 201.676C391.483 201.268 391.533 200.854 391.383 200.476C391.233 200.099 390.911 199.833 390.503 199.658L390.214 200.33ZM390.635 201.387L381.327 223.031L381.999 223.32L391.307 201.676L390.635 201.387ZM381.327 223.031C381.19 223.349 381.039 223.481 380.908 223.532C380.774 223.583 380.574 223.584 380.269 223.453L379.98 224.125C380.381 224.297 380.791 224.361 381.17 224.215C381.552 224.068 381.817 223.742 381.999 223.32L381.327 223.031ZM380.269 223.453L376.236 221.718L375.947 222.39L379.98 224.125L380.269 223.453ZM376.236 221.718C375.91 221.578 375.778 221.433 375.728 221.308C375.679 221.183 375.674 220.987 375.815 220.661L375.142 220.372C374.965 220.785 374.897 221.199 375.049 221.579C375.2 221.959 375.534 222.213 375.947 222.39L376.236 221.718ZM404.419 206.718L404.665 206.447L404.419 206.718ZM406.365 209.785L406.717 209.685L406.715 209.678L406.713 209.671L406.365 209.785ZM406.437 214.157L406.078 214.087L406.437 214.157ZM400.406 226.976L400.676 227.222L400.406 226.976ZM396.089 229.42L396.052 229.056L396.049 229.056L396.089 229.42ZM397.762 209.789L397.906 209.453L397.57 209.308L397.426 209.644L397.762 209.789ZM392.327 222.426L391.991 222.281L391.846 222.617L392.182 222.762L392.327 222.426ZM395.469 222.343L395.214 222.08L395.469 222.343ZM399.635 213.303L399.992 213.386L399.993 213.378L399.995 213.371L399.635 213.303ZM399.609 211.141L399.277 211.294L399.277 211.294L399.609 211.141ZM390.744 227.958L384.963 225.472L384.674 226.144L390.455 228.63L390.744 227.958ZM384.963 225.472C384.637 225.331 384.505 225.186 384.456 225.061C384.406 224.936 384.402 224.74 384.542 224.414L383.87 224.125C383.692 224.539 383.625 224.952 383.776 225.332C383.927 225.712 384.261 225.966 384.674 226.144L384.963 225.472ZM384.542 224.414L393.851 202.77L393.178 202.481L383.87 224.125L384.542 224.414ZM393.851 202.77C393.982 202.465 394.127 202.328 394.259 202.273C394.39 202.22 394.59 202.212 394.908 202.349L395.197 201.676C394.776 201.495 394.359 201.441 393.981 201.597C393.605 201.752 393.351 202.08 393.178 202.481L393.851 202.77ZM394.908 202.349L400.554 204.777L400.843 204.105L395.197 201.676L394.908 202.349ZM400.554 204.777C402.106 205.444 403.293 206.19 404.173 206.989L404.665 206.447C403.711 205.581 402.45 204.796 400.843 204.105L400.554 204.777ZM404.173 206.989C405.038 207.774 405.638 208.747 406.018 209.9L406.713 209.671C406.298 208.411 405.633 207.326 404.665 206.447L404.173 206.989ZM406.014 209.885C406.344 211.046 406.398 212.442 406.078 214.087L406.796 214.227C407.133 212.491 407.085 210.976 406.717 209.685L406.014 209.885ZM406.078 214.087C405.755 215.743 405.11 217.705 404.119 220.01L404.791 220.299C405.794 217.966 406.46 215.952 406.796 214.227L406.078 214.087ZM404.119 220.01C402.797 223.082 401.454 225.283 400.136 226.729L400.676 227.222C402.071 225.693 403.452 223.411 404.791 220.299L404.119 220.01ZM400.136 226.729C398.823 228.169 397.439 228.916 396.052 229.056L396.126 229.784C397.737 229.621 399.276 228.757 400.676 227.222L400.136 226.729ZM396.049 229.056C394.59 229.218 392.832 228.856 390.744 227.958L390.455 228.63C392.602 229.553 394.494 229.964 396.129 229.784L396.049 229.056ZM398.444 209.684L397.906 209.453L397.617 210.125L398.155 210.356L398.444 209.684ZM397.426 209.644L391.991 222.281L392.663 222.57L398.098 209.933L397.426 209.644ZM392.182 222.762L392.854 223.051L393.143 222.379L392.471 222.09L392.182 222.762ZM392.854 223.051C393.373 223.274 393.888 223.364 394.384 223.291C394.882 223.218 395.333 222.984 395.723 222.606L395.214 222.08C394.921 222.364 394.608 222.519 394.278 222.567C393.944 222.616 393.566 222.561 393.143 222.379L392.854 223.051ZM395.723 222.606C396.105 222.236 396.519 221.629 396.973 220.809C397.43 219.982 397.94 218.913 398.506 217.596L397.834 217.307C397.273 218.612 396.773 219.657 396.332 220.455C395.888 221.26 395.515 221.788 395.214 222.08L395.723 222.606ZM398.506 217.596C399.262 215.838 399.748 214.429 399.992 213.386L399.279 213.22C399.049 214.203 398.581 215.569 397.834 217.307L398.506 217.596ZM399.995 213.371C400.185 212.367 400.199 211.546 399.942 210.988L399.277 211.294C399.432 211.63 399.463 212.25 399.276 213.235L399.995 213.371ZM399.942 210.988C399.686 210.433 399.168 209.995 398.444 209.684L398.155 210.356C398.775 210.623 399.121 210.955 399.277 211.294L399.942 210.988ZM411.475 226.2L411.163 226.008L410.941 226.369L411.33 226.536L411.475 226.2ZM414.096 227.328L413.952 227.664L414.341 227.831L414.45 227.422L414.096 227.328ZM416.495 218.323L416.849 218.418L416.93 218.112L416.64 217.987L416.495 218.323ZM416.361 218.266L416.505 217.929L416.215 217.805L416.049 218.074L416.361 218.266ZM423.234 215.526L423.589 215.613L423.591 215.605L423.593 215.596L423.234 215.526ZM417.642 238.53L417.286 238.444L417.285 238.448L417.642 238.53ZM417.098 239.332L416.932 239.005L417.098 239.332ZM411.366 235.99L411.719 236.086L411.72 236.084L411.366 235.99ZM412.187 232.878L412.54 232.972L412.621 232.667L412.331 232.542L412.187 232.878ZM408.759 231.404L408.903 231.068L408.614 230.944L408.448 231.212L408.759 231.404ZM407.064 234.14L407.367 234.345L407.371 234.339L407.375 234.333L407.064 234.14ZM400.663 232.263L401.014 232.159L400.663 232.263ZM400.904 231.332L401.209 231.534L401.212 231.53L400.904 231.332ZM413.756 211.45L413.45 211.25L413.449 211.252L413.756 211.45ZM411.33 226.536L413.952 227.664L414.241 226.992L411.619 225.864L411.33 226.536ZM414.45 227.422L416.849 218.418L416.142 218.229L413.743 227.233L414.45 227.422ZM416.64 217.987L416.505 217.929L416.216 218.602L416.35 218.659L416.64 217.987ZM416.049 218.074L411.163 226.008L411.786 226.392L416.672 218.457L416.049 218.074ZM415.663 211.275L422.049 214.021L422.338 213.349L415.952 210.603L415.663 211.275ZM422.049 214.021C422.436 214.188 422.662 214.39 422.783 214.608C422.903 214.823 422.945 215.097 422.875 215.457L423.593 215.596C423.687 215.111 423.646 214.652 423.423 214.252C423.201 213.854 422.825 213.559 422.338 213.349L422.049 214.021ZM422.878 215.44L417.286 238.444L417.997 238.616L423.589 215.613L422.878 215.44ZM417.285 238.448C417.21 238.774 417.063 238.939 416.932 239.005L417.263 239.658C417.642 239.466 417.89 239.083 417.998 238.612L417.285 238.448ZM416.932 239.005C416.805 239.07 416.612 239.083 416.339 238.966L416.05 239.638C416.449 239.809 416.881 239.852 417.263 239.658L416.932 239.005ZM416.339 238.966L412.205 237.188L411.916 237.86L416.05 239.638L416.339 238.966ZM412.205 237.188C411.925 237.067 411.785 236.925 411.718 236.778C411.651 236.629 411.631 236.411 411.719 236.086L411.013 235.895C410.898 236.318 410.89 236.723 411.052 237.081C411.216 237.442 411.525 237.691 411.916 237.86L412.205 237.188ZM411.72 236.084L412.54 232.972L411.833 232.785L411.012 235.897L411.72 236.084ZM412.331 232.542L408.903 231.068L408.614 231.74L412.042 233.215L412.331 232.542ZM408.448 231.212L406.753 233.948L407.375 234.333L409.07 231.597L408.448 231.212ZM406.761 233.935C406.568 234.22 406.387 234.359 406.224 234.416C406.069 234.47 405.876 234.466 405.618 234.355L405.329 235.027C405.709 235.19 406.093 235.235 406.463 235.107C406.827 234.982 407.122 234.708 407.367 234.345L406.761 233.935ZM405.618 234.355L401.484 232.577L401.195 233.249L405.329 235.027L405.618 234.355ZM401.484 232.577C401.172 232.442 401.053 232.292 401.014 232.159L400.312 232.368C400.435 232.783 400.768 233.065 401.195 233.249L401.484 232.577ZM401.014 232.159C400.979 232.041 401.004 231.843 401.209 231.534L400.599 231.129C400.352 231.502 400.185 231.938 400.312 232.368L401.014 232.159ZM401.212 231.53L414.063 211.649L413.449 211.252L400.597 231.133L401.212 231.53ZM414.062 211.65C414.255 211.356 414.477 211.2 414.717 211.141C414.963 211.08 415.276 211.108 415.663 211.275L415.952 210.603C415.466 210.394 414.986 210.32 414.541 210.43C414.091 210.542 413.724 210.83 413.45 211.25L414.062 211.65ZM430.697 234.945L430.433 234.692L430.387 234.74L430.361 234.801L430.697 234.945ZM424.513 232.286L424.849 232.43L424.875 232.369L424.878 232.303L424.513 232.286ZM425.263 216.559L425.628 216.576L425.63 216.539L425.625 216.503L425.263 216.559ZM425.591 215.704L425.839 215.972L425.839 215.972L425.591 215.704ZM431.88 219.046L432.24 219.11L432.241 219.104L431.88 219.046ZM430.888 224.593L431.241 224.69L431.245 224.674L431.248 224.657L430.888 224.593ZM429.98 227.906L429.628 227.81L429.544 228.117L429.836 228.243L429.98 227.906ZM430.115 227.964L429.97 228.3L430.263 228.426L430.428 228.154L430.115 227.964ZM431.896 225.027L431.602 224.809L431.592 224.823L431.583 224.837L431.896 225.027ZM435.24 220.491L435.535 220.708L435.542 220.699L435.24 220.491ZM441.958 222.743L441.592 222.748L441.592 222.748L441.958 222.743ZM441.597 223.583L441.361 223.304L441.346 223.316L441.333 223.33L441.597 223.583ZM430.361 234.801L426.978 242.665L427.651 242.954L431.033 235.09L430.361 234.801ZM426.978 242.665C426.842 242.983 426.691 243.115 426.56 243.166C426.426 243.217 426.226 243.218 425.921 243.086L425.632 243.759C426.033 243.931 426.443 243.995 426.822 243.849C427.204 243.702 427.469 243.376 427.651 242.954L426.978 242.665ZM425.921 243.086L421.888 241.352L421.599 242.024L425.632 243.759L425.921 243.086ZM421.888 241.352C421.562 241.212 421.43 241.066 421.38 240.942C421.331 240.817 421.326 240.62 421.467 240.295L420.794 240.005C420.617 240.419 420.549 240.833 420.701 241.212C420.852 241.592 421.185 241.846 421.599 242.024L421.888 241.352ZM421.467 240.295L424.849 232.43L424.177 232.141L420.794 240.005L421.467 240.295ZM424.878 232.303L425.628 216.576L424.898 216.541L424.147 232.268L424.878 232.303ZM425.625 216.503C425.607 216.39 425.619 216.303 425.648 216.229C425.679 216.152 425.736 216.068 425.839 215.972L425.342 215.435C425.181 215.585 425.048 215.757 424.968 215.961C424.886 216.168 424.866 216.386 424.901 216.614L425.625 216.503ZM425.839 215.972C425.962 215.859 426.167 215.792 426.556 215.96L426.845 215.287C426.294 215.05 425.749 215.059 425.342 215.435L425.839 215.972ZM426.556 215.96L430.791 217.781L431.08 217.109L426.845 215.287L426.556 215.96ZM430.791 217.781C431.111 217.919 431.307 218.089 431.416 218.272C431.522 218.452 431.568 218.682 431.519 218.987L432.241 219.104C432.312 218.664 432.255 218.253 432.045 217.899C431.836 217.547 431.499 217.289 431.08 217.109L430.791 217.781ZM431.519 218.981L430.528 224.529L431.248 224.657L432.24 219.11L431.519 218.981ZM430.535 224.496L429.628 227.81L430.333 228.003L431.241 224.69L430.535 224.496ZM429.836 228.243L429.97 228.3L430.259 227.628L430.125 227.57L429.836 228.243ZM430.428 228.154L432.209 225.216L431.583 224.837L429.802 227.775L430.428 228.154ZM432.19 225.244L435.535 220.708L434.946 220.274L431.602 224.809L432.19 225.244ZM435.542 220.699C435.711 220.453 435.898 220.33 436.096 220.285C436.301 220.239 436.567 220.265 436.908 220.412L437.197 219.739C436.764 219.553 436.336 219.481 435.934 219.571C435.526 219.664 435.193 219.915 434.939 220.283L435.542 220.699ZM436.908 220.412L441.142 222.233L441.431 221.561L437.197 219.739L436.908 220.412ZM441.142 222.233C441.491 222.383 441.59 222.575 441.592 222.748L442.324 222.739C442.318 222.191 441.956 221.786 441.431 221.561L441.142 222.233ZM441.592 222.748C441.596 223.011 441.518 223.171 441.361 223.304L441.833 223.863C442.176 223.574 442.33 223.196 442.324 222.739L441.592 222.748ZM441.333 223.33L430.433 234.692L430.961 235.198L441.861 223.837L441.333 223.33ZM464.457 233.096L464.108 232.986L464.107 232.989L464.457 233.096ZM461.148 243.939L461.495 244.056L461.498 244.046L461.148 243.939ZM459.566 248.635L459.219 248.519L459.112 248.838L459.421 248.971L459.566 248.635ZM459.633 248.664L459.489 249L459.792 249.131L459.953 248.843L459.633 248.664ZM462.055 244.329L461.741 244.142L461.736 244.151L462.055 244.329ZM467.885 234.571L467.574 234.378L467.571 234.383L467.885 234.571ZM474.574 236.611L474.224 236.715L474.224 236.715L474.574 236.611ZM474.381 237.524L474.08 237.316L474.073 237.326L474.381 237.524ZM461.702 257.28L462.007 257.484L462.01 257.478L461.702 257.28ZM453.367 253.696L453.016 253.594L453.014 253.602L453.367 253.696ZM454.979 248.096L454.63 247.987L454.627 247.995L454.979 248.096ZM456.764 242.372L457.113 242.481L457.211 242.167L456.908 242.036L456.764 242.372ZM456.696 242.343L456.841 242.007L456.538 241.877L456.377 242.165L456.696 242.343ZM453.769 247.576L454.084 247.762L454.088 247.755L453.769 247.576ZM450.813 252.597L451.117 252.8L451.123 252.792L451.128 252.783L450.813 252.597ZM442.478 249.012L442.832 249.106L442.833 249.1L442.478 249.012ZM448.099 226.22L448.454 226.308L448.457 226.296L448.099 226.22ZM448.595 225.438L448.76 225.764L448.76 225.764L448.595 225.438ZM454.71 228.904L455.063 229.003L455.066 228.992L455.068 228.98L454.71 228.904ZM451.636 239.849L451.986 239.958L451.989 239.948L451.636 239.849ZM450.156 244.588L449.806 244.479L449.708 244.794L450.011 244.924L450.156 244.588ZM450.223 244.617L450.078 244.953L450.388 245.086L450.546 244.788L450.223 244.617ZM452.544 240.239L452.225 240.058L452.221 240.068L452.544 240.239ZM458.138 230.379L458.457 230.559L458.458 230.556L458.138 230.379ZM459.585 230.164L463.618 231.899L463.907 231.227L459.874 229.492L459.585 230.164ZM463.618 231.899C463.892 232.017 464.041 232.169 464.111 232.326C464.183 232.483 464.199 232.698 464.108 232.986L464.806 233.207C464.936 232.794 464.942 232.386 464.778 232.024C464.614 231.662 464.305 231.398 463.907 231.227L463.618 231.899ZM464.107 232.989L460.798 243.832L461.498 244.046L464.807 233.203L464.107 232.989ZM460.801 243.822L459.219 248.519L459.913 248.752L461.494 244.056L460.801 243.822ZM459.421 248.971L459.489 249L459.778 248.328L459.711 248.299L459.421 248.971ZM459.953 248.843L462.374 244.508L461.736 244.151L459.314 248.486L459.953 248.843ZM462.369 244.517L468.199 234.758L467.571 234.383L461.741 244.142L462.369 244.517ZM468.196 234.763C468.363 234.494 468.535 234.354 468.698 234.295C468.856 234.239 469.058 234.239 469.331 234.356L469.62 233.684C469.221 233.512 468.823 233.473 468.451 233.607C468.084 233.738 467.797 234.019 467.574 234.378L468.196 234.763ZM469.331 234.356L473.801 236.279L474.09 235.606L469.62 233.684L469.331 234.356ZM473.801 236.279C474.045 236.383 474.175 236.552 474.224 236.715L474.925 236.507C474.811 236.122 474.519 235.791 474.09 235.606L473.801 236.279ZM474.224 236.715C474.267 236.861 474.243 237.079 474.08 237.316L474.682 237.731C474.942 237.354 475.044 236.909 474.925 236.507L474.224 236.715ZM474.073 237.326L461.394 257.083L462.01 257.478L474.689 237.721L474.073 237.326ZM461.398 257.077C461.145 257.456 460.897 257.656 460.661 257.74C460.433 257.822 460.164 257.813 459.824 257.667L459.534 258.339C460.001 258.54 460.465 258.587 460.907 258.43C461.341 258.274 461.702 257.94 462.007 257.484L461.398 257.077ZM459.824 257.667L454.379 255.325L454.09 255.998L459.534 258.339L459.824 257.667ZM454.379 255.325C454.037 255.179 453.837 254.984 453.736 254.76C453.633 254.532 453.607 254.218 453.721 253.789L453.014 253.602C452.872 254.138 452.876 254.634 453.069 255.061C453.263 255.491 453.625 255.798 454.09 255.998L454.379 255.325ZM453.719 253.797L455.331 248.198L454.627 247.995L453.016 253.594L453.719 253.797ZM455.328 248.205L457.113 242.481L456.414 242.263L454.63 247.987L455.328 248.205ZM456.908 242.036L456.841 242.007L456.552 242.68L456.619 242.708L456.908 242.036ZM456.377 242.165L453.45 247.397L454.088 247.755L457.016 242.522L456.377 242.165ZM453.454 247.39L450.498 252.412L451.128 252.783L454.084 247.762L453.454 247.39ZM450.509 252.394C450.256 252.773 450.007 252.973 449.772 253.057C449.543 253.139 449.274 253.13 448.934 252.984L448.645 253.656C449.112 253.857 449.575 253.904 450.018 253.746C450.452 253.591 450.812 253.257 451.117 252.8L450.509 252.394ZM448.934 252.984L443.49 250.642L443.201 251.314L448.645 253.656L448.934 252.984ZM443.49 250.642C443.148 250.495 442.948 250.301 442.847 250.077C442.744 249.848 442.718 249.535 442.832 249.106L442.124 248.919C441.982 249.455 441.987 249.951 442.18 250.378C442.374 250.808 442.735 251.114 443.201 251.314L443.49 250.642ZM442.833 249.1L448.454 226.308L447.744 226.133L442.123 248.925L442.833 249.1ZM448.457 226.296C448.524 225.979 448.648 225.821 448.76 225.764L448.429 225.112C448.031 225.314 447.828 225.731 447.741 226.144L448.457 226.296ZM448.76 225.764C448.906 225.69 449.118 225.663 449.401 225.785L449.69 225.113C449.234 224.916 448.792 224.927 448.429 225.112L448.76 225.764ZM449.401 225.785L453.871 227.707L454.16 227.035L449.69 225.113L449.401 225.785ZM453.871 227.707C454.122 227.815 454.256 227.956 454.325 228.114C454.398 228.28 454.42 228.511 454.352 228.829L455.068 228.98C455.155 228.568 455.149 228.17 454.995 227.82C454.838 227.462 454.548 227.202 454.16 227.035L453.871 227.707ZM454.358 228.805L451.284 239.75L451.989 239.948L455.063 229.003L454.358 228.805ZM451.287 239.74L449.806 244.479L450.505 244.697L451.986 239.958L451.287 239.74ZM450.011 244.924L450.078 244.953L450.367 244.281L450.3 244.252L450.011 244.924ZM450.546 244.788L452.867 240.41L452.221 240.068L449.899 244.446L450.546 244.788ZM452.862 240.419L458.457 230.559L457.82 230.198L452.226 240.058L452.862 240.419ZM458.458 230.556C458.609 230.284 458.771 230.149 458.926 230.093C459.08 230.038 459.29 230.038 459.585 230.164L459.874 229.492C459.463 229.315 459.055 229.269 458.679 229.404C458.305 229.539 458.024 229.83 457.818 230.202L458.458 230.556ZM476.373 254.071L476.517 253.735L476.181 253.591L476.037 253.927L476.373 254.071ZM474.768 257.802L474.432 257.657L474.288 257.993L474.624 258.138L474.768 257.802ZM480.145 245.299L480.29 244.963L479.954 244.819L479.809 245.155L480.145 245.299ZM478.714 248.627L478.378 248.482L478.234 248.818L478.57 248.963L478.714 248.627ZM481.76 255.99L476.517 253.735L476.228 254.407L481.471 256.662L481.76 255.99ZM476.037 253.927L474.432 257.657L475.104 257.946L476.709 254.216L476.037 253.927ZM474.624 258.138L480.337 260.595L480.626 259.923L474.913 257.466L474.624 258.138ZM480.337 260.595C480.634 260.723 480.771 260.874 480.827 261.013C480.882 261.152 480.886 261.356 480.759 261.653L481.431 261.942C481.607 261.533 481.657 261.119 481.507 260.742C481.356 260.365 481.035 260.099 480.626 259.923L480.337 260.595ZM480.759 261.653L479.255 265.148L479.928 265.437L481.431 261.942L480.759 261.653ZM479.255 265.148C479.119 265.466 478.968 265.598 478.836 265.649C478.703 265.7 478.503 265.701 478.198 265.569L477.909 266.242C478.31 266.414 478.72 266.478 479.099 266.332C479.481 266.185 479.746 265.859 479.928 265.437L479.255 265.148ZM478.198 265.569L467.443 260.944L467.154 261.616L477.909 266.242L478.198 265.569ZM467.443 260.944C467.117 260.804 466.985 260.659 466.935 260.534C466.886 260.409 466.882 260.213 467.022 259.887L466.35 259.598C466.172 260.011 466.104 260.425 466.256 260.805C466.407 261.184 466.741 261.438 467.154 261.616L467.443 260.944ZM467.022 259.887L476.33 238.242L475.658 237.953L466.35 259.598L467.022 259.887ZM476.33 238.242C476.462 237.937 476.607 237.8 476.739 237.746C476.87 237.692 477.07 237.684 477.388 237.821L477.677 237.149C477.255 236.968 476.838 236.913 476.46 237.069C476.084 237.224 475.83 237.553 475.658 237.953L476.33 238.242ZM477.388 237.821L488.008 242.389L488.297 241.716L477.677 237.149L477.388 237.821ZM488.008 242.389C488.305 242.516 488.442 242.667 488.498 242.806C488.553 242.945 488.557 243.149 488.43 243.446L489.102 243.735C489.277 243.326 489.328 242.913 489.177 242.535C489.027 242.158 488.706 241.892 488.297 241.716L488.008 242.389ZM488.43 243.446L486.926 246.941L487.598 247.23L489.102 243.735L488.43 243.446ZM486.926 246.941C486.79 247.259 486.639 247.391 486.507 247.442C486.374 247.493 486.174 247.494 485.869 247.363L485.58 248.035C485.98 248.207 486.391 248.271 486.77 248.125C487.152 247.978 487.417 247.652 487.598 247.23L486.926 246.941ZM485.869 247.363L480.29 244.963L480.001 245.636L485.58 248.035L485.869 247.363ZM479.809 245.155L478.378 248.482L479.05 248.771L480.481 245.444L479.809 245.155ZM478.57 248.963L483.813 251.218L484.102 250.545L478.859 248.291L478.57 248.963ZM483.813 251.218C484.11 251.345 484.247 251.496 484.302 251.635C484.358 251.774 484.362 251.978 484.234 252.275L484.906 252.564C485.082 252.155 485.132 251.742 484.982 251.364C484.832 250.987 484.51 250.721 484.102 250.545L483.813 251.218ZM484.234 252.275L482.818 255.569L483.49 255.858L484.906 252.564L484.234 252.275ZM482.818 255.569C482.681 255.887 482.53 256.019 482.399 256.069C482.265 256.121 482.065 256.121 481.76 255.99L481.471 256.662C481.872 256.835 482.282 256.898 482.662 256.752C483.043 256.605 483.309 256.279 483.49 255.858L482.818 255.569ZM491.372 260.522L491.517 260.186L491.18 260.042L491.036 260.378L491.372 260.522ZM489.768 264.253L489.431 264.108L489.287 264.444L489.623 264.589L489.768 264.253ZM495.145 251.75L495.289 251.414L494.953 251.27L494.808 251.606L495.145 251.75ZM493.714 255.078L493.377 254.933L493.233 255.269L493.569 255.414L493.714 255.078ZM496.76 262.441L491.517 260.186L491.227 260.858L496.47 263.113L496.76 262.441ZM491.036 260.378L489.431 264.108L490.104 264.397L491.708 260.667L491.036 260.378ZM489.623 264.589L495.337 267.046L495.626 266.374L489.912 263.917L489.623 264.589ZM495.337 267.046C495.634 267.174 495.771 267.324 495.826 267.464C495.882 267.603 495.886 267.806 495.758 268.103L496.43 268.393C496.606 267.984 496.656 267.57 496.506 267.193C496.355 266.815 496.034 266.55 495.626 266.374L495.337 267.046ZM495.758 268.103L494.255 271.599L494.927 271.888L496.43 268.393L495.758 268.103ZM494.255 271.599C494.118 271.917 493.967 272.049 493.836 272.1C493.702 272.151 493.502 272.151 493.197 272.02L492.908 272.692C493.309 272.865 493.719 272.928 494.099 272.782C494.48 272.635 494.746 272.309 494.927 271.888L494.255 271.599ZM493.197 272.02L482.442 267.395L482.153 268.067L492.908 272.692L493.197 272.02ZM482.442 267.395C482.116 267.255 481.984 267.109 481.935 266.984C481.885 266.86 481.881 266.663 482.021 266.337L481.349 266.048C481.171 266.462 481.104 266.876 481.255 267.255C481.406 267.635 481.74 267.889 482.153 268.067L482.442 267.395ZM482.021 266.337L491.33 244.693L490.657 244.404L481.349 266.048L482.021 266.337ZM491.33 244.693C491.461 244.388 491.606 244.251 491.739 244.197C491.869 244.143 492.069 244.135 492.387 244.272L492.676 243.6C492.255 243.418 491.838 243.364 491.46 243.52C491.084 243.675 490.83 244.004 490.657 244.404L491.33 244.693ZM492.387 244.272L503.007 248.839L503.296 248.167L492.676 243.6L492.387 244.272ZM503.007 248.839C503.305 248.967 503.442 249.118 503.497 249.257C503.553 249.396 503.557 249.6 503.429 249.897L504.101 250.186C504.277 249.777 504.327 249.363 504.177 248.986C504.026 248.609 503.705 248.343 503.296 248.167L503.007 248.839ZM503.429 249.897L501.926 253.392L502.598 253.681L504.101 250.186L503.429 249.897ZM501.926 253.392C501.789 253.71 501.638 253.842 501.507 253.893C501.373 253.944 501.173 253.945 500.868 253.814L500.579 254.486C500.98 254.658 501.39 254.722 501.769 254.576C502.151 254.429 502.416 254.103 502.598 253.681L501.926 253.392ZM500.868 253.814L495.289 251.414L495 252.086L500.579 254.486L500.868 253.814ZM494.808 251.606L493.377 254.933L494.05 255.222L495.481 251.895L494.808 251.606ZM493.569 255.414L498.812 257.668L499.101 256.996L493.858 254.741L493.569 255.414ZM498.812 257.668C499.109 257.796 499.246 257.947 499.302 258.086C499.357 258.225 499.361 258.429 499.233 258.726L499.906 259.015C500.081 258.606 500.132 258.193 499.981 257.815C499.831 257.438 499.51 257.172 499.101 256.996L498.812 257.668ZM499.233 258.726L497.817 262.02L498.489 262.309L499.906 259.015L499.233 258.726ZM497.817 262.02C497.68 262.337 497.53 262.47 497.398 262.52C497.264 262.572 497.065 262.572 496.76 262.441L496.47 263.113C496.871 263.285 497.281 263.349 497.661 263.203C498.042 263.056 498.308 262.73 498.489 262.309L497.817 262.02ZM509.315 260.314L508.979 260.169L509.567 260.579L509.315 260.314ZM515.096 254.835L515.348 255.101L515.355 255.094L515.096 254.835ZM521.742 256.976L522.107 256.955L522.107 256.955L521.742 256.976ZM521.27 257.889L521.034 257.609L521.027 257.615L521.021 257.621L521.27 257.889ZM513.368 265.243L513.119 264.975L513.01 265.076L513.003 265.224L513.368 265.243ZM512.663 279.197L513.029 279.218L513.029 279.216L512.663 279.197ZM512.292 280.153L512.528 280.432L512.292 280.153ZM506.133 276.787L506.496 276.829L506.498 276.82L506.498 276.81L506.133 276.787ZM506.814 266.128L507.179 266.151L506.478 265.984L506.814 266.128ZM509.567 260.579L515.348 255.101L514.844 254.569L509.063 260.048L509.567 260.579ZM515.355 255.094C515.601 254.848 515.828 254.717 516.043 254.666C516.253 254.617 516.486 254.636 516.763 254.755L517.052 254.083C516.657 253.913 516.263 253.862 515.875 253.954C515.491 254.044 515.149 254.265 514.838 254.576L515.355 255.094ZM516.763 254.755L520.931 256.548L521.22 255.876L517.052 254.083L516.763 254.755ZM520.931 256.548C521.272 256.695 521.369 256.868 521.377 256.997L522.107 256.955C522.077 256.431 521.685 256.076 521.22 255.876L520.931 256.548ZM521.377 256.997C521.387 257.17 521.294 257.39 521.034 257.609L521.506 258.168C521.871 257.86 522.135 257.436 522.107 256.955L521.377 256.997ZM521.021 257.621L513.119 264.975L513.617 265.511L521.519 258.156L521.021 257.621ZM513.003 265.224L512.298 279.179L513.029 279.216L513.733 265.261L513.003 265.224ZM512.298 279.176C512.275 279.57 512.19 279.76 512.056 279.873L512.528 280.432C512.894 280.123 513.002 279.679 513.029 279.218L512.298 279.176ZM512.056 279.873C511.949 279.964 511.783 280.014 511.457 279.873L511.168 280.545C511.647 280.752 512.136 280.764 512.528 280.432L512.056 279.873ZM511.457 279.873L507.222 278.052L506.933 278.724L511.168 280.545L511.457 279.873ZM507.222 278.052C506.923 277.923 506.733 277.758 506.622 277.571C506.512 277.386 506.46 277.146 506.496 276.829L505.77 276.745C505.719 277.187 505.786 277.595 505.993 277.945C506.2 278.294 506.526 278.549 506.933 278.724L507.222 278.052ZM506.498 276.81L507.179 266.151L506.449 266.105L505.768 276.764L506.498 276.81ZM506.478 265.984L502.532 275.159L503.204 275.448L507.15 266.273L506.478 265.984ZM502.532 275.159C502.395 275.477 502.245 275.609 502.113 275.659C501.98 275.711 501.78 275.711 501.475 275.58L501.186 276.252C501.586 276.425 501.997 276.488 502.376 276.342C502.758 276.195 503.023 275.869 503.204 275.448L502.532 275.159ZM501.475 275.58L497.442 273.846L497.153 274.518L501.186 276.252L501.475 275.58ZM497.442 273.846C497.116 273.705 496.984 273.56 496.934 273.435C496.884 273.31 496.88 273.114 497.02 272.788L496.348 272.499C496.17 272.913 496.103 273.326 496.254 273.706C496.406 274.086 496.739 274.34 497.153 274.518L497.442 273.846ZM497.02 272.788L506.329 251.144L505.657 250.855L496.348 272.499L497.02 272.788ZM506.329 251.144C506.46 250.839 506.605 250.702 506.738 250.647C506.868 250.594 507.068 250.586 507.386 250.723L507.675 250.051C507.254 249.869 506.837 249.815 506.459 249.971C506.083 250.126 505.829 250.454 505.657 250.855L506.329 251.144ZM507.386 250.723L511.419 252.457L511.708 251.785L507.675 250.051L507.386 250.723ZM511.419 252.457C511.716 252.585 511.854 252.735 511.909 252.875C511.965 253.014 511.969 253.217 511.841 253.515L512.513 253.804C512.689 253.395 512.739 252.981 512.589 252.604C512.438 252.226 512.117 251.961 511.708 251.785L511.419 252.457ZM511.841 253.515L508.979 260.169L509.651 260.458L512.513 253.804L511.841 253.515ZM525.07 284.573L525.164 284.926L525.07 284.573ZM514.529 281.394L514.763 281.112L514.761 281.11L514.529 281.394ZM513.776 280.552L513.436 280.688L513.776 280.552ZM517.044 276.103L517.291 275.833L517.283 275.826L517.275 275.82L517.044 276.103ZM523.111 275.885L523.463 275.784L523.46 275.775L523.457 275.766L523.111 275.885ZM521.693 273.164L522.005 272.973L522.004 272.972L521.693 273.164ZM519.945 268.709L520.306 268.648L519.945 268.709ZM524.66 259.227L524.785 259.571L524.785 259.571L524.66 259.227ZM534.706 262.074L534.928 261.783L534.92 261.777L534.706 262.074ZM535.359 262.872L535.709 262.768L535.709 262.768L535.359 262.872ZM532.081 267.437L531.86 267.728L531.867 267.733L532.081 267.437ZM528.306 271.03L528.627 270.854L528.622 270.847L528.306 271.03ZM530.188 275.822L530.551 275.775L530.548 275.761L530.188 275.822ZM529.077 280.163C528.095 282.446 526.725 283.754 524.976 284.219L525.164 284.926C527.192 284.387 528.708 282.874 529.749 280.452L529.077 280.163ZM524.976 284.219C523.183 284.696 521.256 284.486 519.162 283.585L518.873 284.258C521.082 285.207 523.179 285.454 525.164 284.926L524.976 284.219ZM519.162 283.585C517.16 282.724 515.722 281.907 514.763 281.112L514.296 281.675C515.333 282.535 516.843 283.384 518.873 284.258L519.162 283.585ZM514.761 281.11C514.349 280.774 514.174 280.561 514.116 280.417L513.436 280.688C513.57 281.024 513.884 281.34 514.298 281.677L514.761 281.11ZM514.116 280.417C514.079 280.324 514.083 280.116 514.253 279.722L513.581 279.433C513.403 279.845 513.282 280.3 513.436 280.688L514.116 280.417ZM514.253 279.722L515.655 276.462L514.983 276.172L513.581 279.433L514.253 279.722ZM515.655 276.462C515.808 276.105 515.954 276.03 516.049 276.018C516.176 276.001 516.417 276.064 516.812 276.387L517.275 275.82C516.845 275.469 516.397 275.235 515.955 275.292C515.48 275.354 515.177 275.722 514.983 276.172L515.655 276.462ZM516.797 276.373C517.498 277.014 518.439 277.539 519.563 278.023L519.852 277.351C518.759 276.881 517.904 276.394 517.291 275.833L516.797 276.373ZM519.563 278.023C520.475 278.415 521.271 278.607 521.921 278.538C522.606 278.466 523.112 278.106 523.383 277.475L522.711 277.186C522.548 277.564 522.276 277.765 521.845 277.81C521.379 277.859 520.722 277.725 519.852 277.351L519.563 278.023ZM523.383 277.475C523.624 276.915 523.626 276.351 523.463 275.784L522.76 275.986C522.884 276.419 522.875 276.806 522.711 277.186L523.383 277.475ZM523.457 275.766C523.267 275.213 522.805 274.277 522.005 272.973L521.381 273.355C522.173 274.647 522.602 275.528 522.765 276.004L523.457 275.766ZM522.004 272.972C521.087 271.488 520.545 270.057 520.306 268.648L519.584 268.77C519.841 270.282 520.42 271.802 521.382 273.357L522.004 272.972ZM520.306 268.648C520.074 267.279 520.345 265.648 521.138 263.805L520.466 263.516C519.639 265.438 519.321 267.217 519.584 268.77L520.306 268.648ZM521.138 263.805C522.148 261.458 523.367 260.085 524.785 259.571L524.535 258.883C522.839 259.498 521.509 261.092 520.466 263.516L521.138 263.805ZM524.785 259.571C526.209 259.054 528.247 259.296 530.908 260.441L531.198 259.769C528.481 258.6 526.225 258.27 524.535 258.883L524.785 259.571ZM530.908 260.441C532.505 261.128 533.699 261.799 534.492 262.371L534.92 261.777C534.072 261.165 532.827 260.469 531.198 259.769L530.908 260.441ZM534.485 262.365C534.822 262.622 534.959 262.813 535.008 262.976L535.709 262.768C535.595 262.384 535.311 262.075 534.928 261.783L534.485 262.365ZM535.008 262.976C535.06 263.152 535.063 263.375 534.916 263.717L535.588 264.006C535.788 263.542 535.82 263.141 535.709 262.768L535.008 262.976ZM534.916 263.717L533.47 267.078L534.142 267.367L535.588 264.006L534.916 263.717ZM533.47 267.078C533.341 267.378 533.202 267.452 533.088 267.466C532.938 267.484 532.682 267.419 532.295 267.14L531.867 267.733C532.302 268.047 532.749 268.244 533.176 268.192C533.64 268.136 533.953 267.807 534.142 267.367L533.47 267.078ZM532.303 267.146C531.557 266.577 530.7 266.086 529.768 265.685L529.479 266.357C530.362 266.737 531.166 267.199 531.86 267.728L532.303 267.146ZM529.768 265.685C529.053 265.377 528.442 265.231 527.962 265.347L528.134 266.058C528.366 266.002 528.783 266.058 529.479 266.357L529.768 265.685ZM527.962 265.347C527.447 265.471 527.085 265.905 526.861 266.426L527.533 266.715C527.713 266.296 527.938 266.105 528.134 266.058L527.962 265.347ZM526.861 266.426C526.615 266.997 526.615 267.697 526.807 268.485C527.001 269.276 527.396 270.188 527.989 271.213L528.622 270.847C528.05 269.857 527.689 269.011 527.518 268.311C527.346 267.608 527.374 267.086 527.533 266.715L526.861 266.426ZM527.985 271.206C529.002 273.065 529.613 274.61 529.827 275.883L530.548 275.761C530.315 274.372 529.661 272.745 528.627 270.854L527.985 271.206ZM529.825 275.869C529.99 277.14 529.766 278.562 529.077 280.163L529.749 280.452C530.477 278.76 530.737 277.204 530.55 275.775L529.825 275.869Z" fill="white"/>
</g>
<defs>
<filter id="filter0_d_2563_4775" x="-58.3863" y="0.692871" width="1800.64" height="824.203" filterUnits="userSpaceOnUse" color-interpolation-filters="sRGB">
<feFlood flood-opacity="0" result="BackgroundImageFix"/>
<feColorMatrix in="SourceAlpha" type="matrix" values="0 0 0 0 0 0 0 0 0 0 0 0 0 0 0 0 0 0 127 0" result="hardAlpha"/>
<feOffset dy="4"/>
<feGaussianBlur stdDeviation="2"/>
<feComposite in2="hardAlpha" operator="out"/>
<feColorMatrix type="matrix" values="0 0 0 0 0 0 0 0 0 0 0 0 0 0 0 0 0 0 0.2 0"/>
<feBlend mode="normal" in2="BackgroundImageFix" result="effect1_dropShadow_2563_4775"/>
<feBlend mode="normal" in="SourceGraphic" in2="effect1_dropShadow_2563_4775" result="shape"/>
</filter>
</defs>
</svg>
