<svg width="375" height="320" viewBox="0 0 375 320" fill="none" xmlns="http://www.w3.org/2000/svg">
<g filter="url(#filter0_d_1413_16164)">
<rect width="1560" height="66" transform="translate(-8.12207 -23.3856) rotate(11.3897)" fill="black"/>
<path d="M-0.0156095 9.69682L1.2784 9.9575C1.77835 10.0582 2.15496 10.0117 2.40822 9.81787C2.63207 9.61814 2.83857 9.2007 2.95706 8.61252C3.07555 8.02433 3.04086 7.58891 2.9118 7.31809C2.75333 7.04134 2.42412 6.85261 1.92416 6.75189L0.630155 6.49122L-0.0156095 9.69682ZM-0.469568 23.0399L-6.969 21.7306C-7.616 21.6003 -7.85085 21.247 -7.72051 20.6L-3.90517 1.66044C-3.78076 1.04285 -3.4215 0.778593 -2.7745 0.908931L3.07793 2.08789C5.31303 2.53815 6.85945 3.21691 7.77599 4.13601C8.69254 5.05511 8.94345 6.54398 8.54059 8.5438C8.09033 10.7789 7.00006 12.0894 5.26978 12.4753C6.08689 12.9765 6.67422 13.7069 7.02585 14.6958C7.37748 15.6847 7.42296 16.8262 7.17414 18.0614C6.33286 22.2375 3.76536 23.8931 -0.469568 23.0399ZM-1.66853 17.902L0.00779576 18.2397C0.566571 18.3522 0.972588 18.3116 1.26711 18.0649C1.53222 17.8123 1.74464 17.3655 1.88683 16.6596C2.02902 15.9538 2.00617 15.4596 1.85955 15.124C1.68352 14.7825 1.33082 14.5585 0.772049 14.4459L-0.904276 14.1082L-1.66853 17.902ZM17.0436 5.88054L14.0458 20.7616L17.8102 21.5199C18.4278 21.6443 18.6861 22.033 18.5617 22.6506L17.9337 25.768C17.8034 26.415 17.4206 26.6439 16.8031 26.5195L8.56848 24.8606C7.92147 24.7303 7.68663 24.377 7.81696 23.73L11.6323 4.79044C11.7567 4.17285 12.116 3.9086 12.763 4.03893L16.2921 4.74987C16.9097 4.87428 17.168 5.26295 17.0436 5.88054ZM26.7214 20.01L29.0153 20.4721L29.4201 12.8418L29.3025 12.8181L26.7214 20.01ZM27.622 7.03226L33.2097 8.1579C33.9744 8.31194 34.3444 8.75371 34.3552 9.45975L33.7516 28.8627C33.7452 29.198 33.6331 29.4508 33.4505 29.5977C33.2679 29.7445 33.0149 29.7853 32.7208 29.7261L29.1034 28.9974C28.5153 28.8789 28.251 28.5196 28.2872 27.8843L28.4203 25.2487L25.4206 24.6444L24.5228 27.1259C24.2808 27.7198 23.898 27.9488 23.3392 27.8362L19.7219 27.1075C19.3984 27.0423 19.1809 26.9067 19.0694 26.7006C18.9579 26.4945 18.9818 26.2239 19.1058 25.9123L26.0618 7.78905C26.3157 7.13634 26.8573 6.87822 27.622 7.03226ZM44.25 27.2746C44.897 27.405 45.497 27.4646 46.0795 27.4596C46.809 27.4841 47.1086 27.8199 46.9783 28.4669L46.4095 31.2902C46.2851 31.9078 45.8846 32.2249 45.2727 32.2241C44.2842 32.2698 43.2371 32.1506 42.1784 31.9373C40.7079 31.6411 39.5259 31.2806 38.7028 30.8088C37.8504 30.331 37.1924 29.6476 36.7113 28.6938C36.2242 27.7694 35.9729 26.5865 35.9926 25.1215C36.0063 23.686 36.256 21.8389 36.7063 19.6038C37.1447 17.4275 37.6237 15.6573 38.1609 14.3578C38.6687 13.0523 39.3291 12.0531 40.136 11.3894C40.943 10.7256 41.8143 10.3503 42.7852 10.2399C43.7267 10.1235 44.9327 10.2135 46.4032 10.5097C47.256 10.6815 48.2028 10.9946 49.2848 11.3962C49.8847 11.6088 50.1311 12.0563 50.0008 12.7033L49.4261 15.556C49.2958 16.203 48.8896 16.3966 48.2074 16.1368C47.6724 15.9066 47.096 15.7293 46.5078 15.6108C45.1844 15.3442 44.2605 15.5253 43.736 16.1541C43.1821 16.777 42.6916 18.3001 42.2058 20.7117C41.8563 22.4468 41.6897 23.7292 41.7003 24.5882C41.7109 25.4472 41.9277 26.0417 42.3096 26.4247C42.6621 26.8017 43.3089 27.085 44.25 27.2746ZM56.2508 19.8381L59.9648 14.4658C60.3186 13.925 60.7602 13.7079 61.3484 13.8264L64.9951 14.561C65.348 14.6321 65.589 14.8031 65.6592 15.062C65.7295 15.321 65.6408 15.6092 65.4345 15.8736L60.3352 23.1091L62.1257 34.4256C62.1782 34.7728 62.1543 35.0434 61.9892 35.2549C61.8242 35.4665 61.5652 35.5368 61.2123 35.4657L57.5068 34.7192C56.8892 34.5948 56.5367 34.2177 56.4787 33.594L55.2258 24.9259L53.6085 32.9546C53.4781 33.6016 53.0954 33.8305 52.4778 33.7061L48.9487 32.9952C48.3017 32.8648 48.0668 32.5115 48.1972 31.8645L52.0125 12.925C52.1369 12.3074 52.4962 12.0431 53.1432 12.1735L56.6723 12.8844C57.2899 13.0088 57.5482 13.3975 57.4238 14.0151L56.2508 19.8381ZM79.4892 31.405L75.1366 30.5282L73.8391 36.9688C73.7029 37.6452 73.2848 37.8977 72.6378 37.7673L69.2263 37.0801C68.5499 36.9438 68.2916 36.5552 68.4278 35.8787L72.2195 17.0569C72.3498 16.4098 72.7444 16.1221 73.4208 16.2584L82.3612 18.0594C82.9788 18.1838 83.2372 18.5725 83.1127 19.1901L82.4966 22.2486C82.3663 22.8956 81.9835 23.1246 81.3659 23.0001L76.8369 22.0878L76.1319 25.5875L80.4845 26.4643C81.1021 26.5887 81.3604 26.9774 81.236 27.595L80.6198 30.6535C80.4895 31.3005 80.1067 31.5295 79.4892 31.405ZM88.2586 29.7747L89.0821 29.9406C89.8467 30.0947 90.3822 30.0189 90.6886 29.7134C90.995 29.4079 91.2548 28.7258 91.4622 27.6965C91.6636 26.6965 91.6881 25.967 91.524 25.5667C91.3598 25.1664 90.9013 24.8598 90.1367 24.7058L89.3132 24.5399L88.2586 29.7747ZM85.8265 18.7575L91.1201 19.8239C93.8258 20.3689 95.6248 21.3128 96.4997 22.5907C97.3745 23.8686 97.5364 25.9516 96.9617 28.8043C96.31 32.0393 94.9189 33.9319 92.8177 34.4879L94.2796 40.9029C94.4726 41.7681 94.1897 42.1089 93.425 41.9549L89.8371 41.2321C89.4548 41.1551 89.196 41.0724 89.0433 40.9192C88.8905 40.766 88.7555 40.5246 88.709 40.148L87.6285 34.4218L87.3344 34.3626L86.2917 39.5386C86.1614 40.1856 85.7787 40.4145 85.1611 40.2901L81.632 39.5792C80.985 39.4488 80.7501 39.0955 80.8804 38.4485L84.6958 19.509C84.8202 18.8914 85.1795 18.6271 85.8265 18.7575ZM96.2196 41.5386L100.035 22.599C100.159 21.9814 100.519 21.7172 101.166 21.8475L104.695 22.5585C105.312 22.6829 105.571 23.0715 105.446 23.6891L101.631 42.6287C101.501 43.2757 101.118 43.5046 100.5 43.3802L96.9711 42.6692C96.3241 42.5389 96.0893 42.1856 96.2196 41.5386ZM109.666 45.2267L104.608 44.2076C103.961 44.0773 103.726 43.724 103.856 43.077L107.672 24.1374C107.796 23.5199 108.155 23.2556 108.802 23.3859L113.743 24.3812C115.125 24.6597 116.237 25.0672 117.113 25.5803C117.989 26.0934 118.67 26.8121 119.192 27.713C119.68 28.6374 119.966 29.7968 119.988 31.2089C120.009 32.621 119.819 34.3269 119.41 36.3562C118.865 39.0618 118.15 41.0906 117.313 42.5132C116.475 43.9359 115.439 44.8287 114.261 45.2036C113.049 45.602 111.519 45.5999 109.666 45.2267ZM112.76 29.2632L112.289 29.1684L110.062 40.2262L110.65 40.3447C111.473 40.5106 112.132 40.2762 112.569 39.6296C113.005 38.983 113.448 37.5422 113.91 35.2483C114.218 33.719 114.367 32.5249 114.386 31.6718C114.37 30.8422 114.241 30.2654 114 29.9415C113.759 29.6176 113.348 29.3817 112.76 29.2632ZM126.064 40.0223L128.358 40.4844L128.762 32.8541L128.645 32.8304L126.064 40.0223ZM126.964 27.0446L132.552 28.1702C133.317 28.3243 133.687 28.7661 133.697 29.4721L133.094 48.875C133.087 49.2104 132.975 49.4632 132.793 49.61C132.61 49.7569 132.357 49.7977 132.063 49.7384L128.446 49.0097C127.857 48.8912 127.593 48.532 127.629 47.8966L127.763 45.261L124.763 44.6567L123.865 47.1383C123.623 47.7322 123.24 47.9611 122.681 47.8485L119.064 47.1198C118.741 47.0547 118.523 46.919 118.412 46.713C118.3 46.5069 118.324 46.2363 118.448 45.9246L125.404 27.8014C125.658 27.1487 126.2 26.8906 126.964 27.0446ZM142.965 43.7942L141.578 50.676C141.448 51.323 141.065 51.5519 140.448 51.4275L136.918 50.7166C136.271 50.5862 136.037 50.2329 136.167 49.5859L137.553 42.7041L135.5 29.9576C135.4 29.6927 135.448 29.4575 135.619 29.2165C135.79 28.9755 136.084 28.8818 136.496 28.9647L140.201 29.7112C140.848 29.8415 141.201 30.2186 141.229 30.8364L141.37 35.4551L141.201 38.2672L141.319 38.2909L142.252 35.6328L144.17 31.4288C144.406 30.8643 144.877 30.6532 145.554 30.7895L149.259 31.5359C149.642 31.6129 149.877 31.8133 149.941 32.1017C150.005 32.3901 149.958 32.6253 149.793 32.8369L142.965 43.7942ZM165.397 34.7869L168.926 35.4978C169.514 35.6163 169.802 36.0109 169.743 36.6109L168.918 45.8704L168.441 49.9058L168.5 49.9176L169.712 46.0303L172.742 37.2152C172.949 36.6448 173.338 36.3865 173.926 36.505L177.837 37.2929C178.131 37.3522 178.343 37.5172 178.454 37.7233C178.566 37.9293 178.571 38.2059 178.453 38.4881L171.615 56.4821C171.308 57.2465 170.819 57.5459 170.114 57.4037L165.349 56.4439C164.644 56.3017 164.279 55.8306 164.322 55.0128L164.67 50.2477L165.135 45.3533L165.077 45.3414L163.611 50.0344L162.087 54.5626C161.78 55.327 161.291 55.6264 160.585 55.4842L155.821 54.5244C155.115 54.3822 154.751 53.911 154.793 53.0933L155.455 33.8552C155.456 33.5493 155.539 33.2905 155.721 33.1437C155.904 32.9968 156.163 32.9266 156.486 32.9918L160.398 33.7797C160.956 33.8923 161.215 34.281 161.214 34.8928L160.595 44.1938L160.207 48.247L160.266 48.2588L161.389 44.3537L164.214 35.4971C164.391 34.9208 164.78 34.6625 165.397 34.7869ZM187.433 52.3545L182.845 51.4303L182.188 54.6947L187.187 55.7019C187.805 55.8263 188.063 56.215 187.939 56.8326L187.323 59.8911C187.192 60.5381 186.81 60.7671 186.192 60.6426L176.781 58.7468C176.134 58.6165 175.899 58.2632 176.03 57.6162L179.845 38.6766C179.969 38.059 180.329 37.7948 180.976 37.9251L190.269 39.7972C190.886 39.9217 191.145 40.3103 191.02 40.9279L190.404 43.9865C190.274 44.6335 189.891 44.8624 189.274 44.738L184.392 43.7545L183.805 46.666L188.393 47.5903C189.011 47.7147 189.269 48.1033 189.144 48.7209L188.564 51.603C188.434 52.25 188.051 52.479 187.433 52.3545ZM200.558 54.9986L195.97 54.0743L195.313 57.3388L200.312 58.3459C200.93 58.4703 201.188 58.859 201.064 59.4766L200.448 62.5352C200.317 63.1822 199.935 63.4111 199.317 63.2867L189.906 61.3908C189.259 61.2605 189.024 60.9072 189.155 60.2602L192.97 41.3206C193.094 40.703 193.454 40.4388 194.101 40.5691L203.394 42.4413C204.011 42.5657 204.27 42.9543 204.145 43.5719L203.529 46.6305C203.399 47.2775 203.016 47.5064 202.399 47.382L197.517 46.3985L196.93 49.3101L201.518 50.2343C202.136 50.3587 202.394 50.7473 202.269 51.3649L201.689 54.247C201.559 54.894 201.176 55.123 200.558 54.9986ZM210.333 50.8778L214.047 45.5054C214.401 44.9646 214.843 44.7476 215.431 44.8661L219.077 45.6007C219.43 45.6718 219.671 45.8427 219.742 46.1017C219.812 46.3607 219.723 46.6489 219.517 46.9133L214.418 54.1488L216.208 65.4652C216.261 65.8124 216.237 66.083 216.072 66.2946C215.907 66.5062 215.648 66.5764 215.295 66.5053L211.589 65.7589C210.972 65.6345 210.619 65.2574 210.561 64.6337L209.308 55.9656L207.691 63.9943C207.561 64.6413 207.178 64.8702 206.56 64.7458L203.031 64.0349C202.384 63.9045 202.149 63.5512 202.28 62.9042L206.095 43.9647C206.219 43.3471 206.579 43.0828 207.226 43.2131L210.755 43.9241C211.372 44.0485 211.631 44.4372 211.506 45.0547L210.333 50.8778ZM229.836 63.5284C229.422 65.5871 228.502 66.9625 227.071 67.6842C225.64 68.4059 223.987 68.5624 222.105 68.1833C220.34 67.8278 219.017 67.4082 218.076 66.9127C217.688 66.7121 217.447 66.5412 217.33 66.3645C217.213 66.1878 217.207 65.9113 217.278 65.5584L217.853 62.7057C217.995 61.9999 218.425 61.8416 219.201 62.2428C219.83 62.6143 220.635 62.8684 221.606 63.0639C223.165 63.3779 224.048 63.0967 224.225 62.2145C224.308 61.8027 224.232 61.4202 224.033 61.0434C223.804 60.6606 223.293 60.0069 222.435 59.0996C221.425 58.0392 220.726 56.9498 220.28 55.8195C219.835 54.6893 219.784 53.2713 220.116 51.6243C220.536 49.5363 221.309 48.1312 222.463 47.415C223.617 46.6989 225.388 46.566 227.741 47.04C229.153 47.3243 230.247 47.6671 231.005 48.0035C231.34 48.1628 231.552 48.3279 231.663 48.5339C231.775 48.74 231.816 48.9931 231.745 49.346L231.152 52.2869C231.022 52.9339 230.563 53.0862 229.804 52.7498C229.134 52.4312 228.387 52.1889 227.593 52.029C226.975 51.9045 226.546 51.9098 226.275 52.0389C226.004 52.1679 225.822 52.4677 225.739 52.8795C225.573 53.7029 226.106 54.851 227.381 56.2707C228.521 57.6019 229.296 58.7679 229.7 59.7981C230.069 60.8518 230.127 62.0874 229.836 63.5284Z" fill="white"/>
<path d="M254.864 61.0419L254.374 60.9432L254.275 61.4333L254.765 61.5321L254.864 61.0419ZM255.51 57.8363L255.609 57.3462L255.119 57.2474L255.02 57.7376L255.51 57.8363ZM257.792 58.6632L258.243 58.4481L258.235 58.4311L258.225 58.4147L257.792 58.6632ZM257.288 61.163L257.592 61.56L257.607 61.5486L257.621 61.536L257.288 61.163ZM261.906 66.0409L262.377 65.8734L262.377 65.8734L261.906 66.0409ZM260.15 63.8204L260.041 63.3324L258.836 63.6011L259.888 64.2466L260.15 63.8204ZM262.656 55.4811L263.01 55.128L262.656 55.4811ZM253.211 69.2471L252.721 69.1483L252.622 69.6385L253.112 69.7372L253.211 69.2471ZM253.975 65.4533L254.074 64.9631L253.584 64.8644L253.485 65.3546L253.975 65.4533ZM256.739 66.4691L257.197 66.2689L257.191 66.2542L257.184 66.24L256.739 66.4691ZM256.147 69.41L256.468 69.7933L256.48 69.783L256.492 69.772L256.147 69.41ZM255.354 61.1407L256 57.9351L255.02 57.7376L254.374 60.9432L255.354 61.1407ZM255.411 58.3265L256.705 58.5871L256.903 57.6068L255.609 57.3462L255.411 58.3265ZM256.705 58.5871C257.147 58.6762 257.304 58.8185 257.358 58.9116L258.225 58.4147C257.962 57.9544 257.461 57.7193 256.903 57.6068L256.705 58.5871ZM257.34 58.8783C257.402 59.0084 257.456 59.3178 257.347 59.8589L258.327 60.0564C258.455 59.421 258.439 58.8596 258.243 58.4481L257.34 58.8783ZM257.347 59.8589C257.236 60.4069 257.059 60.6968 256.955 60.7899L257.621 61.536C257.964 61.2297 258.2 60.6847 258.327 60.0564L257.347 59.8589ZM256.984 60.7659C256.899 60.8311 256.699 60.9015 256.257 60.8124L256.059 61.7927C256.617 61.9052 257.171 61.8824 257.592 61.56L256.984 60.7659ZM256.257 60.8124L254.963 60.5518L254.765 61.5321L256.059 61.7927L256.257 60.8124ZM254.311 74.8752C256.503 75.3166 258.352 75.1269 259.777 74.201C261.204 73.2736 262.107 71.6723 262.544 69.5052L261.564 69.3077C261.159 71.3167 260.358 72.6313 259.232 73.3624C258.105 74.0951 256.553 74.3066 254.509 73.8949L254.311 74.8752ZM262.544 69.5052C262.807 68.2015 262.765 66.9653 262.377 65.8734L261.435 66.2084C261.75 67.0944 261.799 68.1411 261.564 69.3077L262.544 69.5052ZM262.377 65.8734C261.989 64.7836 261.331 63.9588 260.411 63.3942L259.888 64.2466C260.602 64.6845 261.119 65.3205 261.435 66.2084L262.377 65.8734ZM260.258 64.3084C261.227 64.0924 262.03 63.6117 262.649 62.8679C263.262 62.131 263.674 61.1601 263.911 59.9876L262.93 59.7902C262.716 60.8527 262.358 61.6547 261.881 62.2283C261.409 62.795 260.803 63.1625 260.041 63.3324L260.258 64.3084ZM263.911 59.9876C264.326 57.9245 264.102 56.2233 263.01 55.128L262.302 55.8342C263.043 56.5771 263.32 57.8537 262.93 59.7902L263.911 59.9876ZM263.01 55.128C261.989 54.1045 260.326 53.4 258.056 52.9428L257.859 53.9231C260.06 54.3665 261.489 55.0195 262.302 55.8342L263.01 55.128ZM258.056 52.9428L252.204 51.7639L252.007 52.7442L257.859 53.9231L258.056 52.9428ZM252.204 51.7639C251.805 51.6835 251.4 51.7061 251.062 51.9362C250.727 52.1645 250.561 52.5283 250.484 52.9068L251.465 53.1043C251.513 52.8652 251.588 52.788 251.626 52.7624C251.661 52.7386 251.759 52.6942 252.007 52.7442L252.204 51.7639ZM250.484 52.9068L246.669 71.8463L247.649 72.0438L251.465 53.1043L250.484 52.9068ZM246.669 71.8463C246.591 72.2336 246.6 72.6392 246.827 72.9809C247.054 73.3226 247.425 73.4879 247.812 73.5659L248.01 72.5856C247.75 72.5333 247.679 72.4567 247.66 72.4274C247.64 72.3981 247.597 72.3035 247.649 72.0438L246.669 71.8463ZM247.812 73.5659L254.311 74.8752L254.509 73.8949L248.01 72.5856L247.812 73.5659ZM253.701 69.3458L254.466 65.552L253.485 65.3546L252.721 69.1483L253.701 69.3458ZM253.877 65.9434L255.553 66.2811L255.751 65.3008L254.074 64.9631L253.877 65.9434ZM255.553 66.2811C256.032 66.3776 256.215 66.5438 256.295 66.6982L257.184 66.24C256.911 65.7115 256.389 65.4295 255.751 65.3008L255.553 66.2811ZM256.281 66.6693C256.367 66.8653 256.411 67.2374 256.276 67.906L257.257 68.1035C257.406 67.3604 257.405 66.7441 257.197 66.2689L256.281 66.6693ZM256.276 67.906C256.142 68.5746 255.957 68.9005 255.802 69.048L256.492 69.772C256.867 69.4143 257.107 68.8465 257.257 68.1035L256.276 67.906ZM255.826 69.0267C255.707 69.1259 255.494 69.197 254.986 69.0946L254.789 70.0749C255.398 70.1977 255.997 70.1875 256.468 69.7933L255.826 69.0267ZM254.986 69.0946L253.31 68.7569L253.112 69.7372L254.789 70.0749L254.986 69.0946ZM268.926 72.1067L268.435 72.0079L268.337 72.4981L268.827 72.5968L268.926 72.1067ZM272.414 57.3244C272.492 56.9342 272.465 56.5344 272.242 56.1986C272.019 55.8628 271.661 55.6834 271.271 55.6048L271.073 56.5851C271.301 56.6309 271.38 56.7081 271.409 56.7521C271.439 56.7962 271.479 56.8994 271.433 57.1269L272.414 57.3244ZM271.271 55.6048L267.741 54.8939L267.544 55.8742L271.073 56.5851L271.271 55.6048ZM267.741 54.8939C267.342 54.8135 266.937 54.8361 266.6 55.0662C266.265 55.2945 266.098 55.6583 266.022 56.0368L267.002 56.2343C267.05 55.9952 267.126 55.918 267.163 55.8924C267.198 55.8686 267.296 55.8242 267.544 55.8742L267.741 54.8939ZM266.022 56.0368L262.207 74.9763L263.187 75.1738L267.002 56.2343L266.022 56.0368ZM262.207 74.9763C262.129 75.3636 262.137 75.7692 262.365 76.1109C262.592 76.4526 262.962 76.6179 263.349 76.6959L263.547 75.7156C263.287 75.6633 263.217 75.5867 263.197 75.5574C263.178 75.5281 263.135 75.4335 263.187 75.1738L262.207 74.9763ZM263.349 76.6959L271.584 78.3547L271.782 77.3744L263.547 75.7156L263.349 76.6959ZM271.584 78.3547C271.963 78.431 272.363 78.4181 272.703 78.1977C273.046 77.9757 273.223 77.6108 273.304 77.2118L272.323 77.0143C272.273 77.2623 272.195 77.3354 272.159 77.3585C272.121 77.3832 272.021 77.4226 271.782 77.3744L271.584 78.3547ZM273.304 77.2118L273.932 74.0944L272.951 73.897L272.323 77.0143L273.304 77.2118ZM273.932 74.0944C274.01 73.7043 273.984 73.3044 273.76 72.9686C273.537 72.6329 273.179 72.4535 272.789 72.3749L272.591 73.3552C272.819 73.401 272.898 73.4781 272.928 73.5222C272.957 73.5662 272.997 73.6695 272.951 73.897L273.932 74.0944ZM272.789 72.3749L269.024 71.6165L268.827 72.5968L272.591 73.3552L272.789 72.3749ZM269.416 72.2054L272.414 57.3244L271.433 57.1269L268.435 72.0079L269.416 72.2054ZM281.601 71.3551L281.131 71.1862L280.935 71.7309L281.502 71.8452L281.601 71.3551ZM284.182 64.1632L284.281 63.673L283.858 63.5877L283.712 63.9943L284.182 64.1632ZM284.3 64.1869L284.799 64.2133L284.822 63.782L284.399 63.6967L284.3 64.1869ZM283.895 71.8172L283.796 72.3073L284.364 72.4216L284.394 71.8437L283.895 71.8172ZM280.942 59.1341L280.476 58.9529L280.475 58.955L280.942 59.1341ZM273.986 77.2574L274.45 77.4422L274.452 77.4365L273.986 77.2574ZM273.949 78.0457L274.389 77.8078L273.949 78.0457ZM279.403 78.471L279.866 78.6597L279.869 78.6505L279.873 78.6411L279.403 78.471ZM280.3 75.9895L280.399 75.4993L279.977 75.4142L279.83 75.8194L280.3 75.9895ZM283.3 76.5937L283.799 76.619L283.821 76.1887L283.399 76.1036L283.3 76.5937ZM283.167 79.2294L283.666 79.2578L283.666 79.2546L283.167 79.2294ZM288.33 80.9428L288.017 80.5531L288.33 80.9428ZM288.631 80.2077L288.132 80.1922L288.131 80.1983L288.631 80.2077ZM289.235 60.8048L289.735 60.8204L289.735 60.8088L289.735 60.7972L289.235 60.8048ZM282.072 71.524L284.653 64.3321L283.712 63.9943L281.131 71.1862L282.072 71.524ZM284.084 64.6533L284.201 64.677L284.399 63.6967L284.281 63.673L284.084 64.6533ZM283.801 64.1604L283.396 71.7907L284.394 71.8437L284.799 64.2133L283.801 64.1604ZM283.994 71.327L281.7 70.8649L281.502 71.8452L283.796 72.3073L283.994 71.327ZM282.6 57.8872C282.146 57.7957 281.701 57.8153 281.313 58.003C280.916 58.1944 280.64 58.5308 280.476 58.9529L281.408 59.3154C281.497 59.0848 281.618 58.9658 281.748 58.9035C281.884 58.8375 282.093 58.805 282.403 58.8675L282.6 57.8872ZM280.475 58.955L273.519 77.0782L274.452 77.4365L281.408 59.3133L280.475 58.955ZM273.521 77.0725C273.377 77.4333 273.292 77.8819 273.509 78.2836L274.389 77.8078C274.383 77.7974 274.346 77.7048 274.45 77.4422L273.521 77.0725ZM273.509 78.2836C273.717 78.6672 274.096 78.8607 274.503 78.9427L274.7 77.9624C274.46 77.9141 274.404 77.8364 274.389 77.8078L273.509 78.2836ZM274.503 78.9427L278.12 79.6714L278.318 78.6911L274.7 77.9624L274.503 78.9427ZM278.12 79.6714C278.488 79.7456 278.858 79.717 279.187 79.5199C279.507 79.3278 279.72 79.0161 279.866 78.6597L278.94 78.2823C278.843 78.5198 278.744 78.6196 278.672 78.6623C278.61 78.7 278.509 78.7296 278.318 78.6911L278.12 79.6714ZM279.873 78.6411L280.771 76.1595L279.83 75.8194L278.932 78.3009L279.873 78.6411ZM280.202 76.4796L283.201 77.0839L283.399 76.1036L280.399 75.4993L280.202 76.4796ZM282.801 76.5685L282.668 79.2041L283.666 79.2546L283.799 76.619L282.801 76.5685ZM282.668 79.2009C282.646 79.5879 282.711 79.9661 282.938 80.2756C283.168 80.5895 283.509 80.7571 283.884 80.8326L284.082 79.8523C283.869 79.8094 283.784 79.7381 283.744 79.6839C283.701 79.6253 283.652 79.5062 283.666 79.2578L282.668 79.2009ZM283.884 80.8326L287.502 81.5613L287.699 80.581L284.082 79.8523L283.884 80.8326ZM287.502 81.5613C287.888 81.6392 288.309 81.6016 288.644 81.3324L288.017 80.5531C287.986 80.5776 287.901 80.6217 287.699 80.581L287.502 81.5613ZM288.644 81.3324C288.974 81.0668 289.123 80.6537 289.131 80.2172L288.131 80.1983C288.127 80.4325 288.052 80.525 288.017 80.5531L288.644 81.3324ZM289.131 80.2233L289.735 60.8204L288.735 60.7893L288.132 80.1922L289.131 80.2233ZM289.735 60.7972C289.728 60.3568 289.607 59.9465 289.322 59.6189C289.04 59.2943 288.644 59.1047 288.188 59.0128L287.991 59.9931C288.3 60.0554 288.471 60.1636 288.568 60.2749C288.662 60.3832 288.731 60.5468 288.735 60.8125L289.735 60.7972ZM288.188 59.0128L282.6 57.8872L282.403 58.8675L287.991 59.9931L288.188 59.0128ZM297.189 77.7698L297.555 77.4283L297.549 77.4224L297.543 77.4167L297.189 77.7698ZM296.58 75.9333L296.08 75.9394L296.58 75.9333ZM298.616 67.4992L298.989 67.8315L298.995 67.8256L299 67.8195L298.616 67.4992ZM303.087 67.4819L302.89 67.9412L302.899 67.9454L302.909 67.9491L303.087 67.4819ZM304.165 62.7413L303.991 63.2101L303.998 63.2126L304.165 62.7413ZM297.665 61.585L297.721 62.0818L297.726 62.0812L297.665 61.585ZM295.016 62.7344L295.333 63.1206L295.333 63.1206L295.016 62.7344ZM293.041 65.7029L293.503 65.8939L293.507 65.8841L293.041 65.7029ZM290.872 76.4666L291.372 76.4733L291.372 76.4714L290.872 76.4666ZM291.591 80.0389L292.038 79.8137L292.033 79.8058L291.591 80.0389ZM293.583 82.1539L293.831 81.7201L293.827 81.7177L293.583 82.1539ZM300.152 83.5692L300.153 83.0692L300.141 83.0691L300.129 83.0697L300.152 83.5692ZM300.959 78.8046L300.976 78.3049L300.965 78.3046L300.955 78.3047L300.959 78.8046ZM299.228 78.1296C298.314 77.9453 297.797 77.6875 297.555 77.4283L296.824 78.1113C297.287 78.6061 298.063 78.915 299.031 79.1099L299.228 78.1296ZM297.543 77.4167C297.286 77.1588 297.09 76.711 297.08 75.9271L296.08 75.9394C296.092 76.8735 296.329 77.6149 296.835 78.1228L297.543 77.4167ZM297.08 75.9271C297.07 75.1235 297.227 73.8841 297.576 72.1555L296.595 71.958C296.245 73.6998 296.069 75.0251 296.08 75.9394L297.08 75.9271ZM297.576 72.1555C297.817 70.9589 298.056 69.9975 298.3 69.2649C298.548 68.5182 298.783 68.0633 298.989 67.8315L298.242 67.1669C297.894 67.5579 297.608 68.1761 297.351 68.9496C297.089 69.7372 296.84 70.7431 296.595 71.958L297.576 72.1555ZM299 67.8195C299.344 67.4071 300.022 67.1909 301.289 67.446L301.486 66.4657C300.106 66.1877 298.937 66.3337 298.232 67.1789L299 67.8195ZM301.289 67.446C301.845 67.5581 302.388 67.7254 302.89 67.9412L303.285 67.0226C302.716 66.778 302.107 66.5907 301.486 66.4657L301.289 67.446ZM302.909 67.9491C303.301 68.0985 303.734 68.1663 304.119 67.9829C304.521 67.7911 304.715 67.4023 304.796 66.9999L303.816 66.8024C303.766 67.0469 303.692 67.0785 303.688 67.0802C303.667 67.0904 303.555 67.1251 303.265 67.0146L302.909 67.9491ZM304.796 66.9999L305.371 64.1472L304.39 63.9497L303.816 66.8024L304.796 66.9999ZM305.371 64.1472C305.452 63.7436 305.427 63.3422 305.235 62.9915C305.041 62.6386 304.716 62.4063 304.332 62.27L303.998 63.2126C304.213 63.289 304.311 63.3867 304.358 63.4724C304.406 63.5605 304.439 63.7063 304.39 63.9497L305.371 64.1472ZM304.339 62.2725C303.252 61.8691 302.275 61.5445 301.382 61.3646L301.184 62.3449C301.997 62.5087 302.914 62.8103 303.991 63.2101L304.339 62.2725ZM301.382 61.3646C299.885 61.0632 298.62 60.9631 297.604 61.0887L297.726 62.0812C298.593 61.9741 299.74 62.0539 301.184 62.3449L301.382 61.3646ZM297.608 61.0882C296.536 61.2101 295.575 61.6268 294.698 62.3483L295.333 63.1206C296.07 62.5146 296.852 62.1807 297.721 62.0818L297.608 61.0882ZM294.698 62.3483C293.805 63.0828 293.103 64.1642 292.575 65.5216L293.507 65.8841C293.994 64.6306 294.612 63.7135 295.333 63.1206L294.698 62.3483ZM292.579 65.5118C292.023 66.8553 291.537 68.662 291.096 70.8502L292.076 71.0476C292.512 68.8832 292.984 67.1495 293.503 65.8939L292.579 65.5118ZM291.096 70.8502C290.643 73.0969 290.387 74.9798 290.372 76.4618L291.372 76.4714C291.386 75.0824 291.628 73.2711 292.076 71.0476L291.096 70.8502ZM290.372 76.4599C290.352 77.983 290.612 79.2541 291.149 80.272L292.033 79.8058C291.596 78.9749 291.353 77.8802 291.372 76.4733L290.372 76.4599ZM291.145 80.2641C291.669 81.3033 292.396 82.0618 293.338 82.59L293.827 81.7177C293.065 81.2904 292.475 80.6821 292.037 79.8137L291.145 80.2641ZM293.334 82.5876C294.228 83.1004 295.475 83.4735 296.959 83.7726L297.157 82.7923C295.701 82.4989 294.583 82.1509 293.831 81.7201L293.334 82.5876ZM296.959 83.7726C298.043 83.9909 299.133 84.1168 300.176 84.0686L300.129 83.0697C299.195 83.1129 298.191 83.0006 297.157 82.7923L296.959 83.7726ZM300.152 84.0692C300.545 84.0697 300.918 83.967 301.219 83.7219C301.521 83.4766 301.7 83.1293 301.779 82.734L300.799 82.5365C300.754 82.7588 300.671 82.8789 300.588 82.9463C300.505 83.014 300.372 83.0695 300.153 83.0692L300.152 84.0692ZM301.779 82.734L302.348 79.9107L301.368 79.7132L300.799 82.5365L301.779 82.734ZM302.348 79.9107C302.429 79.5082 302.401 79.0748 302.104 78.742C301.82 78.424 301.396 78.319 300.976 78.3049L300.942 79.3044C301.253 79.3148 301.342 79.39 301.358 79.4078C301.361 79.4108 301.417 79.4687 301.368 79.7132L302.348 79.9107ZM300.955 78.3047C300.411 78.3094 299.845 78.2538 299.228 78.1296L299.031 79.1099C299.708 79.2463 300.343 79.31 300.964 79.3046L300.955 78.3047ZM311.131 71.1832L310.64 71.0845L311.542 71.4675L311.131 71.1832ZM310.106 76.271L310.6 76.1995L309.615 76.1722L310.106 76.271ZM311.358 84.9391L311.856 84.8928L311.855 84.8802L311.853 84.8676L311.358 84.9391ZM316.869 86.6L317.263 86.9076L316.869 86.6ZM317.005 85.7707L317.5 85.6959L317.499 85.6925L317.005 85.7707ZM315.215 74.4542L314.806 74.1662L314.689 74.332L314.721 74.5324L315.215 74.4542ZM320.314 67.2187L319.92 66.9112L319.913 66.9208L319.906 66.9307L320.314 67.2187ZM320.539 66.4071L321.022 66.2762L321.022 66.2762L320.539 66.4071ZM314.845 65.8109L315.256 66.0953L315.263 66.0846L314.845 65.8109ZM311.621 71.2819L312.794 65.4589L311.813 65.2614L310.64 71.0845L311.621 71.2819ZM312.794 65.4589C312.872 65.0688 312.846 64.6689 312.622 64.3331C312.399 63.9973 312.041 63.8179 311.651 63.7393L311.453 64.7196C311.681 64.7655 311.76 64.8426 311.79 64.8867C311.819 64.9307 311.859 65.034 311.813 65.2614L312.794 65.4589ZM311.651 63.7393L308.122 63.0284L307.924 64.0087L311.453 64.7196L311.651 63.7393ZM308.122 63.0284C307.723 62.948 307.317 62.9706 306.98 63.2007C306.645 63.4291 306.478 63.7929 306.402 64.1713L307.382 64.3688C307.431 64.1297 307.506 64.0526 307.543 64.027C307.578 64.0031 307.676 63.9588 307.924 64.0087L308.122 63.0284ZM306.402 64.1713L302.587 83.1109L303.567 83.3083L307.382 64.3688L306.402 64.1713ZM302.587 83.1109C302.509 83.4982 302.518 83.9037 302.745 84.2455C302.972 84.5872 303.342 84.7524 303.73 84.8304L303.927 83.8501C303.667 83.7978 303.597 83.7212 303.578 83.6919C303.558 83.6626 303.515 83.568 303.567 83.3083L302.587 83.1109ZM303.73 84.8304L307.259 85.5414L307.456 84.5611L303.927 83.8501L303.73 84.8304ZM307.259 85.5414C307.637 85.6176 308.037 85.6048 308.377 85.3844C308.72 85.1623 308.898 84.7974 308.978 84.3984L307.998 84.201C307.948 84.449 307.869 84.5221 307.834 84.5451C307.796 84.5698 307.695 84.6092 307.456 84.5611L307.259 85.5414ZM308.978 84.3984L310.596 76.3697L309.615 76.1722L307.998 84.201L308.978 84.3984ZM309.611 76.3425L310.864 85.0106L311.853 84.8676L310.6 76.1995L309.611 76.3425ZM310.861 84.9854C310.898 85.383 311.034 85.7433 311.294 86.0273C311.554 86.31 311.901 86.4765 312.288 86.5544L312.485 85.5741C312.255 85.5277 312.116 85.4434 312.031 85.3506C311.947 85.259 311.877 85.119 311.856 84.8928L310.861 84.9854ZM312.288 86.5544L315.993 87.3009L316.191 86.3206L312.485 85.5741L312.288 86.5544ZM315.993 87.3009C316.458 87.3945 316.942 87.3199 317.263 86.9076L316.475 86.2925C316.459 86.313 316.445 86.322 316.42 86.3288C316.387 86.3379 316.316 86.3458 316.191 86.3206L315.993 87.3009ZM317.263 86.9076C317.556 86.5323 317.559 86.0888 317.5 85.6959L316.511 85.8454C316.557 86.147 316.512 86.2446 316.475 86.2925L317.263 86.9076ZM317.499 85.6925L315.709 74.3761L314.721 74.5324L316.512 85.8488L317.499 85.6925ZM315.624 74.7423L320.723 67.5068L319.906 66.9307L314.806 74.1662L315.624 74.7423ZM320.709 67.5263C320.973 67.1876 321.147 66.7393 321.022 66.2762L320.056 66.538C320.071 66.5929 320.068 66.7209 319.92 66.9112L320.709 67.5263ZM321.022 66.2762C320.881 65.7566 320.417 65.5053 319.974 65.416L319.776 66.3963C319.901 66.4215 319.976 66.4587 320.015 66.4876C320.049 66.5126 320.054 66.5291 320.056 66.538L321.022 66.2762ZM319.974 65.416L316.327 64.6813L316.129 65.6616L319.776 66.3963L319.974 65.416ZM316.327 64.6813C315.947 64.6048 315.577 64.6311 315.236 64.7913C314.9 64.9488 314.637 65.2144 314.426 65.5371L315.263 66.0846C315.406 65.8666 315.54 65.7532 315.661 65.6966C315.776 65.6427 315.921 65.6197 316.129 65.6616L316.327 64.6813ZM314.433 65.5265L310.719 70.8989L311.542 71.4675L315.256 66.0952L314.433 65.5265ZM331.012 76.9326L330.522 76.8338L330.423 77.324L330.913 77.4227L331.012 76.9326ZM331.717 73.4329L331.815 72.9427L331.325 72.844L331.227 73.3341L331.717 73.4329ZM330.016 81.8733L330.115 81.3832L329.625 81.2844L329.526 81.7746L330.016 81.8733ZM334.27 83.2403C334.649 83.3165 335.049 83.3037 335.389 83.0833C335.732 82.8612 335.909 82.4964 335.99 82.0974L335.009 81.8999C334.959 82.1479 334.881 82.221 334.845 82.244C334.807 82.2687 334.707 82.3081 334.468 82.26L334.27 83.2403ZM335.99 82.0974L336.606 79.0388L335.626 78.8413L335.009 81.8999L335.99 82.0974ZM336.606 79.0388C336.684 78.6487 336.658 78.2488 336.435 77.913C336.211 77.5772 335.853 77.3978 335.463 77.3192L335.265 78.2995C335.493 78.3454 335.573 78.4225 335.602 78.4666C335.631 78.5106 335.671 78.6139 335.626 78.8413L336.606 79.0388ZM335.463 77.3192L331.11 76.4424L330.913 77.4227L335.265 78.2995L335.463 77.3192ZM331.502 77.0313L332.207 73.5316L331.227 73.3341L330.522 76.8338L331.502 77.0313ZM331.618 73.923L336.147 74.8354L336.344 73.8551L331.815 72.9427L331.618 73.923ZM336.147 74.8354C336.525 74.9116 336.925 74.8988 337.266 74.6784C337.608 74.4563 337.786 74.0915 337.867 73.6925L336.886 73.495C336.836 73.743 336.757 73.8161 336.722 73.8391C336.684 73.8638 336.584 73.9033 336.344 73.8551L336.147 74.8354ZM337.867 73.6925L338.483 70.6339L337.502 70.4364L336.886 73.495L337.867 73.6925ZM338.483 70.6339C338.561 70.2438 338.535 69.8439 338.311 69.5081C338.088 69.1723 337.73 68.9929 337.34 68.9143L337.142 69.8946C337.37 69.9405 337.449 70.0176 337.479 70.0617C337.508 70.1057 337.548 70.209 337.502 70.4364L338.483 70.6339ZM337.34 68.9143L328.399 67.1133L328.202 68.0936L337.142 69.8946L337.34 68.9143ZM328.399 67.1133C327.98 67.0289 327.561 67.0592 327.214 67.2956C326.869 67.5304 326.689 67.9042 326.609 68.3032L327.589 68.5007C327.639 68.2527 327.722 68.1591 327.776 68.1223C327.828 68.0872 327.945 68.0418 328.202 68.0936L328.399 67.1133ZM326.609 68.3032L322.817 87.1251L323.798 87.3226L327.589 68.5007L326.609 68.3032ZM322.817 87.1251C322.735 87.5334 322.752 87.9524 322.986 88.3038C323.219 88.6552 323.599 88.8331 324.007 88.9153L324.205 87.935C323.937 87.881 323.849 87.7964 323.819 87.7503C323.788 87.7042 323.744 87.5907 323.798 87.3226L322.817 87.1251ZM324.007 88.9153L327.419 89.6026L327.616 88.6223L324.205 87.935L324.007 88.9153ZM327.419 89.6026C327.818 89.6829 328.232 89.6623 328.582 89.4351C328.934 89.2064 329.125 88.8318 329.209 88.4127L328.229 88.2152C328.177 88.4724 328.09 88.5623 328.038 88.5963C327.983 88.6318 327.864 88.6722 327.616 88.6223L327.419 89.6026ZM329.209 88.4127L330.507 81.9721L329.526 81.7746L328.229 88.2152L329.209 88.4127ZM329.918 82.3635L334.27 83.2403L334.468 82.26L330.115 81.3832L329.918 82.3635ZM343.138 81.1198L342.648 81.0211L342.55 81.5113L343.04 81.61L343.138 81.1198ZM344.193 75.885L344.292 75.3948L343.802 75.2961L343.703 75.7863L344.193 75.885ZM346.404 76.9118L345.941 77.1015L346.404 76.9118ZM345.568 81.0585L345.921 81.4125L345.568 81.0585ZM342.214 85.7077L342.313 85.2175L341.823 85.1188L341.724 85.6089L342.214 85.7077ZM342.508 85.7669L343 85.6742L342.937 85.3433L342.607 85.2768L342.508 85.7669ZM343.589 91.4931L344.085 91.4317L344.083 91.416L344.08 91.4003L343.589 91.4931ZM343.923 92.2643L343.569 92.6173L343.923 92.2643ZM349.159 92.248L349.647 92.1392L349.647 92.1369L349.159 92.248ZM347.697 85.833L347.57 85.3496L347.103 85.4732L347.21 85.9441L347.697 85.833ZM351.379 73.9358L351.792 73.6534L351.379 73.9358ZM343.629 81.2186L344.683 75.9837L343.703 75.7863L342.648 81.0211L343.629 81.2186ZM344.094 76.3752L344.918 76.541L345.115 75.5607L344.292 75.3948L344.094 76.3752ZM344.918 76.541C345.623 76.6831 345.872 76.9336 345.941 77.1015L346.866 76.7221C346.607 76.0894 345.939 75.7268 345.115 75.5607L344.918 76.541ZM345.941 77.1015C345.984 77.2068 346.02 77.4076 346.01 77.7367C346 78.0568 345.949 78.4596 345.852 78.9428L346.832 79.1403C346.936 78.6236 346.998 78.1616 347.01 77.7669C347.021 77.3812 346.987 77.0171 346.866 76.7221L345.941 77.1015ZM345.852 78.9428C345.751 79.4414 345.641 79.8401 345.525 80.1427C345.406 80.4535 345.296 80.6244 345.215 80.7045L345.921 81.4125C346.148 81.1871 346.32 80.8642 346.459 80.5002C346.602 80.128 346.725 79.671 346.832 79.1403L345.852 78.9428ZM345.215 80.7045C345.097 80.8225 344.79 80.9424 344.061 80.7956L343.863 81.7759C344.663 81.9371 345.427 81.9055 345.921 81.4125L345.215 80.7045ZM344.061 80.7956L343.237 80.6297L343.04 81.61L343.863 81.7759L344.061 80.7956ZM340.805 69.6124C340.406 69.532 340.001 69.5546 339.663 69.7847C339.328 70.013 339.162 70.3769 339.085 70.7553L340.066 70.9528C340.114 70.7137 340.189 70.6366 340.227 70.611C340.262 70.5871 340.359 70.5428 340.607 70.5927L340.805 69.6124ZM339.085 70.7553L335.27 89.6949L336.25 89.8923L340.066 70.9528L339.085 70.7553ZM335.27 89.6949C335.192 90.0822 335.201 90.4877 335.428 90.8295C335.655 91.1712 336.026 91.3364 336.413 91.4144L336.61 90.4341C336.351 90.3818 336.28 90.3052 336.261 90.2759C336.241 90.2466 336.198 90.152 336.25 89.8923L335.27 89.6949ZM336.413 91.4144L339.942 92.1254L340.14 91.1451L336.61 90.4341L336.413 91.4144ZM339.942 92.1254C340.321 92.2016 340.721 92.1888 341.061 91.9684C341.404 91.7463 341.581 91.3814 341.662 90.9824L340.681 90.785C340.631 91.0329 340.553 91.1061 340.517 91.1291C340.479 91.1538 340.379 91.1932 340.14 91.1451L339.942 92.1254ZM341.662 90.9824L342.704 85.8064L341.724 85.6089L340.681 90.785L341.662 90.9824ZM342.115 86.1978L342.41 86.2571L342.607 85.2768L342.313 85.2175L342.115 86.1978ZM342.017 85.8596L343.097 91.5858L344.08 91.4003L343 85.6742L342.017 85.8596ZM343.093 91.5544C343.151 92.0273 343.328 92.3759 343.569 92.6173L344.277 91.9112C344.212 91.8462 344.12 91.712 344.085 91.4317L343.093 91.5544ZM343.569 92.6173C343.842 92.8915 344.25 92.9931 344.618 93.0673L344.816 92.087C344.419 92.0072 344.309 91.9434 344.277 91.9112L343.569 92.6173ZM344.618 93.0673L348.206 93.7901L348.404 92.8098L344.816 92.087L344.618 93.0673ZM348.206 93.7901C348.629 93.8753 349.15 93.8751 349.478 93.4725C349.779 93.104 349.748 92.5892 349.647 92.1392L348.671 92.3569C348.713 92.5453 348.723 92.6765 348.716 92.7617C348.71 92.8456 348.691 92.8556 348.704 92.8399C348.722 92.818 348.736 92.8235 348.699 92.8303C348.652 92.8388 348.559 92.8412 348.404 92.8098L348.206 93.7901ZM349.647 92.1369L348.185 85.7219L347.21 85.9441L348.672 92.3591L349.647 92.1369ZM347.825 86.3163C350.195 85.6892 351.663 83.5648 352.332 80.2482L351.351 80.0507C350.716 83.2041 349.402 84.8648 347.57 85.3496L347.825 86.3163ZM352.332 80.2482C352.912 77.3653 352.787 75.1064 351.792 73.6534L350.967 74.2183C351.722 75.3211 351.92 77.2281 351.351 80.0507L352.332 80.2482ZM351.792 73.6534C350.806 72.2127 348.846 71.2323 346.099 70.6788L345.901 71.6591C348.565 72.1957 350.203 73.1031 350.967 74.2183L351.792 73.6534ZM346.099 70.6788L340.805 69.6124L340.607 70.5927L345.901 71.6591L346.099 70.6788ZM350.609 92.7849C350.531 93.1722 350.54 93.5778 350.767 93.9195C350.994 94.2612 351.365 94.4265 351.752 94.5045L351.95 93.5242C351.69 93.4719 351.62 93.3953 351.6 93.366C351.581 93.3367 351.537 93.2421 351.59 92.9824L350.609 92.7849ZM351.752 94.5045L355.281 95.2154L355.479 94.2351L351.95 93.5242L351.752 94.5045ZM355.281 95.2154C355.66 95.2917 356.06 95.2788 356.4 95.0584C356.743 94.8364 356.92 94.4715 357.001 94.0725L356.021 93.875C355.971 94.123 355.892 94.1961 355.856 94.2192C355.818 94.2439 355.718 94.2833 355.479 94.2351L355.281 95.2154ZM357.001 94.0725L360.816 75.133L359.836 74.9355L356.021 93.875L357.001 94.0725ZM360.816 75.133C360.895 74.7428 360.868 74.3429 360.645 74.0072C360.422 73.6714 360.063 73.492 359.673 73.4134L359.476 74.3937C359.703 74.4395 359.783 74.5167 359.812 74.5607C359.841 74.6048 359.882 74.708 359.836 74.9355L360.816 75.133ZM359.673 73.4134L356.144 72.7025L355.947 73.6828L359.476 74.3937L359.673 73.4134ZM356.144 72.7025C355.745 72.6221 355.34 72.6447 355.002 72.8748C354.668 73.1031 354.501 73.4669 354.425 73.8454L355.405 74.0429C355.453 73.8037 355.528 73.7266 355.566 73.701C355.601 73.6772 355.699 73.6328 355.947 73.6828L356.144 72.7025ZM354.425 73.8454L350.609 92.7849L351.59 92.9824L355.405 74.0429L354.425 73.8454ZM369.141 96.5487L368.989 96.0723L368.985 96.0737L369.141 96.5487ZM372.192 93.8583L372.623 94.112L372.192 93.8583ZM374.868 82.554L374.368 82.5616L374.868 82.554ZM374.072 79.0581L374.515 78.825L374.51 78.8161L374.505 78.8073L374.072 79.0581ZM371.992 76.9254L372.245 76.4939L371.992 76.9254ZM368.88 81.2866L368.479 81.5849L368.479 81.5849L368.88 81.2866ZM369.266 83.0169L369.766 83.0279L369.766 83.0174L369.766 83.0069L369.266 83.0169ZM367.449 90.9747L367.034 90.695L367.449 90.9747ZM364.941 91.5713L364.451 91.4726L364.352 91.9627L364.843 92.0615L364.941 91.5713ZM367.169 80.5135L367.268 80.0233L366.777 79.9246L366.679 80.4147L367.169 80.5135ZM364.447 97.0619C366.343 97.4438 367.97 97.4599 369.297 97.0237L368.985 96.0737C367.887 96.4343 366.455 96.4462 364.645 96.0816L364.447 97.0619ZM369.293 97.0252C370.617 96.6035 371.741 95.6106 372.623 94.112L371.762 93.6047C370.969 94.9513 370.02 95.7441 368.989 96.0723L369.293 97.0252ZM372.623 94.112C373.5 92.6233 374.229 90.535 374.78 87.8L373.8 87.6025C373.26 90.2788 372.56 92.2481 371.762 93.6047L372.623 94.112ZM374.78 87.8C375.193 85.75 375.39 84.0062 375.367 82.5464L374.368 82.5616C374.388 83.9259 374.204 85.594 373.8 87.6025L374.78 87.8ZM375.367 82.5464C375.345 81.0712 375.045 79.8316 374.515 78.825L373.63 79.2912C374.074 80.1334 374.347 81.2126 374.368 82.5616L375.367 82.5464ZM374.505 78.8073C373.944 77.8401 373.204 77.0554 372.245 76.4939L371.74 77.3568C372.533 77.8215 373.156 78.4743 373.64 79.3089L374.505 78.8073ZM372.245 76.4939C371.311 75.9465 370.144 75.5227 368.722 75.2362L368.524 76.2165C369.866 76.4869 370.923 76.8781 371.74 77.3568L372.245 76.4939ZM368.722 75.2362L363.781 74.2409L363.583 75.2212L368.524 76.2165L368.722 75.2362ZM363.781 74.2409C363.382 74.1605 362.977 74.1831 362.639 74.4132C362.304 74.6415 362.138 75.0053 362.061 75.3838L363.042 75.5813C363.09 75.3422 363.165 75.265 363.202 75.2394C363.238 75.2156 363.335 75.1712 363.583 75.2212L363.781 74.2409ZM362.061 75.3838L358.246 94.3233L359.226 94.5208L363.042 75.5813L362.061 75.3838ZM358.246 94.3233C358.168 94.7106 358.177 95.1162 358.404 95.4579C358.631 95.7996 359.002 95.9649 359.389 96.0429L359.586 95.0626C359.327 95.0103 359.256 94.9337 359.237 94.9044C359.217 94.8751 359.174 94.7805 359.226 94.5208L358.246 94.3233ZM359.389 96.0429L364.447 97.0619L364.645 96.0816L359.586 95.0626L359.389 96.0429ZM367.541 81.0984C368.053 81.2016 368.335 81.3916 368.479 81.5849L369.281 80.9883C368.943 80.5337 368.402 80.2519 367.738 80.1181L367.541 81.0984ZM368.479 81.5849C368.619 81.7742 368.75 82.2111 368.766 83.0268L369.766 83.0069C369.749 82.1634 369.622 81.4468 369.281 80.9883L368.479 81.5849ZM368.766 83.0058C368.748 83.8177 368.605 84.9799 368.3 86.4946L369.28 86.6921C369.591 85.1483 369.746 83.9222 369.766 83.0279L368.766 83.0058ZM368.3 86.4946C368.071 87.633 367.848 88.5491 367.632 89.2552C367.412 89.9711 367.209 90.435 367.034 90.695L367.863 91.2544C368.124 90.8678 368.361 90.288 368.588 89.5483C368.817 88.7989 369.048 87.8477 369.28 86.6921L368.3 86.4946ZM367.034 90.695C366.868 90.9411 366.675 91.0892 366.461 91.1677C366.244 91.2477 365.97 91.2686 365.628 91.1997L365.431 92.18C365.912 92.2769 366.38 92.2635 366.807 92.1061C367.238 91.9473 367.593 91.6549 367.863 91.2544L367.034 90.695ZM365.628 91.1997L365.04 91.0812L364.843 92.0615L365.431 92.18L365.628 91.1997ZM365.431 91.6701L367.659 80.6122L366.679 80.4147L364.451 91.4726L365.431 91.6701ZM367.07 81.0036L367.541 81.0984L367.738 80.1181L367.268 80.0233L367.07 81.0036ZM380.943 91.3674L380.473 91.1985L380.277 91.7433L380.845 91.8576L380.943 91.3674ZM383.524 84.1755L383.623 83.6854L383.2 83.6L383.054 84.0066L383.524 84.1755ZM383.642 84.1992L384.141 84.2257L384.164 83.7943L383.741 83.709L383.642 84.1992ZM383.237 91.8295L383.139 92.3197L383.706 92.434L383.737 91.856L383.237 91.8295ZM380.284 79.1465L379.818 78.9652L379.817 78.9673L380.284 79.1465ZM373.328 97.2697L373.792 97.4546L373.795 97.4489L373.328 97.2697ZM373.291 98.0581L373.731 97.8201L373.291 98.0581ZM378.745 98.4834L379.208 98.6721L379.212 98.6629L379.215 98.6535L378.745 98.4834ZM379.643 96.0018L379.741 95.5116L379.319 95.4266L379.172 95.8317L379.643 96.0018ZM382.642 96.6061L383.142 96.6313L383.163 96.201L382.741 96.1159L382.642 96.6061ZM382.509 99.2417L383.008 99.2701L383.009 99.2669L382.509 99.2417ZM387.672 100.955L387.359 100.565L387.672 100.955ZM387.974 100.22L387.474 100.205L387.474 100.211L387.974 100.22ZM388.577 80.8172L389.077 80.8327L389.077 80.8211L389.077 80.8095L388.577 80.8172ZM381.414 91.5363L383.995 84.3444L383.054 84.0066L380.473 91.1985L381.414 91.5363ZM383.426 84.6657L383.543 84.6894L383.741 83.709L383.623 83.6854L383.426 84.6657ZM383.143 84.1727L382.738 91.803L383.737 91.856L384.141 84.2257L383.143 84.1727ZM383.336 91.3394L381.042 90.8773L380.845 91.8576L383.139 92.3197L383.336 91.3394ZM381.943 77.8995C381.488 77.808 381.044 77.8276 380.655 78.0153C380.259 78.2067 379.982 78.5432 379.818 78.9652L380.75 79.3278C380.839 79.0971 380.961 78.9782 381.09 78.9158C381.226 78.8498 381.435 78.8174 381.745 78.8798L381.943 77.8995ZM379.817 78.9673L372.861 97.0906L373.795 97.4489L380.751 79.3257L379.817 78.9673ZM372.863 97.0849C372.72 97.4456 372.634 97.8942 372.852 98.296L373.731 97.8201C373.726 97.8097 373.688 97.7171 373.792 97.4546L372.863 97.0849ZM372.852 98.296C373.059 98.6795 373.438 98.8731 373.845 98.9551L374.043 97.9748C373.803 97.9264 373.747 97.8488 373.731 97.8201L372.852 98.296ZM373.845 98.9551L377.462 99.6838L377.66 98.7035L374.043 97.9748L373.845 98.9551ZM377.462 99.6838C377.83 99.7579 378.2 99.7294 378.529 99.5322C378.849 99.3402 379.063 99.0285 379.208 98.6721L378.282 98.2947C378.185 98.5322 378.086 98.6319 378.015 98.6746C377.952 98.7123 377.851 98.7419 377.66 98.7035L377.462 99.6838ZM379.215 98.6535L380.113 96.1719L379.172 95.8317L378.275 98.3133L379.215 98.6535ZM379.544 96.492L382.544 97.0962L382.741 96.1159L379.741 95.5116L379.544 96.492ZM382.143 96.5809L382.01 99.2165L383.009 99.2669L383.142 96.6313L382.143 96.5809ZM382.01 99.2133C381.988 99.6003 382.053 99.9784 382.28 100.288C382.51 100.602 382.852 100.769 383.227 100.845L383.424 99.8647C383.211 99.8217 383.126 99.7505 383.086 99.6963C383.043 99.6377 382.994 99.5185 383.008 99.2701L382.01 99.2133ZM383.227 100.845L386.844 101.574L387.041 100.593L383.424 99.8647L383.227 100.845ZM386.844 101.574C387.23 101.652 387.651 101.614 387.986 101.345L387.359 100.565C387.329 100.59 387.243 100.634 387.041 100.593L386.844 101.574ZM387.986 101.345C388.316 101.079 388.465 100.666 388.473 100.23L387.474 100.211C387.469 100.445 387.394 100.537 387.359 100.565L387.986 101.345ZM388.473 100.236L389.077 80.8327L388.077 80.8016L387.474 100.205L388.473 100.236ZM389.077 80.8095C389.07 80.3692 388.949 79.9588 388.665 79.6313C388.382 79.3067 387.986 79.117 387.53 79.0252L387.333 80.0055C387.642 80.0677 387.813 80.176 387.91 80.2873C388.004 80.3956 388.073 80.5591 388.077 80.8248L389.077 80.8095ZM387.53 79.0252L381.943 77.8995L381.745 78.8798L387.333 80.0055L387.53 79.0252ZM397.844 95.1393L397.42 94.8749L397.372 94.9518L397.354 95.0406L397.844 95.1393ZM404.673 84.182L404.278 83.8745L404.262 83.8952L404.248 83.9176L404.673 84.182ZM404.821 83.4468L404.333 83.5556L404.333 83.5556L404.821 83.4468ZM399.05 82.7739L399.505 82.9815L399.508 82.9742L399.511 82.9669L399.05 82.7739ZM397.132 86.9779L396.677 86.7704L396.668 86.791L396.66 86.8123L397.132 86.9779ZM396.199 89.636L396.1 90.1261L396.526 90.212L396.671 89.8016L396.199 89.636ZM396.081 89.6123L395.582 89.5823L395.556 90.0165L395.982 90.1024L396.081 89.6123ZM396.25 86.8002L396.749 86.8301L396.75 86.8076L396.75 86.785L396.25 86.8002ZM396.109 82.1815L396.609 82.1663L396.609 82.1584L396.109 82.1815ZM390.499 80.5616L390.906 80.8509L390.906 80.8509L390.499 80.5616ZM390.38 81.3027L390.873 81.2232L390.865 81.1737L390.848 81.1267L390.38 81.3027ZM392.433 94.0492L392.923 94.148L392.941 94.0592L392.927 93.9697L392.433 94.0492ZM398.269 95.4038L405.097 84.4465L404.248 83.9176L397.42 94.8749L398.269 95.4038ZM405.067 84.4895C405.334 84.1473 405.402 83.7554 405.309 83.3379L404.333 83.5556C404.368 83.7149 404.342 83.7936 404.278 83.8745L405.067 84.4895ZM405.309 83.3379C405.189 82.7992 404.749 82.4938 404.238 82.3909L404.04 83.3712C404.294 83.4223 404.324 83.5176 404.333 83.5556L405.309 83.3379ZM404.238 82.3909L400.532 81.6444L400.335 82.6247L404.04 83.3712L404.238 82.3909ZM400.532 81.6444C400.127 81.5628 399.725 81.5732 399.368 81.737C399.002 81.9049 398.746 82.2051 398.589 82.581L399.511 82.9669C399.59 82.7782 399.688 82.6907 399.785 82.6459C399.892 82.597 400.064 82.57 400.335 82.6247L400.532 81.6444ZM398.595 82.5664L396.677 86.7704L397.587 87.1855L399.505 82.9815L398.595 82.5664ZM396.66 86.8123L395.727 89.4703L396.671 89.8016L397.604 87.1436L396.66 86.8123ZM396.298 89.1458L396.18 89.1221L395.982 90.1024L396.1 90.1261L396.298 89.1458ZM396.58 89.6422L396.749 86.8301L395.751 86.7703L395.582 89.5823L396.58 89.6422ZM396.75 86.785L396.609 82.1663L395.609 82.1967L395.75 86.8154L396.75 86.785ZM396.609 82.1584C396.59 81.7558 396.462 81.3879 396.195 81.0978C395.932 80.8117 395.576 80.6459 395.18 80.5661L394.982 81.5464C395.233 81.597 395.377 81.685 395.459 81.7744C395.537 81.8598 395.6 81.9893 395.61 82.2046L396.609 82.1584ZM395.18 80.5661L391.474 79.8197L391.277 80.8L394.982 81.5464L395.18 80.5661ZM391.474 79.8197C390.944 79.7129 390.415 79.8155 390.091 80.2723L390.906 80.8509C390.926 80.8226 390.949 80.8055 390.988 80.7938C391.036 80.7798 391.126 80.7696 391.277 80.8L391.474 79.8197ZM390.091 80.2723C389.974 80.4371 389.881 80.6252 389.845 80.8393C389.808 81.0575 389.834 81.2722 389.912 81.4788L390.848 81.1267C390.826 81.0683 390.826 81.033 390.831 81.007C390.836 80.977 390.852 80.9271 390.906 80.8509L390.091 80.2723ZM389.886 81.3823L391.939 94.1288L392.927 93.9697L390.873 81.2232L389.886 81.3823ZM391.943 93.9505L390.557 100.832L391.537 101.03L392.923 94.148L391.943 93.9505ZM390.557 100.832C390.479 101.22 390.487 101.625 390.715 101.967C390.942 102.309 391.312 102.474 391.7 102.552L391.897 101.572C391.637 101.519 391.567 101.443 391.547 101.413C391.528 101.384 391.485 101.289 391.537 101.03L390.557 100.832ZM391.7 102.552L395.229 103.263L395.426 102.282L391.897 101.572L391.7 102.552ZM395.229 103.263C395.607 103.339 396.007 103.326 396.347 103.106C396.69 102.884 396.868 102.519 396.948 102.12L395.968 101.922C395.918 102.17 395.839 102.243 395.804 102.266C395.765 102.291 395.665 102.331 395.426 102.282L395.229 103.263ZM396.948 102.12L398.335 95.2381L397.354 95.0406L395.968 101.922L396.948 102.12ZM419.093 86.8422L419.57 86.9942L419.571 86.9892L419.093 86.8422ZM416.269 95.6988L415.792 95.5469L415.79 95.5537L415.788 95.5606L416.269 95.6988ZM415.145 99.6039L415.047 100.094L415.499 100.185L415.626 99.7421L415.145 99.6039ZM415.087 99.592L414.589 99.5444L414.546 99.9932L414.988 100.082L415.087 99.592ZM415.475 95.5389L415.972 95.5865L415.973 95.5793L415.974 95.5721L415.475 95.5389ZM416.094 86.2379L416.593 86.2711L416.594 86.2549L416.594 86.2386L416.094 86.2379ZM410.601 84.4888L410.914 84.8784L410.914 84.8784L410.601 84.4888ZM410.335 85.2003L410.835 85.2175L410.835 85.2093L410.835 85.201L410.335 85.2003ZM409.673 104.438L410.172 104.464L410.173 104.456L409.673 104.438ZM416.966 105.908L417.43 106.094L417.436 106.081L417.44 106.067L416.966 105.908ZM418.491 101.379L418.965 101.539L418.968 101.529L418.491 101.379ZM419.956 96.6865L420.055 96.1963L419.613 96.1074L419.479 96.5374L419.956 96.6865ZM420.015 96.6983L420.513 96.7457L420.556 96.2972L420.114 96.2082L420.015 96.6983ZM419.549 101.593L419.052 101.545L419.051 101.556L419.549 101.593ZM419.202 106.358L418.703 106.321L418.702 106.332L419.202 106.358ZM426.495 107.827L426.959 108.014L426.962 108.005L426.495 107.827ZM433.333 89.8332L432.872 89.6403L432.869 89.6479L432.866 89.6556L433.333 89.8332ZM433.334 89.0684L432.894 89.3063L432.894 89.3063L433.334 89.0684ZM427.622 88.5603L427.152 88.3899L427.149 88.3978L427.622 88.5603ZM424.592 97.3754L424.119 97.2129L424.116 97.2197L424.114 97.2267L424.592 97.3754ZM423.38 101.263L423.281 101.753L423.723 101.842L423.857 101.412L423.38 101.263ZM423.321 101.251L422.825 101.192L422.771 101.65L423.222 101.741L423.321 101.251ZM423.797 97.2155L424.294 97.2741L424.295 97.267L424.296 97.2598L423.797 97.2155ZM424.622 87.956L424.125 87.9065L424.124 87.9117L424.622 87.956ZM420.376 85.6418C419.982 85.5625 419.592 85.5927 419.258 85.7986C418.926 86.0028 418.727 86.3323 418.615 86.6952L419.571 86.9892C419.637 86.7758 419.721 86.688 419.782 86.65C419.841 86.6138 419.954 86.577 420.178 86.6221L420.376 85.6418ZM418.617 86.6903L415.792 95.5469L416.745 95.8507L419.57 86.9941L418.617 86.6903ZM415.788 95.5606L414.665 99.4657L415.626 99.7421L416.749 95.837L415.788 95.5606ZM415.244 99.1137L415.185 99.1019L414.988 100.082L415.047 100.094L415.244 99.1137ZM415.584 99.6397L415.972 95.5865L414.977 95.4912L414.589 99.5444L415.584 99.6397ZM415.974 95.5721L416.593 86.2711L415.595 86.2047L414.976 95.5057L415.974 95.5721ZM416.594 86.2386C416.594 85.867 416.516 85.5029 416.302 85.2032C416.081 84.8942 415.756 84.7111 415.376 84.6347L415.179 85.615C415.358 85.6511 415.441 85.7186 415.489 85.7851C415.543 85.8608 415.594 85.9969 415.594 86.2372L416.594 86.2386ZM415.376 84.6347L411.465 83.8467L411.267 84.827L415.179 85.615L415.376 84.6347ZM411.465 83.8467C411.015 83.7561 410.6 83.8478 410.288 84.0991L410.914 84.8784C410.967 84.8361 411.07 84.7873 411.267 84.827L411.465 83.8467ZM410.288 84.0991C409.934 84.3831 409.836 84.8263 409.835 85.1996L410.835 85.201C410.835 84.9624 410.902 84.8881 410.914 84.8784L410.288 84.0991ZM409.835 85.1831L409.173 104.421L410.173 104.456L410.835 85.2175L409.835 85.1831ZM409.174 104.413C409.149 104.897 409.241 105.345 409.503 105.703C409.768 106.065 410.159 106.27 410.602 106.36L410.799 105.379C410.536 105.326 410.393 105.225 410.31 105.112C410.224 104.994 410.155 104.797 410.172 104.464L409.174 104.413ZM410.602 106.36L415.366 107.319L415.564 106.339L410.799 105.379L410.602 106.36ZM415.366 107.319C415.811 107.409 416.245 107.369 416.627 107.135C416.998 106.907 417.253 106.535 417.43 106.094L416.502 105.721C416.373 106.045 416.23 106.205 416.104 106.282C415.987 106.354 415.824 106.392 415.564 106.339L415.366 107.319ZM417.44 106.067L418.965 101.539L418.017 101.22L416.493 105.748L417.44 106.067ZM418.968 101.529L420.434 96.8356L419.479 96.5374L418.013 101.23L418.968 101.529ZM419.858 97.1767L419.916 97.1885L420.114 96.2082L420.055 96.1963L419.858 97.1767ZM419.517 96.651L419.052 101.545L420.047 101.64L420.513 96.7457L419.517 96.651ZM419.051 101.556L418.703 106.322L419.7 106.394L420.048 101.629L419.051 101.556ZM418.702 106.332C418.677 106.817 418.769 107.264 419.031 107.622C419.296 107.984 419.687 108.19 420.13 108.279L420.328 107.299C420.065 107.246 419.921 107.145 419.838 107.032C419.752 106.914 419.684 106.717 419.701 106.384L418.702 106.332ZM420.13 108.279L424.895 109.239L425.092 108.259L420.328 107.299L420.13 108.279ZM424.895 109.239C425.34 109.329 425.774 109.288 426.155 109.054C426.527 108.826 426.782 108.455 426.959 108.014L426.031 107.641C425.901 107.964 425.758 108.125 425.632 108.202C425.516 108.273 425.353 108.311 425.092 108.259L424.895 109.239ZM426.962 108.005L433.801 90.0108L432.866 89.6556L426.028 107.65L426.962 108.005ZM433.794 90.0262C433.957 89.637 433.973 89.1977 433.774 88.8304L432.894 89.3063C432.919 89.3512 432.945 89.4649 432.872 89.6403L433.794 90.0262ZM433.774 88.8304C433.587 88.485 433.245 88.2344 432.816 88.1479L432.618 89.1282C432.777 89.1601 432.858 89.2396 432.894 89.3063L433.774 88.8304ZM432.816 88.1479L428.904 87.3599L428.707 88.3402L432.618 89.1282L432.816 88.1479ZM428.904 87.3599C428.518 87.282 428.138 87.3184 427.809 87.5211C427.486 87.7198 427.28 88.037 427.152 88.3899L428.092 88.7307C428.171 88.5132 428.262 88.416 428.333 88.3725C428.397 88.3331 428.505 88.2996 428.707 88.3402L428.904 87.3599ZM427.149 88.3978L424.119 97.2129L425.064 97.538L428.095 88.7229L427.149 88.3978ZM424.114 97.2267L422.903 101.114L423.857 101.412L425.069 97.5242L424.114 97.2267ZM423.479 100.773L423.42 100.761L423.222 101.741L423.281 101.753L423.479 100.773ZM423.818 101.309L424.294 97.2741L423.301 97.1569L422.825 101.192L423.818 101.309ZM424.296 97.2598L425.12 88.0004L424.124 87.9117L423.299 97.1711L424.296 97.2598ZM425.12 88.0055C425.159 87.6165 425.089 87.2356 424.861 86.9235C424.631 86.6107 424.289 86.4301 423.905 86.3527L423.707 87.3331C423.911 87.3741 424.007 87.4502 424.054 87.5143C424.101 87.579 424.146 87.6955 424.125 87.9065L425.12 88.0055ZM423.905 86.3527L420.376 85.6418L420.178 86.6221L423.707 87.3331L423.905 86.3527ZM438.685 98.0111L438.195 97.9124L438.096 98.4025L438.586 98.5013L438.685 98.0111ZM439.271 95.0996L439.37 94.6095L438.88 94.5107L438.781 95.0009L439.271 95.0996ZM437.067 106.04L436.577 105.941L436.479 106.431L436.969 106.53L437.067 106.04ZM437.725 102.775L437.824 102.285L437.334 102.187L437.235 102.677L437.725 102.775ZM442.214 104.19C442.593 104.266 442.993 104.253 443.333 104.033C443.676 103.811 443.853 103.446 443.934 103.047L442.953 102.849C442.904 103.097 442.825 103.17 442.789 103.194C442.751 103.218 442.651 103.258 442.412 103.209L442.214 104.19ZM443.934 103.047L444.514 100.165L443.534 99.9673L442.953 102.849L443.934 103.047ZM444.514 100.165C444.593 99.7746 444.566 99.3747 444.343 99.039C444.12 98.7032 443.762 98.5238 443.371 98.4452L443.174 99.4255C443.401 99.4713 443.481 99.5484 443.51 99.5925C443.54 99.6366 443.58 99.7398 443.534 99.9673L444.514 100.165ZM443.371 98.4452L438.784 97.521L438.586 98.5013L443.174 99.4255L443.371 98.4452ZM439.175 98.1099L439.762 95.1984L438.781 95.0009L438.195 97.9124L439.175 98.1099ZM439.173 95.5898L444.055 96.5732L444.252 95.5929L439.37 94.6095L439.173 95.5898ZM444.055 96.5732C444.433 96.6495 444.833 96.6366 445.173 96.4162C445.516 96.1942 445.694 95.8293 445.774 95.4303L444.794 95.2328C444.744 95.4808 444.665 95.5539 444.63 95.577C444.591 95.6017 444.491 95.6411 444.252 95.5929L444.055 96.5732ZM445.774 95.4303L446.39 92.3717L445.41 92.1743L444.794 95.2328L445.774 95.4303ZM446.39 92.3717C446.469 91.9816 446.442 91.5817 446.219 91.246C445.996 90.9102 445.637 90.7308 445.247 90.6522L445.05 91.6325C445.277 91.6783 445.357 91.7554 445.386 91.7995C445.416 91.8436 445.456 91.9468 445.41 92.1743L446.39 92.3717ZM445.247 90.6522L435.954 88.7801L435.757 89.7604L445.05 91.6325L445.247 90.6522ZM435.954 88.7801C435.555 88.6997 435.15 88.7223 434.812 88.9524C434.477 89.1807 434.311 89.5445 434.234 89.923L435.215 90.1205C435.263 89.8813 435.338 89.8042 435.376 89.7786C435.411 89.7548 435.509 89.7104 435.757 89.7604L435.954 88.7801ZM434.234 89.923L430.419 108.863L431.399 109.06L435.215 90.1205L434.234 89.923ZM430.419 108.863C430.341 109.25 430.35 109.655 430.577 109.997C430.804 110.339 431.175 110.504 431.562 110.582L431.76 109.602C431.5 109.549 431.429 109.473 431.41 109.444C431.39 109.414 431.347 109.32 431.399 109.06L430.419 108.863ZM431.562 110.582L440.973 112.478L441.17 111.498L431.76 109.602L431.562 110.582ZM440.973 112.478C441.351 112.554 441.751 112.541 442.092 112.321C442.434 112.099 442.612 111.734 442.693 111.335L441.712 111.137C441.662 111.385 441.584 111.459 441.548 111.482C441.51 111.506 441.41 111.546 441.17 111.498L440.973 112.478ZM442.693 111.335L443.309 108.276L442.328 108.079L441.712 111.137L442.693 111.335ZM443.309 108.276C443.387 107.886 443.361 107.486 443.137 107.151C442.914 106.815 442.556 106.635 442.166 106.557L441.968 107.537C442.196 107.583 442.275 107.66 442.305 107.704C442.334 107.748 442.374 107.851 442.328 108.079L443.309 108.276ZM442.166 106.557L437.166 105.55L436.969 106.53L441.968 107.537L442.166 106.557ZM437.558 106.139L438.215 102.874L437.235 102.677L436.577 105.941L437.558 106.139ZM437.626 103.266L442.214 104.19L442.412 103.209L437.824 102.285L437.626 103.266ZM451.81 100.655L451.32 100.556L451.221 101.047L451.711 101.145L451.81 100.655ZM452.396 97.7436L452.495 97.2535L452.005 97.1547L451.906 97.6449L452.396 97.7436ZM450.192 108.684L449.702 108.585L449.604 109.075L450.094 109.174L450.192 108.684ZM450.85 105.419L450.949 104.929L450.459 104.831L450.36 105.321L450.85 105.419ZM455.339 106.834C455.718 106.91 456.118 106.897 456.458 106.677C456.801 106.455 456.978 106.09 457.059 105.691L456.078 105.493C456.029 105.741 455.95 105.814 455.914 105.838C455.876 105.862 455.776 105.902 455.537 105.853L455.339 106.834ZM457.059 105.691L457.639 102.809L456.659 102.611L456.078 105.493L457.059 105.691ZM457.639 102.809C457.718 102.419 457.691 102.019 457.468 101.683C457.245 101.347 456.887 101.168 456.496 101.089L456.299 102.07C456.526 102.115 456.606 102.192 456.635 102.237C456.665 102.281 456.705 102.384 456.659 102.611L457.639 102.809ZM456.496 101.089L451.909 100.165L451.711 101.145L456.299 102.07L456.496 101.089ZM452.3 100.754L452.887 97.8424L451.906 97.6449L451.32 100.556L452.3 100.754ZM452.298 98.2338L457.18 99.2172L457.377 98.2369L452.495 97.2535L452.298 98.2338ZM457.18 99.2172C457.558 99.2935 457.958 99.2806 458.298 99.0603C458.641 98.8382 458.819 98.4733 458.899 98.0743L457.919 97.8768C457.869 98.1248 457.79 98.1979 457.755 98.221C457.716 98.2457 457.616 98.2851 457.377 98.2369L457.18 99.2172ZM458.899 98.0743L459.515 95.0158L458.535 94.8183L457.919 97.8768L458.899 98.0743ZM459.515 95.0158C459.594 94.6256 459.567 94.2257 459.344 93.89C459.121 93.5542 458.762 93.3748 458.372 93.2962L458.175 94.2765C458.402 94.3223 458.482 94.3995 458.511 94.4435C458.541 94.4876 458.581 94.5908 458.535 94.8183L459.515 95.0158ZM458.372 93.2962L449.079 91.4241L448.882 92.4044L458.175 94.2765L458.372 93.2962ZM449.079 91.4241C448.68 91.3437 448.275 91.3663 447.937 91.5964C447.602 91.8247 447.436 92.1885 447.359 92.567L448.34 92.7645C448.388 92.5254 448.463 92.4482 448.501 92.4226C448.536 92.3988 448.634 92.3544 448.882 92.4044L449.079 91.4241ZM447.359 92.567L443.544 111.507L444.524 111.704L448.34 92.7645L447.359 92.567ZM443.544 111.507C443.466 111.894 443.475 112.299 443.702 112.641C443.929 112.983 444.3 113.148 444.687 113.226L444.885 112.246C444.625 112.193 444.554 112.117 444.535 112.088C444.515 112.058 444.472 111.964 444.524 111.704L443.544 111.507ZM444.687 113.226L454.098 115.122L454.295 114.142L444.885 112.246L444.687 113.226ZM454.098 115.122C454.476 115.198 454.876 115.185 455.217 114.965C455.559 114.743 455.737 114.378 455.818 113.979L454.837 113.782C454.787 114.03 454.709 114.103 454.673 114.126C454.635 114.15 454.535 114.19 454.295 114.142L454.098 115.122ZM455.818 113.979L456.434 110.92L455.453 110.723L454.837 113.782L455.818 113.979ZM456.434 110.92C456.512 110.53 456.486 110.13 456.262 109.795C456.039 109.459 455.681 109.279 455.291 109.201L455.093 110.181C455.321 110.227 455.4 110.304 455.43 110.348C455.459 110.392 455.499 110.495 455.453 110.723L456.434 110.92ZM455.291 109.201L450.291 108.194L450.094 109.174L455.093 110.181L455.291 109.201ZM450.683 108.783L451.34 105.518L450.36 105.321L449.702 108.585L450.683 108.783ZM450.751 105.91L455.339 106.834L455.537 105.853L450.949 104.929L450.751 105.91ZM465.213 102.223L464.723 102.124L465.624 102.507L465.213 102.223ZM464.188 107.311L464.683 107.239L463.698 107.212L464.188 107.311ZM465.441 115.979L465.939 115.933L465.938 115.92L465.936 115.907L465.441 115.979ZM470.951 117.64L471.346 117.947L470.951 117.64ZM471.088 116.81L471.582 116.736L471.582 116.732L471.088 116.81ZM469.297 105.494L468.889 105.206L468.772 105.372L468.804 105.572L469.297 105.494ZM474.397 98.2584L474.002 97.9509L473.995 97.9605L473.988 97.9704L474.397 98.2584ZM474.621 97.4468L475.104 97.3159L475.104 97.3159L474.621 97.4468ZM468.927 96.8505L469.338 97.135L469.345 97.1242L468.927 96.8505ZM465.703 102.322L466.876 96.4986L465.896 96.3011L464.723 102.124L465.703 102.322ZM466.876 96.4986C466.955 96.1085 466.928 95.7086 466.705 95.3728C466.482 95.037 466.123 94.8576 465.733 94.779L465.536 95.7593C465.763 95.8051 465.843 95.8823 465.872 95.9263C465.901 95.9704 465.942 96.0736 465.896 96.3011L466.876 96.4986ZM465.733 94.779L462.204 94.0681L462.007 95.0484L465.536 95.7593L465.733 94.779ZM462.204 94.0681C461.805 93.9877 461.4 94.0103 461.062 94.2404C460.727 94.4687 460.561 94.8325 460.484 95.211L461.465 95.4085C461.513 95.1694 461.588 95.0923 461.626 95.0666C461.661 95.0428 461.759 94.9984 462.007 95.0484L462.204 94.0681ZM460.484 95.211L456.669 114.151L457.649 114.348L461.465 95.4085L460.484 95.211ZM456.669 114.151C456.591 114.538 456.6 114.943 456.827 115.285C457.054 115.627 457.425 115.792 457.812 115.87L458.01 114.89C457.75 114.837 457.679 114.761 457.66 114.732C457.64 114.702 457.597 114.608 457.649 114.348L456.669 114.151ZM457.812 115.87L461.341 116.581L461.539 115.601L458.01 114.89L457.812 115.87ZM461.341 116.581C461.72 116.657 462.12 116.644 462.46 116.424C462.803 116.202 462.98 115.837 463.061 115.438L462.08 115.241C462.03 115.489 461.952 115.562 461.916 115.585C461.878 115.609 461.778 115.649 461.539 115.601L461.341 116.581ZM463.061 115.438L464.678 107.409L463.698 107.212L462.08 115.241L463.061 115.438ZM463.693 107.382L464.946 116.05L465.936 115.907L464.683 107.239L463.693 107.382ZM464.943 116.025C464.98 116.423 465.116 116.783 465.377 117.067C465.637 117.35 465.983 117.516 466.37 117.594L466.568 116.614C466.337 116.567 466.198 116.483 466.113 116.39C466.029 116.299 465.96 116.159 465.939 115.933L464.943 116.025ZM466.37 117.594L470.076 118.341L470.273 117.36L466.568 116.614L466.37 117.594ZM470.076 118.341C470.54 118.434 471.024 118.36 471.346 117.947L470.557 117.332C470.541 117.353 470.528 117.362 470.502 117.369C470.469 117.378 470.398 117.385 470.273 117.36L470.076 118.341ZM471.346 117.947C471.638 117.572 471.642 117.128 471.582 116.736L470.593 116.885C470.639 117.187 470.595 117.284 470.557 117.332L471.346 117.947ZM471.582 116.732L469.791 105.416L468.804 105.572L470.594 116.888L471.582 116.732ZM469.706 105.782L474.805 98.5464L473.988 97.9704L468.889 105.206L469.706 105.782ZM474.791 98.5659C475.055 98.2273 475.23 97.7789 475.104 97.3159L474.139 97.5777C474.154 97.6326 474.151 97.7606 474.002 97.9509L474.791 98.5659ZM475.104 97.3159C474.963 96.7962 474.499 96.5449 474.056 96.4556L473.858 97.4359C473.984 97.4612 474.058 97.4984 474.097 97.5273C474.131 97.5523 474.136 97.5687 474.139 97.5777L475.104 97.3159ZM474.056 96.4556L470.409 95.721L470.212 96.7013L473.858 97.4359L474.056 96.4556ZM470.409 95.721C470.029 95.6444 469.66 95.6708 469.318 95.831C468.983 95.9885 468.72 96.254 468.509 96.5768L469.345 97.1242C469.488 96.9062 469.623 96.7928 469.743 96.7363C469.858 96.6823 470.004 96.6594 470.212 96.7013L470.409 95.721ZM468.516 96.5662L464.802 101.939L465.624 102.507L469.338 97.1349L468.516 96.5662ZM484.58 111.143L485.052 110.978L485.049 110.969L485.045 110.96L484.58 111.143ZM482.261 107.616L482.641 107.291L482.633 107.282L482.261 107.616ZM484.684 104.095L484.469 104.547L484.481 104.552L484.684 104.095ZM486.543 99.879L486.983 99.6411L486.983 99.6411L486.543 99.879ZM485.885 99.3486L486.1 98.8969L486.088 98.8915L485.885 99.3486ZM477.343 98.7601L477.607 99.185L477.343 98.7601ZM475.16 107.165L475.625 106.981L475.16 107.165ZM477.315 110.445L477.678 110.101L477.677 110.1L477.315 110.445ZM478.913 112.388L479.354 112.155L479.348 112.143L479.342 112.132L478.913 112.388ZM474.08 113.588L474.335 113.157L474.323 113.15L474.31 113.144L474.08 113.588ZM472.21 117.71L471.793 117.986L472.21 117.71ZM472.956 118.258L473.189 117.815L473.186 117.814L472.956 118.258ZM481.951 119.029L482.176 119.476L481.951 119.029ZM485.206 114.972C485.51 113.465 485.457 112.135 485.052 110.978L484.108 111.309C484.441 112.259 484.503 113.4 484.226 114.775L485.206 114.972ZM485.045 110.96C484.612 109.855 483.796 108.64 482.641 107.291L481.881 107.941C483.005 109.254 483.74 110.371 484.115 111.326L485.045 110.96ZM482.633 107.282C482.014 106.593 481.595 105.99 481.35 105.48C481.104 104.967 481.055 104.589 481.108 104.323L480.128 104.126C480.016 104.684 480.151 105.291 480.449 105.913C480.748 106.538 481.233 107.219 481.889 107.95L482.633 107.282ZM481.108 104.323C481.176 103.986 481.302 103.868 481.37 103.835L480.94 102.933C480.467 103.158 480.226 103.64 480.128 104.126L481.108 104.323ZM481.37 103.835C481.483 103.781 481.771 103.743 482.374 103.864L482.572 102.884C481.94 102.757 481.368 102.728 480.94 102.933L481.37 103.835ZM482.374 103.864C483.132 104.017 483.84 104.247 484.469 104.546L484.899 103.643C484.188 103.305 483.401 103.051 482.572 102.884L482.374 103.864ZM484.481 104.552C484.897 104.737 485.348 104.844 485.755 104.706C486.209 104.551 486.436 104.157 486.522 103.731L485.542 103.533C485.519 103.646 485.489 103.703 485.47 103.729C485.455 103.749 485.445 103.755 485.432 103.759C485.387 103.774 485.229 103.79 484.887 103.638L484.481 104.552ZM486.522 103.731L487.115 100.79L486.134 100.592L485.542 103.533L486.522 103.731ZM487.115 100.79C487.204 100.347 487.161 99.9705 486.983 99.6411L486.103 100.117C486.148 100.2 486.187 100.329 486.134 100.592L487.115 100.79ZM486.983 99.6411C486.796 99.2963 486.47 99.0731 486.1 98.897L485.67 99.8002C485.97 99.9428 486.067 100.05 486.103 100.117L486.983 99.6411ZM486.088 98.8915C485.286 98.5361 484.155 98.1841 482.72 97.8949L482.522 98.8752C483.91 99.1548 484.967 99.4883 485.682 99.8057L486.088 98.8915ZM482.72 97.8949C480.327 97.4129 478.398 97.5173 477.079 98.3353L477.607 99.185C478.597 98.5706 480.21 98.4093 482.522 98.8752L482.72 97.8949ZM477.079 98.3353C475.753 99.158 474.937 100.727 474.505 102.871L475.486 103.068C475.895 101.036 476.624 99.7946 477.607 99.185L477.079 98.3353ZM474.505 102.871C474.162 104.575 474.203 106.099 474.695 107.348L475.625 106.981C475.227 105.97 475.165 104.658 475.486 103.068L474.505 102.871ZM474.695 107.348C475.167 108.544 475.903 109.688 476.953 110.79L477.677 110.1C476.706 109.081 476.045 108.045 475.625 106.981L474.695 107.348ZM476.952 110.788C477.802 111.688 478.283 112.31 478.483 112.645L479.342 112.132C479.084 111.701 478.543 111.016 477.678 110.101L476.952 110.788ZM478.471 112.622C478.625 112.915 478.671 113.18 478.615 113.461L479.595 113.658C479.705 113.115 479.599 112.616 479.354 112.155L478.471 112.622ZM478.615 113.461C478.563 113.718 478.432 113.869 478.16 113.957C477.843 114.059 477.333 114.07 476.584 113.919L476.387 114.899C477.197 115.062 477.908 115.089 478.467 114.909C479.07 114.714 479.469 114.283 479.595 113.658L478.615 113.461ZM476.584 113.919C475.637 113.728 474.894 113.488 474.335 113.157L473.826 114.018C474.525 114.431 475.394 114.699 476.387 114.899L476.584 113.919ZM474.31 113.144C473.895 112.929 473.43 112.783 473.004 112.932C472.534 113.096 472.327 113.53 472.242 113.952L473.223 114.15C473.25 114.013 473.285 113.939 473.309 113.903C473.32 113.886 473.328 113.88 473.33 113.878C473.331 113.877 473.332 113.877 473.334 113.876C473.352 113.87 473.49 113.846 473.851 114.032L474.31 113.144ZM472.242 113.952L471.668 116.805L472.648 117.002L473.223 114.15L472.242 113.952ZM471.668 116.805C471.594 117.171 471.556 117.629 471.793 117.986L472.626 117.433C472.632 117.442 472.617 117.425 472.612 117.346C472.608 117.268 472.617 117.155 472.648 117.002L471.668 116.805ZM471.793 117.986C471.989 118.28 472.337 118.501 472.727 118.702L473.186 117.814C472.799 117.614 472.666 117.492 472.626 117.433L471.793 117.986ZM472.723 118.7C473.725 119.228 475.101 119.659 476.886 120.019L477.083 119.038C475.339 118.687 474.069 118.279 473.189 117.815L472.723 118.7ZM476.886 120.019C478.852 120.415 480.624 120.259 482.176 119.476L481.726 118.583C480.416 119.243 478.881 119.4 477.083 119.038L476.886 120.019ZM482.176 119.476C483.783 118.665 484.771 117.132 485.206 114.972L484.226 114.775C483.832 116.732 482.98 117.95 481.726 118.583L482.176 119.476Z" fill="white"/>
</g>
<defs>
<filter id="filter0_d_1413_16164" x="-25.1559" y="-23.3856" width="1550.31" height="380.771" filterUnits="userSpaceOnUse" color-interpolation-filters="sRGB">
<feFlood flood-opacity="0" result="BackgroundImageFix"/>
<feColorMatrix in="SourceAlpha" type="matrix" values="0 0 0 0 0 0 0 0 0 0 0 0 0 0 0 0 0 0 127 0" result="hardAlpha"/>
<feOffset dy="4"/>
<feGaussianBlur stdDeviation="2"/>
<feComposite in2="hardAlpha" operator="out"/>
<feColorMatrix type="matrix" values="0 0 0 0 0 0 0 0 0 0 0 0 0 0 0 0 0 0 0.2 0"/>
<feBlend mode="normal" in2="BackgroundImageFix" result="effect1_dropShadow_1413_16164"/>
<feBlend mode="normal" in="SourceGraphic" in2="effect1_dropShadow_1413_16164" result="shape"/>
</filter>
</defs>
</svg>
