<svg width="375" height="198" viewBox="0 0 375 198" fill="none" xmlns="http://www.w3.org/2000/svg">
<g filter="url(#filter0_d_1413_16365)">
<rect width="1560" height="66" transform="translate(-246.999 126.052) rotate(-16.5762)" fill="black"/>
<path d="M-224.325 151.47L-225.258 148.335L-223.993 147.959C-223.504 147.813 -223.125 147.826 -222.855 147.996C-222.614 148.174 -222.379 148.543 -222.208 149.118C-222.037 149.693 -222.023 150.158 -222.127 150.44C-222.26 150.73 -222.571 150.947 -223.06 151.093L-224.325 151.47ZM-218.469 163.467C-214.328 162.235 -212.837 159.569 -214.052 155.486C-214.412 154.278 -214.987 153.291 -215.761 152.583C-216.536 151.874 -217.397 151.505 -218.354 151.445C-217.006 150.293 -216.658 148.624 -217.308 146.439C-217.89 144.484 -218.81 143.286 -220.051 142.904C-221.291 142.522 -222.975 142.648 -225.161 143.298L-230.883 145.002C-231.515 145.19 -231.709 145.592 -231.529 146.196L-226.017 164.713C-225.829 165.345 -225.456 165.547 -224.823 165.359L-218.469 163.467ZM-221.937 159.492L-223.041 155.783L-221.402 155.295C-220.856 155.132 -220.439 155.165 -220.124 155.384C-219.837 155.611 -219.585 156.037 -219.379 156.727C-219.174 157.417 -219.152 157.912 -219.268 158.259C-219.412 158.615 -219.752 158.841 -220.298 159.004L-221.937 159.492ZM-211.047 140.099C-211.227 139.495 -211.637 139.273 -212.241 139.453L-215.692 140.48C-216.324 140.668 -216.518 141.07 -216.338 141.674L-210.826 160.191C-210.638 160.824 -210.265 161.025 -209.632 160.837L-201.581 158.441C-200.977 158.261 -200.747 157.879 -200.935 157.247L-201.842 154.199C-202.022 153.595 -202.432 153.373 -203.036 153.553L-206.717 154.648L-211.047 140.099ZM-195.874 148.04L-196.967 140.478L-196.852 140.443L-193.631 147.373L-195.874 148.04ZM-201.164 136.156C-201.912 136.378 -202.269 136.86 -202.187 137.556L-199.832 156.825C-199.795 157.158 -199.69 157.408 -199.495 157.538C-199.299 157.668 -199.044 157.685 -198.727 157.591L-195.191 156.539C-194.645 156.376 -194.414 155.994 -194.479 155.356L-194.849 152.743L-191.917 151.87L-190.798 154.261C-190.532 154.839 -190.13 155.032 -189.555 154.861L-186.019 153.808C-185.731 153.723 -185.527 153.568 -185.434 153.353C-185.342 153.137 -185.361 152.862 -185.513 152.562L-194.079 135.142C-194.419 134.524 -194.953 134.307 -195.701 134.529L-201.164 136.156ZM-176.985 146.237C-177.905 146.51 -178.609 146.564 -179.098 146.396C-179.614 146.237 -180.085 145.813 -180.497 145.06C-180.909 144.306 -181.363 143.095 -181.868 141.399C-182.57 139.041 -182.851 137.466 -182.654 136.656C-182.486 135.854 -181.755 135.261 -180.461 134.876C-179.886 134.705 -179.293 134.591 -178.713 134.544C-177.989 134.453 -177.721 134.092 -177.909 133.459L-178.739 130.67C-178.927 130.037 -179.355 129.758 -179.984 129.851C-181.128 130.004 -182.112 130.171 -182.945 130.42C-184.383 130.848 -185.49 131.334 -186.267 131.878C-187.073 132.431 -187.667 133.171 -188.068 134.136C-188.47 135.1 -188.584 136.292 -188.421 137.684C-188.286 139.083 -187.879 140.871 -187.245 142.999C-186.595 145.184 -185.949 146.933 -185.288 148.207C-184.618 149.51 -183.842 150.437 -182.978 151.025C-182.106 151.642 -181.204 151.937 -180.227 151.959C-179.279 151.99 -178.066 151.754 -176.628 151.326C-175.593 151.018 -174.613 150.632 -173.761 150.128C-173.22 149.842 -173.015 149.374 -173.195 148.771L-174.016 146.01C-174.205 145.378 -174.627 145.222 -175.283 145.542C-175.795 145.82 -176.353 146.048 -176.985 146.237ZM-169.873 134.041L-171.568 128.348C-171.748 127.744 -172.158 127.522 -172.762 127.701L-176.212 128.728C-176.845 128.917 -177.038 129.319 -176.858 129.922L-171.347 148.439C-171.158 149.072 -170.785 149.274 -170.153 149.086L-166.702 148.059C-166.098 147.879 -165.868 147.497 -166.056 146.865L-168.392 139.015L-163.221 146.083C-162.877 146.607 -162.389 146.775 -161.785 146.595L-158.162 145.517C-157.817 145.414 -157.622 145.231 -157.575 144.966C-157.529 144.702 -157.634 144.452 -157.844 144.17L-164.732 135.014L-163.621 126.233C-163.563 125.902 -163.62 125.606 -163.803 125.41C-163.987 125.215 -164.28 125.177 -164.625 125.279L-168.19 126.341C-168.765 126.512 -169.053 126.91 -169.112 127.554L-169.873 134.041ZM-143.924 133.359C-143.32 133.18 -143.09 132.798 -143.278 132.165L-144.168 129.175C-144.348 128.571 -144.758 128.349 -145.362 128.529L-149.617 129.796L-150.636 126.374L-146.208 125.056C-145.604 124.876 -145.373 124.494 -145.562 123.862L-146.452 120.872C-146.632 120.268 -147.042 120.046 -147.646 120.225L-156.387 122.827C-157.048 123.024 -157.262 123.463 -157.073 124.096L-151.596 142.498C-151.399 143.159 -150.989 143.381 -150.327 143.184L-146.992 142.192C-146.359 142.003 -146.108 141.584 -146.305 140.923L-148.18 134.626L-143.924 133.359ZM-136.943 127.807L-138.467 122.689L-137.662 122.449C-136.914 122.227 -136.365 122.283 -136.033 122.559C-135.7 122.836 -135.379 123.492 -135.088 124.469C-134.789 125.476 -134.698 126.2 -134.826 126.613C-134.953 127.027 -135.391 127.345 -136.138 127.567L-136.943 127.807ZM-144.258 119.217C-144.89 119.405 -145.084 119.807 -144.904 120.411L-139.392 138.928C-139.204 139.561 -138.831 139.762 -138.198 139.574L-134.748 138.547C-134.144 138.367 -133.913 137.986 -134.102 137.353L-135.608 132.293L-135.32 132.207L-131.681 136.758C-131.463 137.069 -131.231 137.219 -131.024 137.282C-130.817 137.346 -130.55 137.298 -130.176 137.186L-126.668 136.142C-125.921 135.92 -125.831 135.486 -126.407 134.812L-130.706 129.832C-129.111 128.356 -128.77 126.032 -129.712 122.869C-130.542 120.08 -131.661 118.316 -133.033 117.597C-134.405 116.879 -136.437 116.889 -139.082 117.676L-144.258 119.217ZM-124.395 134.464C-124.207 135.097 -123.834 135.298 -123.201 135.11L-119.751 134.083C-119.147 133.903 -118.916 133.522 -119.105 132.889L-124.616 114.372C-124.796 113.768 -125.207 113.546 -125.81 113.726L-129.261 114.753C-129.893 114.941 -130.087 115.343 -129.907 115.947L-124.395 134.464ZM-110.789 131.416C-108.978 130.876 -107.626 130.161 -106.742 129.24C-105.878 128.357 -105.381 127.083 -105.308 125.433C-105.236 123.784 -105.556 121.657 -106.343 119.012C-106.934 117.028 -107.565 115.432 -108.247 114.195C-108.928 112.957 -109.725 112.068 -110.588 111.48C-111.472 110.929 -112.411 110.614 -113.425 110.571C-114.44 110.529 -115.612 110.69 -116.964 111.093L-121.794 112.53C-122.427 112.719 -122.62 113.121 -122.441 113.724L-116.929 132.241C-116.741 132.874 -116.367 133.076 -115.735 132.888L-110.789 131.416ZM-115.543 115.866C-114.968 115.694 -114.494 115.71 -114.129 115.883C-113.765 116.056 -113.381 116.505 -112.977 117.23C-112.594 117.993 -112.165 119.117 -111.72 120.612C-111.052 122.855 -110.768 124.335 -110.85 125.111C-110.933 125.887 -111.405 126.403 -112.21 126.643L-112.785 126.814L-116.003 116.003L-115.543 115.866ZM-98.7473 119.13L-99.8402 111.567L-99.7252 111.533L-96.5045 118.462L-98.7473 119.13ZM-104.038 107.245C-104.785 107.467 -105.143 107.949 -105.061 108.645L-102.706 127.914C-102.669 128.247 -102.563 128.498 -102.368 128.627C-102.173 128.757 -101.917 128.775 -101.601 128.681L-98.0644 127.628C-97.5181 127.465 -97.2874 127.084 -97.3521 126.446L-97.7229 123.833L-94.7901 122.96L-93.6717 125.35C-93.4057 125.928 -93.0038 126.122 -92.4288 125.95L-88.8921 124.898C-88.6046 124.812 -88.4002 124.657 -88.3078 124.442C-88.2154 124.227 -88.2349 123.951 -88.3866 123.652L-96.9524 106.231C-97.293 105.613 -97.827 105.396 -98.5746 105.619L-104.038 107.245ZM-82.051 114.535L-81.1584 101.655C-81.1119 101.391 -81.1804 101.161 -81.3724 100.937C-81.5645 100.712 -81.866 100.645 -82.2398 100.757L-85.8627 101.835C-86.5241 102.032 -86.841 102.439 -86.7848 103.048L-86.5074 107.661L-86.0852 110.446L-86.2003 110.481L-87.37 107.918L-89.6602 103.904C-89.9751 103.372 -90.4632 103.204 -91.0958 103.393L-94.7187 104.471C-95.1213 104.591 -95.3373 104.812 -95.3752 105.105C-95.4132 105.398 -95.3448 105.628 -95.1325 105.815L-87.3416 116.11L-85.3389 122.838C-85.1506 123.471 -84.7775 123.673 -84.1449 123.485L-80.6945 122.458C-80.0907 122.278 -79.86 121.896 -80.0483 121.264L-82.051 114.535ZM-66.4619 96.0602C-67.0657 96.2399 -67.2879 96.6503 -67.1742 97.2425L-65.5158 106.389L-64.6766 110.365L-64.7341 110.382L-66.2921 106.621L-70.107 98.1155C-70.3932 97.5747 -70.8037 97.3525 -71.35 97.5151L-75.1742 98.6534C-75.4904 98.7476 -75.6862 98.9311 -75.7787 99.1464C-75.8711 99.3617 -75.8228 99.629 -75.6797 99.8994L-67.243 117.202C-66.8969 117.944 -66.3543 118.189 -65.6642 117.984L-61.0062 116.597C-60.3161 116.392 -60.0248 115.898 -60.1122 115.079L-60.8894 110.365L-61.7956 105.533L-61.7381 105.515L-59.8542 110.057L-57.9269 114.429C-57.5808 115.171 -57.0382 115.416 -56.3482 115.211L-51.6901 113.824C-51.0001 113.619 -50.7088 113.125 -50.7961 112.306L-53.1947 93.2065C-53.2227 92.9019 -53.3573 92.6602 -53.5524 92.5305C-53.7475 92.4008 -54.0118 92.3542 -54.2993 92.4398L-58.1235 93.5781C-58.6986 93.7493 -58.9207 94.1597 -58.8358 94.7605L-57.3786 103.967L-56.6257 107.969L-56.6832 107.986L-58.1549 104.198L-61.7686 95.6335C-61.9973 95.0755 -62.4365 94.8619 -63.0115 95.0331L-66.4619 96.0602ZM-38.7609 101.243C-38.157 101.063 -37.9263 100.681 -38.1146 100.049L-38.9534 97.2309C-39.1331 96.6271 -39.5435 96.4049 -40.1474 96.5847L-44.6329 97.9198L-45.4802 95.0733L-40.7071 93.6525C-40.1033 93.4728 -39.8726 93.0911 -40.0609 92.4585L-40.951 89.4682C-41.1307 88.8644 -41.5412 88.6422 -42.145 88.822L-51.231 91.5265C-51.8636 91.7148 -52.057 92.1167 -51.8772 92.7205L-46.3655 111.238C-46.1772 111.87 -45.804 112.072 -45.1715 111.884L-35.9704 109.145C-35.3666 108.965 -35.1359 108.584 -35.3242 107.951L-36.2143 104.961C-36.394 104.357 -36.8045 104.135 -37.4083 104.314L-42.2963 105.769L-43.2464 102.578L-38.7609 101.243ZM-25.9286 97.4231C-25.3248 97.2433 -25.0941 96.8616 -25.2824 96.2291L-26.1211 93.4113C-26.3009 92.8074 -26.7113 92.5853 -27.3151 92.765L-31.8006 94.1002L-32.6479 91.2536L-27.8749 89.8329C-27.2711 89.6531 -27.0404 89.2715 -27.2287 88.6389L-28.1188 85.6486C-28.2985 85.0447 -28.7089 84.8226 -29.3127 85.0023L-38.3988 87.7069C-39.0313 87.8952 -39.2247 88.297 -39.045 88.9009L-33.5332 107.418C-33.3449 108.051 -32.9718 108.252 -32.3392 108.064L-23.1382 105.325C-22.5344 105.146 -22.3037 104.764 -22.492 104.131L-23.3821 101.141C-23.5618 100.537 -23.9722 100.315 -24.576 100.495L-29.4641 101.95L-30.4141 98.7582L-25.9286 97.4231ZM-19.2275 89.1995L-20.9221 83.5064C-21.1019 82.9026 -21.5123 82.6804 -22.1161 82.8602L-25.5665 83.8872C-26.1991 84.0755 -26.3925 84.4774 -26.2127 85.0812L-20.7009 103.598C-20.5126 104.231 -20.1395 104.433 -19.507 104.245L-16.0566 103.217C-15.4528 103.038 -15.2221 102.656 -15.4103 102.023L-17.7469 94.1739L-12.5754 101.242C-12.2317 101.766 -11.7436 101.934 -11.1398 101.754L-7.51686 100.676C-7.17182 100.573 -6.97603 100.389 -6.92948 100.125C-6.88294 99.8608 -6.98872 99.6106 -7.19788 99.3286L-14.0861 90.1732L-12.9753 81.3914C-12.9171 81.061 -12.9739 80.7649 -13.1574 80.5691C-13.3409 80.3734 -13.6339 80.3354 -13.979 80.4381L-17.5444 81.4993C-18.1194 81.6705 -18.4076 82.0693 -18.4665 82.7129L-19.2275 89.1995ZM3.93066 91.227C3.51129 89.8181 2.88141 88.7536 2.06122 87.9961C1.22083 87.2759 -0.0104596 86.6095 -1.64122 85.9681C-3.43287 85.3119 -4.44269 84.5483 -4.68234 83.7432C-4.80216 83.3407 -4.78129 82.9901 -4.60262 82.7491C-4.42394 82.5082 -4.04707 82.3021 -3.44326 82.1223C-2.66692 81.8913 -1.89366 81.755 -1.15223 81.7221C-0.324539 81.6635 0.0095368 81.3137 -0.178754 80.6811L-1.03462 77.8058C-1.13733 77.4608 -1.29206 77.2564 -1.48718 77.1267C-1.68229 76.997 -1.94655 76.9504 -2.31727 76.9669C-3.14496 77.0254 -4.27182 77.2356 -5.65197 77.6465C-7.95223 78.3311 -9.45423 79.279 -10.1378 80.4528C-10.8213 81.6266 -10.8449 83.23 -10.2372 85.2715C-9.75791 86.8816 -9.04792 88.1101 -8.12436 88.8995C-7.20079 89.6888 -6.07287 90.3234 -4.6831 90.7861C-3.50008 91.1852 -2.74221 91.523 -2.36053 91.7537C-2.0076 91.993 -1.76113 92.2952 -1.64131 92.6978C-1.38455 93.5604 -2.03251 94.2227 -3.55643 94.6764C-4.50529 94.9588 -5.33605 95.1122 -6.06585 95.079C-6.93941 95.0886 -7.24473 95.4299 -7.03932 96.12L-6.20913 98.909C-6.10642 99.2541 -5.97189 99.4957 -5.78533 99.5967C-5.59877 99.6977 -5.30576 99.7357 -4.86898 99.7309C-3.80578 99.7274 -2.44034 99.4775 -0.715142 98.964C1.12507 98.4162 2.51205 97.5025 3.43725 96.1942C4.36245 94.8859 4.52977 93.2397 3.93066 91.227Z" fill="white"/>
<path d="M24.8699 77.2943L24.3906 77.4369L24.5333 77.9161L25.0125 77.7735L24.8699 77.2943ZM23.937 74.1602L23.7943 73.6809L23.3151 73.8236L23.4577 74.3028L23.937 74.1602ZM26.3399 73.8205L26.6377 73.4188L26.6226 73.4076L26.6066 73.3976L26.3399 73.8205ZM27.0674 76.2645L27.522 76.4727L27.5298 76.4556L27.5364 76.4379L27.0674 76.2645ZM33.4333 78.4075L33.7709 78.0386L33.7709 78.0386L33.4333 78.4075ZM30.841 77.2697L30.516 76.8897L29.5779 77.6921L30.81 77.7688L30.841 77.2697ZM29.1439 68.729L29.291 68.2511L29.1439 68.729ZM27.2577 85.3164L26.7785 85.4591L26.9212 85.9383L27.4004 85.7956L27.2577 85.3164ZM26.1537 81.6072L26.011 81.128L25.5318 81.2707L25.6744 81.7499L26.1537 81.6072ZM29.0711 81.2083L29.3819 80.8167L29.3694 80.8067L29.3562 80.7976L29.0711 81.2083ZM29.927 84.0837L30.3903 84.2717L30.3963 84.2568L30.4014 84.2416L29.927 84.0837ZM25.3491 77.1516L24.4162 74.0175L23.4577 74.3028L24.3906 77.4369L25.3491 77.1516ZM24.0796 74.6394L25.3447 74.2628L25.0595 73.3044L23.7943 73.6809L24.0796 74.6394ZM25.3447 74.2628C25.7768 74.1342 25.9824 74.1862 26.0732 74.2434L26.6066 73.3976C26.1579 73.1146 25.6051 73.1419 25.0595 73.3044L25.3447 74.2628ZM26.0421 74.2221C26.1579 74.308 26.3502 74.5562 26.5077 75.0852L27.4661 74.7999C27.2813 74.1788 27.0039 73.6904 26.6377 73.4188L26.0421 74.2221ZM26.5077 75.0852C26.6672 75.621 26.6469 75.96 26.5984 76.0911L27.5364 76.4379C27.696 76.0063 27.649 75.4143 27.4661 74.7999L26.5077 75.0852ZM26.6128 76.0563C26.5681 76.1539 26.4244 76.3099 25.9924 76.4385L26.2776 77.3969C26.8232 77.2345 27.3011 76.9551 27.522 76.4727L26.6128 76.0563ZM25.9924 76.4385L24.7272 76.815L25.0125 77.7735L26.2776 77.3969L25.9924 76.4385ZM30.8688 89.7714C33.0112 89.1336 34.5554 88.0989 35.38 86.6128C36.2058 85.1244 36.2525 83.2866 35.6218 81.1678L34.6633 81.4531C35.248 83.4173 35.1567 84.9541 34.5055 86.1277C33.8531 87.3035 32.5815 88.2182 30.5835 88.8129L30.8688 89.7714ZM35.6218 81.1678C35.2424 79.8932 34.6258 78.8209 33.7709 78.0386L33.0958 78.7763C33.7895 79.4111 34.3238 80.3125 34.6633 81.4531L35.6218 81.1678ZM33.7709 78.0386C32.9175 77.2577 31.9498 76.8377 30.8721 76.7707L30.81 77.7688C31.6458 77.8208 32.4005 78.1401 33.0958 78.7763L33.7709 78.0386ZM31.166 77.6497C31.92 77.0048 32.4045 76.2033 32.6022 75.2562C32.7981 74.3178 32.7067 73.2672 32.3654 72.1208L31.407 72.4061C31.7162 73.445 31.7758 74.3214 31.6233 75.0518C31.4727 75.7734 31.1092 76.3824 30.516 76.8897L31.166 77.6497ZM32.3654 72.1208C31.765 70.1037 30.7693 68.7063 29.291 68.2511L28.9968 69.2068C29.9996 69.5156 30.8434 70.5128 31.407 72.4061L32.3654 72.1208ZM29.291 68.2511C27.9095 67.8257 26.1099 67.9835 23.8913 68.6439L24.1766 69.6024C26.3286 68.9618 27.8973 68.8683 28.9968 69.2068L29.291 68.2511ZM23.8913 68.6439L18.1694 70.3471L18.4547 71.3055L24.1766 69.6024L23.8913 68.6439ZM18.1694 70.3471C17.7793 70.4632 17.432 70.6732 17.2419 71.0347C17.0531 71.3934 17.0765 71.7929 17.1866 72.1629L18.1451 71.8777C18.0755 71.6439 18.1057 71.5405 18.1269 71.5003C18.1466 71.4628 18.2123 71.3777 18.4547 71.3055L18.1694 70.3471ZM17.1866 72.1629L22.6984 90.68L23.6569 90.3947L18.1451 71.8777L17.1866 72.1629ZM22.6984 90.68C22.8112 91.0587 23.0092 91.4128 23.3701 91.608C23.7309 91.8033 24.1356 91.7755 24.5143 91.6628L24.229 90.7044C23.9751 90.78 23.877 90.7453 23.846 90.7286C23.8151 90.7119 23.7325 90.6486 23.6569 90.3947L22.6984 90.68ZM24.5143 91.6628L30.8688 89.7714L30.5835 88.8129L24.229 90.7044L24.5143 91.6628ZM27.737 85.1738L26.6329 81.4646L25.6744 81.7499L26.7785 85.4591L27.737 85.1738ZM26.2963 82.0865L27.9352 81.5986L27.65 80.6402L26.011 81.128L26.2963 82.0865ZM27.9352 81.5986C28.4033 81.4593 28.6433 81.52 28.786 81.6191L29.3562 80.7976C28.8677 80.4585 28.2745 80.4543 27.65 80.6402L27.9352 81.5986ZM28.7603 81.6C28.9278 81.733 29.1415 82.0408 29.3361 82.6945L30.2945 82.4092C30.0783 81.6827 29.7881 81.139 29.3819 80.8167L28.7603 81.6ZM29.3361 82.6945C29.5307 83.3482 29.5201 83.7228 29.4526 83.9257L30.4014 84.2416C30.5652 83.7497 30.5108 83.1357 30.2945 82.4092L29.3361 82.6945ZM29.4637 83.8957C29.4056 84.0388 29.2508 84.2015 28.754 84.3493L29.0393 85.3078C29.6352 85.1304 30.1595 84.8405 30.3903 84.2717L29.4637 83.8957ZM28.754 84.3493L27.1151 84.8372L27.4004 85.7956L29.0393 85.3078L28.754 84.3493ZM42.4781 80.4729L41.9989 80.6156L42.1415 81.0948L42.6207 80.9521L42.4781 80.4729ZM38.6266 65.7811C38.5131 65.3997 38.302 65.059 37.9474 64.8671C37.5928 64.6752 37.1922 64.6848 36.8108 64.7983L37.096 65.7568C37.3184 65.6906 37.4249 65.7214 37.4714 65.7466C37.518 65.7717 37.602 65.844 37.6682 66.0664L38.6266 65.7811ZM36.8108 64.7983L33.3604 65.8254L33.6457 66.7838L37.096 65.7568L36.8108 64.7983ZM33.3604 65.8254C32.9703 65.9415 32.623 66.1515 32.4328 66.513C32.2441 66.8717 32.2674 67.2712 32.3776 67.6412L33.336 67.3559C33.2664 67.1221 33.2966 67.0188 33.3178 66.9786C33.3375 66.9411 33.4032 66.856 33.6457 66.7838L33.3604 65.8254ZM32.3776 67.6412L37.8894 86.1583L38.8478 85.873L33.336 67.3559L32.3776 67.6412ZM37.8894 86.1583C38.0021 86.537 38.2001 86.891 38.561 87.0863C38.9218 87.2816 39.3265 87.2538 39.7052 87.1411L39.4199 86.1827C39.166 86.2582 39.0679 86.2236 39.037 86.2069C39.006 86.1901 38.9234 86.1269 38.8478 85.873L37.8894 86.1583ZM39.7052 87.1411L47.7561 84.7447L47.4708 83.7862L39.4199 86.1827L39.7052 87.1411ZM47.7561 84.7447C48.1261 84.6345 48.4734 84.4356 48.6705 84.0814C48.8691 83.7245 48.855 83.3189 48.7389 82.9288L47.7805 83.2141C47.8527 83.4566 47.8173 83.5581 47.7967 83.5951C47.7746 83.6348 47.7046 83.7166 47.4708 83.7862L47.7561 84.7447ZM48.7389 82.9288L47.8317 79.881L46.8733 80.1663L47.7805 83.2141L48.7389 82.9288ZM47.8317 79.881C47.7182 79.4996 47.5071 79.1589 47.1525 78.967C46.7979 78.7751 46.3973 78.7846 46.0158 78.8982L46.3011 79.8566C46.5235 79.7904 46.63 79.8212 46.6765 79.8464C46.7231 79.8716 46.8071 79.9439 46.8733 80.1663L47.8317 79.881ZM46.0158 78.8982L42.3354 79.9937L42.6207 80.9521L46.3011 79.8566L46.0158 78.8982ZM42.9573 80.3303L38.6266 65.7811L37.6682 66.0664L41.9989 80.6156L42.9573 80.3303ZM53.321 73.8649L52.8261 73.9364L52.9089 74.5093L53.4636 74.3441L53.321 73.8649ZM52.2281 66.3024L52.0854 65.8232L51.6714 65.9464L51.7332 66.3739L52.2281 66.3024ZM52.3431 66.2682L52.7965 66.0575L52.6144 65.6657L52.2005 65.789L52.3431 66.2682ZM55.5638 73.1973L55.7064 73.6766L56.2611 73.5114L56.0172 72.9866L55.5638 73.1973ZM47.0075 63.3804L46.5109 63.4388L46.5112 63.441L47.0075 63.3804ZM49.3626 82.6493L49.8596 82.5947L49.8589 82.5886L49.3626 82.6493ZM49.7001 83.3626L49.977 82.9463L49.7001 83.3626ZM54.7162 81.1809L55.2136 81.1305L55.2126 81.1206L55.2112 81.1107L54.7162 81.1809ZM54.3454 78.5681L54.2027 78.0889L53.7898 78.2118L53.8503 78.6384L54.3454 78.5681ZM57.2782 77.6952L57.7311 77.4833L57.5485 77.093L57.1355 77.2159L57.2782 77.6952ZM58.3966 80.0854L58.8508 79.8764L58.8495 79.8735L58.3966 80.0854ZM63.7605 79.1774L63.301 78.9802L63.7605 79.1774ZM63.6817 78.3871L63.233 78.6077L63.2357 78.6131L63.6817 78.3871ZM55.1159 60.9668L55.5646 60.7462L55.5595 60.7358L55.5539 60.7256L55.1159 60.9668ZM53.8159 73.7934L52.7229 66.2309L51.7332 66.3739L52.8261 73.9364L53.8159 73.7934ZM52.3707 66.7817L52.4857 66.7474L52.2005 65.789L52.0854 65.8232L52.3707 66.7817ZM51.8897 66.4789L55.1103 73.4081L56.0172 72.9866L52.7965 66.0575L51.8897 66.4789ZM55.4211 72.7181L53.1784 73.3857L53.4636 74.3441L55.7064 73.6766L55.4211 72.7181ZM47.8879 61.5011C47.4437 61.6333 47.0601 61.8592 46.8048 62.2072C46.5445 62.5622 46.458 62.989 46.5109 63.4388L47.5041 63.322C47.4751 63.0762 47.5264 62.9143 47.6112 62.7987C47.701 62.6763 47.8699 62.5498 48.1732 62.4595L47.8879 61.5011ZM46.5112 63.441L48.8663 82.7099L49.8589 82.5886L47.5038 63.3197L46.5112 63.441ZM48.8656 82.7039C48.908 83.0898 49.0429 83.5261 49.4233 83.779L49.977 82.9463C49.9671 82.9397 49.8905 82.8756 49.8596 82.5947L48.8656 82.7039ZM49.4233 83.779C49.7864 84.0204 50.212 84.0137 50.6099 83.8952L50.3246 82.9368C50.0899 83.0066 50.0041 82.9643 49.977 82.9463L49.4233 83.779ZM50.6099 83.8952L54.1465 82.8425L53.8612 81.8841L50.3246 82.9368L50.6099 83.8952ZM54.1465 82.8425C54.5063 82.7354 54.8194 82.5368 55.0174 82.2086C55.2102 81.8887 55.2525 81.5133 55.2136 81.1305L54.2187 81.2314C54.2446 81.4866 54.2039 81.6211 54.161 81.6922C54.1231 81.755 54.0478 81.8285 53.8612 81.8841L54.1465 82.8425ZM55.2112 81.1107L54.8404 78.4979L53.8503 78.6384L54.2211 81.2512L55.2112 81.1107ZM54.488 79.0474L57.4208 78.1744L57.1355 77.2159L54.2027 78.0889L54.488 79.0474ZM56.8253 77.9071L57.9437 80.2973L58.8495 79.8735L57.7311 77.4833L56.8253 77.9071ZM57.9424 80.2944C58.1044 80.6465 58.3391 80.9501 58.6848 81.1169C59.0355 81.2861 59.4155 81.2741 59.7822 81.165L59.4969 80.2066C59.2884 80.2686 59.18 80.2455 59.1195 80.2163C59.054 80.1847 58.9548 80.1025 58.8508 79.8764L57.9424 80.2944ZM59.7822 81.165L63.3188 80.1123L63.0335 79.1538L59.4969 80.2066L59.7822 81.165ZM63.3188 80.1123C63.6966 79.9998 64.0505 79.7693 64.2199 79.3746L63.301 78.9802C63.2856 79.0162 63.2308 79.0951 63.0335 79.1538L63.3188 80.1123ZM64.2199 79.3746C64.3871 78.9852 64.325 78.5504 64.1277 78.161L63.2357 78.6131C63.3417 78.8221 63.3187 78.939 63.301 78.9802L64.2199 79.3746ZM64.1304 78.1664L55.5646 60.7462L54.6672 61.1875L63.233 78.6077L64.1304 78.1664ZM55.5539 60.7256C55.3414 60.3399 55.042 60.0342 54.6369 59.8784C54.2355 59.724 53.7967 59.7423 53.3511 59.8749L53.6363 60.8334C53.9383 60.7435 54.1403 60.7588 54.2779 60.8118C54.4119 60.8633 54.5498 60.9753 54.6779 61.208L55.5539 60.7256ZM53.3511 59.8749L47.8879 61.5011L48.1732 62.4595L53.6363 60.8334L53.3511 59.8749ZM70.0971 72.2205L70.2596 71.7477L70.252 71.745L70.2443 71.7427L70.0971 72.2205ZM68.6977 70.8842L68.259 71.1241L68.6977 70.8842ZM66.5406 62.4804L67.0264 62.5986L67.0282 62.591L67.0299 62.5832L66.5406 62.4804ZM70.4818 60.3682L70.5226 60.8666L70.5332 60.8657L70.5437 60.8644L70.4818 60.3682ZM69.2103 55.676L69.2764 56.1716L69.2837 56.1705L69.2103 55.676ZM62.9274 57.7026L63.2102 58.115L63.2142 58.1122L62.9274 57.7026ZM61.1266 59.9602L61.5882 60.1523L61.5882 60.1523L61.1266 59.9602ZM60.7741 63.5082L61.2719 63.4602L61.2707 63.4498L60.7741 63.5082ZM63.9066 74.0319L64.3513 73.8034L64.3505 73.8017L63.9066 74.0319ZM66.2166 76.85L66.5053 76.4417L66.498 76.4367L66.2166 76.85ZM68.9674 77.784L68.9836 77.2843L68.9787 77.2842L68.9674 77.784ZM75.4338 75.9532L75.1999 75.5112L75.1894 75.5168L75.1792 75.5228L75.4338 75.9532ZM73.9121 71.3667L73.6926 70.9174L73.6831 70.9221L73.6738 70.9271L73.9121 71.3667ZM72.0668 71.5821C71.1726 71.8482 70.5952 71.863 70.2596 71.7477L69.9347 72.6934C70.5753 72.9135 71.4061 72.8221 72.3521 72.5405L72.0668 71.5821ZM70.2443 71.7427C69.8961 71.6355 69.5126 71.3322 69.1364 70.6443L68.259 71.1241C68.7072 71.9438 69.2644 72.4873 69.95 72.6984L70.2443 71.7427ZM69.1364 70.6443C68.7508 69.9392 68.3086 68.7707 67.8055 67.0807L66.8471 67.366C67.354 69.0689 67.8203 70.3218 68.259 71.1241L69.1364 70.6443ZM67.8055 67.0807C67.4573 65.9107 67.2179 64.9493 67.0893 64.1882C66.9583 63.4123 66.953 62.9002 67.0264 62.5986L66.0547 62.3621C65.931 62.8705 65.9676 63.551 66.1033 64.3547C66.2415 65.173 66.4935 66.1782 66.8471 67.366L67.8055 67.0807ZM67.0299 62.5832C67.1403 62.0577 67.6382 61.5485 68.8766 61.1799L68.5913 60.2215C67.242 60.6231 66.2776 61.3004 66.0512 62.3776L67.0299 62.5832ZM68.8766 61.1799C69.4203 61.018 69.9784 60.9112 70.5226 60.8666L70.4409 59.8699C69.824 59.9205 69.1977 60.0409 68.5913 60.2215L68.8766 61.1799ZM70.5437 60.8644C70.9602 60.8124 71.3738 60.6695 71.6277 60.3271C71.8932 59.9689 71.8821 59.5346 71.765 59.1411L70.8066 59.4264C70.8777 59.6655 70.8268 59.7283 70.8244 59.7315C70.8102 59.7506 70.7277 59.8337 70.4198 59.8721L70.5437 60.8644ZM71.765 59.1411L70.9348 56.3521L69.9764 56.6374L70.8066 59.4264L71.765 59.1411ZM70.9348 56.3521C70.8174 55.9575 70.6071 55.6146 70.2728 55.3951C69.9364 55.1742 69.5402 55.1215 69.1368 55.1814L69.2837 56.1705C69.5099 56.137 69.6422 56.1774 69.724 56.231C69.8079 56.2861 69.9055 56.3994 69.9764 56.6374L70.9348 56.3521ZM69.1441 55.1804C67.9948 55.3338 66.9797 55.5052 66.1067 55.7651L66.392 56.7235C67.1867 56.487 68.1377 56.3236 69.2764 56.1716L69.1441 55.1804ZM66.1067 55.7651C64.6438 56.2005 63.4794 56.7054 62.6405 57.2931L63.2142 58.1122C63.9293 57.6113 64.9796 57.144 66.392 56.7235L66.1067 55.7651ZM62.6445 57.2904C61.7546 57.9009 61.1014 58.7195 60.665 59.7681L61.5882 60.1523C61.9547 59.2716 62.4885 58.6101 63.2102 58.1149L62.6445 57.2904ZM60.665 59.7681C60.2207 60.8356 60.1074 62.1202 60.2776 63.5666L61.2707 63.4498C61.1135 62.114 61.2295 61.0141 61.5882 60.1523L60.665 59.7681ZM60.2764 63.5562C60.4159 65.0032 60.8335 66.8271 61.4702 68.9665L62.4287 68.6812C61.7988 66.565 61.4022 64.8126 61.2718 63.4602L60.2764 63.5562ZM61.4702 68.9665C62.1241 71.1631 62.7803 72.9465 63.4628 74.2621L64.3505 73.8017C63.7108 72.5686 63.0758 70.855 62.4287 68.6812L61.4702 68.9665ZM63.4619 74.2604C64.1581 75.6153 64.9842 76.6158 65.9352 77.2633L66.498 76.4367C65.7216 75.9081 64.9944 75.0548 64.3513 73.8034L63.4619 74.2604ZM65.9279 77.2582C66.8782 77.9303 67.8758 78.2594 68.956 78.2839L68.9787 77.2842C68.1051 77.2643 67.2994 77.0033 66.5053 76.4418L65.9279 77.2582ZM68.9512 78.2838C69.9817 78.3172 71.2573 78.0623 72.709 77.6302L72.4237 76.6718C71 77.0955 69.8494 77.3124 68.9836 77.2843L68.9512 78.2838ZM72.709 77.6302C73.7683 77.3149 74.7903 76.9149 75.6884 76.3835L75.1792 75.5228C74.374 75.9993 73.4346 76.3709 72.4237 76.6718L72.709 77.6302ZM75.6676 76.3951C76.015 76.2113 76.2966 75.9455 76.4477 75.5878C76.5989 75.2298 76.5942 74.8391 76.4791 74.4526L75.5207 74.7379C75.5854 74.9552 75.568 75.1004 75.5264 75.1988C75.4847 75.2976 75.3934 75.4089 75.1999 75.5112L75.6676 76.3951ZM76.4791 74.4526L75.6575 71.6923L74.699 71.9776L75.5207 74.7379L76.4791 74.4526ZM75.6575 71.6923C75.5404 71.2988 75.3122 70.9291 74.8939 70.7745C74.4942 70.6266 74.0697 70.7332 73.6926 70.9174L74.1316 71.8159C74.4103 71.6797 74.5248 71.7041 74.5471 71.7124C74.5509 71.7138 74.6279 71.7385 74.699 71.9776L75.6575 71.6923ZM73.6738 70.9271C73.1952 71.1866 72.6697 71.4026 72.0668 71.5821L72.3521 72.5405C73.0144 72.3434 73.6048 72.102 74.1504 71.8062L73.6738 70.9271ZM79.3216 59.8654L78.8423 60.0081L79.8181 59.9237L79.3216 59.8654ZM80.8022 64.8397L81.2057 64.5445L80.323 64.9824L80.8022 64.8397ZM85.9737 71.9081L86.3917 71.6338L86.3847 71.6232L86.3772 71.6129L85.9737 71.9081ZM91.6196 70.791L92.112 70.8777L91.6196 70.791ZM91.3512 69.9945L91.7528 69.6966L91.7507 69.6938L91.3512 69.9945ZM84.463 60.8391L83.9669 60.7764L83.9415 60.9776L84.0635 61.1397L84.463 60.8391ZM85.5738 52.0572L85.0814 51.9705L85.0793 51.9825L85.0777 51.9945L85.5738 52.0572ZM85.3916 51.235L85.7565 50.8931L85.7565 50.8931L85.3916 51.235ZM80.0826 53.3787L80.5793 53.437L80.5805 53.4243L80.0826 53.3787ZM79.8008 59.7228L78.1061 54.0296L77.1477 54.3149L78.8423 60.0081L79.8008 59.7228ZM78.1061 54.0296C77.9926 53.6482 77.7815 53.3075 77.427 53.1156C77.0724 52.9237 76.6717 52.9333 76.2903 53.0468L76.5756 54.0053C76.798 53.9391 76.9044 53.9699 76.951 53.9951C76.9975 54.0203 77.0815 54.0925 77.1477 54.3149L78.1061 54.0296ZM76.2903 53.0468L72.8399 54.0739L73.1252 55.0323L76.5756 54.0053L76.2903 53.0468ZM72.8399 54.0739C72.4498 54.19 72.1025 54.4 71.9123 54.7615C71.7236 55.1202 71.747 55.5197 71.8571 55.8897L72.8156 55.6044C72.746 55.3707 72.7762 55.2673 72.7973 55.2271C72.8171 55.1896 72.8827 55.1045 73.1252 55.0323L72.8399 54.0739ZM71.8571 55.8897L77.3689 74.4068L78.3274 74.1215L72.8156 55.6044L71.8571 55.8897ZM77.3689 74.4068C77.4816 74.7855 77.6797 75.1395 78.0405 75.3348C78.4014 75.5301 78.8061 75.5023 79.1848 75.3896L78.8995 74.4312C78.6456 74.5068 78.5474 74.4721 78.5165 74.4554C78.4856 74.4386 78.4029 74.3754 78.3274 74.1215L77.3689 74.4068ZM79.1848 75.3896L82.6351 74.3626L82.3499 73.4041L78.8995 74.4312L79.1848 75.3896ZM82.6351 74.3626C83.0052 74.2524 83.3524 74.0535 83.5495 73.6993C83.7482 73.3424 83.7341 72.9368 83.6179 72.5467L82.6595 72.832C82.7317 73.0745 82.6964 73.176 82.6758 73.213C82.6537 73.2528 82.5836 73.3346 82.3499 73.4041L82.6351 74.3626ZM83.6179 72.5467L81.2814 64.6971L80.323 64.9824L82.6595 72.832L83.6179 72.5467ZM80.3987 65.135L85.5701 72.2034L86.3772 71.6129L81.2057 64.5445L80.3987 65.135ZM85.5556 72.1825C85.7747 72.5163 86.0638 72.7708 86.4274 72.8992C86.7895 73.0271 87.1736 73.0117 87.552 72.899L87.2667 71.9406C87.0411 72.0077 86.8793 71.9983 86.7604 71.9563C86.6431 71.9149 86.5163 71.8237 86.3917 71.6338L85.5556 72.1825ZM87.552 72.899L91.1749 71.8207L90.8896 70.8622L87.2667 71.9406L87.552 72.899ZM91.1749 71.8207C91.629 71.6855 92.0213 71.3928 92.112 70.8777L91.1272 70.7043C91.1227 70.7298 91.1149 70.7442 91.0959 70.762C91.0706 70.7857 91.0119 70.8258 90.8896 70.8622L91.1749 71.8207ZM92.112 70.8777C92.1946 70.4091 91.9894 70.0157 91.7528 69.6966L90.9496 70.2923C91.1313 70.5373 91.1377 70.6444 91.1272 70.7043L92.112 70.8777ZM91.7507 69.6938L84.8625 60.5385L84.0635 61.1397L90.9516 70.2951L91.7507 69.6938ZM84.959 60.9018L86.0698 52.12L85.0777 51.9945L83.9669 60.7764L84.959 60.9018ZM86.0662 52.144C86.1407 51.721 86.0845 51.2432 85.7565 50.8931L85.0268 51.5769C85.0657 51.6185 85.1232 51.7329 85.0814 51.9705L86.0662 52.144ZM85.7565 50.8931C85.3883 50.5002 84.8609 50.4957 84.4275 50.6247L84.7128 51.5832C84.8353 51.5467 84.9185 51.5446 84.9665 51.5519C85.008 51.5582 85.0205 51.5702 85.0268 51.5769L85.7565 50.8931ZM84.4275 50.6247L80.8621 51.686L81.1474 52.6445L84.7128 51.5832L84.4275 50.6247ZM80.8621 51.686C80.4905 51.7966 80.1766 51.9931 79.9502 52.2947C79.7276 52.5912 79.6198 52.9491 79.5847 53.3332L80.5805 53.4243C80.6042 53.1648 80.67 53.0015 80.7499 52.895C80.8261 52.7935 80.9439 52.705 81.1474 52.6445L80.8621 51.686ZM79.586 53.3205L78.825 59.8072L79.8181 59.9237L80.5792 53.437L79.586 53.3205ZM99.5772 55.6203L99.098 55.7629L99.2407 56.2421L99.7199 56.0995L99.5772 55.6203ZM98.5588 52.1986L98.4161 51.7194L97.9369 51.8621L98.0795 52.3413L98.5588 52.1986ZM101.015 60.4508L100.872 59.9716L100.393 60.1142L100.536 60.5935L101.015 60.4508ZM105.413 59.6633C105.783 59.5532 106.131 59.3543 106.328 59.0001C106.526 58.6432 106.512 58.2376 106.396 57.8475L105.438 58.1328C105.51 58.3753 105.474 58.4768 105.454 58.5138C105.432 58.5535 105.362 58.6353 105.128 58.7049L105.413 59.6633ZM106.396 57.8475L105.506 54.8572L104.547 55.1425L105.438 58.1328L106.396 57.8475ZM105.506 54.8572C105.392 54.4757 105.181 54.1351 104.827 53.9431C104.472 53.7512 104.072 53.7608 103.69 53.8744L103.975 54.8328C104.198 54.7666 104.304 54.7974 104.351 54.8226C104.397 54.8478 104.481 54.9201 104.547 55.1425L105.506 54.8572ZM103.69 53.8744L99.4346 55.141L99.7199 56.0995L103.975 54.8328L103.69 53.8744ZM100.056 55.4776L99.038 52.056L98.0795 52.3413L99.098 55.7629L100.056 55.4776ZM98.7014 52.6779L103.129 51.3598L102.844 50.4014L98.4161 51.7194L98.7014 52.6779ZM103.129 51.3598C103.499 51.2497 103.847 51.0508 104.044 50.6966C104.242 50.3397 104.228 49.9341 104.112 49.544L103.154 49.8293C103.226 50.0717 103.191 50.1732 103.17 50.2103C103.148 50.25 103.078 50.3318 102.844 50.4014L103.129 51.3598ZM104.112 49.544L103.222 46.5536L102.264 46.8389L103.154 49.8293L104.112 49.544ZM103.222 46.5536C103.109 46.1722 102.897 45.8315 102.543 45.6396C102.188 45.4477 101.788 45.4573 101.406 45.5708L101.692 46.5293C101.914 46.4631 102.02 46.4939 102.067 46.5191C102.113 46.5442 102.197 46.6165 102.264 46.8389L103.222 46.5536ZM101.406 45.5708L92.6653 48.1727L92.9506 49.1311L101.692 46.5293L101.406 45.5708ZM92.6653 48.1727C92.2555 48.2947 91.8996 48.518 91.7037 48.8897C91.5091 49.2588 91.526 49.673 91.6421 50.0631L92.6005 49.7779C92.5284 49.5354 92.5579 49.4137 92.5883 49.3559C92.6175 49.3007 92.699 49.206 92.9506 49.1311L92.6653 48.1727ZM91.6421 50.0631L97.1196 68.4652L98.0781 68.1799L92.6005 49.7779L91.6421 50.0631ZM97.1196 68.4652C97.2385 68.8644 97.4499 69.2266 97.821 69.4274C98.1921 69.6283 98.611 69.6072 99.0101 69.4884L98.7248 68.53C98.4627 68.608 98.3457 68.5743 98.297 68.548C98.2483 68.5216 98.1561 68.4421 98.0781 68.1799L97.1196 68.4652ZM99.0101 69.4884L102.345 68.4956L102.06 67.5372L98.7248 68.53L99.0101 69.4884ZM102.345 68.4956C102.736 68.3795 103.092 68.1671 103.294 67.8023C103.498 67.435 103.491 67.0149 103.369 66.6051L102.41 66.8904C102.485 67.1419 102.45 67.262 102.42 67.3167C102.388 67.3737 102.303 67.465 102.06 67.5372L102.345 68.4956ZM103.369 66.6051L101.494 60.3082L100.536 60.5935L102.41 66.8904L103.369 66.6051ZM101.158 60.93L105.413 59.6633L105.128 58.7049L100.872 59.9716L101.158 60.93ZM112.252 53.6318L111.772 53.7744L111.915 54.2537L112.394 54.111L112.252 53.6318ZM110.728 48.5137L110.585 48.0345L110.106 48.1771L110.249 48.6564L110.728 48.5137ZM113.162 48.3839L112.843 48.7684L113.162 48.3839ZM114.369 52.4381L114.847 52.5852L114.369 52.4381ZM113.587 58.1173L113.444 57.6381L112.965 57.7807L113.107 58.2599L113.587 58.1173ZM113.874 58.0317L114.265 57.7194L114.054 57.4564L113.732 57.5525L113.874 58.0317ZM117.514 62.5825L117.923 62.2956L117.914 62.2826L117.904 62.2702L117.514 62.5825ZM118.171 63.1069L118.024 63.5848L118.171 63.1069ZM122.788 60.637L123.168 60.312L123.166 60.3103L122.788 60.637ZM118.488 55.6566L118.149 55.2897L117.794 55.6178L118.11 55.9834L118.488 55.6566ZM116.161 43.4221L116.393 42.9791L116.161 43.4221ZM112.731 53.4891L111.207 48.3711L110.249 48.6564L111.772 53.7744L112.731 53.4891ZM110.871 48.9929L111.676 48.7533L111.391 47.7948L110.585 48.0345L110.871 48.9929ZM111.676 48.7533C112.365 48.5481 112.703 48.6523 112.843 48.7684L113.482 47.9994C112.956 47.5623 112.196 47.555 111.391 47.7948L111.676 48.7533ZM112.843 48.7684C112.93 48.8412 113.056 49.0017 113.201 49.297C113.343 49.5843 113.486 49.9641 113.627 50.4366L114.586 50.1513C114.435 49.6461 114.273 49.2092 114.098 48.855C113.928 48.5088 113.727 48.2032 113.482 47.9994L112.843 48.7684ZM113.627 50.4366C113.772 50.924 113.862 51.3278 113.901 51.6494C113.942 51.9797 113.924 52.1826 113.891 52.291L114.847 52.5852C114.941 52.2801 114.942 51.9141 114.894 51.5273C114.845 51.1317 114.74 50.6702 114.586 50.1513L113.627 50.4366ZM113.891 52.291C113.842 52.4508 113.627 52.7008 112.914 52.9129L113.199 53.8714C113.982 53.6385 114.641 53.2524 114.847 52.5852L113.891 52.291ZM112.914 52.9129L112.109 53.1526L112.394 54.111L113.199 53.8714L112.914 52.9129ZM104.794 44.5624C104.404 44.6785 104.057 44.8885 103.867 45.25C103.678 45.6087 103.701 46.0082 103.811 46.3782L104.77 46.0929C104.7 45.8591 104.73 45.7558 104.752 45.7156C104.771 45.6781 104.837 45.593 105.079 45.5208L104.794 44.5624ZM103.811 46.3782L109.323 64.8953L110.282 64.61L104.77 46.0929L103.811 46.3782ZM109.323 64.8953C109.436 65.274 109.634 65.628 109.995 65.8233C110.356 66.0186 110.76 65.9908 111.139 65.8781L110.854 64.9197C110.6 64.9952 110.502 64.9606 110.471 64.9439C110.44 64.9271 110.357 64.8639 110.282 64.61L109.323 64.8953ZM111.139 65.8781L114.589 64.8511L114.304 63.8926L110.854 64.9197L111.139 65.8781ZM114.589 64.8511C114.959 64.7409 115.307 64.542 115.504 64.1878C115.702 63.8309 115.688 63.4253 115.572 63.0352L114.614 63.3205C114.686 63.563 114.651 63.6645 114.63 63.7015C114.608 63.7412 114.538 63.823 114.304 63.8926L114.589 64.8511ZM115.572 63.0352L114.066 57.9747L113.107 58.2599L114.614 63.3205L115.572 63.0352ZM113.729 58.5965L114.017 58.5109L113.732 57.5525L113.444 57.6381L113.729 58.5965ZM113.484 58.344L117.123 62.8948L117.904 62.2702L114.265 57.7194L113.484 58.344ZM117.104 62.8694C117.378 63.2597 117.698 63.4844 118.024 63.5848L118.318 62.629C118.23 62.602 118.085 62.527 117.923 62.2956L117.104 62.8694ZM118.024 63.5848C118.394 63.6987 118.801 63.5974 119.161 63.4902L118.876 62.5318C118.488 62.6471 118.361 62.6424 118.318 62.629L118.024 63.5848ZM119.161 63.4902L122.669 62.4461L122.384 61.4876L118.876 62.5318L119.161 63.4902ZM122.669 62.4461C123.082 62.3231 123.542 62.0786 123.644 61.5688C123.737 61.1023 123.468 60.6624 123.168 60.312L122.408 60.962C122.533 61.1087 122.603 61.2202 122.637 61.2985C122.671 61.3756 122.659 61.3932 122.663 61.3734C122.669 61.3456 122.684 61.3439 122.654 61.3673C122.617 61.3967 122.536 61.4423 122.384 61.4876L122.669 62.4461ZM123.166 60.3103L118.867 55.3299L118.11 55.9834L122.409 60.9637L123.166 60.3103ZM118.828 56.0236C120.627 54.3582 120.928 51.7934 119.962 48.5508L119.004 48.8361C119.922 51.9192 119.54 54.0023 118.149 55.2897L118.828 56.0236ZM119.962 48.5508C119.123 45.7323 117.953 43.796 116.393 42.9791L115.929 43.865C117.113 44.485 118.183 46.0765 119.004 48.8361L119.962 48.5508ZM116.393 42.9791C114.847 42.1692 112.656 42.2222 109.97 43.0218L110.255 43.9803C112.859 43.2051 114.732 43.2381 115.929 43.865L116.393 42.9791ZM109.97 43.0218L104.794 44.5624L105.079 45.5208L110.255 43.9803L109.97 43.0218ZM124.32 60.4313C124.433 60.81 124.631 61.164 124.992 61.3593C125.353 61.5546 125.757 61.5268 126.136 61.4141L125.851 60.4556C125.597 60.5312 125.499 60.4966 125.468 60.4799C125.437 60.4631 125.354 60.3999 125.279 60.146L124.32 60.4313ZM126.136 61.4141L129.586 60.387L129.301 59.4286L125.851 60.4556L126.136 61.4141ZM129.586 60.387C129.957 60.2769 130.304 60.078 130.501 59.7238C130.7 59.3669 130.685 58.9613 130.569 58.5712L129.611 58.8565C129.683 59.099 129.648 59.2005 129.627 59.2375C129.605 59.2772 129.535 59.359 129.301 59.4286L129.586 60.387ZM130.569 58.5712L125.057 40.0541L124.099 40.3394L129.611 58.8565L130.569 58.5712ZM125.057 40.0541C124.944 39.6727 124.733 39.332 124.378 39.1401C124.024 38.9482 123.623 38.9578 123.242 39.0713L123.527 40.0298C123.749 39.9636 123.856 39.9944 123.902 40.0195C123.949 40.0447 124.033 40.117 124.099 40.3394L125.057 40.0541ZM123.242 39.0713L119.791 40.0984L120.077 41.0568L123.527 40.0298L123.242 39.0713ZM119.791 40.0984C119.401 40.2145 119.054 40.4245 118.864 40.7859C118.675 41.1447 118.698 41.5442 118.808 41.9142L119.767 41.6289C119.697 41.3951 119.728 41.2918 119.749 41.2515C119.768 41.2141 119.834 41.129 120.077 41.0568L119.791 40.0984ZM118.808 41.9142L124.32 60.4313L125.279 60.146L119.767 41.6289L118.808 41.9142ZM142.453 55.0652L142.096 54.7155L142.092 54.7188L142.453 55.0652ZM143.887 51.258L144.386 51.28L143.887 51.258ZM140.948 40.0192L140.51 40.2604L140.948 40.0192ZM138.606 37.3045L138.888 36.8912L138.879 36.8855L138.871 36.8802L138.606 37.3045ZM135.769 36.3961L135.79 35.8966L135.769 36.3961ZM135.065 41.7077L134.851 42.1593L134.851 42.1593L135.065 41.7077ZM136.218 43.055L136.664 42.8303L136.66 42.8209L136.654 42.8118L136.218 43.055ZM138.344 50.9358L137.847 50.8831L138.344 50.9358ZM136.41 52.6385L135.93 52.7811L136.073 53.2603L136.552 53.1177L136.41 52.6385ZM133.192 41.8272L133.049 41.348L132.57 41.4907L132.712 41.9699L133.192 41.8272ZM138.548 57.7195C140.402 57.1678 141.846 56.4193 142.814 55.4115L142.092 54.7188C141.292 55.5521 140.032 56.2344 138.263 56.7611L138.548 57.7195ZM142.811 55.4148C143.782 54.4215 144.31 53.0173 144.386 51.28L143.387 51.236C143.318 52.7971 142.852 53.9425 142.096 54.7155L142.811 55.4148ZM144.386 51.28C144.462 49.5542 144.127 47.3678 143.331 44.6938L142.372 44.9791C143.151 47.5957 143.456 49.6634 143.387 51.236L144.386 51.28ZM143.331 44.6938C142.734 42.6896 142.09 41.057 141.386 39.778L140.51 40.2604C141.168 41.4556 141.788 43.0153 142.372 44.9791L143.331 44.6938ZM141.386 39.778C140.674 38.4857 139.828 37.5315 138.888 36.8912L138.325 37.7178C139.112 38.2536 139.859 39.0786 140.51 40.2604L141.386 39.778ZM138.871 36.8802C137.922 36.2889 136.9 35.943 135.79 35.8966L135.748 36.8957C136.667 36.9341 137.523 37.2186 138.342 37.7289L138.871 36.8802ZM135.79 35.8966C134.708 35.8513 133.479 36.0241 132.088 36.438L132.374 37.3965C133.686 37.0059 134.802 36.8561 135.748 36.8957L135.79 35.8966ZM132.088 36.438L127.258 37.8759L127.543 38.8343L132.374 37.3965L132.088 36.438ZM127.258 37.8759C126.868 37.992 126.52 38.202 126.33 38.5635C126.141 38.9222 126.165 39.3217 126.275 39.6917L127.233 39.4065C127.164 39.1727 127.194 39.0693 127.215 39.0291C127.235 38.9916 127.3 38.9065 127.543 38.8343L127.258 37.8759ZM126.275 39.6917L131.787 58.2088L132.745 57.9235L127.233 39.4065L126.275 39.6917ZM131.787 58.2088C131.899 58.5875 132.097 58.9416 132.458 59.1369C132.819 59.3322 133.224 59.3044 133.603 59.1916L133.317 58.2332C133.063 58.3088 132.965 58.2741 132.934 58.2574C132.903 58.2407 132.821 58.1774 132.745 57.9235L131.787 58.2088ZM133.603 59.1916L138.548 57.7195L138.263 56.7611L133.317 58.2332L133.603 59.1916ZM133.794 42.1695C134.295 42.0205 134.633 42.056 134.851 42.1593L135.28 41.2561C134.768 41.013 134.158 41.0178 133.509 41.2111L133.794 42.1695ZM134.851 42.1593C135.064 42.2606 135.384 42.5853 135.781 43.2982L136.654 42.8118C136.244 42.0746 135.796 41.5012 135.28 41.2561L134.851 42.1593ZM135.771 43.2796C136.136 44.0051 136.555 45.0986 136.995 46.5795L137.954 46.2942C137.505 44.7849 137.066 43.6294 136.664 42.8303L135.771 43.2796ZM136.995 46.5795C137.327 47.6925 137.56 48.606 137.7 49.3312C137.842 50.0664 137.88 50.5712 137.847 50.8831L138.841 50.9884C138.891 50.5247 138.828 49.9014 138.682 49.1417C138.533 48.3721 138.29 47.4241 137.954 46.2942L136.995 46.5795ZM137.847 50.8831C137.816 51.1783 137.715 51.3997 137.563 51.5692C137.409 51.7417 137.177 51.8885 136.842 51.9881L137.127 52.9465C137.598 52.8064 138.005 52.5753 138.308 52.2359C138.615 51.8934 138.791 51.4689 138.841 50.9884L137.847 50.8831ZM136.842 51.9881L136.267 52.1592L136.552 53.1177L137.127 52.9465L136.842 51.9881ZM136.889 52.4958L133.671 41.6846L132.712 41.9699L135.93 52.7811L136.889 52.4958ZM133.334 42.3065L133.794 42.1695L133.509 41.2111L133.049 41.348L133.334 42.3065ZM150.447 44.9543L149.953 45.0258L150.035 45.5986L150.59 45.4335L150.447 44.9543ZM149.355 37.3918L149.212 36.9126L148.798 37.0358L148.86 37.4633L149.355 37.3918ZM149.47 37.3575L149.923 37.1468L149.741 36.7551L149.327 36.8783L149.47 37.3575ZM152.69 44.2867L152.833 44.7659L153.388 44.6008L153.144 44.0759L152.69 44.2867ZM144.134 34.4697L143.637 34.5282L143.638 34.5304L144.134 34.4697ZM146.489 53.7386L146.986 53.684L146.985 53.678L146.489 53.7386ZM146.827 54.452L147.103 54.0356L146.827 54.452ZM151.843 52.2703L152.34 52.2198L152.339 52.2099L152.338 52.2L151.843 52.2703ZM151.472 49.6575L151.329 49.1783L150.916 49.3012L150.977 49.7277L151.472 49.6575ZM154.405 48.7845L154.857 48.5726L154.675 48.1824L154.262 48.3053L154.405 48.7845ZM155.523 51.1748L155.977 50.9658L155.976 50.9629L155.523 51.1748ZM160.887 50.2668L160.427 50.0696L160.887 50.2668ZM160.808 49.4764L160.359 49.697L160.362 49.7025L160.808 49.4764ZM152.242 32.0562L152.691 31.8355L152.686 31.8251L152.68 31.815L152.242 32.0562ZM150.942 44.8828L149.849 37.3203L148.86 37.4633L149.953 45.0258L150.942 44.8828ZM149.497 37.871L149.612 37.8368L149.327 36.8783L149.212 36.9126L149.497 37.871ZM149.016 37.5683L152.237 44.4974L153.144 44.0759L149.923 37.1468L149.016 37.5683ZM152.548 43.8075L150.305 44.475L150.59 45.4335L152.833 44.7659L152.548 43.8075ZM145.014 32.5904C144.57 32.7227 144.187 32.9485 143.931 33.2966C143.671 33.6515 143.584 34.0784 143.637 34.5282L144.63 34.4113C144.602 34.1655 144.653 34.0036 144.738 33.888C144.827 33.7656 144.996 33.6392 145.3 33.5489L145.014 32.5904ZM143.638 34.5304L145.993 53.7993L146.985 53.678L144.63 34.4091L143.638 34.5304ZM145.992 53.7932C146.034 54.1791 146.169 54.6155 146.55 54.8684L147.103 54.0356C147.094 54.0291 147.017 53.9649 146.986 53.684L145.992 53.7932ZM146.55 54.8684C146.913 55.1098 147.338 55.103 147.736 54.9846L147.451 54.0261C147.216 54.096 147.13 54.0536 147.103 54.0356L146.55 54.8684ZM147.736 54.9846L151.273 53.9319L150.988 52.9734L147.451 54.0261L147.736 54.9846ZM151.273 53.9319C151.633 53.8248 151.946 53.6262 152.144 53.2979C152.337 52.978 152.379 52.6027 152.34 52.2198L151.345 52.3207C151.371 52.5759 151.33 52.7105 151.287 52.7816C151.25 52.8443 151.174 52.9179 150.988 52.9734L151.273 53.9319ZM152.338 52.2L151.967 49.5872L150.977 49.7277L151.348 52.3405L152.338 52.2ZM151.614 50.1367L154.547 49.2637L154.262 48.3053L151.329 49.1783L151.614 50.1367ZM153.952 48.9964L155.07 51.3867L155.976 50.9629L154.857 48.5726L153.952 48.9964ZM155.069 51.3838C155.231 51.7359 155.466 52.0394 155.811 52.2063C156.162 52.3755 156.542 52.3635 156.909 52.2543L156.623 51.2959C156.415 51.358 156.306 51.3349 156.246 51.3056C156.18 51.274 156.081 51.1918 155.977 50.9658L155.069 51.3838ZM156.909 52.2543L160.445 51.2016L160.16 50.2432L156.623 51.2959L156.909 52.2543ZM160.445 51.2016C160.823 51.0892 161.177 50.8587 161.346 50.464L160.427 50.0696C160.412 50.1055 160.357 50.1845 160.16 50.2432L160.445 51.2016ZM161.346 50.464C161.513 50.0746 161.451 49.6397 161.254 49.2503L160.362 49.7025C160.468 49.9114 160.445 50.0284 160.427 50.0696L161.346 50.464ZM161.257 49.2558L152.691 31.8355L151.794 32.2768L160.359 49.697L161.257 49.2558ZM152.68 31.815C152.468 31.4292 152.168 31.1236 151.763 30.9678C151.362 30.8134 150.923 30.8317 150.477 30.9643L150.763 31.9227C151.065 31.8328 151.267 31.8482 151.404 31.9011C151.538 31.9526 151.676 32.0646 151.804 32.2974L152.68 31.815ZM150.477 30.9643L145.014 32.5904L145.3 33.5489L150.763 31.9227L150.477 30.9643ZM167.144 40.3601L166.645 40.3255L166.639 40.4159L166.664 40.5027L167.144 40.3601ZM168.036 27.4802L167.544 27.3934L167.539 27.4193L167.537 27.4456L168.036 27.4802ZM167.822 26.7613L167.442 27.0863L167.442 27.0863L167.822 26.7613ZM162.41 28.8732L162.909 28.8432L162.908 28.8352L162.908 28.8273L162.41 28.8732ZM162.687 33.4857L162.188 33.5158L162.19 33.5383L162.193 33.5607L162.687 33.4857ZM163.109 36.2711L163.252 36.7503L163.669 36.6262L163.604 36.1961L163.109 36.2711ZM162.994 36.3053L162.54 36.5129L162.72 36.9086L163.137 36.7845L162.994 36.3053ZM161.825 33.7425L162.28 33.5349L162.27 33.5143L162.259 33.4947L161.825 33.7425ZM159.535 29.7291L159.969 29.4812L159.965 29.4745L159.535 29.7291ZM153.819 30.9294L154.315 30.9937L154.315 30.9937L153.819 30.9294ZM154.062 31.6397L154.461 31.338L154.431 31.2979L154.393 31.2647L154.062 31.6397ZM161.853 41.9349L162.332 41.7922L162.306 41.7054L162.252 41.6332L161.853 41.9349ZM167.642 40.3946L168.535 27.5147L167.537 27.4456L166.645 40.3255L167.642 40.3946ZM168.529 27.5669C168.604 27.1394 168.48 26.7614 168.202 26.4363L167.442 27.0863C167.548 27.2103 167.562 27.2924 167.544 27.3934L168.529 27.5669ZM168.202 26.4363C167.844 26.0169 167.312 25.9534 166.812 26.1021L167.098 27.0605C167.346 26.9867 167.417 27.0567 167.442 27.0863L168.202 26.4363ZM166.812 26.1021L163.189 27.1805L163.475 28.1389L167.098 27.0605L166.812 26.1021ZM163.189 27.1805C162.793 27.2984 162.443 27.4961 162.205 27.8081C161.96 28.1281 161.875 28.5134 161.912 28.9191L162.908 28.8273C162.889 28.6237 162.934 28.5007 162.999 28.4154C163.07 28.3223 163.209 28.2179 163.475 28.1389L163.189 27.1805ZM161.911 28.9032L162.188 33.5158L163.186 33.4557L162.909 28.8432L161.911 28.9032ZM162.193 33.5607L162.615 36.346L163.604 36.1961L163.182 33.4108L162.193 33.5607ZM162.967 35.7918L162.852 35.8261L163.137 36.7845L163.252 36.7503L162.967 35.7918ZM163.449 36.0977L162.28 33.5349L161.37 33.9501L162.54 36.5129L163.449 36.0977ZM162.259 33.4947L159.969 29.4813L159.1 29.9769L161.39 33.9903L162.259 33.4947ZM159.965 29.4745C159.76 29.1276 159.474 28.8628 159.102 28.7316C158.736 28.6022 158.343 28.6229 157.956 28.7382L158.242 29.6966C158.487 29.6235 158.655 29.634 158.769 29.6745C158.879 29.7131 158.994 29.7982 159.104 29.9837L159.965 29.4745ZM157.956 28.7382L154.333 29.8166L154.619 30.775L158.242 29.6966L157.956 28.7382ZM154.333 29.8166C153.815 29.9708 153.396 30.3098 153.324 30.8651L154.315 30.9937C154.32 30.9593 154.331 30.9338 154.361 30.9049C154.396 30.8702 154.471 30.8188 154.619 30.775L154.333 29.8166ZM153.324 30.8651C153.298 31.0655 153.304 31.2751 153.372 31.4813C153.442 31.6914 153.566 31.8686 153.731 32.0146L154.393 31.2647C154.346 31.2235 154.33 31.1921 154.322 31.1671C154.312 31.1382 154.303 31.0863 154.315 30.9937L153.324 30.8651ZM153.663 31.9414L161.454 42.2366L162.252 41.6332L154.461 31.338L153.663 31.9414ZM161.374 42.0775L163.377 48.8058L164.335 48.5205L162.332 41.7922L161.374 42.0775ZM163.377 48.8058C163.489 49.1844 163.687 49.5385 164.048 49.7338C164.409 49.9291 164.814 49.9013 165.192 49.7886L164.907 48.8301C164.653 48.9057 164.555 48.8711 164.524 48.8543C164.493 48.8376 164.411 48.7744 164.335 48.5205L163.377 48.8058ZM165.192 49.7886L168.643 48.7615L168.358 47.8031L164.907 48.8301L165.192 49.7886ZM168.643 48.7615C169.013 48.6514 169.36 48.4525 169.557 48.0983C169.756 47.7414 169.742 47.3358 169.626 46.9457L168.667 47.231C168.739 47.4734 168.704 47.575 168.683 47.612C168.661 47.6517 168.591 47.7335 168.358 47.8031L168.643 48.7615ZM169.626 46.9457L167.623 40.2174L166.664 40.5027L168.667 47.231L169.626 46.9457ZM182.02 23.0672L182.512 22.978L182.512 22.973L182.02 23.0672ZM183.679 32.2142L183.187 32.3034L183.188 32.3104L183.19 32.3175L183.679 32.2142ZM184.518 36.19L184.661 36.6693L185.102 36.5378L185.007 36.0868L184.518 36.19ZM184.461 36.2071L183.999 36.3985L184.171 36.815L184.603 36.6864L184.461 36.2071ZM182.903 32.4453L183.365 32.254L183.362 32.2473L183.359 32.2407L182.903 32.4453ZM179.088 23.9402L179.544 23.7356L179.537 23.7207L179.53 23.7063L179.088 23.9402ZM173.416 24.9711L173.876 25.1683L173.876 25.1683L173.416 24.9711ZM173.515 25.7241L173.964 25.505L173.961 25.4976L173.957 25.4903L173.515 25.7241ZM181.952 43.0263L182.405 42.8149L182.401 42.8071L181.952 43.0263ZM189.083 40.9037L189.58 40.8507L189.578 40.8365L189.576 40.8224L189.083 40.9037ZM188.305 36.1895L188.799 36.1082L188.797 36.0974L188.305 36.1895ZM187.399 31.3573L187.256 30.8781L186.825 31.0066L186.908 31.4494L187.399 31.3573ZM187.457 31.3402L187.918 31.1486L187.746 30.7324L187.314 30.8609L187.457 31.3402ZM189.34 35.8814L188.879 36.0731L188.883 36.0831L189.34 35.8814ZM191.268 40.2533L190.81 40.455L190.815 40.4646L191.268 40.2533ZM198.399 38.1307L198.896 38.0777L198.895 38.0684L198.399 38.1307ZM196 19.0313L195.502 19.0771L195.503 19.0854L195.504 19.0936L196 19.0313ZM195.642 18.3552L195.365 18.7716L195.365 18.7716L195.642 18.3552ZM190.359 20.5852L189.864 20.6552L189.865 20.6634L190.359 20.5852ZM191.816 29.7921L191.322 29.8703L191.323 29.8774L191.325 29.8845L191.816 29.7921ZM192.569 33.7936L192.712 34.2728L193.144 34.1442L193.06 33.7011L192.569 33.7936ZM192.511 33.8107L192.045 33.9918L192.212 34.4214L192.654 34.2899L192.511 33.8107ZM191.04 30.0232L191.506 29.8421L191.503 29.8354L191.5 29.8288L191.04 30.0232ZM187.426 21.4582L186.963 21.6478L186.965 21.6525L187.426 21.4582ZM182.59 21.4056C182.205 21.5202 181.875 21.7297 181.676 22.0684C181.479 22.4041 181.458 22.7885 181.529 23.1615L182.512 22.973C182.469 22.7537 182.502 22.6368 182.539 22.5744C182.574 22.5148 182.656 22.4293 182.875 22.3641L182.59 21.4056ZM181.529 23.1564L183.187 32.3034L184.171 32.125L182.512 22.978L181.529 23.1564ZM183.19 32.3175L184.029 36.2933L185.007 36.0868L184.168 32.1109L183.19 32.3175ZM184.375 35.7108L184.318 35.7279L184.603 36.6864L184.661 36.6693L184.375 35.7108ZM184.923 36.0158L183.365 32.254L182.441 32.6366L183.999 36.3985L184.923 36.0158ZM183.359 32.2407L179.544 23.7356L178.631 24.1448L182.446 32.6499L183.359 32.2407ZM179.53 23.7063C179.356 23.3779 179.116 23.0927 178.786 22.9286C178.446 22.7593 178.073 22.7501 177.702 22.8606L177.987 23.8191C178.163 23.7669 178.268 23.7875 178.341 23.8239C178.424 23.8653 178.533 23.9617 178.646 24.174L179.53 23.7063ZM177.702 22.8606L173.878 23.9989L174.163 24.9574L177.987 23.8191L177.702 22.8606ZM173.878 23.9989C173.438 24.1299 173.115 24.4053 172.957 24.7739L173.876 25.1683C173.902 25.1062 173.971 25.0147 174.163 24.9574L173.878 23.9989ZM172.957 24.7739C172.778 25.1903 172.898 25.6281 173.073 25.958L173.957 25.4903C173.845 25.2794 173.869 25.1825 173.876 25.1683L172.957 24.7739ZM173.066 25.9433L181.502 43.2454L182.401 42.8071L173.964 25.505L173.066 25.9433ZM181.499 43.2376C181.704 43.6774 181.995 44.0293 182.394 44.2226C182.798 44.4183 183.24 44.4165 183.673 44.2876L183.388 43.3292C183.131 43.4057 182.956 43.3839 182.83 43.3227C182.699 43.2591 182.546 43.1173 182.405 42.815L181.499 43.2376ZM183.673 44.2876L188.331 42.9011L188.046 41.9427L183.388 43.3292L183.673 44.2876ZM188.331 42.9011C188.766 42.7716 189.131 42.5321 189.358 42.1468C189.579 41.771 189.63 41.3233 189.58 40.8507L188.585 40.9567C188.622 41.3033 188.571 41.512 188.496 41.6391C188.427 41.7567 188.301 41.8667 188.046 41.9427L188.331 42.9011ZM189.576 40.8224L188.799 36.1082L187.812 36.2709L188.589 40.9851L189.576 40.8224ZM188.797 36.0974L187.891 31.2651L186.908 31.4494L187.814 36.2817L188.797 36.0974ZM187.542 31.8365L187.599 31.8194L187.314 30.8609L187.256 30.8781L187.542 31.8365ZM186.995 31.5317L188.879 36.073L189.802 35.6898L187.918 31.1486L186.995 31.5317ZM188.883 36.0831L190.81 40.455L191.725 40.0516L189.798 35.6797L188.883 36.0831ZM190.815 40.4646C191.02 40.9044 191.311 41.2563 191.71 41.4496C192.114 41.6453 192.556 41.6435 192.989 41.5146L192.704 40.5562C192.447 40.6326 192.272 40.6108 192.146 40.5497C192.015 40.4861 191.862 40.3442 191.721 40.0419L190.815 40.4646ZM192.989 41.5146L197.647 40.1281L197.362 39.1696L192.704 40.5562L192.989 41.5146ZM197.647 40.1281C198.082 39.9986 198.447 39.7591 198.674 39.3738C198.895 38.998 198.946 38.5503 198.896 38.0777L197.901 38.1837C197.938 38.5303 197.887 38.739 197.812 38.8661C197.743 38.9837 197.617 39.0937 197.362 39.1696L197.647 40.1281ZM198.895 38.0684L196.496 18.969L195.504 19.0936L197.902 38.193L198.895 38.0684ZM196.498 18.9854C196.459 18.5653 196.267 18.1701 195.919 17.9388L195.365 18.7716C195.408 18.7998 195.485 18.8879 195.502 19.0771L196.498 18.9854ZM195.919 17.9388C195.592 17.7214 195.173 17.6603 194.753 17.7853L195.038 18.7438C195.193 18.6976 195.302 18.7296 195.365 18.7716L195.919 17.9388ZM194.753 17.7853L190.929 18.9236L191.214 19.8821L195.038 18.7438L194.753 17.7853ZM190.929 18.9236C190.551 19.0361 190.232 19.2465 190.036 19.5799C189.845 19.9066 189.811 20.2835 189.864 20.6552L190.854 20.5152C190.822 20.2861 190.857 20.1575 190.899 20.0859C190.937 20.0211 191.017 19.9408 191.214 19.8821L190.929 18.9236ZM189.865 20.6634L191.322 29.8703L192.31 29.7139L190.853 20.507L189.865 20.6634ZM191.325 29.8845L192.078 33.8861L193.06 33.7011L192.307 29.6996L191.325 29.8845ZM192.426 33.3144L192.369 33.3315L192.654 34.2899L192.712 34.2728L192.426 33.3144ZM192.978 33.6296L191.506 29.8421L190.574 30.2043L192.045 33.9918L192.978 33.6296ZM191.5 29.8288L187.887 21.2638L186.965 21.6525L190.579 30.2175L191.5 29.8288ZM187.889 21.2686C187.74 20.9068 187.501 20.603 187.152 20.4345C186.803 20.2656 186.416 20.2668 186.041 20.3786L186.326 21.337C186.525 21.2777 186.645 21.3 186.717 21.3347C186.789 21.3696 186.883 21.4516 186.963 21.6478L187.889 21.2686ZM186.041 20.3786L182.59 21.4056L182.875 22.3641L186.326 21.337L186.041 20.3786ZM204.562 23.7445L204.083 23.8872L204.225 24.3664L204.704 24.2238L204.562 23.7445ZM203.715 20.898L203.572 20.4188L203.093 20.5614L203.235 21.0406L203.715 20.898ZM206.898 31.5942L206.419 31.7368L206.562 32.216L207.041 32.0734L206.898 31.5942ZM205.948 28.4026L205.806 27.9233L205.326 28.066L205.469 28.5452L205.948 28.4026ZM210.576 27.5466C210.947 27.4365 211.294 27.2376 211.491 26.8834C211.69 26.5265 211.675 26.1209 211.559 25.7308L210.601 26.0161C210.673 26.2585 210.638 26.3601 210.617 26.3971C210.595 26.4368 210.525 26.5186 210.291 26.5882L210.576 27.5466ZM211.559 25.7308L210.721 22.913L209.762 23.1983L210.601 26.0161L211.559 25.7308ZM210.721 22.913C210.607 22.5315 210.396 22.1909 210.041 21.9989C209.687 21.807 209.286 21.8166 208.905 21.9302L209.19 22.8886C209.412 22.8224 209.519 22.8532 209.565 22.8784C209.612 22.9036 209.696 22.9759 209.762 23.1983L210.721 22.913ZM208.905 21.9302L204.419 23.2653L204.704 24.2238L209.19 22.8886L208.905 21.9302ZM205.041 23.6019L204.194 20.7553L203.235 21.0406L204.083 23.8872L205.041 23.6019ZM203.857 21.3772L208.63 19.9564L208.345 18.998L203.572 20.4188L203.857 21.3772ZM208.63 19.9564C209 19.8463 209.347 19.6474 209.545 19.2932C209.743 18.9363 209.729 18.5307 209.613 18.1406L208.655 18.4259C208.727 18.6684 208.691 18.7699 208.671 18.8069C208.649 18.8466 208.579 18.9284 208.345 18.998L208.63 19.9564ZM209.613 18.1406L208.723 15.1503L207.764 15.4356L208.655 18.4259L209.613 18.1406ZM208.723 15.1503C208.609 14.7688 208.398 14.4281 208.044 14.2362C207.689 14.0443 207.288 14.0539 206.907 14.1675L207.192 15.1259C207.415 15.0597 207.521 15.0905 207.568 15.1157C207.614 15.1409 207.698 15.2132 207.764 15.4356L208.723 15.1503ZM206.907 14.1675L197.821 16.872L198.106 17.8305L207.192 15.1259L206.907 14.1675ZM197.821 16.872C197.431 16.9881 197.084 17.1981 196.893 17.5596C196.705 17.9183 196.728 18.3178 196.838 18.6879L197.797 18.4026C197.727 18.1688 197.757 18.0654 197.778 18.0252C197.798 17.9877 197.864 17.9026 198.106 17.8305L197.821 16.872ZM196.838 18.6879L202.35 37.2049L203.308 36.9197L197.797 18.4026L196.838 18.6879ZM202.35 37.2049C202.463 37.5836 202.661 37.9377 203.022 38.133C203.382 38.3283 203.787 38.3005 204.166 38.1877L203.881 37.2293C203.627 37.3049 203.529 37.2702 203.498 37.2535C203.467 37.2368 203.384 37.1736 203.308 36.9197L202.35 37.2049ZM204.166 38.1877L213.367 35.449L213.082 34.4905L203.881 37.2293L204.166 38.1877ZM213.367 35.449C213.737 35.3388 214.084 35.1399 214.281 34.7857C214.48 34.4288 214.466 34.0232 214.35 33.6331L213.391 33.9184C213.463 34.1609 213.428 34.2624 213.408 34.2994C213.385 34.3391 213.315 34.4209 213.082 34.4905L213.367 35.449ZM214.35 33.6331L213.46 30.6428L212.501 30.9281L213.391 33.9184L214.35 33.6331ZM213.46 30.6428C213.346 30.2613 213.135 29.9207 212.78 29.7288C212.426 29.5368 212.025 29.5464 211.644 29.66L211.929 30.6184C212.151 30.5522 212.258 30.583 212.304 30.6082C212.351 30.6334 212.435 30.7057 212.501 30.9281L213.46 30.6428ZM211.644 29.66L206.756 31.115L207.041 32.0734L211.929 30.6184L211.644 29.66ZM207.378 31.4515L206.428 28.2599L205.469 28.5452L206.419 31.7368L207.378 31.4515ZM206.091 28.8818L210.576 27.5466L210.291 26.5882L205.806 27.9233L206.091 28.8818ZM217.394 19.9249L216.915 20.0675L217.058 20.5468L217.537 20.4041L217.394 19.9249ZM216.547 17.0783L216.404 16.5991L215.925 16.7417L216.068 17.221L216.547 17.0783ZM219.731 27.7745L219.251 27.9172L219.394 28.3964L219.873 28.2537L219.731 27.7745ZM218.781 24.5829L218.638 24.1037L218.159 24.2463L218.301 24.7256L218.781 24.5829ZM223.409 23.727C223.779 23.6168 224.126 23.4179 224.323 23.0637C224.522 22.7068 224.508 22.3012 224.392 21.9111L223.433 22.1964C223.505 22.4389 223.47 22.5404 223.449 22.5774C223.427 22.6172 223.357 22.6989 223.123 22.7685L223.409 23.727ZM224.392 21.9111L223.553 19.0933L222.594 19.3786L223.433 22.1964L224.392 21.9111ZM223.553 19.0933C223.439 18.7119 223.228 18.3712 222.874 18.1793C222.519 17.9874 222.118 17.997 221.737 18.1105L222.022 19.069C222.245 19.0028 222.351 19.0336 222.398 19.0587C222.444 19.0839 222.528 19.1562 222.594 19.3786L223.553 19.0933ZM221.737 18.1105L217.251 19.4457L217.537 20.4041L222.022 19.069L221.737 18.1105ZM217.873 19.7822L217.026 16.9357L216.068 17.221L216.915 20.0675L217.873 19.7822ZM216.689 17.5575L221.462 16.1368L221.177 15.1784L216.404 16.5991L216.689 17.5575ZM221.462 16.1368C221.833 16.0267 222.18 15.8277 222.377 15.4736C222.575 15.1167 222.561 14.7111 222.445 14.321L221.487 14.6062C221.559 14.8487 221.524 14.9502 221.503 14.9872C221.481 15.027 221.411 15.1088 221.177 15.1784L221.462 16.1368ZM222.445 14.321L221.555 11.3306L220.597 11.6159L221.487 14.6062L222.445 14.321ZM221.555 11.3306C221.442 10.9492 221.231 10.6085 220.876 10.4166C220.521 10.2247 220.121 10.2343 219.739 10.3478L220.025 11.3063C220.247 11.2401 220.353 11.2709 220.4 11.296C220.447 11.3212 220.531 11.3935 220.597 11.6159L221.555 11.3306ZM219.739 10.3478L210.653 13.0524L210.939 14.0108L220.025 11.3063L219.739 10.3478ZM210.653 13.0524C210.263 13.1685 209.916 13.3785 209.726 13.7399C209.537 14.0987 209.56 14.4982 209.67 14.8682L210.629 14.5829C210.559 14.3491 210.59 14.2458 210.611 14.2056C210.63 14.1681 210.696 14.083 210.939 14.0108L210.653 13.0524ZM209.67 14.8682L215.182 33.3853L216.141 33.1L210.629 14.5829L209.67 14.8682ZM215.182 33.3853C215.295 33.764 215.493 34.118 215.854 34.3133C216.215 34.5086 216.619 34.4808 216.998 34.3681L216.713 33.4097C216.459 33.4852 216.361 33.4506 216.33 33.4339C216.299 33.4171 216.216 33.3539 216.141 33.1L215.182 33.3853ZM216.998 34.3681L226.199 31.6293L225.914 30.6709L216.713 33.4097L216.998 34.3681ZM226.199 31.6293C226.569 31.5192 226.916 31.3203 227.114 30.9661C227.312 30.6092 227.298 30.2036 227.182 29.8135L226.224 30.0988C226.296 30.3412 226.26 30.4427 226.24 30.4798C226.218 30.5195 226.148 30.6013 225.914 30.6709L226.199 31.6293ZM227.182 29.8135L226.292 26.8231L225.333 27.1084L226.224 30.0988L227.182 29.8135ZM226.292 26.8231C226.178 26.4417 225.967 26.101 225.613 25.9091C225.258 25.7172 224.857 25.7268 224.476 25.8403L224.761 26.7988C224.984 26.7326 225.09 26.7634 225.137 26.7886C225.183 26.8137 225.267 26.886 225.333 27.1084L226.292 26.8231ZM224.476 25.8403L219.588 27.2953L219.873 28.2537L224.761 26.7988L224.476 25.8403ZM220.21 27.6319L219.26 24.4403L218.301 24.7256L219.251 27.9172L220.21 27.6319ZM218.923 25.0621L223.409 23.727L223.123 22.7685L218.638 24.1037L218.923 25.0621ZM229.967 15.0243L229.488 15.1669L230.464 15.0825L229.967 15.0243ZM231.448 19.9986L231.851 19.7033L230.969 20.1412L231.448 19.9986ZM236.619 27.067L237.037 26.7926L237.03 26.782L237.023 26.7717L236.619 27.067ZM242.265 25.9498L242.758 26.0365L242.265 25.9498ZM241.997 25.1533L242.398 24.8554L242.396 24.8527L241.997 25.1533ZM235.109 15.9979L234.613 15.9352L234.587 16.1364L234.709 16.2985L235.109 15.9979ZM236.219 7.21606L235.727 7.12933L235.725 7.14128L235.723 7.15331L236.219 7.21606ZM236.037 6.39385L236.402 6.05195L236.402 6.05195L236.037 6.39385ZM230.728 8.53756L231.225 8.59584L231.226 8.58309L230.728 8.53756ZM230.446 14.8816L228.752 9.18847L227.793 9.47375L229.488 15.1669L230.446 14.8816ZM228.752 9.18847C228.638 8.80704 228.427 8.46635 228.073 8.27444C227.718 8.08254 227.317 8.09213 226.936 8.20567L227.221 9.16411C227.444 9.09791 227.55 9.12871 227.597 9.15389C227.643 9.17907 227.727 9.25137 227.793 9.47375L228.752 9.18847ZM226.936 8.20567L223.486 9.23271L223.771 10.1912L227.221 9.16411L226.936 8.20567ZM223.486 9.23271C223.095 9.34883 222.748 9.55882 222.558 9.92029C222.369 10.279 222.393 10.6785 222.503 11.0486L223.461 10.7633C223.392 10.5295 223.422 10.4261 223.443 10.3859C223.463 10.3484 223.528 10.2633 223.771 10.1912L223.486 9.23271ZM222.503 11.0486L228.015 29.5656L228.973 29.2804L223.461 10.7633L222.503 11.0486ZM228.015 29.5656C228.127 29.9443 228.325 30.2984 228.686 30.4937C229.047 30.689 229.452 30.6612 229.83 30.5484L229.545 29.59C229.291 29.6656 229.193 29.631 229.162 29.6142C229.131 29.5975 229.049 29.5343 228.973 29.2804L228.015 29.5656ZM229.83 30.5484L233.281 29.5214L232.995 28.563L229.545 29.59L229.83 30.5484ZM233.281 29.5214C233.651 29.4113 233.998 29.2124 234.195 28.8582C234.394 28.5013 234.38 28.0957 234.264 27.7056L233.305 27.9908C233.377 28.2333 233.342 28.3348 233.321 28.3719C233.299 28.4116 233.229 28.4934 232.995 28.563L233.281 29.5214ZM234.264 27.7056L231.927 19.8559L230.969 20.1412L233.305 27.9908L234.264 27.7056ZM231.044 20.2938L236.216 27.3622L237.023 26.7717L231.851 19.7033L231.044 20.2938ZM236.201 27.3413C236.42 27.6751 236.709 27.9296 237.073 28.0581C237.435 28.1859 237.819 28.1705 238.198 28.0579L237.912 27.0994C237.687 27.1666 237.525 27.1571 237.406 27.1151C237.289 27.0737 237.162 26.9825 237.037 26.7926L236.201 27.3413ZM238.198 28.0579L241.82 26.9795L241.535 26.021L237.912 27.0994L238.198 28.0579ZM241.82 26.9795C242.275 26.8443 242.667 26.5516 242.758 26.0365L241.773 25.8631C241.768 25.8887 241.761 25.903 241.742 25.9208C241.716 25.9445 241.658 25.9846 241.535 26.021L241.82 26.9795ZM242.758 26.0365C242.84 25.5679 242.635 25.1745 242.398 24.8554L241.595 25.4511C241.777 25.6961 241.783 25.8032 241.773 25.8631L242.758 26.0365ZM242.396 24.8527L235.508 15.6973L234.709 16.2985L241.597 25.4539L242.396 24.8527ZM235.605 16.0607L236.715 7.2788L235.723 7.15331L234.613 15.9352L235.605 16.0607ZM236.712 7.30279C236.786 6.87979 236.73 6.40201 236.402 6.05195L235.672 6.73575C235.711 6.77728 235.769 6.89167 235.727 7.12933L236.712 7.30279ZM236.402 6.05195C236.034 5.65905 235.507 5.65454 235.073 5.78356L235.358 6.742C235.481 6.70552 235.564 6.70345 235.612 6.71073C235.654 6.71702 235.666 6.72898 235.672 6.73575L236.402 6.05195ZM235.073 5.78356L231.508 6.84483L231.793 7.80328L235.358 6.742L235.073 5.78356ZM231.508 6.84483C231.136 6.95545 230.822 7.15191 230.596 7.4535C230.373 7.75006 230.265 8.10793 230.23 8.49202L231.226 8.58309C231.25 8.32366 231.316 8.16036 231.396 8.05385C231.472 7.95236 231.59 7.86384 231.793 7.80328L231.508 6.84483ZM230.232 8.47929L229.471 14.966L230.464 15.0825L231.225 8.59582L230.232 8.47929ZM251.256 13.8208L251.595 13.4535L251.588 13.4472L251.581 13.4411L251.256 13.8208ZM247.553 11.7928L247.737 11.3273L247.725 11.3233L247.553 11.7928ZM248.042 7.54681L248.065 8.04649L248.078 8.04556L248.042 7.54681ZM247.708 2.95138L247.984 2.53501L247.984 2.53501L247.708 2.95138ZM246.877 2.79156L246.855 2.29188L246.842 2.29281L246.877 2.79156ZM239.057 6.27754L239.489 6.52915L239.057 6.27754ZM241.07 14.7242L241.395 14.3441L241.07 14.7242ZM244.512 16.6108L244.671 16.137L244.67 16.1364L244.512 16.6108ZM246.834 17.5784L247.115 17.1646L247.104 17.1573L247.093 17.1505L246.834 17.5784ZM243.129 20.9037L243.152 20.4042L243.137 20.4036L243.123 20.4037L243.129 20.9037ZM243.409 25.4214L243.171 25.8612L243.409 25.4214ZM244.326 25.5556L244.324 25.0556L244.32 25.0556L244.326 25.5556ZM252.632 22.0189L253.04 22.3076L252.632 22.0189ZM253.605 16.9091C253.166 15.4352 252.496 14.2853 251.595 13.4535L250.917 14.1881C251.656 14.8712 252.246 15.8504 252.646 17.1944L253.605 16.9091ZM251.581 13.4411C250.68 12.6686 249.39 11.9777 247.736 11.3275L247.37 12.2581C248.979 12.8907 250.151 13.5326 250.931 14.2004L251.581 13.4411ZM247.725 11.3233C246.856 11.0047 246.203 10.6695 245.748 10.3338C245.289 9.99576 245.069 9.68503 244.992 9.42526L244.033 9.71055C244.195 10.2559 244.6 10.7295 245.154 11.1386C245.712 11.55 246.46 11.9247 247.382 12.2623L247.725 11.3233ZM244.992 9.42526C244.893 9.09538 244.949 8.93257 244.994 8.87164L244.19 8.27606C243.878 8.69711 243.892 9.23534 244.033 9.71055L244.992 9.42526ZM244.994 8.87164C245.068 8.77087 245.304 8.60191 245.894 8.42627L245.609 7.46783C244.991 7.65165 244.473 7.89485 244.19 8.27606L244.994 8.87164ZM245.894 8.42627C246.636 8.20557 247.368 8.0772 248.065 8.04632L248.02 7.0473C247.234 7.08219 246.42 7.22636 245.609 7.46783L245.894 8.42627ZM248.078 8.04556C248.532 8.01343 248.98 7.89692 249.274 7.58405C249.603 7.23466 249.619 6.77975 249.495 6.36318L248.537 6.64847C248.569 6.75843 248.569 6.82361 248.565 6.85541C248.561 6.88024 248.555 6.88955 248.546 6.89909C248.513 6.93393 248.381 7.02162 248.007 7.04806L248.078 8.04556ZM249.495 6.36318L248.639 3.48786L247.681 3.77315L248.537 6.64847L249.495 6.36318ZM248.639 3.48786C248.511 3.05524 248.296 2.74238 247.984 2.53501L247.431 3.36776C247.509 3.41984 247.604 3.51568 247.681 3.77315L248.639 3.48786ZM247.984 2.53501C247.658 2.31795 247.265 2.27388 246.855 2.29205L246.9 3.29107C247.231 3.27635 247.367 3.32537 247.431 3.36776L247.984 2.53501ZM246.842 2.29281C245.968 2.35469 244.804 2.57419 243.4 2.99194L243.685 3.95038C245.042 3.54649 246.132 3.34557 246.913 3.29032L246.842 2.29281ZM243.4 2.99194C241.061 3.68829 239.406 4.68527 238.625 6.02593L239.489 6.52915C240.075 5.52223 241.424 4.62342 243.685 3.95038L243.4 2.99194ZM238.625 6.02592C237.84 7.37434 237.854 9.14246 238.478 11.2388L239.437 10.9535C238.845 8.9669 238.907 7.52831 239.489 6.52915L238.625 6.02592ZM238.478 11.2388C238.974 12.9053 239.725 14.2317 240.746 15.1043L241.395 14.3441C240.569 13.638 239.899 12.5074 239.437 10.9535L238.478 11.2388ZM240.746 15.1043C241.723 15.9398 242.909 16.6043 244.354 17.0852L244.67 16.1364C243.334 15.6918 242.265 15.0872 241.395 14.3441L240.746 15.1043ZM244.352 17.0846C245.525 17.4804 246.241 17.8044 246.576 18.0063L247.093 17.1505C246.664 16.8911 245.864 16.5394 244.671 16.137L244.352 17.0846ZM246.554 17.9923C246.827 18.1779 246.993 18.3908 247.074 18.6651L248.033 18.3798C247.875 17.849 247.547 17.4574 247.115 17.1646L246.554 17.9923ZM247.074 18.6651C247.149 18.9168 247.104 19.1118 246.905 19.3169C246.673 19.5557 246.228 19.8039 245.496 20.0218L245.781 20.9803C246.573 20.7446 247.213 20.4349 247.622 20.0134C248.064 19.5582 248.214 18.9907 248.033 18.3798L247.074 18.6651ZM245.496 20.0218C244.569 20.2977 243.8 20.4337 243.152 20.4042L243.106 21.4032C243.917 21.4401 244.81 21.2693 245.781 20.9803L245.496 20.0218ZM243.123 20.4037C242.656 20.4089 242.177 20.4978 241.87 20.8295C241.533 21.1946 241.553 21.6751 241.676 22.0873L242.635 21.802C242.595 21.6687 242.591 21.5869 242.595 21.5438C242.597 21.524 242.601 21.5149 242.602 21.5125C242.603 21.5107 242.603 21.5101 242.605 21.5086C242.617 21.4947 242.728 21.4081 243.134 21.4037L243.123 20.4037ZM241.676 22.0873L242.506 24.8764L243.465 24.5911L242.635 21.802L241.676 22.0873ZM242.506 24.8764C242.613 25.2348 242.794 25.657 243.171 25.8612L243.647 24.9817C243.657 24.9872 243.635 24.9793 243.595 24.9116C243.554 24.8442 243.509 24.7406 243.465 24.5911L242.506 24.8764ZM243.171 25.8612C243.482 26.0292 243.893 26.0604 244.331 26.0555L244.32 25.0556C243.885 25.0604 243.71 25.0156 243.647 24.9817L243.171 25.8612ZM244.327 26.0556C245.459 26.0519 246.877 25.7873 248.622 25.2679L248.337 24.3094C246.631 24.8171 245.318 25.0523 244.324 25.0556L244.327 26.0556ZM248.622 25.2679C250.545 24.6957 252.037 23.7268 253.04 22.3076L252.224 21.7302C251.377 22.9277 250.095 23.7861 248.337 24.3094L248.622 25.2679ZM253.04 22.3076C254.079 20.8381 254.233 19.0208 253.605 16.9091L252.646 17.1944C253.216 19.1081 253.035 20.5831 252.224 21.7302L253.04 22.3076Z" fill="white"/>
<path d="M274.065 3.11896L273.132 -0.0151401L274.397 -0.391723C274.886 -0.53722 275.265 -0.524911 275.535 -0.354796C275.776 -0.176122 276.011 0.192189 276.182 0.767253C276.353 1.34232 276.366 1.80785 276.262 2.08923C276.129 2.37917 275.819 2.59688 275.33 2.74238L274.065 3.11896ZM279.921 15.1169C284.061 13.8844 285.553 11.2181 284.337 7.13518C283.978 5.92754 283.402 4.9407 282.628 4.23216C281.854 3.52362 280.993 3.15396 280.036 3.09444C281.383 1.94219 281.732 0.273442 281.081 -1.91181C280.499 -3.86702 279.579 -5.06437 278.339 -5.44634C277.098 -5.8283 275.414 -5.70261 273.229 -5.05215L267.507 -3.34897C266.874 -3.16068 266.681 -2.75881 266.861 -2.15499L272.372 16.3621C272.561 16.9947 272.934 17.1966 273.566 17.0083L279.921 15.1169ZM276.453 11.1411L275.348 7.43195L276.987 6.9441C277.534 6.78149 277.95 6.81399 278.266 7.03306C278.553 7.26068 278.805 7.68649 279.01 8.37657C279.216 9.06665 279.237 9.56094 279.122 9.90838C278.977 10.2644 278.638 10.4907 278.091 10.6533L276.453 11.1411ZM287.342 -8.25152C287.162 -8.85534 286.752 -9.07748 286.148 -8.89774L282.698 -7.8707C282.065 -7.68241 281.872 -7.28054 282.052 -6.67672L287.563 11.8404C287.752 12.4729 288.125 12.6749 288.757 12.4866L296.808 10.0902C297.412 9.91043 297.643 9.52875 297.455 8.89618L296.547 5.84833C296.368 5.24452 295.957 5.02238 295.353 5.20211L291.673 6.29762L287.342 -8.25152ZM302.516 -0.310373L301.423 -7.87286L301.538 -7.9071L304.759 -0.977951L302.516 -0.310373ZM297.225 -12.195C296.478 -11.9725 296.12 -11.4905 296.202 -10.7949L298.557 8.47399C298.594 8.80739 298.7 9.05761 298.895 9.18734C299.09 9.31707 299.346 9.33486 299.662 9.24071L303.199 8.18799C303.745 8.02538 303.976 7.6437 303.911 7.00565L303.54 4.39285L306.473 3.51986L307.591 5.91013C307.857 6.48827 308.259 6.68166 308.834 6.51049L312.371 5.45777C312.659 5.37218 312.863 5.21745 312.955 5.00214C313.048 4.78683 313.028 4.51093 312.877 4.21176L304.311 -13.2085C303.97 -13.827 303.436 -14.0437 302.689 -13.8211L297.225 -12.195ZM321.404 -2.11401C320.484 -1.84014 319.78 -1.78705 319.292 -1.95476C318.775 -2.11391 318.305 -2.53733 317.893 -3.29107C317.48 -4.0448 317.026 -5.25552 316.521 -6.95196C315.819 -9.30972 315.538 -10.885 315.735 -11.6949C315.904 -12.4962 316.635 -13.0895 317.929 -13.4746C318.504 -13.6458 319.096 -13.7595 319.677 -13.8071C320.401 -13.8975 320.669 -14.2589 320.481 -14.8915L319.65 -17.6806C319.462 -18.3131 319.035 -18.5928 318.405 -18.4993C317.261 -18.3466 316.278 -18.1792 315.444 -17.931C314.007 -17.5031 312.899 -17.0169 312.122 -16.4726C311.316 -15.9198 310.723 -15.1797 310.321 -14.2151C309.92 -13.2505 309.805 -12.0582 309.969 -10.6671C310.104 -9.26741 310.511 -7.47922 311.144 -5.35148C311.795 -3.16624 312.44 -1.41777 313.101 -0.143397C313.771 1.15973 314.548 2.08666 315.411 2.67471C316.284 3.29151 317.185 3.58654 318.162 3.60875C319.11 3.63952 320.324 3.40363 321.761 2.9757C322.796 2.66758 323.777 2.28177 324.629 1.77787C325.169 1.49168 325.374 1.02374 325.195 0.419923L324.373 -2.34039C324.185 -2.97296 323.763 -3.12903 323.107 -2.80861C322.595 -2.53098 322.037 -2.3023 321.404 -2.11401ZM328.516 -14.3099L326.822 -20.003C326.642 -20.6068 326.232 -20.829 325.628 -20.6492L322.177 -19.6222C321.545 -19.4339 321.351 -19.032 321.531 -18.4282L327.043 0.0888855C327.231 0.721457 327.604 0.923402 328.237 0.735111L331.687 -0.291932C332.291 -0.471664 332.522 -0.853342 332.334 -1.48591L329.997 -9.33555L335.168 -2.26716C335.512 -1.74345 336 -1.57574 336.604 -1.75547L340.227 -2.83386C340.572 -2.93657 340.768 -3.12005 340.814 -3.38431C340.861 -3.64857 340.755 -3.89879 340.546 -4.18084L333.658 -13.3362L334.769 -22.1181C334.827 -22.4484 334.77 -22.7445 334.586 -22.9403C334.403 -23.1361 334.11 -23.174 333.765 -23.0713L330.2 -22.0101C329.624 -21.8389 329.336 -21.4401 329.277 -20.7966L328.516 -14.3099ZM354.465 -14.9912C355.069 -15.1709 355.3 -15.5526 355.112 -16.1851L354.222 -19.1755C354.042 -19.7793 353.631 -20.0014 353.028 -19.8217L348.772 -18.555L347.754 -21.9767L352.182 -23.2947C352.785 -23.4744 353.016 -23.8561 352.828 -24.4887L351.938 -27.479C351.758 -28.0828 351.348 -28.305 350.744 -28.1252L342.003 -25.5234C341.341 -25.3265 341.128 -24.8874 341.316 -24.2548L346.794 -5.85272C346.991 -5.1914 347.401 -4.96926 348.062 -5.16611L351.398 -6.15891C352.03 -6.3472 352.281 -6.76619 352.084 -7.42752L350.21 -13.7245L354.465 -14.9912ZM361.446 -20.5435L359.923 -25.6616L360.728 -25.9012C361.476 -26.1237 362.024 -26.068 362.357 -25.7914C362.69 -25.5148 363.01 -24.859 363.301 -23.8814C363.601 -22.875 363.691 -22.1507 363.564 -21.7372C363.436 -21.3237 362.999 -21.0057 362.251 -20.7831L361.446 -20.5435ZM354.132 -29.1337C353.499 -28.9454 353.306 -28.5435 353.485 -27.9397L358.997 -9.42263C359.186 -8.79006 359.559 -8.58811 360.191 -8.7764L363.642 -9.80344C364.245 -9.98318 364.476 -10.3649 364.288 -10.9974L362.782 -16.058L363.069 -16.1436L366.709 -11.5928C366.926 -11.282 367.159 -11.1321 367.365 -11.0684C367.572 -11.0047 367.84 -11.053 368.213 -11.1643L371.721 -12.2084C372.469 -12.431 372.559 -12.8647 371.983 -13.5383L367.683 -18.5187C369.278 -19.9951 369.619 -22.319 368.678 -25.4819C367.848 -28.2709 366.728 -30.0348 365.356 -30.7532C363.984 -31.4717 361.953 -31.4617 359.307 -30.6743L354.132 -29.1337ZM373.994 -13.8867C374.183 -13.2541 374.556 -13.0521 375.188 -13.2404L378.639 -14.2675C379.242 -14.4472 379.473 -14.8289 379.285 -15.4615L373.773 -33.9785C373.593 -34.5824 373.183 -34.8045 372.579 -34.6248L369.129 -33.5977C368.496 -33.4094 368.303 -33.0076 368.483 -32.4037L373.994 -13.8867ZM387.6 -16.935C389.412 -17.4742 390.764 -18.1896 391.648 -19.1101C392.512 -19.9933 393.009 -21.2681 393.081 -22.9173C393.154 -24.5665 392.834 -26.6936 392.046 -29.3389C391.456 -31.3229 390.824 -32.919 390.143 -34.1561C389.462 -35.3931 388.665 -36.2827 387.801 -36.8708C386.917 -37.4215 385.978 -37.7367 384.964 -37.7792C383.95 -37.8216 382.777 -37.6603 381.426 -37.258L376.595 -35.8202C375.963 -35.6319 375.769 -35.23 375.949 -34.6262L381.461 -16.1091C381.649 -15.4765 382.022 -15.2746 382.655 -15.4629L387.6 -16.935ZM382.846 -32.485C383.421 -32.6562 383.896 -32.6408 384.26 -32.4676C384.625 -32.2944 385.009 -31.8453 385.412 -31.1203C385.796 -30.358 386.224 -29.2336 386.669 -27.7384C387.337 -25.4957 387.621 -24.0152 387.539 -23.2395C387.457 -22.4639 386.985 -21.9477 386.18 -21.708L385.604 -21.5368L382.386 -32.3481L382.846 -32.485ZM399.642 -29.221L398.549 -36.7835L398.664 -36.8177L401.885 -29.8886L399.642 -29.221ZM394.352 -41.1056C393.604 -40.8831 393.247 -40.4011 393.329 -39.7056L395.684 -20.4367C395.72 -20.1033 395.826 -19.853 396.021 -19.7233C396.216 -19.5936 396.472 -19.5758 396.788 -19.6699L400.325 -20.7227C400.871 -20.8853 401.102 -21.267 401.037 -21.905L400.667 -24.5178L403.599 -25.3908L404.718 -23.0005C404.984 -22.4224 405.386 -22.229 405.961 -22.4002L409.497 -23.4529C409.785 -23.5385 409.989 -23.6932 410.082 -23.9085C410.174 -24.1238 410.155 -24.3997 410.003 -24.6989L401.437 -42.1191C401.097 -42.7376 400.563 -42.9543 399.815 -42.7318L394.352 -41.1056ZM416.338 -33.8152L417.231 -46.6951C417.278 -46.9594 417.209 -47.1894 417.017 -47.414C416.825 -47.6385 416.524 -47.7052 416.15 -47.594L412.527 -46.5156C411.865 -46.3187 411.549 -45.9114 411.605 -45.3021L411.882 -40.6895L412.304 -37.9042L412.189 -37.87L411.02 -40.4328L408.729 -44.4462C408.414 -44.9785 407.926 -45.1462 407.294 -44.9579L403.671 -43.8795C403.268 -43.7597 403.052 -43.5389 403.014 -43.2459C402.976 -42.9529 403.045 -42.7228 403.257 -42.5356L411.048 -32.2404L413.051 -25.5122C413.239 -24.8796 413.612 -24.6776 414.245 -24.8659L417.695 -25.893C418.299 -26.0727 418.53 -26.4544 418.341 -27.087L416.338 -33.8152ZM431.928 -52.2904C431.324 -52.1107 431.102 -51.7003 431.215 -51.1081L432.874 -41.9611L433.713 -37.9853L433.655 -37.9681L432.097 -41.73L428.282 -50.2351C427.996 -50.7759 427.586 -50.9981 427.04 -50.8355L423.215 -49.6971C422.899 -49.603 422.703 -49.4195 422.611 -49.2042C422.518 -48.9889 422.567 -48.7216 422.71 -48.4511L431.147 -31.149C431.493 -30.4069 432.035 -30.1615 432.725 -30.3669L437.383 -31.7534C438.073 -31.9588 438.365 -32.4524 438.277 -33.2716L437.5 -37.9857L436.594 -42.818L436.651 -42.8351L438.535 -38.2939L440.463 -33.922C440.809 -33.1799 441.351 -32.9345 442.041 -33.1399L446.699 -34.5264C447.389 -34.7318 447.681 -35.2254 447.593 -36.0446L445.195 -55.144C445.167 -55.4487 445.032 -55.6904 444.837 -55.8201C444.642 -55.9498 444.378 -55.9963 444.09 -55.9108L440.266 -54.7725C439.691 -54.6013 439.469 -54.1908 439.554 -53.5901L441.011 -44.3832L441.764 -40.3817L441.706 -40.3646L440.235 -44.1521L436.621 -52.7171C436.392 -53.2751 435.953 -53.4886 435.378 -53.3175L431.928 -52.2904ZM459.629 -47.1079C460.232 -47.2876 460.463 -47.6693 460.275 -48.3019L459.436 -51.1197C459.256 -51.7235 458.846 -51.9456 458.242 -51.7659L453.757 -50.4308L452.909 -53.2773L457.682 -54.6981C458.286 -54.8778 458.517 -55.2595 458.329 -55.892L457.439 -58.8824C457.259 -59.4862 456.848 -59.7083 456.245 -59.5286L447.159 -56.8241C446.526 -56.6358 446.333 -56.2339 446.512 -55.6301L452.024 -37.113C452.212 -36.4804 452.585 -36.2785 453.218 -36.4668L462.419 -39.2056C463.023 -39.3853 463.254 -39.767 463.065 -40.3995L462.175 -43.3899C461.995 -43.9937 461.585 -44.2158 460.981 -44.0361L456.093 -42.5811L455.143 -45.7727L459.629 -47.1079ZM472.461 -50.9275C473.065 -51.1073 473.295 -51.4889 473.107 -52.1215L472.268 -54.9393C472.089 -55.5431 471.678 -55.7653 471.074 -55.5856L466.589 -54.2504L465.742 -57.097L470.515 -58.5177C471.118 -58.6974 471.349 -59.0791 471.161 -59.7117L470.271 -62.702C470.091 -63.3059 469.681 -63.528 469.077 -63.3483L459.991 -60.6437C459.358 -60.4554 459.165 -60.0536 459.345 -59.4497L464.856 -40.9326C465.045 -40.3001 465.418 -40.0981 466.05 -40.2864L475.251 -43.0252C475.855 -43.2049 476.086 -43.5866 475.898 -44.2192L475.007 -47.2095C474.828 -47.8133 474.417 -48.0355 473.813 -47.8557L468.925 -46.4008L467.975 -49.5924L472.461 -50.9275ZM479.162 -59.151L477.467 -64.8442C477.288 -65.448 476.877 -65.6701 476.273 -65.4904L472.823 -64.4634C472.19 -64.2751 471.997 -63.8732 472.177 -63.2694L477.689 -44.7523C477.877 -44.1197 478.25 -43.9178 478.883 -44.1061L482.333 -45.1331C482.937 -45.3128 483.167 -45.6945 482.979 -46.3271L480.643 -54.1767L485.814 -47.1083C486.158 -46.5846 486.646 -46.4169 487.25 -46.5966L490.873 -47.675C491.218 -47.7777 491.413 -47.9612 491.46 -48.2255C491.507 -48.4898 491.401 -48.74 491.192 -49.022L484.303 -58.1774L485.414 -66.9592C485.472 -67.2896 485.416 -67.5857 485.232 -67.7814C485.049 -67.9772 484.756 -68.0152 484.411 -67.9125L480.845 -66.8512C480.27 -66.6801 479.982 -66.2813 479.923 -65.6377L479.162 -59.151ZM502.32 -57.1236C501.901 -58.5325 501.271 -59.597 500.451 -60.3545C499.61 -61.0747 498.379 -61.7411 496.748 -62.3825C494.957 -63.0387 493.947 -63.8023 493.707 -64.6074C493.587 -65.0099 493.608 -65.3605 493.787 -65.6014C493.966 -65.8424 494.342 -66.0485 494.946 -66.2282C495.723 -66.4593 496.496 -66.5956 497.237 -66.6285C498.065 -66.6871 498.399 -67.0369 498.211 -67.6695L497.355 -70.5448C497.252 -70.8898 497.097 -71.0942 496.902 -71.2239C496.707 -71.3536 496.443 -71.4002 496.072 -71.3837C495.245 -71.3252 494.118 -71.115 492.738 -70.7041C490.437 -70.0194 488.935 -69.0715 488.252 -67.8978C487.568 -66.724 487.545 -65.1206 488.152 -63.0791C488.632 -61.469 489.342 -60.2404 490.265 -59.4511C491.189 -58.6618 492.317 -58.0272 493.706 -57.5645C494.889 -57.1654 495.647 -56.8276 496.029 -56.5969C496.382 -56.3576 496.628 -56.0554 496.748 -55.6528C497.005 -54.7902 496.357 -54.1278 494.833 -53.6742C493.884 -53.3918 493.053 -53.2384 492.324 -53.2716C491.45 -53.262 491.145 -52.9207 491.35 -52.2306L492.18 -49.4415C492.283 -49.0965 492.418 -48.8548 492.604 -48.7539C492.791 -48.6529 493.084 -48.6149 493.521 -48.6197C494.584 -48.6232 495.949 -48.8731 497.674 -49.3866C499.515 -49.9344 500.902 -50.8481 501.827 -52.1564C502.752 -53.4647 502.919 -55.1108 502.32 -57.1236Z" fill="white"/>
</g>
<defs>
<filter id="filter0_d_1413_16365" x="-250.999" y="-319" width="1522" height="516.309" filterUnits="userSpaceOnUse" color-interpolation-filters="sRGB">
<feFlood flood-opacity="0" result="BackgroundImageFix"/>
<feColorMatrix in="SourceAlpha" type="matrix" values="0 0 0 0 0 0 0 0 0 0 0 0 0 0 0 0 0 0 127 0" result="hardAlpha"/>
<feOffset dy="4"/>
<feGaussianBlur stdDeviation="2"/>
<feComposite in2="hardAlpha" operator="out"/>
<feColorMatrix type="matrix" values="0 0 0 0 0 0 0 0 0 0 0 0 0 0 0 0 0 0 0.2 0"/>
<feBlend mode="normal" in2="BackgroundImageFix" result="effect1_dropShadow_1413_16365"/>
<feBlend mode="normal" in="SourceGraphic" in2="effect1_dropShadow_1413_16365" result="shape"/>
</filter>
</defs>
</svg>
