<svg width="1033" height="353" viewBox="0 0 1033 353" fill="none" xmlns="http://www.w3.org/2000/svg">
<g filter="url(#filter0_d_2563_1865)">
<rect width="1925.41" height="60.4146" transform="translate(4.83716 1098.17) rotate(-45)" fill="black"/>
<path d="M719.317 421.375L719.058 421.634L719.317 421.892L719.576 421.634L719.317 421.375ZM721.076 418.995L721.441 418.971L721.44 418.957L721.438 418.943L721.076 418.995ZM718.877 416.796L718.929 416.434L718.915 416.432L718.901 416.431L718.877 416.796ZM716.497 418.555L716.238 418.297L715.98 418.555L716.238 418.814L716.497 418.555ZM718.929 409.708L718.857 409.349L718.929 409.708ZM725.707 417.883L725.365 417.751L725.041 418.594L725.861 418.215L725.707 417.883ZM729.147 417.598L729.236 417.243L729.147 417.598ZM726.535 428.593L726.276 428.851L726.535 429.11L726.793 428.851L726.535 428.593ZM728.682 425.721L729.045 425.681L729.044 425.669L729.042 425.658L728.682 425.721ZM726.095 423.134L726.158 422.774L726.147 422.772L726.135 422.771L726.095 423.134ZM723.197 425.255L722.939 424.997L722.68 425.255L722.939 425.514L723.197 425.255ZM719.576 421.634L720.714 420.495L720.196 419.978L719.058 421.116L719.576 421.634ZM720.714 420.495C721.184 420.025 721.477 419.513 721.441 418.971L720.711 419.019C720.727 419.253 720.606 419.569 720.196 419.978L720.714 420.495ZM721.438 418.943C721.37 418.465 721.02 417.904 720.481 417.365L719.964 417.883C720.46 418.379 720.679 418.801 720.714 419.047L721.438 418.943ZM720.481 417.365C719.939 416.823 719.404 416.502 718.929 416.434L718.825 417.158C719.075 417.194 719.471 417.39 719.964 417.883L720.481 417.365ZM718.901 416.431C718.359 416.395 717.847 416.688 717.377 417.158L717.894 417.676C718.303 417.267 718.619 417.146 718.853 417.161L718.901 416.431ZM717.377 417.158L716.238 418.297L716.756 418.814L717.894 417.676L717.377 417.158ZM716.238 418.814L719.058 421.634L719.576 421.116L716.756 418.297L716.238 418.814ZM732.304 430.585L726.586 436.302L727.104 436.819L732.821 431.102L732.304 430.585ZM726.586 436.302C726.335 436.553 726.152 436.622 726.017 436.622C725.883 436.622 725.699 436.553 725.448 436.302L724.931 436.819C725.249 437.138 725.608 437.353 726.017 437.353C726.426 437.353 726.785 437.138 727.104 436.819L726.586 436.302ZM725.448 436.302L708.788 419.642L708.27 420.159L724.931 436.819L725.448 436.302ZM708.788 419.642C708.553 419.407 708.48 419.221 708.478 419.078C708.476 418.937 708.543 418.748 708.788 418.503L708.27 417.986C707.946 418.311 707.741 418.678 707.746 419.087C707.751 419.493 707.962 419.851 708.27 420.159L708.788 419.642ZM708.788 418.503L713.936 413.355L713.419 412.838L708.27 417.986L708.788 418.503ZM713.936 413.355C715.884 411.407 717.554 410.356 719.001 410.067L718.857 409.349C717.199 409.681 715.403 410.854 713.419 412.838L713.936 413.355ZM719.001 410.067C720.374 409.792 721.937 410.44 723.663 412.165L724.18 411.648C722.388 409.855 720.588 409.003 718.857 409.349L719.001 410.067ZM723.663 412.165C724.617 413.119 725.217 414.058 725.492 414.98C725.765 415.895 725.725 416.815 725.365 417.751L726.048 418.014C726.464 416.933 726.515 415.847 726.193 414.771C725.873 413.7 725.192 412.66 724.18 411.648L723.663 412.165ZM725.861 418.215C726.841 417.76 727.893 417.662 729.059 417.953L729.236 417.243C727.918 416.914 726.694 417.022 725.553 417.551L725.861 418.215ZM729.059 417.953C730.223 418.244 731.357 418.928 732.407 419.978L732.924 419.461C731.802 418.338 730.555 417.573 729.236 417.243L729.059 417.953ZM732.407 419.978C734.202 421.773 735.041 423.534 735.023 425.258C735.005 426.985 734.127 428.761 732.304 430.585L732.821 431.102C734.723 429.2 735.734 427.252 735.754 425.266C735.775 423.278 734.803 421.339 732.924 419.461L732.407 419.978ZM726.793 428.851L728.268 427.377L727.75 426.859L726.276 428.334L726.793 428.851ZM728.268 427.377C728.786 426.859 729.116 426.313 729.045 425.681L728.318 425.762C728.351 426.06 728.215 426.395 727.75 426.859L728.268 427.377ZM729.042 425.658C728.945 425.108 728.572 424.525 727.932 423.884L727.414 424.402C728.015 425.003 728.263 425.455 728.321 425.785L729.042 425.658ZM727.932 423.884C727.291 423.244 726.708 422.871 726.158 422.774L726.031 423.494C726.361 423.553 726.813 423.801 727.414 424.402L727.932 423.884ZM726.135 422.771C725.516 422.702 724.947 422.988 724.413 423.522L724.931 424.04C725.38 423.59 725.742 423.463 726.054 423.498L726.135 422.771ZM724.413 423.522L722.939 424.997L723.456 425.514L724.931 424.04L724.413 423.522ZM722.939 425.514L726.276 428.851L726.793 428.334L723.456 424.997L722.939 425.514ZM740.047 414.563L739.788 414.822L740.047 415.08L740.306 414.822L740.047 414.563ZM726.698 401.732L739.788 414.822L740.306 414.304L727.215 401.214L726.698 401.732ZM740.306 414.822L743.617 411.51L743.099 410.993L739.788 414.304L740.306 414.822ZM743.617 411.51C743.846 411.282 744.036 411.21 744.186 411.21C744.336 411.21 744.526 411.282 744.755 411.51L745.273 410.993C744.958 410.678 744.592 410.478 744.186 410.478C743.78 410.478 743.414 410.678 743.099 410.993L743.617 411.51ZM744.755 411.51L747.497 414.253L748.015 413.735L745.273 410.993L744.755 411.51ZM747.497 414.253C747.742 414.497 747.809 414.686 747.807 414.827C747.806 414.97 747.732 415.156 747.497 415.391L748.015 415.908C748.323 415.6 748.534 415.242 748.539 414.836C748.544 414.427 748.339 414.06 748.015 413.735L747.497 414.253ZM747.497 415.391L740.254 422.634L740.771 423.152L748.015 415.908L747.497 415.391ZM740.254 422.634C740.003 422.885 739.819 422.954 739.685 422.954C739.55 422.954 739.366 422.885 739.116 422.634L738.598 423.152C738.916 423.47 739.276 423.686 739.685 423.686C740.094 423.686 740.453 423.47 740.771 423.152L740.254 422.634ZM739.116 422.634L722.455 405.974L721.938 406.492L738.598 423.152L739.116 422.634ZM722.455 405.974C722.221 405.739 722.147 405.554 722.145 405.41C722.144 405.27 722.211 405.081 722.455 404.836L721.938 404.319C721.614 404.643 721.409 405.01 721.414 405.419C721.419 405.826 721.63 406.183 721.938 406.492L722.455 405.974ZM722.455 404.836L725.56 401.732L725.042 401.214L721.938 404.319L722.455 404.836ZM725.56 401.732C725.788 401.503 725.979 401.431 726.129 401.431C726.279 401.431 726.469 401.503 726.698 401.732L727.215 401.214C726.901 400.9 726.535 400.7 726.129 400.7C725.723 400.7 725.357 400.9 725.042 401.214L725.56 401.732ZM747.84 401.182L747.547 401.4L747.799 401.74L748.099 401.441L747.84 401.182ZM749.858 399.164L750.117 399.423L750.416 399.123L750.076 398.87L749.858 399.164ZM742.382 393.602L742.6 393.308L742.346 393.12L742.123 393.343L742.382 393.602ZM742.278 393.706L742.019 393.447L741.796 393.67L741.985 393.924L742.278 393.706ZM742.278 386.307L742.49 386.009L742.483 386.004L742.476 385.999L742.278 386.307ZM761.577 400.018L761.365 400.316L761.369 400.319L761.577 400.018ZM762.12 400.82L761.756 400.853L762.12 400.82ZM756.895 404.907L757.114 404.614L757.112 404.613L756.895 404.907ZM754.308 402.993L754.525 402.699L754.272 402.511L754.049 402.734L754.308 402.993ZM751.669 405.631L751.41 405.373L751.187 405.596L751.375 405.849L751.669 405.631ZM753.583 408.218L753.886 408.013L753.882 408.007L753.877 408.001L753.583 408.218ZM749.47 413.47L749.503 413.106L749.47 413.47ZM748.694 412.901L748.995 412.693L748.992 412.689L748.694 412.901ZM734.983 393.602L734.684 393.813L734.685 393.814L734.983 393.602ZM748.099 401.441L750.117 399.423L749.599 398.905L747.581 400.923L748.099 401.441ZM750.076 398.87L742.6 393.308L742.163 393.896L749.64 399.458L750.076 398.87ZM742.123 393.343L742.019 393.447L742.537 393.964L742.64 393.861L742.123 393.343ZM741.985 393.924L747.547 401.4L748.134 400.963L742.572 393.487L741.985 393.924ZM735.526 391.765L740.441 386.85L739.924 386.333L735.009 391.248L735.526 391.765ZM740.441 386.85C740.739 386.552 741.011 386.417 741.258 386.385C741.502 386.353 741.772 386.416 742.08 386.614L742.476 385.999C742.06 385.732 741.619 385.6 741.164 385.659C740.712 385.718 740.299 385.958 739.924 386.333L740.441 386.85ZM742.066 386.605L761.365 400.316L761.789 399.719L742.49 386.009L742.066 386.605ZM761.369 400.319C761.644 400.509 761.743 400.706 761.756 400.853L762.485 400.787C762.446 400.364 762.182 399.992 761.785 399.717L761.369 400.319ZM761.756 400.853C761.769 400.995 761.709 401.179 761.499 401.389L762.017 401.906C762.324 401.599 762.523 401.213 762.485 400.787L761.756 400.853ZM761.499 401.389L758.317 404.571L758.835 405.088L762.017 401.906L761.499 401.389ZM758.317 404.571C758.101 404.787 757.917 404.864 757.757 404.871C757.593 404.879 757.384 404.817 757.114 404.614L756.675 405.2C757.026 405.463 757.399 405.621 757.791 405.602C758.187 405.584 758.533 405.39 758.835 405.088L758.317 404.571ZM757.112 404.613L754.525 402.699L754.09 403.287L756.677 405.201L757.112 404.613ZM754.049 402.734L751.41 405.373L751.928 405.89L754.566 403.251L754.049 402.734ZM751.375 405.849L753.289 408.436L753.877 408.001L751.963 405.414L751.375 405.849ZM753.281 408.424C753.474 408.709 753.536 408.928 753.528 409.1C753.521 409.265 753.446 409.442 753.247 409.641L753.764 410.159C754.057 409.866 754.241 409.526 754.259 409.134C754.277 408.75 754.132 408.375 753.886 408.013L753.281 408.424ZM753.247 409.641L750.065 412.823L750.582 413.341L753.764 410.159L753.247 409.641ZM750.065 412.823C749.824 413.064 749.641 413.118 749.503 413.106L749.437 413.834C749.868 413.874 750.254 413.669 750.582 413.341L750.065 412.823ZM749.503 413.106C749.381 413.095 749.205 412.997 748.995 412.693L748.393 413.109C748.648 413.477 748.99 413.794 749.437 413.834L749.503 413.106ZM748.992 412.689L735.281 393.39L734.685 393.814L748.396 413.113L748.992 412.689ZM735.282 393.391C735.08 393.104 735.017 392.839 735.051 392.594C735.086 392.343 735.228 392.064 735.526 391.765L735.009 391.248C734.634 391.622 734.389 392.041 734.326 392.495C734.263 392.955 734.395 393.402 734.684 393.813L735.282 393.391ZM768.474 386.55L768.176 386.337L768.172 386.344L768.167 386.35L768.474 386.55ZM772.768 390.586L772.464 390.383L772.459 390.39L772.455 390.397L772.768 390.586ZM766.896 396.303L766.732 395.976L766.729 395.977L766.896 396.303ZM763.403 396.898L763.447 396.534L763.441 396.534L763.403 396.898ZM759.29 395.216L759.497 394.914L759.496 394.914L759.29 395.216ZM749.822 385.748L750.125 385.544L750.121 385.537L749.822 385.748ZM748.14 381.738L748.504 381.701L748.14 381.738ZM748.761 378.272L749.087 378.438L749.088 378.435L748.761 378.272ZM754.323 372.451L754.538 372.747L754.543 372.744L754.323 372.451ZM758.411 376.745L758.61 377.052L758.617 377.047L758.623 377.043L758.411 376.745ZM755.41 381.298L755.764 381.205L755.76 381.194L755.41 381.298ZM762.601 389.059L762.403 389.366L762.601 389.059ZM764.878 389.68L764.818 389.319L764.806 389.321L764.878 389.68ZM767.31 388.542C767.895 387.957 768.377 387.368 768.78 386.75L768.167 386.35C767.795 386.922 767.345 387.471 766.792 388.024L767.31 388.542ZM768.772 386.763C769.007 386.433 769.195 386.329 769.321 386.311C769.433 386.295 769.602 386.333 769.845 386.576L770.362 386.058C770.036 385.732 769.649 385.525 769.218 385.586C768.8 385.646 768.458 385.942 768.176 386.337L768.772 386.763ZM769.845 386.576L772.328 389.059L772.846 388.542L770.362 386.058L769.845 386.576ZM772.328 389.059C772.554 389.285 772.653 389.501 772.672 389.699C772.692 389.898 772.635 390.125 772.464 390.383L773.073 390.789C773.315 390.425 773.44 390.032 773.401 389.629C773.362 389.225 773.163 388.859 772.846 388.542L772.328 389.059ZM772.455 390.397C771.854 391.398 771.048 392.358 770.13 393.276L770.647 393.793C771.591 392.849 772.441 391.842 773.082 390.774L772.455 390.397ZM770.13 393.276C768.844 394.562 767.713 395.485 766.732 395.976L767.059 396.63C768.148 396.086 769.346 395.094 770.647 393.793L770.13 393.276ZM766.729 395.977C765.736 396.486 764.671 396.681 763.447 396.535L763.36 397.261C764.723 397.425 765.935 397.206 767.063 396.628L766.729 395.977ZM763.441 396.534C762.25 396.412 760.936 395.899 759.497 394.914L759.084 395.518C760.593 396.551 762.022 397.125 763.366 397.262L763.441 396.534ZM759.496 394.914C758.075 393.95 756.387 392.468 754.427 390.508L753.909 391.025C755.881 392.998 757.608 394.517 759.085 395.519L759.496 394.914ZM754.427 390.508C752.518 388.6 751.063 386.938 750.125 385.544L749.518 385.952C750.495 387.404 751.989 389.105 753.909 391.025L754.427 390.508ZM750.121 385.537C749.161 384.174 748.625 382.887 748.504 381.701L747.776 381.775C747.914 383.124 748.516 384.528 749.523 385.958L750.121 385.537ZM748.504 381.701C748.382 380.5 748.577 379.433 749.087 378.438L748.435 378.105C747.858 379.232 747.64 380.441 747.776 381.775L748.504 381.701ZM749.088 378.435C749.581 377.45 750.456 376.318 751.736 375.038L751.219 374.52C749.912 375.828 748.976 377.024 748.434 378.108L749.088 378.435ZM751.736 375.038C752.465 374.309 753.403 373.572 754.538 372.747L754.108 372.155C752.966 372.985 751.99 373.749 751.219 374.52L751.736 375.038ZM754.543 372.744C754.801 372.55 755.024 372.489 755.217 372.505C755.412 372.522 755.633 372.622 755.875 372.865L756.393 372.347C756.066 372.021 755.692 371.811 755.279 371.776C754.864 371.741 754.466 371.886 754.104 372.158L754.543 372.744ZM755.875 372.865L758.385 375.374L758.902 374.857L756.393 372.347L755.875 372.865ZM758.385 375.374C758.628 375.617 758.666 375.786 758.65 375.898C758.632 376.024 758.527 376.212 758.198 376.448L758.623 377.043C759.018 376.761 759.315 376.419 759.374 376.001C759.436 375.57 759.228 375.183 758.902 374.857L758.385 375.374ZM758.211 376.439C757.593 376.841 757.005 377.323 756.47 377.858L756.988 378.375C757.488 377.875 758.038 377.425 758.61 377.052L758.211 376.439ZM756.47 377.858C755.276 379.052 754.716 380.248 755.059 381.403L755.76 381.194C755.535 380.435 755.853 379.509 756.988 378.375L756.47 377.858ZM755.056 381.391C755.205 381.958 755.613 382.634 756.221 383.412C756.835 384.198 757.681 385.122 758.747 386.188L759.264 385.67C758.208 384.614 757.386 383.714 756.797 382.962C756.202 382.2 755.873 381.621 755.763 381.205L755.056 381.391ZM758.747 386.188C760.277 387.718 761.489 388.775 762.403 389.366L762.8 388.752C761.955 388.205 760.787 387.193 759.264 385.67L758.747 386.188ZM762.403 389.366C763.328 389.965 764.176 390.194 764.95 390.039L764.806 389.321C764.286 389.425 763.634 389.291 762.8 388.752L762.403 389.366ZM764.938 390.041C765.675 389.918 766.468 389.384 767.31 388.542L766.792 388.024C765.978 388.838 765.322 389.235 764.818 389.319L764.938 390.041ZM767.599 371.075L767.341 371.333L767.939 370.939L767.599 371.075ZM764.65 363.676L764.99 363.54L764.986 363.532L764.65 363.676ZM769.1 358.295L769.215 357.948L769.215 357.948L769.1 358.295ZM769.772 359.071L769.425 359.187L769.428 359.195L769.431 359.204L769.772 359.071ZM773.679 369.134L773.338 369.267L773.391 369.405L773.526 369.467L773.679 369.134ZM786.381 374.955L786.536 374.624L786.533 374.623L786.381 374.955ZM787.131 375.654L787.478 375.538L787.131 375.654ZM781.724 380.129L781.898 379.807L781.889 379.803L781.881 379.799L781.724 380.129ZM772.075 375.55L772.232 375.22L771.816 375.809L772.075 375.55ZM767.939 370.939L764.99 363.541L764.31 363.811L767.26 371.21L767.939 370.939ZM764.986 363.532C764.849 363.212 764.811 362.952 764.844 362.734C764.876 362.52 764.98 362.311 765.193 362.098L764.676 361.581C764.372 361.885 764.179 362.232 764.12 362.626C764.062 363.016 764.141 363.416 764.314 363.82L764.986 363.532ZM765.193 362.098L768.401 358.89L767.884 358.373L764.676 361.581L765.193 362.098ZM768.401 358.89C768.664 358.627 768.861 358.601 768.984 358.642L769.215 357.948C768.718 357.782 768.242 358.014 767.884 358.373L768.401 358.89ZM768.984 358.642C769.148 358.697 769.318 358.864 769.425 359.187L770.119 358.955C769.968 358.502 769.673 358.1 769.215 357.948L768.984 358.642ZM769.431 359.204L773.338 369.267L774.02 369.002L770.113 358.939L769.431 359.204ZM773.526 369.467L786.228 375.288L786.533 374.623L773.831 368.802L773.526 369.467ZM786.226 375.287C786.584 375.454 786.728 375.603 786.784 375.769L787.478 375.538C787.327 375.083 786.954 374.819 786.536 374.624L786.226 375.287ZM786.784 375.769C786.828 375.903 786.813 376.075 786.562 376.326L787.079 376.844C787.449 376.474 787.64 376.025 787.478 375.538L786.784 375.769ZM786.562 376.326L783.302 379.586L783.82 380.103L787.079 376.844L786.562 376.326ZM783.302 379.586C783.072 379.816 782.848 379.931 782.634 379.965C782.421 379.999 782.179 379.958 781.898 379.807L781.551 380.451C781.943 380.662 782.347 380.751 782.748 380.688C783.149 380.625 783.507 380.416 783.82 380.103L783.302 379.586ZM781.881 379.799L772.232 375.22L771.918 375.881L781.567 380.46L781.881 379.799ZM771.816 375.809L778.879 382.871L779.396 382.354L772.334 375.291L771.816 375.809ZM778.879 382.871C779.123 383.116 779.19 383.305 779.189 383.446C779.187 383.589 779.113 383.775 778.879 384.01L779.396 384.527C779.704 384.219 779.915 383.861 779.92 383.454C779.925 383.046 779.72 382.678 779.396 382.354L778.879 382.871ZM778.879 384.01L775.774 387.114L776.292 387.631L779.396 384.527L778.879 384.01ZM775.774 387.114C775.523 387.365 775.339 387.434 775.205 387.434C775.071 387.434 774.887 387.365 774.636 387.114L774.119 387.631C774.437 387.95 774.796 388.165 775.205 388.165C775.614 388.165 775.973 387.95 776.292 387.631L775.774 387.114ZM774.636 387.114L757.976 370.454L757.458 370.971L774.119 387.631L774.636 387.114ZM757.976 370.454C757.741 370.219 757.667 370.033 757.666 369.89C757.664 369.749 757.731 369.56 757.976 369.316L757.458 368.798C757.134 369.123 756.929 369.49 756.934 369.899C756.939 370.305 757.15 370.663 757.458 370.971L757.976 370.454ZM757.976 369.316L761.08 366.211L760.563 365.694L757.458 368.798L757.976 369.316ZM761.08 366.211C761.309 365.982 761.499 365.911 761.649 365.911C761.799 365.911 761.99 365.982 762.218 366.211L762.736 365.694C762.421 365.379 762.056 365.179 761.649 365.179C761.243 365.179 760.877 365.379 760.563 365.694L761.08 366.211ZM762.218 366.211L767.341 371.333L767.858 370.816L762.736 365.694L762.218 366.211ZM791.206 359.11L790.947 358.851L790.688 359.11L790.947 359.369L791.206 359.11ZM783.781 351.685L783.522 351.427L783.263 351.685L783.522 351.944L783.781 351.685ZM786.859 354.764L786.601 355.023L786.859 355.281L787.118 355.023L786.859 354.764ZM794.776 355.023L790.947 358.851L791.464 359.369L795.293 355.54L794.776 355.023ZM790.947 359.369L796.612 365.034L797.13 364.517L791.464 358.851L790.947 359.369ZM796.612 365.034C796.867 365.289 796.944 365.497 796.942 365.661C796.94 365.826 796.857 366.031 796.612 366.276L797.13 366.793C797.454 366.469 797.669 366.092 797.673 365.669C797.678 365.244 797.47 364.857 797.13 364.517L796.612 365.034ZM796.612 366.276L793.611 369.277L794.129 369.794L797.13 366.793L796.612 366.276ZM793.611 369.277C793.351 369.537 793.147 369.616 792.991 369.616C792.834 369.616 792.63 369.537 792.37 369.277L791.852 369.794C792.187 370.129 792.565 370.348 792.991 370.348C793.416 370.348 793.794 370.129 794.129 369.794L793.611 369.277ZM792.37 369.277L775.813 352.72L775.296 353.238L791.852 369.794L792.37 369.277ZM775.813 352.72C775.568 352.475 775.485 352.27 775.484 352.105C775.482 351.941 775.558 351.733 775.813 351.478L775.296 350.961C774.955 351.301 774.747 351.688 774.752 352.113C774.757 352.536 774.971 352.913 775.296 353.238L775.813 352.72ZM775.813 351.478L783.677 343.614L783.16 343.097L775.296 350.961L775.813 351.478ZM783.677 343.614C783.906 343.385 784.097 343.314 784.247 343.314C784.396 343.314 784.587 343.385 784.816 343.614L785.333 343.097C785.019 342.782 784.653 342.582 784.247 342.582C783.84 342.582 783.475 342.782 783.16 343.097L783.677 343.614ZM784.816 343.614L787.506 346.304L788.024 345.787L785.333 343.097L784.816 343.614ZM787.506 346.304C787.751 346.549 787.818 346.738 787.816 346.879C787.814 347.022 787.741 347.208 787.506 347.443L788.024 347.96C788.332 347.652 788.543 347.294 788.548 346.888C788.553 346.479 788.348 346.111 788.024 345.787L787.506 346.304ZM787.506 347.443L783.522 351.427L784.04 351.944L788.024 347.96L787.506 347.443ZM783.522 351.944L786.601 355.023L787.118 354.505L784.04 351.427L783.522 351.944ZM787.118 355.023L790.947 351.194L790.429 350.676L786.601 354.505L787.118 355.023ZM790.947 351.194C791.176 350.965 791.366 350.894 791.516 350.894C791.666 350.894 791.856 350.965 792.085 351.194L792.602 350.676C792.288 350.362 791.922 350.162 791.516 350.162C791.11 350.162 790.744 350.362 790.429 350.676L790.947 351.194ZM792.085 351.194L794.776 353.884L795.293 353.367L792.602 350.676L792.085 351.194ZM794.776 353.884C795.02 354.129 795.087 354.318 795.086 354.459C795.084 354.602 795.01 354.788 794.776 355.023L795.293 355.54C795.601 355.232 795.812 354.874 795.817 354.467C795.822 354.059 795.617 353.691 795.293 353.367L794.776 353.884ZM799.298 345.274L799.04 345.533L799.298 345.791L799.557 345.533L799.298 345.274ZM800.876 342.765L801.235 342.693L800.876 342.765ZM797.229 339.117L797.157 339.476L797.229 339.117ZM794.693 340.669L794.435 340.411L794.176 340.669L794.435 340.928L794.693 340.669ZM797.565 332.055L797.56 331.689L797.565 332.055ZM807.163 343.825L806.816 343.708L806.703 344.042L807.033 344.167L807.163 343.825ZM814.665 346.671L814.796 346.33L814.795 346.329L814.665 346.671ZM811.147 352L811.218 352.359L811.218 352.359L811.147 352ZM810.138 351.819L810.301 351.492L810.291 351.487L810.28 351.482L810.138 351.819ZM803.593 349.051L803.735 348.714L803.508 348.618L803.334 348.792L803.593 349.051ZM803.334 349.31L803.075 349.051L802.817 349.31L803.075 349.568L803.334 349.31ZM799.557 345.533L800.281 344.808L799.764 344.291L799.04 345.015L799.557 345.533ZM800.281 344.808C800.973 344.117 801.377 343.401 801.235 342.693L800.518 342.836C800.583 343.163 800.418 343.637 799.764 344.291L800.281 344.808ZM801.235 342.693C801.169 342.36 800.98 342 800.712 341.624C800.441 341.243 800.07 340.82 799.609 340.359L799.091 340.876C799.536 341.32 799.876 341.712 800.116 342.049C800.359 342.391 800.481 342.652 800.518 342.836L801.235 342.693ZM799.609 340.359C799.16 339.91 798.743 339.546 798.365 339.278C797.993 339.014 797.633 338.825 797.3 338.758L797.157 339.476C797.342 339.513 797.603 339.634 797.942 339.875C798.275 340.111 798.66 340.445 799.091 340.876L799.609 340.359ZM797.3 338.758C796.603 338.619 795.863 338.982 795.159 339.686L795.677 340.204C796.318 339.562 796.82 339.408 797.157 339.476L797.3 338.758ZM795.159 339.686L794.435 340.411L794.952 340.928L795.677 340.204L795.159 339.686ZM794.435 340.928L799.04 345.533L799.557 345.015L794.952 340.411L794.435 340.928ZM786.726 340.566L791.382 335.909L790.865 335.392L786.208 340.048L786.726 340.566ZM791.382 335.909C793.74 333.551 795.826 332.444 797.57 332.42L797.56 331.689C795.527 331.717 793.267 332.99 790.865 335.392L791.382 335.909ZM797.57 332.42C799.303 332.397 801.436 333.545 803.929 336.039L804.446 335.521C801.921 332.996 799.604 331.661 797.56 331.689L797.57 332.42ZM803.929 336.039C806.732 338.841 807.604 341.391 806.816 343.708L807.509 343.943C808.428 341.241 807.335 338.41 804.446 335.521L803.929 336.039ZM807.033 344.167L814.535 347.013L814.795 346.329L807.292 343.483L807.033 344.167ZM814.534 347.013C815.026 347.202 815.165 347.375 815.192 347.461C815.209 347.517 815.213 347.675 814.898 347.99L815.415 348.508C815.773 348.15 816.035 347.714 815.891 347.245C815.756 346.808 815.313 346.528 814.796 346.33L814.534 347.013ZM814.898 347.99L811.742 351.147L812.259 351.664L815.415 348.508L814.898 347.99ZM811.742 351.147C811.398 351.49 811.211 351.614 811.075 351.641L811.218 352.359C811.6 352.283 811.93 351.993 812.259 351.664L811.742 351.147ZM811.075 351.641C810.906 351.675 810.652 351.667 810.301 351.492L809.974 352.146C810.452 352.385 810.87 352.429 811.218 352.359L811.075 351.641ZM810.28 351.482L803.735 348.714L803.45 349.388L809.995 352.156L810.28 351.482ZM803.334 348.792L803.075 349.051L803.593 349.568L803.851 349.31L803.334 348.792ZM803.075 349.568L807.628 354.122L808.146 353.604L803.593 349.051L803.075 349.568ZM807.628 354.122C807.873 354.366 807.94 354.555 807.938 354.696C807.937 354.839 807.863 355.025 807.628 355.26L808.146 355.777C808.454 355.469 808.665 355.111 808.67 354.705C808.675 354.296 808.47 353.929 808.146 353.604L807.628 354.122ZM807.628 355.26L804.524 358.364L805.041 358.882L808.146 355.777L807.628 355.26ZM804.524 358.364C804.273 358.615 804.089 358.684 803.955 358.684C803.82 358.684 803.637 358.615 803.386 358.364L802.868 358.882C803.187 359.2 803.546 359.416 803.955 359.416C804.364 359.416 804.723 359.2 805.041 358.882L804.524 358.364ZM803.386 358.364L786.726 341.704L786.208 342.221L802.868 358.882L803.386 358.364ZM786.726 341.704C786.491 341.469 786.417 341.284 786.416 341.14C786.414 340.999 786.481 340.81 786.726 340.566L786.208 340.048C785.884 340.373 785.679 340.74 785.684 341.149C785.689 341.555 785.9 341.913 786.208 342.221L786.726 341.704ZM816.879 344.871L800.219 328.211L799.701 328.728L816.361 345.388L816.879 344.871ZM800.219 328.211C799.984 327.976 799.91 327.79 799.909 327.647C799.907 327.506 799.974 327.317 800.219 327.073L799.701 326.555C799.377 326.88 799.172 327.247 799.177 327.656C799.182 328.062 799.393 328.42 799.701 328.728L800.219 328.211ZM800.219 327.073L803.323 323.968L802.806 323.451L799.701 326.555L800.219 327.073ZM803.323 323.968C803.552 323.74 803.742 323.668 803.892 323.668C804.042 323.668 804.233 323.74 804.461 323.968L804.979 323.451C804.664 323.136 804.298 322.936 803.892 322.936C803.486 322.936 803.12 323.136 802.806 323.451L803.323 323.968ZM804.461 323.968L821.121 340.628L821.639 340.111L804.979 323.451L804.461 323.968ZM821.121 340.628C821.366 340.873 821.433 341.062 821.431 341.203C821.43 341.346 821.356 341.532 821.121 341.767L821.639 342.284C821.947 341.976 822.158 341.618 822.163 341.212C822.168 340.803 821.963 340.435 821.639 340.111L821.121 340.628ZM821.121 341.767L818.017 344.871L818.534 345.388L821.639 342.284L821.121 341.767ZM818.017 344.871C817.766 345.122 817.582 345.191 817.448 345.191C817.314 345.191 817.13 345.122 816.879 344.871L816.361 345.388C816.68 345.707 817.039 345.922 817.448 345.922C817.857 345.922 818.216 345.707 818.534 345.388L818.017 344.871ZM814.516 313.137L814.356 312.809L814.516 313.137ZM818.086 312.465L818.123 312.101L818.116 312.1L818.109 312.1L818.086 312.465ZM822.174 314.017L821.976 314.325L822.174 314.017ZM831.849 324.365L832.178 324.205L831.849 324.365ZM832.522 329.28L832.17 329.18L832.169 329.183L832.522 329.28ZM814.904 320.459L814.646 320.2L814.387 320.459L814.646 320.717L814.904 320.459ZM824.631 330.186L824.373 330.444L824.631 330.703L824.89 330.444L824.631 330.186ZM825.718 327.236L825.379 327.376L825.718 327.236ZM818.862 320.019L819.071 319.719L819.065 319.714L819.059 319.71L818.862 320.019ZM816.844 319.243L816.864 319.608L816.864 319.608L816.844 319.243ZM829.184 333.704L824.735 338.153L825.252 338.671L829.702 334.221L829.184 333.704ZM824.735 338.153C824.484 338.404 824.3 338.473 824.166 338.473C824.031 338.473 823.847 338.404 823.596 338.153L823.079 338.671C823.397 338.989 823.757 339.205 824.166 339.205C824.574 339.205 824.934 338.989 825.252 338.671L824.735 338.153ZM823.596 338.153L806.936 321.493L806.419 322.011L823.079 338.671L823.596 338.153ZM806.936 321.493C806.701 321.258 806.628 321.073 806.626 320.93C806.625 320.789 806.692 320.6 806.936 320.355L806.419 319.838C806.095 320.162 805.89 320.529 805.895 320.938C805.899 321.345 806.111 321.702 806.419 322.011L806.936 321.493ZM806.936 320.355L811.282 316.009L810.765 315.492L806.419 319.838L806.936 320.355ZM811.282 316.009C812.477 314.814 813.609 313.988 814.677 313.466L814.356 312.809C813.198 313.374 812.002 314.254 810.765 315.492L811.282 316.009ZM814.677 313.466C815.726 312.954 816.852 312.756 818.064 312.83L818.109 312.1C816.785 312.019 815.531 312.235 814.356 312.809L814.677 313.466ZM818.049 312.829C819.249 312.951 820.566 313.418 821.976 314.325L822.371 313.709C820.884 312.753 819.459 312.237 818.123 312.101L818.049 312.829ZM821.976 314.325C823.395 315.237 824.978 316.563 826.753 318.337L827.27 317.82C825.474 316.024 823.85 314.659 822.371 313.709L821.976 314.325ZM826.753 318.337C829.117 320.702 830.665 322.764 831.52 324.525L832.178 324.205C831.274 322.344 829.665 320.215 827.27 317.82L826.753 318.337ZM831.52 324.525C832.371 326.278 832.553 327.839 832.17 329.18L832.873 329.381C833.318 327.824 833.086 326.074 832.178 324.205L831.52 324.525ZM832.169 329.183C831.778 330.598 830.791 332.097 829.184 333.704L829.702 334.221C831.354 332.569 832.437 330.963 832.874 329.377L832.169 329.183ZM815.059 319.786L814.646 320.2L815.163 320.717L815.577 320.303L815.059 319.786ZM814.646 320.717L824.373 330.444L824.89 329.927L815.163 320.2L814.646 320.717ZM824.89 330.444L825.407 329.927L824.89 329.409L824.373 329.927L824.89 330.444ZM825.407 329.927C825.806 329.528 826.081 329.082 826.197 328.595C826.313 328.105 826.263 327.6 826.056 327.097L825.379 327.376C825.535 327.752 825.562 328.101 825.485 328.426C825.407 328.753 825.215 329.084 824.89 329.409L825.407 329.927ZM826.056 327.097C825.854 326.606 825.444 325.996 824.85 325.271C824.25 324.54 823.446 323.671 822.432 322.657L821.915 323.175C822.919 324.179 823.706 325.03 824.284 325.735C824.866 326.446 825.22 326.988 825.379 327.376L826.056 327.097ZM822.432 322.657C821.079 321.305 819.95 320.331 819.071 319.719L818.653 320.319C819.482 320.897 820.577 321.837 821.915 323.175L822.432 322.657ZM819.059 319.71C818.196 319.161 817.439 318.845 816.825 318.877L816.864 319.608C817.233 319.589 817.821 319.79 818.666 320.327L819.059 319.71ZM816.825 318.877C816.215 318.909 815.617 319.228 815.059 319.786L815.577 320.303C816.054 319.826 816.491 319.628 816.864 319.608L816.825 318.877ZM835.226 313.796L834.933 314.014L835.186 314.354L835.485 314.054L835.226 313.796ZM837.244 311.778L837.503 312.036L837.802 311.737L837.463 311.484L837.244 311.778ZM829.768 306.216L829.986 305.922L829.733 305.734L829.509 305.957L829.768 306.216ZM829.664 306.319L829.406 306.061L829.182 306.284L829.371 306.538L829.664 306.319ZM829.664 298.921L829.876 298.622L829.869 298.617L829.862 298.613L829.664 298.921ZM848.963 312.631L848.751 312.93L848.755 312.932L848.963 312.631ZM849.506 313.433L849.142 313.467L849.506 313.433ZM844.281 317.521L844.5 317.228L844.498 317.227L844.281 317.521ZM841.694 315.607L841.911 315.312L841.658 315.125L841.435 315.348L841.694 315.607ZM839.055 318.245L838.796 317.987L838.573 318.209L838.761 318.463L839.055 318.245ZM840.969 320.832L841.272 320.626L841.268 320.62L841.264 320.615L840.969 320.832ZM836.856 326.084L836.889 325.719L836.856 326.084ZM836.08 325.515L836.381 325.306L836.378 325.303L836.08 325.515ZM822.369 306.216L822.07 306.426L822.071 306.428L822.369 306.216ZM835.485 314.054L837.503 312.036L836.985 311.519L834.968 313.537L835.485 314.054ZM837.463 311.484L829.986 305.922L829.549 306.509L837.026 312.071L837.463 311.484ZM829.509 305.957L829.406 306.061L829.923 306.578L830.027 306.474L829.509 305.957ZM829.371 306.538L834.933 314.014L835.52 313.577L829.958 306.101L829.371 306.538ZM822.912 304.379L827.828 299.464L827.31 298.946L822.395 303.862L822.912 304.379ZM827.828 299.464C828.125 299.166 828.398 299.031 828.644 298.999C828.888 298.967 829.158 299.03 829.466 299.228L829.862 298.613C829.446 298.345 829.005 298.214 828.55 298.273C828.098 298.332 827.685 298.571 827.31 298.946L827.828 299.464ZM829.452 299.219L848.751 312.93L849.175 312.333L829.876 298.622L829.452 299.219ZM848.755 312.932C849.03 313.123 849.129 313.32 849.142 313.467L849.871 313.4C849.832 312.978 849.569 312.606 849.171 312.331L848.755 312.932ZM849.142 313.467C849.155 313.609 849.096 313.793 848.886 314.003L849.403 314.52C849.71 314.213 849.91 313.827 849.871 313.4L849.142 313.467ZM848.886 314.003L845.704 317.185L846.221 317.702L849.403 314.52L848.886 314.003ZM845.704 317.185C845.488 317.401 845.304 317.478 845.143 317.485C844.979 317.493 844.77 317.431 844.5 317.228L844.061 317.814C844.412 318.077 844.786 318.234 845.177 318.216C845.573 318.198 845.92 318.003 846.221 317.702L845.704 317.185ZM844.498 317.227L841.911 315.312L841.476 315.901L844.063 317.815L844.498 317.227ZM841.435 315.348L838.796 317.987L839.314 318.504L841.952 315.865L841.435 315.348ZM838.761 318.463L840.675 321.05L841.264 320.615L839.349 318.028L838.761 318.463ZM840.667 321.038C840.86 321.322 840.922 321.542 840.914 321.714C840.907 321.879 840.832 322.056 840.633 322.255L841.151 322.772C841.443 322.48 841.627 322.14 841.645 321.748C841.663 321.364 841.518 320.989 841.272 320.626L840.667 321.038ZM840.633 322.255L837.451 325.437L837.969 325.954L841.151 322.772L840.633 322.255ZM837.451 325.437C837.211 325.678 837.027 325.732 836.889 325.719L836.823 326.448C837.255 326.487 837.64 326.283 837.969 325.954L837.451 325.437ZM836.889 325.719C836.767 325.708 836.592 325.611 836.381 325.306L835.779 325.723C836.034 326.091 836.376 326.408 836.823 326.448L836.889 325.719ZM836.378 325.303L822.667 306.004L822.071 306.428L835.782 325.727L836.378 325.303ZM822.668 306.005C822.466 305.717 822.404 305.453 822.437 305.208C822.472 304.957 822.614 304.677 822.912 304.379L822.395 303.862C822.021 304.236 821.775 304.655 821.712 305.108C821.649 305.569 821.781 306.016 822.07 306.426L822.668 306.005ZM850.466 299.177L850.133 299.328L850.161 299.388L850.208 299.435L850.466 299.177ZM845.706 303.937L845.965 303.678L845.918 303.631L845.858 303.604L845.706 303.937ZM831.374 297.417L831.526 297.084L831.492 297.069L831.457 297.061L831.374 297.417ZM830.702 296.797L831.043 296.665L831.043 296.665L830.702 296.797ZM836.134 292.192L836.328 291.881L836.323 291.878L836.134 292.192ZM840.92 295.167L841.141 294.875L841.128 294.865L841.113 294.856L840.92 295.167ZM843.663 297.236L843.442 297.528L843.696 297.72L843.921 297.495L843.663 297.236ZM843.766 297.133L844.025 297.392L844.25 297.167L844.058 296.912L843.766 297.133ZM841.696 294.391L841.386 294.584L841.394 294.598L841.404 294.611L841.696 294.391ZM838.721 289.605L839.032 289.412L839.026 289.402L838.721 289.605ZM843.3 284.198L843.169 284.539L843.169 284.539L843.3 284.198ZM843.947 284.845L843.6 284.96L843.606 284.979L843.614 284.996L843.947 284.845ZM850.208 299.435L856.261 305.489L856.778 304.971L850.725 298.918L850.208 299.435ZM856.261 305.489C856.506 305.734 856.573 305.922 856.571 306.063C856.569 306.207 856.496 306.392 856.261 306.627L856.778 307.144C857.087 306.836 857.298 306.478 857.303 306.072C857.308 305.663 857.103 305.296 856.778 304.971L856.261 305.489ZM856.261 306.627L853.157 309.731L853.674 310.249L856.778 307.144L856.261 306.627ZM853.157 309.731C852.906 309.982 852.722 310.051 852.588 310.051C852.453 310.051 852.269 309.982 852.018 309.731L851.501 310.249C851.819 310.567 852.179 310.783 852.588 310.783C852.996 310.783 853.356 310.567 853.674 310.249L853.157 309.731ZM852.018 309.731L845.965 303.678L845.448 304.195L851.501 310.249L852.018 309.731ZM845.858 303.604L831.526 297.084L831.223 297.75L845.555 304.27L845.858 303.604ZM831.457 297.061C831.345 297.035 831.269 296.992 831.211 296.938C831.151 296.881 831.094 296.796 831.043 296.665L830.36 296.928C830.439 297.133 830.55 297.32 830.71 297.47C830.872 297.623 831.068 297.722 831.292 297.774L831.457 297.061ZM831.043 296.665C830.983 296.51 830.997 296.294 831.297 295.995L830.779 295.477C830.355 295.902 830.161 296.411 830.36 296.928L831.043 296.665ZM831.297 295.995L834.556 292.735L834.039 292.218L830.779 295.477L831.297 295.995ZM834.556 292.735C834.803 292.489 835.033 292.37 835.244 292.336C835.451 292.304 835.682 292.347 835.946 292.505L836.323 291.878C835.94 291.649 835.538 291.549 835.13 291.614C834.726 291.677 834.362 291.895 834.039 292.218L834.556 292.735ZM835.941 292.502L840.727 295.477L841.113 294.856L836.328 291.881L835.941 292.502ZM840.7 295.459L843.442 297.528L843.883 296.944L841.141 294.875L840.7 295.459ZM843.921 297.495L844.025 297.392L843.507 296.874L843.404 296.978L843.921 297.495ZM844.058 296.912L841.988 294.17L841.404 294.611L843.474 297.353L844.058 296.912ZM842.007 294.198L839.032 289.412L838.411 289.798L841.386 294.584L842.007 294.198ZM839.026 289.402C838.86 289.153 838.815 288.934 838.847 288.734C838.879 288.526 839.002 288.289 839.265 288.027L838.747 287.509C838.414 287.842 838.188 288.213 838.124 288.62C838.059 289.034 838.169 289.436 838.417 289.808L839.026 289.402ZM839.265 288.027L842.524 284.767L842.007 284.25L838.747 287.509L839.265 288.027ZM842.524 284.767C842.793 284.499 843.008 284.477 843.169 284.539L843.432 283.857C842.92 283.66 842.411 283.846 842.007 284.25L842.524 284.767ZM843.169 284.539C843.415 284.634 843.535 284.765 843.6 284.96L844.294 284.729C844.152 284.304 843.858 284.021 843.432 283.857L843.169 284.539ZM843.614 284.996L850.133 299.328L850.799 299.025L844.28 284.693L843.614 284.996ZM861.247 267.131L861.015 267.414L861.018 267.416L861.247 267.131ZM870.095 274.219L870.331 273.94L870.323 273.934L870.095 274.219ZM873.872 277.427L873.635 277.706L873.892 277.924L874.13 277.686L873.872 277.427ZM873.923 277.375L874.182 277.634L874.415 277.401L874.207 277.145L873.923 277.375ZM870.793 273.521L870.502 273.743L870.509 273.751L870.793 273.521ZM863.886 264.492L863.592 264.71L863.595 264.714L863.886 264.492ZM868.258 259.034L868.225 259.398L868.225 259.398L868.258 259.034ZM869.034 259.551L868.729 259.754L868.736 259.764L869.034 259.551ZM882.693 278.643L882.995 278.436L882.991 278.43L882.693 278.643ZM876.277 285.059L876.053 285.348L876.059 285.352L876.277 285.059ZM871.673 281.489L871.442 281.773L871.448 281.778L871.673 281.489ZM867.016 277.712L867.246 277.427L866.99 277.22L866.757 277.453L867.016 277.712ZM866.964 277.763L866.706 277.505L866.472 277.738L866.68 277.994L866.964 277.763ZM870.741 282.42L871.03 282.196L871.025 282.189L870.741 282.42ZM874.311 287.025L874.613 286.817L874.607 286.809L874.6 286.801L874.311 287.025ZM867.896 293.44L868.114 293.147L868.108 293.143L867.896 293.44ZM848.804 279.781L849.017 279.483L849.007 279.477L848.804 279.781ZM848.26 279.031L848.625 278.998L848.625 278.998L848.26 279.031ZM853.745 274.633L853.967 274.342L853.958 274.335L853.948 274.329L853.745 274.633ZM862.773 281.54L863.004 281.256L862.996 281.25L862.773 281.54ZM866.628 284.671L866.397 284.955L866.653 285.162L866.887 284.929L866.628 284.671ZM866.68 284.619L866.938 284.877L867.177 284.639L866.959 284.382L866.68 284.619ZM863.472 280.842L863.186 281.071L863.193 281.079L863.472 280.842ZM856.384 271.994L856.669 271.766L856.667 271.763L856.384 271.994ZM856.72 270.572L859.824 267.467L859.307 266.95L856.202 270.054L856.72 270.572ZM859.824 267.467C860.035 267.256 860.232 267.174 860.404 267.166C860.576 267.159 860.781 267.223 861.015 267.414L861.479 266.848C861.144 266.573 860.767 266.417 860.37 266.436C859.973 266.454 859.613 266.643 859.307 266.95L859.824 267.467ZM861.018 267.416L869.866 274.505L870.323 273.934L861.476 266.845L861.018 267.416ZM869.858 274.498L873.635 277.706L874.108 277.148L870.331 273.94L869.858 274.498ZM874.13 277.686L874.182 277.634L873.665 277.117L873.613 277.168L874.13 277.686ZM874.207 277.145L871.077 273.29L870.509 273.751L873.639 277.606L874.207 277.145ZM871.084 273.298L864.176 264.27L863.595 264.714L870.502 273.743L871.084 273.298ZM864.18 264.275C863.991 264.02 863.925 263.808 863.931 263.635C863.937 263.467 864.012 263.279 864.222 263.069L863.705 262.552C863.397 262.859 863.214 263.214 863.2 263.61C863.187 263.999 863.34 264.37 863.592 264.71L864.18 264.275ZM864.222 263.069L867.663 259.629L867.145 259.111L863.705 262.552L864.222 263.069ZM867.663 259.629C867.85 259.441 868.056 259.383 868.225 259.398L868.291 258.669C867.891 258.633 867.476 258.781 867.145 259.111L867.663 259.629ZM868.225 259.398C868.376 259.412 868.57 259.514 868.729 259.754L869.338 259.348C869.084 258.967 868.709 258.707 868.291 258.669L868.225 259.398ZM868.736 259.764L882.396 278.856L882.991 278.43L869.331 259.338L868.736 259.764ZM882.392 278.85C882.65 279.226 882.744 279.531 882.735 279.781C882.726 280.023 882.619 280.269 882.357 280.531L882.874 281.049C883.233 280.69 883.449 280.277 883.466 279.807C883.483 279.346 883.305 278.888 882.995 278.436L882.392 278.85ZM882.357 280.531L878.166 284.722L878.683 285.24L882.874 281.049L882.357 280.531ZM878.166 284.722C877.903 284.985 877.649 285.099 877.402 285.11C877.152 285.122 876.852 285.029 876.495 284.765L876.059 285.352C876.505 285.683 876.968 285.862 877.435 285.841C877.907 285.82 878.325 285.598 878.683 285.24L878.166 284.722ZM876.502 284.769L871.897 281.199L871.448 281.778L876.053 285.348L876.502 284.769ZM871.903 281.204L867.246 277.427L866.786 277.996L871.442 281.773L871.903 281.204ZM866.757 277.453L866.706 277.505L867.223 278.022L867.275 277.97L866.757 277.453ZM866.68 277.994L870.457 282.65L871.025 282.189L867.248 277.533L866.68 277.994ZM870.452 282.644L874.022 287.249L874.6 286.801L871.03 282.196L870.452 282.644ZM874.01 287.232C874.268 287.608 874.362 287.912 874.353 288.163C874.344 288.405 874.237 288.651 873.975 288.913L874.492 289.431C874.851 289.072 875.067 288.659 875.084 288.189C875.101 287.728 874.924 287.27 874.613 286.817L874.01 287.232ZM873.975 288.913L869.784 293.104L870.301 293.621L874.492 289.431L873.975 288.913ZM869.784 293.104C869.521 293.367 869.267 293.481 869.021 293.492C868.771 293.503 868.47 293.411 868.114 293.147L867.678 293.734C868.123 294.065 868.586 294.244 869.054 294.223C869.525 294.202 869.944 293.979 870.301 293.621L869.784 293.104ZM868.108 293.143L849.017 279.484L848.591 280.079L867.683 293.738L868.108 293.143ZM849.007 279.477C848.737 279.297 848.636 279.123 848.625 278.998L847.896 279.064C847.936 279.508 848.249 279.851 848.601 280.086L849.007 279.477ZM848.625 278.998C848.61 278.835 848.664 278.628 848.881 278.41L848.364 277.893C848.013 278.244 847.859 278.658 847.896 279.064L848.625 278.998ZM848.881 278.41L852.322 274.969L851.805 274.452L848.364 277.893L848.881 278.41ZM852.322 274.969C852.515 274.777 852.696 274.704 852.868 274.698C853.049 274.692 853.271 274.757 853.542 274.937L853.948 274.329C853.597 274.095 853.225 273.954 852.843 273.967C852.453 273.98 852.103 274.153 851.805 274.452L852.322 274.969ZM853.523 274.924L862.551 281.831L862.996 281.25L853.967 274.342L853.523 274.924ZM862.543 281.824L866.397 284.955L866.859 284.387L863.004 281.256L862.543 281.824ZM866.887 284.929L866.938 284.877L866.421 284.36L866.369 284.412L866.887 284.929ZM866.959 284.382L863.751 280.605L863.193 281.079L866.401 284.856L866.959 284.382ZM863.757 280.613L856.669 271.766L856.098 272.223L863.186 281.071L863.757 280.613ZM856.667 271.763C856.47 271.522 856.404 271.322 856.41 271.156C856.415 270.993 856.493 270.798 856.72 270.572L856.202 270.054C855.886 270.37 855.692 270.732 855.678 271.131C855.665 271.528 855.831 271.897 856.1 272.226L856.667 271.763ZM885.143 263.827L884.885 263.568L884.626 263.827L884.885 264.086L885.143 263.827ZM888.015 266.699L887.756 266.957L888.015 267.216L888.274 266.957L888.015 266.699ZM878.391 257.075L878.133 256.816L877.874 257.075L878.133 257.334L878.391 257.075ZM880.952 259.636L880.694 259.895L880.952 260.153L881.211 259.895L880.952 259.636ZM888.92 259.533L884.885 263.568L885.402 264.086L889.438 260.05L888.92 259.533ZM884.885 264.086L887.756 266.957L888.273 266.44L885.402 263.568L884.885 264.086ZM888.274 266.957L892.671 262.559L892.154 262.042L887.756 266.44L888.274 266.957ZM892.671 262.559C892.9 262.331 893.091 262.259 893.24 262.259C893.39 262.259 893.581 262.331 893.81 262.559L894.327 262.042C894.012 261.727 893.647 261.527 893.24 261.527C892.834 261.527 892.469 261.727 892.154 262.042L892.671 262.559ZM893.81 262.559L896.5 265.25L897.017 264.732L894.327 262.042L893.81 262.559ZM896.5 265.25C896.745 265.495 896.812 265.683 896.81 265.824C896.808 265.968 896.735 266.153 896.5 266.388L897.017 266.905C897.326 266.597 897.537 266.239 897.542 265.833C897.547 265.424 897.342 265.057 897.017 264.732L896.5 265.25ZM896.5 266.388L888.222 274.666L888.739 275.184L897.017 266.905L896.5 266.388ZM888.222 274.666C887.971 274.917 887.787 274.986 887.653 274.986C887.518 274.986 887.334 274.917 887.083 274.666L886.566 275.184C886.884 275.502 887.244 275.718 887.653 275.718C888.061 275.718 888.421 275.502 888.739 275.184L888.222 274.666ZM887.083 274.666L870.423 258.006L869.906 258.524L886.566 275.184L887.083 274.666ZM870.423 258.006C870.189 257.771 870.115 257.586 870.113 257.443C870.112 257.302 870.179 257.113 870.423 256.868L869.906 256.351C869.582 256.675 869.377 257.042 869.382 257.451C869.386 257.858 869.598 258.215 869.906 258.524L870.423 258.006ZM870.423 256.868L878.598 248.693L878.081 248.176L869.906 256.351L870.423 256.868ZM878.598 248.693C878.827 248.464 879.017 248.393 879.167 248.393C879.317 248.393 879.508 248.464 879.736 248.693L880.254 248.176C879.939 247.861 879.574 247.661 879.167 247.661C878.761 247.661 878.395 247.861 878.081 248.176L878.598 248.693ZM879.736 248.693L882.427 251.384L882.944 250.866L880.254 248.176L879.736 248.693ZM882.427 251.384C882.672 251.628 882.739 251.817 882.737 251.958C882.735 252.101 882.662 252.287 882.427 252.522L882.944 253.039C883.253 252.731 883.464 252.373 883.469 251.967C883.473 251.558 883.269 251.191 882.944 250.866L882.427 251.384ZM882.427 252.522L878.133 256.816L878.65 257.334L882.944 253.039L882.427 252.522ZM878.133 257.334L880.694 259.895L881.211 259.377L878.65 256.816L878.133 257.334ZM881.211 259.895L885.247 255.859L884.729 255.342L880.694 259.377L881.211 259.895ZM885.247 255.859C885.475 255.63 885.666 255.559 885.816 255.559C885.966 255.559 886.156 255.63 886.385 255.859L886.902 255.342C886.588 255.027 886.222 254.827 885.816 254.827C885.41 254.827 885.044 255.027 884.729 255.342L885.247 255.859ZM886.385 255.859L888.92 258.394L889.438 257.877L886.902 255.342L886.385 255.859ZM888.92 258.394C889.165 258.639 889.232 258.828 889.23 258.969C889.229 259.112 889.155 259.298 888.92 259.533L889.438 260.05C889.746 259.742 889.957 259.384 889.962 258.977C889.967 258.569 889.762 258.201 889.438 257.877L888.92 258.394ZM896.689 252.282L896.43 252.023L896.171 252.282L896.43 252.54L896.689 252.282ZM899.56 255.153L899.301 255.412L899.56 255.671L899.819 255.412L899.56 255.153ZM889.937 245.53L889.678 245.271L889.419 245.53L889.678 245.788L889.937 245.53ZM892.498 248.091L892.239 248.349L892.498 248.608L892.756 248.349L892.498 248.091ZM900.466 247.987L896.43 252.023L896.947 252.54L900.983 248.505L900.466 247.987ZM896.43 252.54L899.301 255.412L899.819 254.894L896.947 252.023L896.43 252.54ZM899.819 255.412L904.217 251.014L903.699 250.497L899.301 254.894L899.819 255.412ZM904.217 251.014C904.445 250.785 904.636 250.714 904.786 250.714C904.936 250.714 905.126 250.785 905.355 251.014L905.872 250.497C905.558 250.182 905.192 249.982 904.786 249.982C904.38 249.982 904.014 250.182 903.699 250.497L904.217 251.014ZM905.355 251.014L908.045 253.704L908.563 253.187L905.872 250.497L905.355 251.014ZM908.045 253.704C908.29 253.949 908.357 254.138 908.355 254.279C908.354 254.422 908.28 254.608 908.045 254.843L908.563 255.36C908.871 255.052 909.082 254.694 909.087 254.288C909.092 253.879 908.887 253.511 908.563 253.187L908.045 253.704ZM908.045 254.843L899.767 263.121L900.285 263.638L908.563 255.36L908.045 254.843ZM899.767 263.121C899.516 263.372 899.332 263.441 899.198 263.441C899.064 263.441 898.88 263.372 898.629 263.121L898.111 263.638C898.43 263.957 898.789 264.172 899.198 264.172C899.607 264.172 899.966 263.957 900.285 263.638L899.767 263.121ZM898.629 263.121L881.969 246.461L881.451 246.978L898.111 263.638L898.629 263.121ZM881.969 246.461C881.734 246.226 881.66 246.04 881.659 245.897C881.657 245.756 881.724 245.567 881.969 245.323L881.451 244.805C881.127 245.13 880.922 245.497 880.927 245.906C880.932 246.312 881.143 246.67 881.451 246.978L881.969 246.461ZM881.969 245.323L890.144 237.148L889.626 236.63L881.451 244.805L881.969 245.323ZM890.144 237.148C890.372 236.919 890.563 236.847 890.713 236.847C890.863 236.847 891.053 236.919 891.282 237.148L891.799 236.63C891.485 236.316 891.119 236.116 890.713 236.116C890.306 236.116 889.941 236.316 889.626 236.63L890.144 237.148ZM891.282 237.148L893.972 239.838L894.49 239.321L891.799 236.63L891.282 237.148ZM893.972 239.838C894.217 240.083 894.284 240.272 894.282 240.413C894.281 240.556 894.207 240.742 893.972 240.976L894.49 241.494C894.798 241.185 895.009 240.828 895.014 240.421C895.019 240.013 894.814 239.645 894.49 239.321L893.972 239.838ZM893.972 240.976L889.678 245.271L890.195 245.788L894.49 241.494L893.972 240.976ZM889.678 245.788L892.239 248.349L892.756 247.832L890.195 245.271L889.678 245.788ZM892.756 248.349L896.792 244.314L896.275 243.796L892.239 247.832L892.756 248.349ZM896.792 244.314C897.021 244.085 897.211 244.013 897.361 244.013C897.511 244.013 897.702 244.085 897.93 244.314L898.448 243.796C898.133 243.482 897.768 243.282 897.361 243.282C896.955 243.282 896.589 243.482 896.275 243.796L896.792 244.314ZM897.93 244.314L900.466 246.849L900.983 246.332L898.448 243.796L897.93 244.314ZM900.466 246.849C900.71 247.094 900.777 247.283 900.776 247.423C900.774 247.567 900.7 247.752 900.466 247.987L900.983 248.505C901.291 248.196 901.503 247.839 901.507 247.432C901.512 247.023 901.307 246.656 900.983 246.332L900.466 246.849ZM903.138 235.536L902.879 235.795L903.478 235.401L903.138 235.536ZM900.189 228.138L900.529 228.002L900.525 227.993L900.189 228.138ZM904.638 222.757L904.754 222.41L904.754 222.41L904.638 222.757ZM905.311 223.533L904.964 223.648L904.966 223.657L904.97 223.665L905.311 223.533ZM909.217 233.596L908.876 233.729L908.93 233.867L909.065 233.929L909.217 233.596ZM921.919 239.417L922.074 239.085L922.072 239.084L921.919 239.417ZM922.669 240.115L923.016 240L922.669 240.115ZM917.263 244.591L917.436 244.269L917.428 244.264L917.419 244.26L917.263 244.591ZM907.613 240.012L907.77 239.681L907.354 240.271L907.613 240.012ZM903.478 235.401L900.528 228.002L899.849 228.273L902.798 235.672L903.478 235.401ZM900.525 227.993C900.388 227.673 900.35 227.414 900.382 227.196C900.414 226.982 900.518 226.773 900.732 226.56L900.214 226.042C899.91 226.346 899.717 226.693 899.659 227.088C899.6 227.478 899.679 227.877 899.852 228.282L900.525 227.993ZM900.732 226.56L903.94 223.352L903.422 222.834L900.214 226.042L900.732 226.56ZM903.94 223.352C904.202 223.089 904.4 223.063 904.522 223.104L904.754 222.41C904.256 222.244 903.78 222.476 903.422 222.834L903.94 223.352ZM904.522 223.104C904.686 223.158 904.856 223.326 904.964 223.648L905.658 223.417C905.507 222.964 905.211 222.562 904.754 222.41L904.522 223.104ZM904.97 223.665L908.876 233.729L909.558 233.464L905.652 223.4L904.97 223.665ZM909.065 233.929L921.767 239.749L922.072 239.084L909.369 233.264L909.065 233.929ZM921.764 239.748C922.122 239.915 922.267 240.065 922.322 240.231L923.016 240C922.865 239.545 922.492 239.281 922.074 239.085L921.764 239.748ZM922.322 240.231C922.367 240.365 922.352 240.536 922.1 240.788L922.618 241.305C922.987 240.936 923.179 240.487 923.016 240L922.322 240.231ZM922.1 240.788L918.841 244.048L919.358 244.565L922.618 241.305L922.1 240.788ZM918.841 244.048C918.61 244.278 918.386 244.393 918.172 244.427C917.96 244.46 917.717 244.42 917.436 244.269L917.089 244.913C917.481 245.124 917.885 245.213 918.287 245.149C918.687 245.086 919.045 244.878 919.358 244.565L918.841 244.048ZM917.419 244.26L907.77 239.681L907.456 240.342L917.106 244.921L917.419 244.26ZM907.354 240.271L914.417 247.333L914.934 246.816L907.872 239.753L907.354 240.271ZM914.417 247.333C914.662 247.578 914.729 247.767 914.727 247.908C914.725 248.051 914.652 248.236 914.417 248.471L914.934 248.989C915.243 248.68 915.454 248.323 915.459 247.916C915.463 247.507 915.259 247.14 914.934 246.816L914.417 247.333ZM914.417 248.471L911.313 251.576L911.83 252.093L914.934 248.989L914.417 248.471ZM911.313 251.576C911.062 251.827 910.878 251.895 910.743 251.895C910.609 251.895 910.425 251.827 910.174 251.576L909.657 252.093C909.975 252.411 910.335 252.627 910.743 252.627C911.152 252.627 911.512 252.411 911.83 252.093L911.313 251.576ZM910.174 251.576L893.514 234.915L892.997 235.433L909.657 252.093L910.174 251.576ZM893.514 234.915C893.279 234.681 893.206 234.495 893.204 234.352C893.202 234.211 893.269 234.022 893.514 233.777L892.997 233.26C892.672 233.584 892.468 233.952 892.472 234.36C892.477 234.767 892.688 235.124 892.997 235.433L893.514 234.915ZM893.514 233.777L896.619 230.673L896.101 230.155L892.997 233.26L893.514 233.777ZM896.619 230.673C896.847 230.444 897.038 230.373 897.188 230.373C897.338 230.373 897.528 230.444 897.757 230.673L898.274 230.155C897.96 229.841 897.594 229.641 897.188 229.641C896.781 229.641 896.416 229.841 896.101 230.155L896.619 230.673ZM897.757 230.673L902.879 235.795L903.396 235.278L898.274 230.155L897.757 230.673ZM931.506 229.882L931.869 229.925L931.506 229.882ZM924.65 238.496L924.475 238.175L924.473 238.177L924.65 238.496ZM923.59 238.884L923.59 239.25L923.59 238.884ZM920.666 234.202L920.507 233.873L920.498 233.877L920.489 233.882L920.666 234.202ZM922.71 228.485L922.747 228.121L922.737 228.12L922.728 228.119L922.71 228.485ZM919.658 228.795L919.595 228.435L919.594 228.435L919.658 228.795ZM914.872 228.769L914.948 228.412L914.872 228.769ZM907.809 220.879L908.175 220.891L908.175 220.891L907.809 220.879ZM914.173 212.601L913.985 212.287L913.977 212.292L914.173 212.601ZM915.156 212.29L915.189 211.926L915.189 211.926L915.156 212.29ZM918.183 217.025L918.371 217.338L918.379 217.333L918.183 217.025ZM920.123 221.862L920.079 221.499L920.07 221.5L920.123 221.862ZM925.271 221.888L925.362 221.533L925.348 221.53L925.271 221.888ZM928.893 224.527C930.65 226.284 931.358 228.041 931.143 229.838L931.869 229.925C932.119 227.842 931.275 225.874 929.41 224.009L928.893 224.527ZM931.143 229.838C930.922 231.68 930.013 233.393 928.402 235.004L928.919 235.521C930.619 233.821 931.624 231.964 931.869 229.925L931.143 229.838ZM928.402 235.004C926.86 236.546 925.569 237.579 924.475 238.175L924.826 238.818C926.008 238.173 927.356 237.084 928.919 235.521L928.402 235.004ZM924.473 238.177C924.008 238.435 923.745 238.519 923.59 238.519L923.59 239.25C923.952 239.25 924.361 239.076 924.828 238.816L924.473 238.177ZM923.59 238.519C923.49 238.519 923.298 238.437 922.995 238.134L922.477 238.652C922.795 238.969 923.172 239.25 923.59 239.25L923.59 238.519ZM922.995 238.134L920.485 235.625L919.968 236.142L922.477 238.652L922.995 238.134ZM920.485 235.625C920.211 235.351 920.195 235.187 920.219 235.095C920.251 234.97 920.398 234.77 920.844 234.522L920.489 233.882C920.004 234.152 919.62 234.482 919.51 234.913C919.391 235.377 919.621 235.796 919.968 236.142L920.485 235.625ZM920.826 234.531C921.681 234.117 922.517 233.438 923.383 232.572L922.865 232.055C922.024 232.897 921.256 233.511 920.507 233.873L920.826 234.531ZM923.383 232.572C924.084 231.871 924.557 231.202 924.734 230.573C924.921 229.91 924.773 229.306 924.288 228.821L923.771 229.339C924.062 229.63 924.147 229.957 924.03 230.374C923.903 230.825 923.535 231.385 922.865 232.055L923.383 232.572ZM924.288 228.821C923.857 228.39 923.334 228.179 922.747 228.121L922.674 228.849C923.122 228.894 923.478 229.046 923.771 229.339L924.288 228.821ZM922.728 228.119C922.144 228.092 921.103 228.175 919.595 228.435L919.72 229.156C921.213 228.898 922.19 228.826 922.693 228.85L922.728 228.119ZM919.594 228.435C917.876 228.738 916.346 228.711 914.948 228.412L914.795 229.127C916.295 229.448 917.921 229.473 919.721 229.156L919.594 228.435ZM914.948 228.412C913.591 228.121 912.177 227.264 910.758 225.846L910.241 226.364C911.72 227.843 913.255 228.797 914.795 229.127L914.948 228.412ZM910.758 225.846C908.951 224.039 908.128 222.398 908.175 220.891L907.444 220.868C907.387 222.671 908.375 224.497 910.241 226.364L910.758 225.846ZM908.175 220.891C908.222 219.376 909.201 217.573 911.25 215.524L910.732 215.007C908.642 217.097 907.5 219.071 907.444 220.868L908.175 220.891ZM911.25 215.524C912.479 214.295 913.545 213.434 914.37 212.909L913.977 212.292C913.094 212.854 911.987 213.752 910.732 215.007L911.25 215.524ZM914.361 212.915C914.725 212.696 914.953 212.639 915.123 212.655L915.189 211.926C914.79 211.89 914.397 212.04 913.985 212.287L914.361 212.915ZM915.123 212.655C915.305 212.671 915.514 212.752 915.777 213.015L916.294 212.497C915.937 212.14 915.576 211.961 915.189 211.926L915.123 212.655ZM915.777 213.015L918.364 215.602L918.881 215.084L916.294 212.497L915.777 213.015ZM918.364 215.602C918.595 215.832 918.612 215.989 918.583 216.1C918.544 216.246 918.388 216.46 917.987 216.716L918.379 217.333C918.831 217.046 919.18 216.703 919.29 216.287C919.41 215.835 919.22 215.423 918.881 215.084L918.364 215.602ZM917.995 216.711C917.19 217.193 916.417 217.808 915.699 218.525L916.217 219.042C916.897 218.363 917.623 217.787 918.371 217.338L917.995 216.711ZM915.699 218.525C915.149 219.076 914.786 219.589 914.716 220.077L915.441 220.181C915.474 219.945 915.681 219.578 916.217 219.042L915.699 218.525ZM914.716 220.077C914.642 220.602 914.91 221.099 915.311 221.5L915.829 220.983C915.506 220.66 915.412 220.38 915.441 220.181L914.716 220.077ZM915.311 221.5C915.751 221.939 916.401 222.199 917.204 222.312C918.01 222.425 919.005 222.395 920.176 222.224L920.07 221.5C918.939 221.665 918.019 221.687 917.306 221.587C916.589 221.487 916.114 221.268 915.829 220.983L915.311 221.5ZM920.167 222.225C922.271 221.969 923.932 221.974 925.194 222.246L925.348 221.53C923.972 221.233 922.218 221.238 920.079 221.499L920.167 222.225ZM925.181 222.243C926.423 222.559 927.661 223.294 928.893 224.527L929.41 224.009C928.108 222.707 926.759 221.89 925.362 221.534L925.181 222.243Z" fill="white"/>
<path d="M947.954 192.738L949.092 191.6C949.532 191.16 949.739 190.746 949.713 190.358C949.661 189.996 949.377 189.505 948.859 188.987C948.342 188.47 947.876 188.211 947.514 188.159C947.126 188.133 946.712 188.34 946.272 188.78L945.134 189.919L947.954 192.738ZM961.199 202.207L955.482 207.924C954.913 208.493 954.395 208.493 953.826 207.924L937.166 191.264C936.623 190.72 936.597 190.177 937.166 189.608L942.314 184.46C944.28 182.494 946.014 181.381 947.566 181.071C949.118 180.761 950.799 181.511 952.559 183.27C954.525 185.236 955.12 187.228 954.344 189.246C955.404 188.754 956.543 188.651 957.784 188.961C959.026 189.272 960.216 189.996 961.303 191.083C964.976 194.756 964.924 198.481 961.199 202.207ZM955.171 199.956L956.646 198.481C957.138 197.99 957.37 197.55 957.319 197.084C957.241 196.645 956.931 196.127 956.31 195.506C955.689 194.886 955.171 194.575 954.732 194.497C954.266 194.446 953.8 194.653 953.309 195.144L951.834 196.619L955.171 199.956ZM955.594 172.836L968.684 185.926L971.995 182.615C972.538 182.072 973.107 182.072 973.651 182.615L976.393 185.357C976.962 185.926 976.936 186.47 976.393 187.013L969.149 194.256C968.58 194.825 968.063 194.825 967.494 194.256L950.834 177.596C950.29 177.053 950.264 176.51 950.834 175.941L953.938 172.836C954.481 172.293 955.05 172.293 955.594 172.836ZM976.477 172.545L978.495 170.527L971.018 164.965L970.915 165.069L976.477 172.545ZM963.904 162.87L968.82 157.955C969.492 157.282 970.191 157.204 970.915 157.67L990.214 171.381C990.55 171.614 990.731 171.898 990.757 172.183C990.783 172.468 990.654 172.752 990.395 173.011L987.213 176.193C986.696 176.71 986.152 176.736 985.531 176.27L982.944 174.356L980.306 176.995L982.22 179.582C982.66 180.228 982.634 180.772 982.142 181.263L978.961 184.445C978.676 184.73 978.391 184.859 978.107 184.833C977.822 184.807 977.564 184.6 977.331 184.264L963.62 164.965C963.128 164.267 963.232 163.542 963.904 162.87ZM995.688 159.646C996.257 159.077 996.723 158.508 997.111 157.913C997.628 157.189 998.171 157.111 998.741 157.68L1001.22 160.164C1001.77 160.707 1001.82 161.328 1001.41 161.949C1000.78 162.984 999.956 163.967 999.025 164.898C997.732 166.191 996.568 167.149 995.533 167.666C994.472 168.209 993.334 168.416 992.04 168.261C990.773 168.132 989.402 167.588 987.927 166.58C986.478 165.596 984.771 164.096 982.805 162.13C980.89 160.216 979.416 158.534 978.459 157.111C977.476 155.714 976.906 154.369 976.777 153.101C976.648 151.834 976.855 150.696 977.398 149.635C977.915 148.6 978.821 147.436 980.114 146.142C980.865 145.392 981.822 144.642 982.96 143.814C983.581 143.348 984.202 143.4 984.771 143.969L987.28 146.479C987.849 147.048 987.772 147.591 987.047 148.109C986.452 148.497 985.883 148.962 985.366 149.48C984.202 150.644 983.762 151.704 984.047 152.662C984.305 153.645 985.521 155.171 987.642 157.292C989.169 158.819 990.359 159.853 991.238 160.423C992.118 160.992 992.868 161.173 993.515 161.043C994.136 160.94 994.86 160.474 995.688 159.646ZM996.236 142.438L993.287 135.039C992.977 134.315 993.054 133.72 993.572 133.202L996.78 129.995C997.09 129.684 997.426 129.555 997.737 129.658C998.047 129.762 998.28 130.046 998.409 130.434L1002.32 140.498L1015.02 146.318C1015.41 146.5 1015.66 146.707 1015.77 147.017C1015.87 147.327 1015.77 147.638 1015.46 147.948L1012.2 151.208C1011.65 151.751 1011.03 151.855 1010.36 151.492L1000.71 146.913L1007.77 153.976C1008.34 154.545 1008.32 155.088 1007.77 155.632L1004.67 158.736C1004.1 159.305 1003.58 159.305 1003.01 158.736L986.354 142.076C985.811 141.533 985.785 140.989 986.354 140.42L989.458 137.316C990.002 136.773 990.571 136.773 991.114 137.316L996.236 142.438ZM1023.67 126.645L1019.84 130.473L1025.51 136.139C1026.1 136.734 1026.08 137.329 1025.51 137.898L1022.51 140.899C1021.91 141.494 1021.34 141.494 1020.75 140.899L1004.19 124.342C1003.62 123.773 1003.6 123.178 1004.19 122.583L1012.06 114.719C1012.6 114.175 1013.17 114.175 1013.71 114.719L1016.4 117.409C1016.97 117.978 1016.94 118.521 1016.4 119.065L1012.42 123.049L1015.5 126.127L1019.33 122.298C1019.87 121.755 1020.44 121.755 1020.98 122.298L1023.67 124.989C1024.24 125.558 1024.21 126.101 1023.67 126.645ZM1027.94 116.637L1028.66 115.913C1029.33 115.24 1029.62 114.645 1029.51 114.128C1029.41 113.611 1028.89 112.886 1027.99 111.981C1027.11 111.101 1026.38 110.584 1025.87 110.48C1025.35 110.377 1024.73 110.636 1024.05 111.308L1023.33 112.033L1027.94 116.637ZM1015.1 111.67L1019.76 107.014C1022.14 104.634 1024.31 103.444 1026.2 103.418C1028.09 103.392 1030.32 104.634 1032.82 107.143C1035.67 109.989 1036.65 112.679 1035.8 115.189L1043.3 118.034C1044.31 118.422 1044.47 118.94 1043.79 119.612L1040.64 122.768C1040.3 123.105 1040.04 123.312 1039.78 123.363C1039.52 123.415 1039.19 123.389 1038.77 123.182L1032.23 120.414L1031.97 120.673L1036.52 125.226C1037.09 125.795 1037.07 126.339 1036.52 126.882L1033.42 129.986C1032.85 130.555 1032.33 130.555 1031.76 129.986L1015.1 113.326C1014.56 112.783 1014.53 112.239 1015.1 111.67ZM1045.26 116.493L1028.6 99.8329C1028.05 99.2897 1028.03 98.7464 1028.6 98.1773L1031.7 95.0729C1032.24 94.5296 1032.81 94.5296 1033.36 95.0729L1050.02 111.733C1050.59 112.302 1050.56 112.845 1050.02 113.389L1046.91 116.493C1046.34 117.062 1045.83 117.062 1045.26 116.493ZM1058.08 105.326L1053.63 109.775C1053.06 110.345 1052.54 110.345 1051.97 109.775L1035.31 93.1153C1034.77 92.572 1034.75 92.0287 1035.31 91.4596L1039.66 87.1135C1040.88 85.8976 1042.04 85.0439 1043.15 84.5006C1044.27 83.9574 1045.46 83.7504 1046.72 83.828C1047.99 83.9574 1049.36 84.4489 1050.81 85.3802C1052.26 86.3115 1053.86 87.6568 1055.65 89.4418C1058.03 91.8218 1059.61 93.9172 1060.49 95.7281C1061.37 97.539 1061.57 99.1947 1061.16 100.643C1060.74 102.144 1059.71 103.696 1058.08 105.326ZM1043.96 91.4079L1043.54 91.8218L1053.27 101.549L1053.79 101.031C1054.51 100.307 1054.72 99.4792 1054.35 98.5997C1053.99 97.7201 1052.83 96.2973 1050.81 94.2794C1049.47 92.9342 1048.35 91.977 1047.5 91.382C1046.65 90.8387 1045.97 90.58 1045.48 90.6059C1044.99 90.6318 1044.47 90.8905 1043.96 91.4079ZM1063.86 85.1589L1065.88 83.1411L1058.4 77.5791L1058.3 77.6825L1063.86 85.1589ZM1051.29 75.4836L1056.21 70.5684C1056.88 69.8958 1057.58 69.8181 1058.3 70.2838L1077.6 83.9948C1077.94 84.2276 1078.12 84.5122 1078.14 84.7967C1078.17 85.0813 1078.04 85.3659 1077.78 85.6246L1074.6 88.8065C1074.08 89.3239 1073.54 89.3498 1072.92 88.8842L1070.33 86.9698L1067.69 89.6085L1069.61 92.1955C1070.05 92.8422 1070.02 93.3855 1069.53 93.877L1066.35 97.059C1066.06 97.3436 1065.78 97.4729 1065.49 97.447C1065.21 97.4212 1064.95 97.2142 1064.72 96.8779L1051.01 77.5791C1050.51 76.8806 1050.62 76.1562 1051.29 75.4836ZM1079.1 70.5399L1085.16 76.5934C1085.73 77.1625 1085.7 77.7058 1085.16 78.2491L1082.05 81.3534C1081.48 81.9226 1080.97 81.9226 1080.4 81.3534L1074.34 75.2999L1060.01 68.7807C1059.67 68.7031 1059.47 68.4962 1059.34 68.1598C1059.21 67.8235 1059.31 67.4614 1059.67 67.0992L1062.93 63.8396C1063.5 63.2705 1064.12 63.167 1064.77 63.555L1069.56 66.5301L1072.3 68.5996L1072.4 68.4962L1070.33 65.754L1067.36 60.9681C1066.94 60.3472 1067.05 59.7263 1067.64 59.1313L1070.9 55.8717C1071.24 55.5354 1071.6 55.4319 1071.94 55.5613C1072.27 55.6906 1072.48 55.8976 1072.58 56.208L1079.1 70.5399ZM1085.1 41.6761L1088.2 38.5717C1088.72 38.0543 1089.31 38.0285 1089.88 38.4941L1098.73 45.5824L1102.51 48.7903L1102.56 48.7385L1099.43 44.8839L1092.52 35.8554C1092.08 35.2604 1092.08 34.6913 1092.6 34.1739L1096.04 30.7332C1096.3 30.4745 1096.61 30.371 1096.89 30.3969C1097.18 30.4227 1097.46 30.6038 1097.67 30.9143L1111.33 50.0061C1111.9 50.834 1111.87 51.5325 1111.25 52.1533L1107.06 56.3442C1106.44 56.9651 1105.72 57.0169 1104.91 56.4218L1100.31 52.8518L1095.65 49.0748L1095.6 49.1266L1099.38 53.7831L1102.95 58.388C1103.52 59.2158 1103.49 59.9143 1102.87 60.5351L1098.68 64.726C1098.06 65.3469 1097.33 65.3987 1096.53 64.8037L1077.44 51.1444C1077.13 50.9375 1076.92 50.6788 1076.9 50.3942C1076.87 50.1096 1076.97 49.7992 1077.26 49.5146L1080.7 46.0739C1081.19 45.5824 1081.76 45.5824 1082.38 45.9963L1091.41 52.9036L1095.26 56.0338L1095.32 55.9821L1092.11 52.2051L1085.02 43.3576C1084.55 42.7885 1084.55 42.2194 1085.1 41.6761ZM1117.82 31.1546L1113.78 35.1902L1116.65 38.0618L1121.05 33.6639C1121.59 33.1207 1122.16 33.1207 1122.71 33.6639L1125.4 36.3544C1125.96 36.9235 1125.94 37.4668 1125.4 38.0101L1117.12 46.2884C1116.55 46.8575 1116.03 46.8575 1115.46 46.2884L1098.8 29.6282C1098.26 29.085 1098.23 28.5417 1098.8 27.9726L1106.98 19.7977C1107.52 19.2545 1108.09 19.2545 1108.63 19.7977L1111.32 22.4882C1111.89 23.0573 1111.87 23.6006 1111.32 24.1439L1107.03 28.4382L1109.59 30.9993L1113.62 26.9637C1114.17 26.4204 1114.74 26.4204 1115.28 26.9637L1117.82 29.4989C1118.38 30.068 1118.36 30.6113 1117.82 31.1546ZM1129.36 19.6092L1125.33 23.6449L1128.2 26.5164L1132.59 22.1185C1133.14 21.5753 1133.71 21.5753 1134.25 22.1185L1136.94 24.809C1137.51 25.3781 1137.48 25.9214 1136.94 26.4647L1128.66 34.743C1128.09 35.3121 1127.58 35.3121 1127.01 34.743L1110.35 18.0829C1109.8 17.5396 1109.78 16.9963 1110.35 16.4272L1118.52 8.25235C1119.07 7.70908 1119.63 7.70908 1120.18 8.25234L1122.87 10.9428C1123.44 11.5119 1123.41 12.0552 1122.87 12.5985L1118.57 16.8928L1121.13 19.454L1125.17 15.4183C1125.71 14.875 1126.28 14.875 1126.83 15.4183L1129.36 17.9535C1129.93 18.5226 1129.9 19.0659 1129.36 19.6092ZM1131.77 6.89965L1128.83 -0.499104C1128.52 -1.22346 1128.59 -1.81846 1129.11 -2.33586L1132.32 -5.54371C1132.63 -5.85414 1132.96 -5.98349 1133.28 -5.88001C1133.59 -5.77653 1133.82 -5.49197 1133.95 -5.10392L1137.85 4.95941L1150.56 10.7801C1150.94 10.9612 1151.2 11.1682 1151.31 11.4786C1151.41 11.789 1151.31 12.0995 1151 12.4099L1147.74 15.6695C1147.19 16.2128 1146.57 16.3162 1145.9 15.9541L1136.25 11.3751L1143.31 18.4376C1143.88 19.0067 1143.86 19.55 1143.31 20.0932L1140.21 23.1976C1139.64 23.7667 1139.12 23.7667 1138.55 23.1976L1121.89 6.53747C1121.35 5.99421 1121.32 5.45094 1121.89 4.88181L1125 1.77744C1125.54 1.23417 1126.11 1.23417 1126.65 1.77743L1131.77 6.89965ZM1157.79 -4.36866C1159.6 -2.55778 1160.38 -0.695153 1160.14 1.24508C1159.91 3.18531 1158.95 4.97032 1157.3 6.62599C1155.74 8.17817 1154.43 9.23884 1153.29 9.85971C1152.82 10.1184 1152.49 10.2478 1152.23 10.2478C1151.97 10.2478 1151.68 10.0667 1151.37 9.75623L1148.86 7.24686C1148.24 6.62599 1148.37 6.08272 1149.3 5.56533C1150.11 5.17728 1150.91 4.53054 1151.76 3.67684C1153.13 2.30574 1153.44 1.21921 1152.67 0.443116C1152.3 0.0809396 1151.86 -0.100149 1151.35 -0.151888C1150.8 -0.177758 1149.79 -0.100149 1148.29 0.158549C1146.54 0.468987 1144.96 0.443117 1143.51 0.132679C1142.06 -0.177757 1140.59 -1.0832 1139.14 -2.53191C1137.3 -4.36866 1136.39 -6.10193 1136.45 -7.7576C1136.5 -9.41326 1137.56 -11.3018 1139.63 -13.3713C1140.87 -14.6131 1141.96 -15.4927 1142.81 -16.0359C1143.2 -16.2687 1143.51 -16.3722 1143.79 -16.3464C1144.08 -16.3205 1144.36 -16.1911 1144.67 -15.8807L1147.26 -13.2937C1147.83 -12.7246 1147.67 -12.1555 1146.82 -11.6122C1146.04 -11.1465 1145.29 -10.5515 1144.6 -9.85305C1144.05 -9.30978 1143.77 -8.87 1143.72 -8.50782C1143.66 -8.14564 1143.84 -7.7576 1144.21 -7.39542C1144.93 -6.67107 1146.46 -6.43824 1148.76 -6.77455C1150.88 -7.03325 1152.59 -7.03325 1153.91 -6.74868C1155.23 -6.41237 1156.52 -5.63628 1157.79 -4.36866Z" fill="white"/>
</g>
<defs>
<filter id="filter0_d_2563_1865" x="0.837158" y="-263.302" width="1412.19" height="1412.19" filterUnits="userSpaceOnUse" color-interpolation-filters="sRGB">
<feFlood flood-opacity="0" result="BackgroundImageFix"/>
<feColorMatrix in="SourceAlpha" type="matrix" values="0 0 0 0 0 0 0 0 0 0 0 0 0 0 0 0 0 0 127 0" result="hardAlpha"/>
<feOffset dy="4"/>
<feGaussianBlur stdDeviation="2"/>
<feComposite in2="hardAlpha" operator="out"/>
<feColorMatrix type="matrix" values="0 0 0 0 0 0 0 0 0 0 0 0 0 0 0 0 0 0 0.2 0"/>
<feBlend mode="normal" in2="BackgroundImageFix" result="effect1_dropShadow_2563_1865"/>
<feBlend mode="normal" in="SourceGraphic" in2="effect1_dropShadow_2563_1865" result="shape"/>
</filter>
</defs>
</svg>
