<svg width="1149" height="240" viewBox="0 0 1149 240" fill="none" xmlns="http://www.w3.org/2000/svg">
<path d="M757.389 63.1542L779.299 -258.954L785.732 -258.683L757.389 63.1542Z" fill="black"/>
<path d="M740.891 91.5457L737.758 -277.887L745.14 -277.882L740.891 91.5457Z" fill="black"/>
<path d="M1101.36 223.168L1455.83 191.659L1455.16 187.83L1101.36 223.168Z" fill="black"/>
<path d="M1030.31 166.146L1410.97 48.8969L1408.59 44.7944L1030.31 166.146Z" fill="black"/>
<path d="M1140.44 185.597L1434.73 134.563L1433.68 131.388L1140.44 185.597Z" fill="black"/>
<path d="M1098.35 128.927L1385.04 28.0264L1382.99 24.9385L1098.35 128.927Z" fill="black"/>
<path d="M917.508 223.832L1464.98 123.655L1462.93 117.75L917.508 223.832Z" fill="black"/>
<path d="M944.453 170.915L1383.11 -11.6676L1379.41 -16.3872L944.453 170.915Z" fill="black"/>
<path d="M1108.91 192.962L1440.4 137.016L1439.25 133.439L1108.91 192.962Z" fill="black"/>
<path d="M929.48 160.769L1350.57 -50.9251L1346.29 -55.4521L929.48 160.769Z" fill="black"/>
<path d="M981.505 230.642L1471 179.347L1469.92 174.062L981.505 230.642Z" fill="black"/>
<path d="M1053.53 202.49L1448.38 135.686L1447 131.425L1053.53 202.49Z" fill="black"/>
<path d="M1051.2 143.735L1389.5 22.3985L1387.04 18.7551L1051.2 143.735Z" fill="black"/>
<path d="M1107.03 12.8508L1261.62 -88.7311L1259.57 -90.3923L1107.03 12.8508Z" fill="black"/>
<path d="M1129.75 204.872L1445.51 164.161L1444.66 160.752L1129.75 204.872Z" fill="black"/>
<path d="M930.326 174.708L1380.69 -17.8931L1376.79 -22.7385L930.326 174.708Z" fill="black"/>
<path d="M1091.57 177.638L1429.64 102.979L1428.11 99.3335L1091.57 177.638Z" fill="black"/>
<path d="M1085.77 176.979L1428.88 99.2546L1427.28 95.5544L1085.77 176.979Z" fill="black"/>
<path d="M1094.47 204.376L1447.84 153.596L1446.79 149.783L1094.47 204.376Z" fill="black"/>
<path d="M1047.69 219.91L1459.66 172.144L1458.66 167.696L1047.69 219.91Z" fill="black"/>
<path d="M916.067 94.3819L1198.09 -163.464L1192.91 -166.483L916.067 94.3819Z" fill="black"/>
<path d="M903.994 62.1051L1125.09 -197.664L1119.88 -200.024L903.994 62.1051Z" fill="black"/>
<path d="M955.792 207.113L1447.8 95.4655L1445.51 90.1609L955.792 207.113Z" fill="black"/>
<path d="M907.362 19.0886L1072.9 -213.123L1068.24 -214.888L907.362 19.0886Z" fill="black"/>
<path d="M882.24 50.0198L1070.17 -219.968L1064.75 -221.97L882.24 50.0198Z" fill="black"/>
<path d="M990.022 136.204L1351.77 -36.527L1348.27 -40.4197L990.022 136.204Z" fill="black"/>
<path d="M792.842 12.7841L855.918 -268.971L850.284 -269.623L792.842 12.7841Z" fill="black"/>
<path d="M909.27 176.165L1365.67 -39.6817L1361.31 -44.5889L909.27 176.165Z" fill="black"/>
<path d="M881.52 59.0568L1081.36 -217.046L1075.82 -219.176L881.52 59.0568Z" fill="black"/>
<path d="M948.279 115.993L1280.58 -106.691L1276.09 -110.258L948.279 115.993Z" fill="black"/>
<path d="M840.514 73.9511L1017.08 -243.22L1010.72 -245.094L840.514 73.9511Z" fill="black"/>
<path d="M931.256 110.844L1250.37 -130.605L1245.51 -134.026L931.256 110.844Z" fill="black"/>
<path d="M1119.37 11.4908L1266.83 -82.7698L1264.93 -84.3545L1119.37 11.4908Z" fill="black"/>
<path d="M1105.71 28.4808L1277.66 -77.6602L1275.52 -79.5066L1105.71 28.4808Z" fill="black"/>
<path d="M888.998 131.687L1229.31 -151.989L1223.6 -155.637L888.998 131.687Z" fill="black"/>
<path d="M763.531 99.3878L823.217 -285.124L815.528 -285.729L763.531 99.3878Z" fill="black"/>
<path d="M726.429 84.2763L699.769 -285.595L692.382 -285.267L726.429 84.2763Z" fill="black"/>
<path d="M891.119 32.6226L1063.23 -219.556L1058.18 -221.388L891.119 32.6226Z" fill="black"/>
<path d="M818.263 134.624L1059.6 -239.259L1052.1 -241.826L818.263 134.624Z" fill="black"/>
<path d="M612.023 21.1643L474.163 -237.358L469.013 -235.84L612.023 21.1643Z" fill="black"/>
<path d="M716.256 117.491L649.802 -287L641.73 -286.237L716.256 117.491Z" fill="black"/>
<path d="M683.229 2.17511L625.331 -267.356L619.952 -266.7L683.229 2.17511Z" fill="black"/>
<path d="M623.77 75.4172L430.088 -231.706L423.974 -229.58L623.77 75.4172Z" fill="black"/>
<path d="M767.272 42.5037L810.263 -277.892L803.858 -278.321L767.272 42.5037Z" fill="black"/>
<path d="M816.6 95.1248L985.15 -256.093L978.115 -257.875L816.6 95.1248Z" fill="black"/>
<path d="M639.028 121.431L385.957 -222.748L379.108 -219.976L639.028 121.431Z" fill="black"/>
<path d="M552.287 57.314L329.802 -182.57L325.034 -180.141L552.287 57.314Z" fill="black"/>
<path d="M620.088 120.957L339.581 -201.278L333.175 -198.212L620.088 120.957Z" fill="black"/>
<path d="M634.475 98.8695L417.322 -231.138L410.752 -228.756L634.475 98.8695Z" fill="black"/>
<path d="M701.444 46.5864L644.687 -276.122L638.246 -275.473L701.444 46.5864Z" fill="black"/>
<path d="M659.285 47.2651L543.54 -260.021L537.415 -258.734L659.285 47.2651Z" fill="black"/>
<path d="M638.496 14.095L529.764 -251.64L524.468 -250.436L638.496 14.095Z" fill="black"/>
<path d="M707.591 29.826L666.29 -275.658L660.19 -275.179L707.591 29.826Z" fill="black"/>
<path d="M445.119 120.268L130.563 -27.8926L127.638 -24.4763L445.119 120.268Z" fill="black"/>
<path d="M661.707 59.0295L537.883 -260.601L531.511 -259.228L661.707 59.0295Z" fill="black"/>
<path d="M703.871 102.582L616.618 -281.096L608.962 -280.111L703.871 102.582Z" fill="black"/>
<path d="M529.623 133.094L169.406 -82.0046L165.147 -78.0898L529.623 133.094Z" fill="black"/>
<path d="M451.914 72.8996L199.979 -90.3379L196.745 -87.598L451.914 72.8996Z" fill="black"/>
<path d="M686.817 66.183L594.924 -272.557L588.166 -271.528L686.817 66.183Z" fill="black"/>
<path d="M518.193 123.897L175.429 -84.6384L171.299 -80.9112L518.193 123.897Z" fill="black"/>
<path d="M392.191 49.6126L191.269 -71.9065L188.861 -69.722L392.191 49.6126Z" fill="black"/>
<path d="M492.519 3.767L326.338 -168.648L322.91 -166.831L492.519 3.767Z" fill="black"/>
<path d="M537.68 107.203L226.88 -125.932L222.255 -122.548L537.68 107.203Z" fill="black"/>
<path d="M516.51 46.8925L298.076 -161.225L293.941 -158.841L516.51 46.8925Z" fill="black"/>
<path d="M630.555 74.921L445.812 -237.2L439.596 -235.169L630.555 74.921Z" fill="black"/>
<path d="M528.343 56.4551L298.778 -163.97L294.401 -161.465L528.343 56.4551Z" fill="black"/>
<path d="M572.336 87.6259L311.748 -179.06L306.45 -176.216L572.336 87.6259Z" fill="black"/>
<path d="M550.924 133.286L192.306 -104.479L187.596 -100.579L550.924 133.286Z" fill="black"/>
<path d="M556.41 126.903L212.411 -120.035L207.517 -116.291L556.41 126.903Z" fill="black"/>
</svg>
