<svg xmlns="http://www.w3.org/2000/svg" width="88" height="21" viewBox="0 0 88 21" fill="none">
  <path fill-rule="evenodd" clip-rule="evenodd" d="M91.8537 16.7623L89.1254 14.034L91.4767 11.6823L88.2611 8.46713L85.9098 10.8184L82.3239 7.23246C81.7776 6.67748 81.4609 6.31623 81.4517 5.77954C81.4397 5.10192 81.9934 4.4426 82.7554 4.42971C83.4043 4.41807 83.7477 4.66625 84.237 5.19463L84.7749 5.73215L87.9248 2.58186H87.9244L87.4871 2.14411C86.3946 1.00589 84.8801 0.000270978 82.5367 0.000270978C78.7791 0.000270978 76.5109 2.87037 76.5109 5.80947C76.5109 7.16428 77.0094 8.48293 78.36 9.84232L82.6228 14.1055L82.1909 14.5374C81.4696 15.2844 81.0493 15.7729 80.2312 15.7875C79.243 15.8045 78.3617 15.141 78.3434 14.0959C78.3314 13.4191 78.634 12.9614 79.1603 12.416L79.2792 12.2975L76.3318 9.35011L76.035 9.64693C74.9242 10.7116 73.7606 12.4031 73.7606 14.6542C73.7606 17.6943 76.2133 20.1936 80.0591 20.1936C82.3738 20.1936 84.0225 19.1643 85.6039 17.5555L85.8383 17.3206L88.5667 20.0494L91.8537 16.7623ZM178.98 6.73167C178.527 5.23302 177.424 4.2141 175.359 4.2141C173.662 4.2141 172.786 5.03472 172.786 5.93973C172.786 6.90128 173.804 7.38226 175.416 7.60841L176.831 7.80629C181.808 8.51342 184.127 9.94889 184.127 13.4908C184.127 17.677 180.293 20.1938 175.598 20.1938C171.16 20.1938 167.808 17.7053 167.497 13.2372H172.418C172.757 14.481 173.804 16.0366 176.123 16.0366C177.735 16.0366 178.952 15.2443 178.952 14.0283C178.952 13.1516 178.329 12.5862 175.812 12.2183L173.635 11.8953C169.789 11.3303 167.638 9.497 167.638 6.16464C167.638 2.72169 170.749 0 175.614 0C180.79 0 183.477 3.0264 183.816 6.73167H178.98ZM151.527 19.7131V0.480445H166.234V4.89284H156.703V7.80617H163.321V12.1333H156.703V15.3011H166.234V19.7131H151.527ZM144.345 19.7131L136.397 9.13521H136.256V19.7131H131.363V0.480445H135.832L143.864 11.1153H144.005V0.480445H148.898V19.7131H144.345ZM124.037 10.0973C124.037 6.81646 121.775 4.75161 119.032 4.75161C116.288 4.75161 114.082 6.90127 114.082 10.0973C114.082 13.2929 116.288 15.4143 119.032 15.4143C121.775 15.4143 124.037 13.2929 124.037 10.0973ZM119.003 20.1938C113.234 20.1938 108.595 16.0083 108.595 10.1256C108.595 4.24237 113.234 0 119.003 0C124.773 0 129.496 4.24237 129.496 10.1256C129.496 16.0083 124.773 20.1938 119.003 20.1938ZM101.556 0.480445H106.731V14.4239C106.731 17.8744 103.875 20.1936 100.17 20.1936C96.3796 20.1936 93.778 18.1009 93.778 14.5374V13.2645H98.3879V14.4239C98.3879 15.3859 99.0946 16.0643 99.9713 16.0643C100.876 16.0643 101.556 15.4142 101.556 14.4239V0.480445ZM66.6751 19.7131L61.2168 11.8507H61.1037V19.7131H55.928V0.480445H61.1037V7.86271H61.2168L66.562 0.480445H72.3317L65.3456 9.30482L72.7562 19.7131H66.6751ZM53.9583 13.2646C52.6576 17.3656 48.6696 20.1937 44.0597 20.1937C38.4596 20.1937 33.8498 16.0083 33.8498 10.1255C33.8498 4.24235 38.5723 0.000812935 44.1728 0.000812935C48.6979 0.000812935 52.601 2.77155 53.9305 6.84473H48.0477C47.1705 5.57222 45.7001 4.72333 44.1445 4.72333C41.5704 4.72333 39.3364 6.90085 39.3364 10.0969C39.3364 13.2929 41.5704 15.4425 44.1445 15.4425C45.7567 15.4425 47.2271 14.5937 48.1042 13.2646H53.9583ZM24.4316 6.53329H24.3751L22.0275 12.6988H26.6657L24.4316 6.53329ZM29.2115 19.7131L27.9956 16.4036H20.6416L19.3969 19.7131H14.193L22.1976 0.480445H26.9488L34.6699 19.7131H29.2115ZM8.76638 0.480445H13.9424V14.4239C13.9424 17.8744 11.0857 20.1936 7.3808 20.1936C3.59073 20.1936 0.98877 18.1009 0.98877 14.5374V13.2645H5.59905V14.4239C5.59905 15.3855 6.30576 16.0643 7.1825 16.0643C8.08752 16.0643 8.76638 15.4142 8.76638 14.4239V0.480445Z" fill="white"/>
</svg>